<svg width="29" height="29" viewBox="0 0 29 29" fill="none" xmlns="http://www.w3.org/2000/svg">
<path d="M23.8701 23.5114C23.9485 23.5956 24.0094 23.6945 24.0492 23.8024C24.0891 23.9103 24.1071 24.025 24.1023 24.1399C24.0975 24.2548 24.07 24.3677 24.0212 24.4718C23.9725 24.576 23.9036 24.6695 23.8185 24.7469C23.7334 24.8242 23.6337 24.8839 23.5254 24.9225C23.417 24.9611 23.3021 24.9777 23.1872 24.9716C23.0724 24.9654 22.9599 24.9365 22.8563 24.8865C22.7527 24.8365 22.66 24.7665 22.5837 24.6804L21.4668 23.4516C21.9249 23.0954 22.3546 22.7042 22.7521 22.2815L23.8701 23.5114ZM7.60328 5.61811L6.48638 4.3893C6.41004 4.30326 6.3174 4.23322 6.2138 4.18325C6.1102 4.13328 5.99772 4.10436 5.88286 4.09818C5.76801 4.092 5.65307 4.10868 5.54471 4.14725C5.43635 4.18582 5.33672 4.24551 5.2516 4.32287C5.16648 4.40023 5.09756 4.49371 5.04883 4.5979C5.00011 4.70209 4.97254 4.81491 4.96774 4.92983C4.96294 5.04475 4.98099 5.15948 5.02086 5.26737C5.06073 5.37526 5.12161 5.47417 5.19998 5.55835L6.31797 6.78825C6.71548 6.36553 7.1452 5.97431 7.60328 5.61811ZM22.7521 22.2815L7.60328 5.61811C9.84897 3.86968 12.672 3.03367 15.5077 3.27732C18.3433 3.52098 20.9823 4.82635 22.8968 6.93225C24.8113 9.03816 25.8601 11.7893 25.8332 14.6352C25.8064 17.4812 24.706 20.2121 22.7521 22.2815ZM17.9031 11.9273C17.7619 11.3801 17.4895 10.8755 17.1093 10.4573C16.7292 10.0391 16.2528 9.71988 15.7215 9.52727C15.5101 9.46711 15.2837 9.48928 15.088 9.58932C14.8923 9.68937 14.7417 9.85985 14.6666 10.0664C14.5916 10.273 14.5976 10.5004 14.6834 10.7028C14.7693 10.9051 14.9286 11.0674 15.1293 11.157C15.3936 11.2534 15.6306 11.4126 15.8198 11.6207C16.0091 11.8289 16.145 12.0799 16.2158 12.3521C16.264 12.5386 16.3727 12.7038 16.5249 12.8218C16.6771 12.9398 16.8642 13.0039 17.0568 13.004C17.1301 13.0042 17.2032 12.9947 17.2741 12.9758C17.4959 12.9191 17.6863 12.7772 17.8041 12.5809C17.9219 12.3845 17.9575 12.1497 17.9031 11.9273ZM21.4885 12.7965C21.4889 11.6785 21.2196 10.5768 20.7036 9.58499C20.1876 8.59316 19.44 7.74039 18.5243 7.09897C17.6085 6.45755 16.5516 6.04641 15.4431 5.9004C14.3347 5.75439 13.2073 5.87782 12.1567 6.26022C11.9547 6.34916 11.794 6.51164 11.7074 6.71469C11.6208 6.91774 11.6147 7.14614 11.6903 7.35353C11.7659 7.56093 11.9177 7.73177 12.1146 7.8314C12.3116 7.93102 12.5392 7.95195 12.751 7.88995C13.5394 7.60296 14.3853 7.51039 15.217 7.62009C16.0487 7.7298 16.8417 8.03853 17.5287 8.5201C18.2156 9.00166 18.7762 9.64185 19.163 10.3863C19.5497 11.1308 19.7511 11.9576 19.7502 12.7965C19.7502 13.027 19.8417 13.2481 20.0047 13.4111C20.1677 13.5741 20.3888 13.6657 20.6193 13.6657C20.8499 13.6657 21.0709 13.5741 21.2339 13.4111C21.397 13.2481 21.4885 13.027 21.4885 12.7965ZM16.708 18.8808C16.1317 18.8808 15.579 18.6519 15.1715 18.2444C14.764 17.8368 14.535 17.2841 14.535 16.7078C14.5337 16.4504 14.5703 16.1941 14.6437 15.9473L12.4218 13.5027C12.2779 13.6068 12.1051 13.6638 11.9275 13.6657C11.697 13.6657 11.4759 13.5741 11.3129 13.4111C11.1499 13.2481 11.0583 13.027 11.0583 12.7965C11.0583 12.557 11.0831 12.3182 11.1322 12.0838L9.79689 10.6148C9.48088 11.2986 9.31809 12.0432 9.31992 12.7965C9.31992 14.0894 10.049 15.0238 10.8214 16.0125C11.582 16.9816 12.3621 17.9845 12.3621 19.3154C12.3619 19.7434 12.4882 20.1619 12.7249 20.5184C12.9617 20.8749 13.2985 21.1536 13.6931 21.3194C14.0877 21.4852 14.5224 21.5308 14.9428 21.4505C15.3632 21.3702 15.7505 21.1676 16.0561 20.868C16.1365 20.783 16.2331 20.7152 16.3403 20.6685C16.4475 20.6218 16.563 20.5972 16.6799 20.5962C16.7968 20.5951 16.9127 20.6177 17.0207 20.6625C17.1287 20.7073 17.2265 20.7735 17.3084 20.857C17.3902 20.9405 17.4543 21.0397 17.4969 21.1485C17.5395 21.2574 17.5597 21.3738 17.5563 21.4906C17.5529 21.6075 17.526 21.7225 17.4771 21.8287C17.4282 21.9349 17.3584 22.0301 17.2719 22.1087C16.7218 22.6476 16.0248 23.012 15.2684 23.1564C14.512 23.3008 13.7299 23.2187 13.0199 22.9204C12.31 22.6221 11.7039 22.1209 11.2777 21.4796C10.8514 20.8383 10.6239 20.0854 10.6237 19.3154C10.6237 18.5831 10.0805 17.8878 9.45139 17.0827C8.61805 16.0157 7.58155 14.6881 7.58155 12.7965C7.58014 11.547 7.91811 10.3205 8.55938 9.24805L6.31797 6.78825C4.3641 8.85768 3.26367 11.5886 3.23683 14.4345C3.20999 17.2804 4.25874 20.0316 6.17323 22.1375C8.08773 24.2434 10.7268 25.5488 13.5624 25.7924C16.398 26.0361 19.2211 25.2001 21.4668 23.4516L17.2512 18.8124C17.0738 18.8582 16.8913 18.8812 16.708 18.8808Z" fill="#F9F3F0"/>
</svg>
