<svg width="29" height="29" viewBox="0 0 29 29" fill="none" xmlns="http://www.w3.org/2000/svg">
    <path d="M22.3573 8.84619V4.97397C22.3573 4.51292 22.1741 4.07076 21.8481 3.74475C21.5221 3.41875 21.0799 3.2356 20.6189 3.2356H8.45029C7.98924 3.2356 7.54708 3.41875 7.22107 3.74475C6.89506 4.07076 6.71191 4.51292 6.71191 4.97397V8.88531C6.71271 9.15515 6.77601 9.42115 6.89684 9.66243C7.01767 9.90371 7.19275 10.1137 7.40835 10.276L13.0863 14.535L7.40726 18.794C7.1918 18.9564 7.01688 19.1664 6.89624 19.4077C6.77559 19.649 6.7125 19.915 6.71191 20.1847V24.0961C6.71191 24.5571 6.89506 24.9993 7.22107 25.3253C7.54708 25.6513 7.98924 25.8344 8.45029 25.8344H20.6189C21.0799 25.8344 21.5221 25.6513 21.8481 25.3253C22.1741 24.9993 22.3573 24.5571 22.3573 24.0961V20.2238C22.3573 19.9549 22.2949 19.6896 22.175 19.4488C22.055 19.2081 21.8809 18.9984 21.6663 18.8364L15.9753 14.535L21.6663 10.2336C21.8806 10.0713 22.0545 9.86159 22.1744 9.62091C22.2943 9.38022 22.3568 9.11508 22.3573 8.84619Z"
          fill="#F9F3F0"/>
</svg>
