<svg width="29" height="29" viewBox="0 0 29 29" fill="none" xmlns="http://www.w3.org/2000/svg">
<path d="M27.512 19.5056C27.5125 19.5005 27.5125 19.4954 27.512 19.4904L25.7312 10.3454C25.7312 10.3389 25.7312 10.3324 25.7312 10.3259C25.4563 8.82443 24.664 7.46678 23.4918 6.48899C22.3197 5.51119 20.842 4.97509 19.3156 4.97388H9.74256C8.21187 4.97329 6.72998 5.51244 5.55753 6.4965C4.38507 7.48057 3.59714 8.84653 3.33231 10.3541L1.56026 19.4904C1.55974 19.4954 1.55974 19.5005 1.56026 19.5056C1.41602 20.3246 1.53658 21.1683 1.90444 21.9141C2.2723 22.6599 2.86831 23.2691 3.60593 23.6532C4.34355 24.0373 5.18439 24.1762 6.00636 24.0499C6.82834 23.9236 7.58866 23.5386 8.17694 22.9508L8.21497 22.9106L12.5272 18.0117H16.5472L20.8616 22.9106C20.8736 22.9247 20.8866 22.9378 20.8997 22.9508C21.6328 23.6824 22.6257 24.0941 23.6615 24.096C24.2324 24.0956 24.7963 23.9703 25.3136 23.7287C25.831 23.4872 26.2891 23.1353 26.656 22.6979C27.0228 22.2604 27.2895 21.7479 27.4372 21.1965C27.5848 20.645 27.61 20.0678 27.5109 19.5056H27.512ZM11.9275 12.7966H11.0583V13.6657C11.0583 13.8963 10.9667 14.1173 10.8037 14.2803C10.6407 14.4433 10.4196 14.5349 10.1891 14.5349C9.95858 14.5349 9.7375 14.4433 9.5745 14.2803C9.41149 14.1173 9.31992 13.8963 9.31992 13.6657V12.7966H8.45073C8.22021 12.7966 7.99913 12.705 7.83613 12.542C7.67312 12.379 7.58155 12.1579 7.58155 11.9274C7.58155 11.6968 7.67312 11.4758 7.83613 11.3128C7.99913 11.1498 8.22021 11.0582 8.45073 11.0582H9.31992V10.189C9.31992 9.95847 9.41149 9.73739 9.5745 9.57439C9.7375 9.41138 9.95858 9.31981 10.1891 9.31981C10.4196 9.31981 10.6407 9.41138 10.8037 9.57439C10.9667 9.73739 11.0583 9.95847 11.0583 10.189V11.0582H11.9275C12.158 11.0582 12.3791 11.1498 12.5421 11.3128C12.7051 11.4758 12.7967 11.6968 12.7967 11.9274C12.7967 12.1579 12.7051 12.379 12.5421 12.542C12.3791 12.705 12.158 12.7966 11.9275 12.7966ZM16.2734 11.9274C16.2734 11.6968 16.365 11.4758 16.528 11.3128C16.691 11.1498 16.9121 11.0582 17.1426 11.0582H19.7502C19.9807 11.0582 20.2018 11.1498 20.3648 11.3128C20.5278 11.4758 20.6193 11.6968 20.6193 11.9274C20.6193 12.1579 20.5278 12.379 20.3648 12.542C20.2018 12.705 19.9807 12.7966 19.7502 12.7966H17.1426C16.9121 12.7966 16.691 12.705 16.528 12.542C16.365 12.379 16.2734 12.1579 16.2734 11.9274ZM25.4401 21.4308C25.2773 21.6652 25.0695 21.865 24.829 22.0185C24.5884 22.172 24.3197 22.2762 24.0385 22.325C23.6984 22.3845 23.3489 22.3624 23.019 22.2606C22.689 22.1588 22.3879 21.9802 22.1404 21.7394L18.8592 18.0117H19.3156C20.4252 18.0118 21.5166 17.7287 22.4863 17.1891C23.4559 16.6495 24.2718 15.8713 24.8566 14.9282L25.8062 19.8174C25.8546 20.0972 25.8471 20.3838 25.7843 20.6607C25.7214 20.9376 25.6044 21.1993 25.4401 21.4308Z" fill="#F9F3F0"/>
</svg>
