<svg xmlns="http://www.w3.org/2000/svg" width="47" height="47" viewBox="0 0 47 47" fill="none">
<g clip-path="url(#clip0_18558_35533)">
<path d="M31.9424 11.5033L27.3806 13.3809C27.4137 13.3171 27.4486 13.2541 27.4792 13.1883C27.7298 12.6748 27.8716 12.1152 27.896 11.5444C27.9204 10.9737 27.8267 10.404 27.6209 9.87108C27.4001 9.28624 27.0622 8.7527 26.6278 8.3032C26.1934 7.8537 25.6717 7.49772 25.0947 7.25713C24.5178 7.01655 23.8977 6.89642 23.2727 6.90412C22.6476 6.91183 22.0307 7.04721 21.4599 7.30195C20.9362 7.53082 20.4654 7.86533 20.0769 8.28454C19.6884 8.70375 19.3907 9.19864 19.2023 9.73823C18.9483 10.5011 18.8149 11.2989 18.807 12.1029C18.2354 11.5375 17.579 11.0647 16.8616 10.7017C16.3479 10.4511 15.788 10.3092 15.217 10.2849C14.646 10.2606 14.0761 10.3545 13.5431 10.5606C12.9583 10.7815 12.4248 11.1196 11.9755 11.5541C11.5261 11.9887 11.1703 12.5105 10.9299 13.0875C10.6894 13.6645 10.5695 14.2846 10.5774 14.9097C10.5853 15.5347 10.7209 16.1516 10.9758 16.7223C11.2047 17.2457 11.5392 17.7163 11.9583 18.1045C12.3774 18.4928 12.8721 18.7903 13.4115 18.9787C13.4786 19.0012 13.5477 19.0214 13.6172 19.0461L9.05538 20.9237C8.50356 21.1509 8.06456 21.5879 7.83498 22.1387C7.60539 22.6895 7.60401 23.309 7.83114 23.8608L9.54396 28.0221C9.77109 28.5739 10.2081 29.0129 10.7589 29.2425C11.3097 29.4721 11.9292 29.4734 12.481 29.2463L15.9066 37.5689C16.1338 38.1207 16.5708 38.5597 17.1216 38.7893C17.6724 39.0189 18.2919 39.0202 18.8437 38.7931L26.6461 35.5816C26.784 35.5248 26.8938 35.4155 26.9512 35.2778C27.0086 35.1401 27.0089 34.9853 26.9521 34.8473L22.0278 22.8836L11.6246 27.1657L9.91178 23.0044L20.315 18.7223L22.0278 22.8836L24.1084 22.0272L22.3956 17.8659L32.7988 13.5839L34.5116 17.7452L24.1084 22.0272L29.0328 33.9909C29.0896 34.1289 29.1988 34.2386 29.3365 34.296C29.4742 34.3534 29.6291 34.3537 29.767 34.297L37.5694 31.0854C38.1213 30.8583 38.5603 30.4213 38.7898 29.8705C39.0194 29.3197 39.0208 28.7002 38.7937 28.1484L35.3681 19.8258C35.9199 19.5987 36.3589 19.1617 36.5885 18.6108C36.818 18.06 36.8194 17.4406 36.5923 16.8888L34.8795 12.7275C34.6523 12.1757 34.2153 11.7367 33.6645 11.5071C33.1137 11.2775 32.4942 11.2761 31.9424 11.5033ZM14.1476 16.8508C13.8979 16.761 13.6695 16.6205 13.4767 16.4381C13.2839 16.2558 13.1308 16.0356 13.0272 15.7913C12.9023 15.5065 12.8355 15.1996 12.8306 14.8886C12.8258 14.5777 12.8831 14.2689 12.9992 13.9803C13.1152 13.6918 13.2877 13.4293 13.5065 13.2083C13.7253 12.9873 13.986 12.8121 14.2733 12.6931L14.337 12.6669C14.5835 12.5686 14.8477 12.5222 15.1129 12.5308C15.3781 12.5394 15.6387 12.6027 15.8783 12.7168C17.4768 13.5005 18.7031 15.3863 19.3586 16.5947C18.0343 16.9831 15.8329 17.4391 14.1476 16.8508ZM25.4611 12.1941C24.6766 13.7944 22.7869 15.0223 21.5734 15.68C21.1656 14.2496 20.771 12.0716 21.3301 10.4743C21.42 10.2246 21.5605 9.99622 21.7428 9.80341C21.9251 9.6106 22.1454 9.45756 22.3897 9.35391L22.4534 9.32769C22.7417 9.2111 23.0504 9.15324 23.3614 9.1575C23.6724 9.16176 23.9795 9.22805 24.2645 9.35248C24.5495 9.47691 24.8069 9.65699 25.0215 9.88216C25.236 10.1073 25.4035 10.373 25.514 10.6638C25.6101 10.9092 25.6548 11.1718 25.6452 11.4352C25.6357 11.6986 25.5721 11.9573 25.4585 12.1952L25.4611 12.1941Z" fill="#292F1E"/>
</g>
<defs>
<clipPath id="clip0_18558_35533">
<rect width="36" height="36" fill="white" transform="translate(0 13.7031) rotate(-22.3724)"/>
</clipPath>
</defs>
</svg>