<svg width="248" height="111" viewBox="0 0 248 111" fill="none" xmlns="http://www.w3.org/2000/svg">
<rect x="2.5625" y="20.0293" width="121.494" height="34.7924" rx="17.3962" transform="rotate(4.22513 2.5625 20.0293)" fill="#1D1B21"/>
<path d="M18.8533 34.2637L18.2345 42.6408L16.4394 42.5082L17.0582 34.131L18.8533 34.2637ZM26.2975 34.8136L26.1738 36.489L23.8281 36.3158L23.333 43.0175L21.5379 42.8849L22.033 36.1831L19.7114 36.0116L19.8351 34.3362L26.2975 34.8136ZM32.2559 35.1094C33.692 35.2155 34.5277 36.1195 34.4508 37.1607C34.3783 38.142 33.4489 38.8314 32.7603 39.3581L33.7614 40.7918L34.508 39.9685L34.5679 39.973L35.3983 41.2737L34.7039 42.0406L35.5951 43.3338L34.3649 44.3499L33.4471 43.0909C32.797 43.5843 32.1544 43.8136 31.0893 43.7349C29.8447 43.6429 28.7564 42.9007 28.8616 41.4766C28.9438 40.3637 29.7047 39.6738 30.6562 39.0101C30.2403 38.45 29.754 37.7041 29.8167 36.8544C29.8954 35.7893 30.8198 35.0033 32.2559 35.1094ZM32.6003 41.8491L31.4733 40.1655C30.9636 40.549 30.5976 40.9431 30.5587 41.4696C30.5225 41.9603 30.9511 42.1845 31.3939 42.2172C31.8606 42.2517 32.3012 42.1519 32.6003 41.8491ZM32.1645 36.5105C31.6499 36.4725 31.4447 36.8062 31.4244 37.0815C31.3996 37.4166 31.6448 37.8438 31.9064 38.2121C32.2609 37.9736 32.763 37.5293 32.7922 37.1344C32.8099 36.8951 32.6791 36.5485 32.1645 36.5105ZM40.0492 35.8295L43.2564 36.0665C45.602 36.2398 47.0247 37.6685 46.8089 40.5885C46.5976 43.4487 45.043 44.6214 42.6376 44.4436L39.4303 44.2067L40.0492 35.8295ZM43.3481 37.7578L41.7205 37.6376L41.3492 42.6639L42.9768 42.7841C44.1256 42.869 44.8962 42.0475 45.0174 40.408C45.1305 38.8762 44.5807 37.8489 43.3481 37.7578ZM50.9734 38.1768C52.7565 38.3085 54.0533 39.8121 53.8977 41.9184C53.8906 42.0141 53.8698 42.1329 53.8627 42.2286L53.8504 42.3962L49.2668 42.0576C49.2058 42.8833 49.83 43.5551 50.6797 43.6179C51.4935 43.678 52.277 43.1704 52.5996 42.7129L52.6834 42.7191L53.3432 44.2118C53.0618 44.6001 52.0128 45.2807 50.5648 45.1737C48.638 45.0313 47.3958 43.6039 47.5523 41.4857C47.7106 39.3435 49.1783 38.0441 50.9734 38.1768ZM50.8585 39.7325C49.9609 39.6662 49.5129 40.3551 49.3845 40.7908L52.1609 40.9959C52.1338 40.5487 51.768 39.7997 50.8585 39.7325ZM61.2585 39.081L58.3819 45.6068L56.2277 45.4476L54.3533 38.5708L56.2561 38.7114L57.4095 43.9466L57.4335 43.9484L59.3557 38.9404L61.2585 39.081ZM64.6365 39.1861C66.4197 39.3179 67.7164 40.8215 67.5608 42.9278C67.5537 43.0235 67.5329 43.1423 67.5258 43.238L67.5135 43.4056L62.93 43.067C62.869 43.8927 63.4932 44.5645 64.3428 44.6273C65.1566 44.6874 65.9402 44.1798 66.2627 43.7223L66.3465 43.7285L67.0063 45.2211C66.7249 45.6095 65.676 46.29 64.2279 46.1831C62.3012 46.0407 61.0589 44.6133 61.2154 42.4951C61.3737 40.3529 62.8414 39.0535 64.6365 39.1861ZM64.5216 40.7419C63.624 40.6756 63.1761 41.3645 63.0476 41.8002L65.824 42.0053C65.7969 41.5581 65.4311 40.8091 64.5216 40.7419ZM70.7447 37.5918L70.0887 46.4716L68.4133 46.3479L69.0693 37.4681L70.7447 37.5918ZM74.9836 39.9506C76.8864 40.0911 78.1495 41.7246 78.0001 43.7471C77.856 45.6978 76.4659 47.0872 74.4553 46.9386C72.4807 46.7927 71.2841 45.2364 71.43 43.2617C71.5803 41.2273 73.0808 39.81 74.9836 39.9506ZM74.8687 41.5063C73.8754 41.4329 73.1833 42.3324 73.1046 43.3975C73.0268 44.4506 73.6009 45.3112 74.5583 45.382C75.5636 45.4562 76.2513 44.6166 76.3265 43.5994C76.4025 42.5702 75.862 41.5797 74.8687 41.5063ZM82.8866 40.5344C84.5979 40.6608 85.596 42.2988 85.4501 44.2734C85.3042 46.248 84.1295 47.6533 82.3583 47.5225C81.6044 47.4668 80.9377 47.0445 80.6406 46.5051L80.5927 46.5016L80.3743 49.4576L78.6989 49.3338L79.3576 40.4181L80.7219 40.5189L80.7641 41.4124L80.8 41.4151C81.0894 40.919 81.7976 40.4539 82.8866 40.5344ZM82.4126 42.0636C81.4433 41.992 80.8114 42.7275 80.723 43.9242C80.6346 45.1209 81.2167 45.8739 82.1262 45.9411C83.0357 46.0083 83.6942 45.2387 83.7747 44.1496C83.8525 43.0965 83.37 42.1344 82.4126 42.0636ZM94.1373 41.3656C96.1479 41.5141 96.4642 42.9333 96.3943 43.8787L96.061 48.3904L94.3856 48.2666L94.6676 44.449C94.7392 43.4797 94.4054 42.9496 93.7352 42.9001C92.8257 42.8329 92.3525 43.7004 92.2791 44.6937L92.028 48.0924L90.3526 47.9687L90.6355 44.1391C90.7071 43.1697 90.3963 42.6534 89.7142 42.603C88.7807 42.5341 88.3075 43.4016 88.2341 44.3949L87.983 47.7936L86.3076 47.6698L86.8027 40.9681L88.167 41.0689L88.2093 41.9624L88.2571 41.966C88.7383 41.3156 89.2786 41.0066 90.224 41.0765C91.1694 41.1463 91.7316 41.6812 92.0043 42.3872L92.0402 42.3898C92.4642 41.6992 93.2278 41.2984 94.1373 41.3656ZM100.705 41.8508C102.488 41.9825 103.785 43.4861 103.629 45.5924C103.622 45.6881 103.601 45.8069 103.594 45.9026L103.582 46.0702L98.9985 45.7316C98.9375 46.5573 99.5617 47.2291 100.411 47.2919C101.225 47.352 102.009 46.8444 102.331 46.3869L102.415 46.3931L103.075 47.8858C102.794 48.2741 101.745 48.9547 100.296 48.8477C98.3697 48.7053 97.1275 47.2779 97.284 45.1597C97.4423 43.0175 98.91 41.7181 100.705 41.8508ZM100.59 43.4065C99.6926 43.3402 99.2446 44.0291 99.1162 44.4648L101.893 44.6699C101.865 44.2227 101.5 43.4737 100.59 43.4065ZM108.458 42.4235C110.181 42.5508 110.929 43.665 110.835 44.9455L110.501 49.4572L108.826 49.3334L109.12 45.3602C109.188 44.4388 108.762 44.0102 108.08 43.9598C107.087 43.8865 106.488 44.6605 106.407 45.7495L106.157 49.1363L104.482 49.0125L104.977 42.3107L106.341 42.4115L106.384 43.3051L106.419 43.3077C106.887 42.6805 107.632 42.3625 108.458 42.4235ZM114.726 41.3464L114.602 43.0218L116.493 43.1615L116.378 44.7173L114.523 44.5802L114.299 47.608C114.271 47.9909 114.393 48.1323 114.692 48.1544C114.979 48.1756 115.301 48.055 115.591 47.8719L115.675 47.8781L115.96 49.5596C115.647 49.729 114.982 49.9326 114.264 49.8795C113.247 49.8044 112.496 49.2195 112.593 47.9031L112.848 44.4565L111.747 44.3751L111.818 43.4058C112.719 43.0993 113.346 42.2672 113.709 41.2712L114.726 41.3464Z" fill="white"/>
<rect y="65.4668" width="96.6094" height="34.7924" rx="17.3962" transform="rotate(-3.94591 0 65.4668)" fill="#FEEC8D"/>
<path d="M16.4088 77.3623L19.6172 77.141C21.9636 76.9792 23.5748 78.1912 23.7763 81.1122C23.9737 83.9734 22.6015 85.3551 20.1952 85.5211L16.9868 85.7424L16.4088 77.3623ZM19.9483 78.8022L18.3201 78.9145L18.6669 83.9425L20.2951 83.8302C21.4443 83.751 22.0904 82.8283 21.9773 81.1882C21.8716 79.6559 21.1813 78.7171 19.9483 78.8022ZM27.2684 78.1529C28.7648 78.0497 30.0214 78.8291 30.1404 80.553L30.4343 84.8148L29.1294 84.9048L28.9007 84.0305L28.8648 84.033C28.5391 84.717 27.8943 85.1344 26.9725 85.198C25.5838 85.2938 24.887 84.6081 24.8085 83.4708C24.7367 82.4293 25.225 81.6618 26.6975 81.2114C28.2435 80.78 28.4961 80.6062 28.4722 80.2591C28.4458 79.876 28.113 79.5862 27.3588 79.6382C26.6046 79.6902 25.9825 80.2624 25.6097 80.9617L25.5259 80.9675L24.6289 79.6461C25.1395 78.8531 26.0353 78.238 27.2684 78.1529ZM28.5882 81.7667L28.5643 81.7683C28.4722 82.0032 28.0152 82.1791 27.2973 82.409C26.5795 82.639 26.3916 82.8804 26.4139 83.2037C26.4362 83.5269 26.6777 83.7147 27.1686 83.6809C27.9946 83.6239 28.6799 83.0955 28.6377 82.4849L28.5882 81.7667ZM33.3419 76.1943L33.4575 77.8703L35.349 77.7399L35.4564 79.2962L33.6008 79.4242L33.8097 82.453C33.8361 82.8361 33.9769 82.9587 34.2762 82.938C34.5635 82.9182 34.8648 82.7531 35.1261 82.5306L35.2099 82.5248L35.7309 84.1488C35.4449 84.361 34.8157 84.657 34.0974 84.7065C33.0799 84.7767 32.2534 84.3044 32.1626 82.9876L31.9247 79.5398L30.8234 79.6157L30.7565 78.646C31.6048 78.2146 32.1072 77.3019 32.3243 76.2645L33.3419 76.1943ZM38.8903 77.3512C40.3868 77.248 41.6434 78.0274 41.7623 79.7513L42.0563 84.0132L40.7514 84.1032L40.5227 83.2289L40.4868 83.2313C40.1611 83.9154 39.5163 84.3327 38.5944 84.3963C37.2057 84.4921 36.5089 83.8064 36.4305 82.6691C36.3586 81.6276 36.847 80.8602 38.3195 80.4098C39.8654 79.9784 40.1181 79.8046 40.0941 79.4574C40.0677 79.0743 39.735 78.7845 38.9808 78.8365C38.2266 78.8886 37.6045 79.4607 37.2317 80.16L37.1479 80.1658L36.2508 78.8444C36.7615 78.0514 37.6573 77.4363 38.8903 77.3512ZM40.2101 80.965L40.1862 80.9666C40.0942 81.2015 39.6372 81.3774 38.9193 81.6073C38.2014 81.8373 38.0136 82.0788 38.0359 82.402C38.0582 82.7253 38.2997 82.9131 38.7905 82.8792C39.6165 82.8222 40.3018 82.2938 40.2597 81.6833L40.2101 80.965ZM48.294 75.0186C49.9939 74.9013 51.199 75.8046 51.6258 76.4126L50.8774 77.9438L50.7936 77.9495C50.29 77.2746 49.4614 76.598 48.4199 76.6699C47.7375 76.7169 47.3759 77.0546 47.4114 77.5694C47.4535 78.1799 48.3072 78.3496 49.2319 78.5023C51.0103 78.8247 52.1745 79.3097 52.2868 80.9379C52.3917 82.4583 51.2981 83.52 49.4186 83.6497C47.6588 83.7711 46.3832 83.0652 45.7198 82.3411L46.3807 80.5875L46.4645 80.5817C46.9896 81.2191 48.0324 82.0373 49.3373 81.9472C49.876 81.9101 50.5348 81.6962 50.4911 81.0617C50.4498 80.4632 49.8859 80.3096 48.4972 80.0566C46.8529 79.761 45.7255 79.2855 45.6173 77.7172C45.5249 76.3764 46.5222 75.1408 48.294 75.0186ZM55.9698 76.1731C57.4303 76.0724 58.391 76.9203 58.8566 77.7422L57.7218 78.903L57.638 78.9088C57.3466 78.1711 56.8074 77.6791 56.0891 77.7286C55.1314 77.7947 54.563 78.7962 54.6348 79.8377C54.705 80.8553 55.3631 81.6759 56.3208 81.6099C57.2426 81.5463 57.7487 80.8618 57.8217 80.0028L57.9055 79.997L59.2934 80.9357C58.9265 82.0677 58.0682 83.053 56.4281 83.1662C54.369 83.3082 53.0901 81.8568 52.958 79.9413C52.8127 77.8343 54.1023 76.302 55.9698 76.1731ZM61.4347 75.9405L61.8972 82.6446L60.2212 82.7602L59.7587 76.0561L61.4347 75.9405ZM60.3903 73.0054C61.0727 72.9584 61.4966 73.3501 61.542 74.0086C61.5858 74.643 61.2213 75.1132 60.5389 75.1603C59.8206 75.2099 59.407 74.7933 59.3632 74.1588C59.3178 73.5004 59.672 73.055 60.3903 73.0054ZM65.6839 75.5031C67.4677 75.38 68.9649 76.6841 69.1103 78.7911C69.1169 78.8869 69.1132 79.0074 69.1198 79.1032L69.1313 79.2708L64.5462 79.587C64.6032 80.4131 65.3166 80.9894 66.1665 80.9307C66.9806 80.8746 67.684 80.2607 67.9383 79.762L68.0221 79.7563L68.8874 81.14C68.6641 81.5644 67.7225 82.3871 66.2739 82.487C64.3465 82.62 62.914 81.3836 62.7678 79.2647C62.62 77.1218 63.8882 75.6269 65.6839 75.5031ZM65.7912 77.0594C64.8934 77.1213 64.5479 77.8669 64.4826 78.3164L67.26 78.1248C67.1696 77.686 66.7011 76.9966 65.7912 77.0594ZM73.4396 74.9681C75.1635 74.8492 76.0622 75.8457 76.1506 77.1267L76.4619 81.6399L74.7859 81.7556L74.5117 77.781C74.4481 76.8592 73.9659 76.4955 73.2836 76.5426C72.2899 76.6111 71.8074 77.4623 71.8825 78.5518L72.1162 81.9397L70.4402 82.0553L69.9777 75.3512L71.3425 75.2571L71.5114 76.1356L71.5473 76.1331C71.9209 75.4457 72.6136 75.0251 73.4396 74.9681ZM80.2308 74.4997C81.6914 74.3989 82.652 75.2468 83.1176 76.0687L81.9828 77.2296L81.899 77.2353C81.6076 76.4977 81.0684 76.0056 80.3502 76.0551C79.3924 76.1212 78.824 77.1227 78.8958 78.1642C78.966 79.1818 79.6241 80.0025 80.5818 79.9364C81.5036 79.8728 82.0097 79.1884 82.0828 78.3293L82.1666 78.3235L83.5544 79.2622C83.1875 80.3942 82.3292 81.3796 80.6891 81.4927C78.63 81.6347 77.3511 80.1833 77.219 78.2678C77.0737 76.1609 78.3633 74.6285 80.2308 74.4997ZM86.8112 74.0458C88.5949 73.9227 90.0922 75.2268 90.2375 77.3338C90.2442 77.4295 90.2404 77.5501 90.247 77.6459L90.2586 77.8135L85.6735 78.1297C85.7305 78.9558 86.4438 79.532 87.2938 79.4734C88.1079 79.4173 88.8113 78.8034 89.0656 78.3047L89.1494 78.2989L90.0147 79.6827C89.7913 80.107 88.8497 80.9298 87.4012 81.0297C85.4737 81.1627 84.0413 79.9263 83.8951 77.8073C83.7473 75.6644 85.0154 74.1696 86.8112 74.0458ZM86.9185 75.6021C86.0206 75.664 85.6751 76.4095 85.6099 76.8591L88.3873 76.6675C88.2969 76.2287 87.8284 75.5393 86.9185 75.6021Z" fill="#575131"/>
<g clip-path="url(#clip0_3514_60212)">
<rect x="119.305" y="29.8711" width="126.617" height="34.7924" rx="17.3962" transform="rotate(-13.1813 119.305 29.8711)" fill="#DFB19D"/>
<path d="M141.156 37.9531C142.85 37.5563 144.078 38.378 144.772 39.2383L143.864 40.782L143.782 40.8012C143.135 39.8805 142.474 39.3699 141.539 39.5889C140.289 39.8816 139.739 41.2182 140.087 42.7021C140.393 44.0106 141.323 45.087 142.69 44.7668C143.66 44.5397 144.128 43.752 144.205 42.3415L144.287 42.3223L145.986 43.1074C145.835 44.6711 144.831 46.0154 143.043 46.4341C140.321 47.0717 138.788 45.052 138.348 43.1709C137.809 40.8692 138.854 38.4922 141.156 37.9531ZM148.621 37.9302C150.479 37.4951 152.172 38.676 152.635 40.6506C153.081 42.555 152.17 44.2966 150.207 44.7563C148.279 45.2078 146.672 44.0807 146.221 42.1528C145.755 40.1666 146.763 38.3653 148.621 37.9302ZM148.977 39.4491C148.007 39.6762 147.615 40.7416 147.859 41.7814C148.1 42.8096 148.905 43.4591 149.84 43.2402C150.821 43.0103 151.226 42.0034 150.994 41.0103C150.758 40.0055 149.946 39.222 148.977 39.4491ZM160.052 35.253C162.015 34.7933 162.741 36.0528 162.957 36.9759L163.989 41.3807L162.353 41.7638L161.48 38.0366C161.259 37.0902 160.782 36.6843 160.127 36.8376C159.239 37.0455 159.047 38.0149 159.274 38.9846L160.052 42.3028L158.416 42.6859L157.54 38.9471C157.319 38.0007 156.868 37.601 156.202 37.757C155.29 37.9704 155.098 38.9398 155.325 39.9095L156.102 43.2277L154.467 43.6108L152.934 37.0679L154.266 36.7559L154.574 37.5959L154.621 37.585C154.885 36.8205 155.308 36.364 156.231 36.1478C157.154 35.9316 157.851 36.2738 158.322 36.8659L158.357 36.8577C158.555 36.0719 159.164 35.461 160.052 35.253ZM167.165 33.5871C168.836 33.1958 170.278 34.4602 170.73 36.388C171.181 38.3158 170.481 40.0082 168.752 40.4132C168.016 40.5856 167.253 40.3821 166.808 39.9563L166.761 39.9672L167.437 42.8531L165.802 43.2362L163.763 34.5318L165.095 34.2198L165.403 35.0598L165.438 35.0516C165.565 34.4917 166.102 33.8361 167.165 33.5871ZM167.17 35.188C166.224 35.4097 165.841 36.3005 166.115 37.4689C166.388 38.6373 167.169 39.1816 168.057 38.9736C168.945 38.7656 169.343 37.8343 169.094 36.7711C168.853 35.7429 168.105 34.9691 167.17 35.188ZM176.418 31.5679L177.95 38.1109L176.677 38.4091L176.311 37.5828L176.276 37.5911C176.147 38.2499 175.518 38.8285 174.758 39.0063C173.298 39.3484 172.239 38.5117 171.947 37.2616L170.915 32.8568L172.551 32.4737L173.424 36.2008C173.653 37.1823 174.029 37.575 174.671 37.4245C175.536 37.222 175.792 36.2624 175.557 35.2575L174.782 31.951L176.418 31.5679ZM179.669 29.081L180.052 30.7167L181.898 30.2844L182.254 31.8033L180.443 32.2274L181.135 35.1834C181.223 35.5573 181.382 35.6558 181.674 35.5873C181.954 35.5217 182.225 35.3103 182.447 35.0488L182.529 35.0296L183.304 36.5489C183.056 36.8043 182.482 37.1974 181.781 37.3616C180.788 37.5942 179.896 37.2607 179.595 35.9755L178.807 32.6105L177.732 32.8623L177.511 31.9159C178.279 31.3539 178.628 30.3724 178.676 29.3136L179.669 29.081ZM185.384 29.3202C187.124 28.9125 188.812 29.9594 189.293 32.0157C189.315 32.1092 189.331 32.2288 189.353 32.3222L189.391 32.4858L184.916 33.5338C185.105 34.34 185.902 34.7944 186.731 34.6001C187.526 34.414 188.121 33.6952 188.292 33.1622L188.374 33.143L189.45 34.3699C189.298 34.8247 188.501 35.7879 187.087 36.119C185.206 36.5595 183.593 35.5691 183.109 33.5011C182.619 31.4097 183.631 29.7307 185.384 29.3202ZM185.739 30.8391C184.863 31.0444 184.642 31.8357 184.649 32.2899L187.36 31.655C187.2 31.2364 186.627 30.6312 185.739 30.8391ZM192.474 27.6597C192.953 27.5475 193.42 27.6476 193.716 27.9111L193.823 29.5252L193.741 29.5444C193.514 29.3634 193.126 29.2325 192.717 29.3282C191.887 29.5225 191.748 30.2947 191.986 31.3112L192.766 34.6411L191.13 35.0242L189.597 28.4812L190.929 28.1693L191.237 29.0093L191.272 29.001C191.409 28.3773 191.738 27.8321 192.474 27.6597ZM199.294 24.3369C200.953 23.9483 202.287 24.6465 202.806 25.1781L202.313 26.8095L202.232 26.8287C201.626 26.2433 200.7 25.7085 199.683 25.9465C199.017 26.1025 198.715 26.4939 198.832 26.9963C198.972 27.5921 199.842 27.6226 200.779 27.6249C202.586 27.6577 203.813 27.9496 204.185 29.5386C204.533 31.0225 203.624 32.246 201.789 32.6756C200.072 33.0779 198.699 32.5858 197.928 31.9776L198.299 30.1407L198.381 30.1215C199.002 30.6663 200.162 31.3066 201.436 31.0083C201.961 30.8852 202.577 30.5683 202.432 29.9491C202.296 29.3649 201.714 29.3038 200.303 29.277C198.633 29.2491 197.444 28.9607 197.085 27.4301C196.779 26.1215 197.565 24.7419 199.294 24.3369ZM207.056 24.2446C208.481 23.9107 209.565 24.5935 210.157 25.33L209.223 26.6579L209.141 26.6771C208.735 25.9957 208.124 25.5965 207.423 25.7607C206.488 25.9796 206.088 27.0594 206.326 28.0759C206.559 29.069 207.34 29.7734 208.275 29.5545C209.174 29.3438 209.564 28.587 209.498 27.7273L209.58 27.7082L211.1 28.412C210.92 29.5881 210.231 30.6985 208.63 31.0734C206.621 31.5441 205.125 30.3167 204.688 28.4473C204.206 26.3909 205.233 24.6714 207.056 24.2446ZM212.412 23.1379L213.945 29.6808L212.309 30.0639L210.777 23.521L212.412 23.1379ZM210.91 20.4085C211.576 20.2525 212.058 20.5711 212.208 21.2137C212.353 21.833 212.069 22.3556 211.403 22.5116C210.702 22.6757 210.227 22.331 210.082 21.7118C209.931 21.0692 210.209 20.5727 210.91 20.4085ZM216.536 22.0242C218.277 21.6164 219.964 22.6633 220.446 24.7196C220.468 24.8131 220.483 24.9327 220.505 25.0262L220.544 25.1897L216.069 26.2378C216.258 27.044 217.054 27.4983 217.884 27.304C218.678 27.1179 219.274 26.3991 219.445 25.8661L219.527 25.8469L220.603 27.0739C220.451 27.5286 219.653 28.4918 218.239 28.8229C216.358 29.2635 214.746 28.273 214.262 26.205C213.772 24.1136 214.784 22.4346 216.536 22.0242ZM216.892 23.5431C216.016 23.7483 215.794 24.5396 215.802 24.9938L218.513 24.359C218.353 23.9403 217.78 23.3351 216.892 23.5431ZM224.105 20.2514C225.788 19.8574 226.835 20.6967 227.128 21.9469L228.159 26.3517L226.524 26.7348L225.615 22.8558C225.404 21.9561 224.87 21.6745 224.204 21.8305C223.234 22.0576 222.895 22.9753 223.144 24.0385L223.918 27.345L222.282 27.7281L220.75 21.1852L222.082 20.8732L222.39 21.7132L222.425 21.705C222.683 20.9666 223.299 20.4402 224.105 20.2514ZM230.734 18.6991C232.159 18.3652 233.243 19.048 233.835 19.7845L232.901 21.1124L232.819 21.1316C232.413 20.4502 231.802 20.0511 231.101 20.2152C230.166 20.4342 229.766 21.5139 230.004 22.5304C230.237 23.5235 231.018 24.2279 231.952 24.009C232.852 23.7983 233.242 23.0415 233.176 22.1819L233.258 22.1627L234.778 22.8665C234.598 24.0427 233.909 25.153 232.308 25.5279C230.299 25.9986 228.803 24.7712 228.365 22.9018C227.884 20.8454 228.911 19.126 230.734 18.6991ZM237.156 17.195C238.897 16.7873 240.584 17.8341 241.065 19.8905C241.087 19.9839 241.103 20.1035 241.125 20.197L241.163 20.3606L236.688 21.4086C236.877 22.2148 237.674 22.6691 238.503 22.4748C239.298 22.2887 239.893 21.5699 240.064 21.0369L240.146 21.0178L241.222 22.2447C241.07 22.6994 240.273 23.6626 238.859 23.9937C236.978 24.4343 235.365 23.4438 234.881 21.3758C234.391 19.2844 235.403 17.6054 237.156 17.195ZM237.511 18.7139C236.635 18.9191 236.414 19.7104 236.422 20.1646L239.132 19.5298C238.973 19.1112 238.399 18.5059 237.511 18.7139Z" fill="#43332D"/>
</g>
<rect x="98.5547" y="65.4043" width="85.631" height="34.7924" rx="17.3962" transform="rotate(6.8399 98.5547 65.4043)" fill="#B5CECD"/>
<path d="M119.156 80.9656L118.156 89.3058L116.368 89.0915L116.78 85.6601L113.599 85.2785L113.187 88.7099L111.4 88.4955L112.4 80.1553L114.188 80.3697L113.792 83.67L116.973 84.0516L117.369 80.7512L119.156 80.9656ZM123.334 83.0138C125.109 83.2267 126.336 84.788 126.085 86.8849C126.073 86.9802 126.047 87.098 126.036 87.1933L126.016 87.3601L121.452 86.8127C121.354 87.6348 121.947 88.3344 122.793 88.4359C123.603 88.5331 124.409 88.0617 124.752 87.6194L124.835 87.6294L125.426 89.1506C125.127 89.5257 124.048 90.1577 122.607 89.9848C120.689 89.7547 119.513 88.2721 119.766 86.1632C120.022 84.0305 121.547 82.7994 123.334 83.0138ZM123.148 84.5627C122.255 84.4555 121.776 85.1232 121.628 85.5526L124.392 85.8842C124.385 85.4362 124.054 84.6713 123.148 84.5627ZM130.1 83.8253C131.589 84.004 132.678 85.0047 132.472 86.7204L131.963 90.962L130.664 90.8063L130.603 89.9046L130.568 89.9003C130.12 90.5113 129.408 90.8006 128.491 90.6906C127.109 90.5248 126.552 89.7208 126.688 88.5889C126.813 87.5524 127.436 86.8899 128.967 86.723C130.566 86.5885 130.847 86.4651 130.888 86.1196C130.934 85.7383 130.661 85.3913 129.911 85.3013C129.16 85.2113 128.442 85.6569 127.945 86.2741L127.861 86.2641L127.228 84.7982C127.878 84.1147 128.873 83.6781 130.1 83.8253ZM130.72 87.6222L130.696 87.6194C130.562 87.8329 130.08 87.9201 129.332 88.0117C128.584 88.1032 128.354 88.3053 128.315 88.627C128.277 88.9487 128.479 89.1784 128.967 89.237C129.789 89.3356 130.561 88.9447 130.634 88.3371L130.72 87.6222ZM136.025 82.4814L134.965 91.3221L133.297 91.122L134.357 82.2814L136.025 82.4814ZM139.668 83.426L139.468 85.094L141.35 85.3198L141.164 86.8687L139.318 86.6472L138.956 89.6616C138.91 90.0429 139.026 90.1896 139.323 90.2254C139.609 90.2597 139.936 90.1539 140.235 89.9842L140.318 89.9942L140.526 91.687C140.205 91.8419 139.532 92.0149 138.817 91.9292C137.804 91.8077 137.081 91.1891 137.238 89.8785L137.65 86.4471L136.553 86.3156L136.669 85.3506C137.583 85.0855 138.248 84.2829 138.655 83.3045L139.668 83.426ZM144.311 83.4753L143.94 86.5612L143.964 86.564C144.513 85.9168 145.271 85.6451 146.129 85.748C147.571 85.9209 148.206 87.0728 148.053 88.3477L147.516 92.8275L145.848 92.6275L146.302 88.8386C146.382 88.1714 146.301 87.3398 145.371 87.2283C144.227 87.0911 143.733 88.2888 143.653 88.956L143.25 92.3159L141.582 92.1158L142.643 83.2752L144.311 83.4753ZM152.556 86.5189C154.009 86.6932 154.794 87.7059 155.098 88.6005L153.766 89.5284L153.682 89.5184C153.534 88.7392 153.097 88.155 152.382 88.0692C151.429 87.9549 150.683 88.8323 150.558 89.8689C150.437 90.8816 150.93 91.8109 151.883 91.9252C152.8 92.0353 153.426 91.4576 153.658 90.6274L153.742 90.6374L154.929 91.8193C154.357 92.8626 153.329 93.6699 151.697 93.4741C149.648 93.2283 148.663 91.5632 148.892 89.6569C149.143 87.5599 150.697 86.2959 152.556 86.5189ZM158.819 87.2701C160.308 87.4488 161.397 88.4495 161.191 90.1652L160.682 94.4068L159.383 94.2511L159.322 93.3494L159.286 93.3451C158.839 93.9561 158.127 94.2454 157.21 94.1354C155.827 93.9696 155.271 93.1656 155.407 92.0337C155.531 90.9972 156.155 90.3347 157.685 90.1678C159.285 90.0333 159.566 89.9099 159.607 89.5643C159.653 89.1831 159.38 88.8361 158.63 88.7461C157.879 88.6561 157.161 89.1017 156.664 89.7189L156.58 89.7089L155.946 88.243C156.596 87.5595 157.591 87.1229 158.819 87.2701ZM159.439 91.067L159.415 91.0642C159.281 91.2777 158.799 91.3649 158.051 91.4565C157.302 91.548 157.073 91.7501 157.034 92.0718C156.995 92.3935 157.198 92.6232 157.686 92.6818C158.508 92.7804 159.28 92.3895 159.353 91.7819L159.439 91.067ZM165.8 88.1075C166.288 88.1661 166.693 88.4201 166.881 88.7689L166.428 90.3221L166.345 90.3121C166.193 90.0643 165.874 89.8084 165.457 89.7584C164.611 89.6569 164.215 90.3346 164.091 91.3712L163.683 94.7669L162.015 94.5668L162.816 87.8946L164.174 88.0575L164.176 88.9521L164.211 88.9564C164.554 88.4173 165.049 88.0175 165.8 88.1075ZM170.357 88.6542C172.132 88.8671 173.359 90.4283 173.108 92.5253C173.096 92.6206 173.07 92.7383 173.059 92.8336L173.039 93.0004L168.475 92.4531C168.377 93.2752 168.97 93.9748 169.815 94.0762C170.626 94.1734 171.432 93.702 171.775 93.2598L171.858 93.2698L172.449 94.791C172.15 95.1661 171.071 95.7981 169.63 95.6251C167.711 95.395 166.536 93.9125 166.789 91.8036C167.044 89.6709 168.57 88.4398 170.357 88.6542ZM170.171 90.2031C169.278 90.0959 168.799 90.7636 168.651 91.193L171.415 91.5245C171.408 91.0766 171.077 90.3117 170.171 90.2031Z" fill="#2D3737"/>
<rect x="173.086" y="47.873" width="84.1672" height="34.7924" rx="17.3962" transform="rotate(7.11559 173.086 47.873)" fill="#BACFE8"/>
<path d="M188.889 62.9421L188.057 69.6104L191.176 69.9998L190.968 71.6669L186.062 71.0545L187.103 62.7192L188.889 62.9421ZM194.327 65.3141L193.495 71.9823L191.828 71.7742L192.66 65.106L194.327 65.3141ZM193.865 62.2331C194.544 62.3178 194.885 62.7837 194.803 63.4386C194.724 64.0697 194.277 64.4612 193.598 64.3765C192.883 64.2873 192.557 63.7991 192.636 63.168C192.718 62.5131 193.151 62.1439 193.865 62.2331ZM199.248 65.7832C200.963 65.9973 201.654 67.1477 201.495 68.4218L200.934 72.911L199.267 72.7029L199.761 68.7496C199.875 67.8327 199.472 67.3833 198.793 67.2985C197.805 67.1751 197.168 67.918 197.032 69.0016L196.612 72.3714L194.945 72.1633L195.777 65.4951L197.135 65.6645L197.132 66.5591L197.168 66.5635C197.666 65.9606 198.427 65.6807 199.248 65.7832ZM205.622 66.5789C206.575 66.6978 207.19 67.2946 207.376 67.8378L207.411 67.8423L207.629 66.9745L208.927 67.1365L208.173 73.1737C207.877 75.5433 206.051 75.9321 204.693 75.7626C203.562 75.6214 202.702 75.0544 202.257 74.4547L203.008 73.0852L203.091 73.0956C203.554 73.6492 204.053 74.1106 204.827 74.2072C205.696 74.3157 206.315 74.006 206.445 72.97L206.535 72.2437L206.488 72.2377C206.149 72.6307 205.532 72.9166 204.675 72.8096C203.091 72.6119 202.139 71.2353 202.359 69.4729C202.599 67.5439 204.062 66.3842 205.622 66.5789ZM205.703 68.1611C204.691 68.0347 204.142 68.849 204.043 69.6349C203.947 70.4089 204.285 71.1888 205.333 71.3196C206.226 71.4311 206.815 70.9725 206.934 70.0199C207.047 69.1149 206.655 68.28 205.703 68.1611ZM215.873 68.0037L215.041 74.6719L213.743 74.5099L213.686 73.6079L213.65 73.6035C213.301 74.1766 212.51 74.5012 211.736 74.4046C210.248 74.2188 209.545 73.0668 209.704 71.7927L210.265 67.3036L211.932 67.5117L211.457 71.3102C211.333 72.3104 211.549 72.809 212.203 72.8908C213.085 73.0008 213.658 72.1895 213.785 71.1654L214.206 67.7956L215.873 68.0037ZM218.994 68.3932L218.161 75.0615L216.494 74.8534L217.326 68.1851L218.994 68.3932ZM218.532 65.3123C219.21 65.397 219.551 65.8628 219.47 66.5177C219.391 67.1488 218.943 67.5404 218.264 67.4556C217.55 67.3665 217.224 66.8783 217.302 66.2472C217.384 65.5923 217.817 65.2231 218.532 65.3123ZM222.736 68.7152C224.117 68.8877 224.994 69.8074 225.287 70.2672L224.436 71.5638L224.353 71.5534C223.858 70.7661 223.193 70.284 222.586 70.2082C221.978 70.1323 221.667 70.3958 221.632 70.6816C221.593 70.9912 221.67 71.146 222.825 71.5804C224.445 72.1696 225.231 72.7514 225.07 74.0374C224.916 75.2758 223.666 75.8937 222.201 75.7109C220.76 75.531 219.812 74.7959 219.383 74.1619L220.237 72.8415L220.321 72.852C220.79 73.4547 221.465 74.047 222.275 74.148C223.025 74.2417 223.372 74.0794 223.415 73.7341C223.454 73.4245 223.293 73.2593 222.055 72.8145C220.517 72.2476 219.892 71.5407 220.028 70.4452C220.164 69.3616 221.176 68.5205 222.736 68.7152ZM228.996 67.9488L228.788 69.6159L230.669 69.8507L230.476 71.3987L228.63 71.1683L228.254 74.1809C228.207 74.562 228.321 74.7093 228.619 74.7465C228.905 74.7822 229.232 74.6779 229.531 74.5097L229.615 74.5201L229.814 76.2139C229.493 76.3672 228.819 76.537 228.104 76.4478C227.092 76.3215 226.372 75.6994 226.535 74.3896L226.963 70.9602L225.868 70.8235L225.988 69.859C226.904 69.5983 227.572 68.7989 227.984 67.8225L228.996 67.9488ZM233.368 70.1876L232.536 76.8559L230.869 76.6478L231.701 69.9795L233.368 70.1876ZM232.906 67.1067C233.585 67.1914 233.926 67.6572 233.844 68.3122C233.765 68.9433 233.317 69.3348 232.639 69.2501C231.924 69.1609 231.598 68.6727 231.677 68.0416C231.759 67.3867 232.192 67.0175 232.906 67.1067ZM237.717 70.5855C239.17 70.7668 239.95 71.7833 240.25 72.6793L238.913 73.6008L238.83 73.5904C238.685 72.8105 238.251 72.2241 237.536 72.1349C236.583 72.016 235.833 72.8898 235.704 73.9258C235.578 74.938 236.066 75.8696 237.019 75.9885C237.936 76.103 238.564 75.5284 238.8 74.6993L238.884 74.7097L240.066 75.8972C239.488 76.9377 238.457 77.7402 236.826 77.5365C234.777 77.2809 233.801 75.611 234.039 73.7058C234.3 71.6101 235.86 70.3536 237.717 70.5855ZM243.751 71.3386C245.132 71.511 246.009 72.4307 246.302 72.8906L245.451 74.1872L245.367 74.1767C244.873 73.3895 244.208 72.9073 243.6 72.8315C242.993 72.7557 242.682 73.0192 242.646 73.305C242.608 73.6146 242.685 73.7694 243.84 74.2038C245.46 74.7929 246.246 75.3748 246.085 76.6608C245.931 77.8992 244.681 78.5171 243.216 78.3343C241.775 78.1544 240.827 77.4193 240.398 76.7853L241.252 75.4649L241.336 75.4753C241.805 76.078 242.48 76.6703 243.29 76.7714C244.04 76.865 244.387 76.7028 244.43 76.3574C244.469 76.0478 244.308 75.8826 243.07 75.4378C241.532 74.871 240.907 74.1641 241.043 73.0686C241.179 71.985 242.191 71.1439 243.751 71.3386Z" fill="#403D46"/>
<defs>
<clipPath id="clip0_3514_60212">
<rect x="119.305" y="29.8711" width="126.617" height="34.7924" rx="17.3962" transform="rotate(-13.1813 119.305 29.8711)" fill="white"/>
</clipPath>
</defs>
</svg>
