<svg width="18" height="18" viewBox="0 0 18 18" fill="none" xmlns="http://www.w3.org/2000/svg">
<path d="M14.6487 2.81519H3.04667C2.76694 2.81519 2.49867 2.92631 2.30087 3.12411C2.10307 3.32191 1.99194 3.59018 1.99194 3.86991V13.3625C1.99194 13.6422 2.10307 13.9105 2.30087 14.1083C2.49867 14.3061 2.76694 14.4172 3.04667 14.4172H14.6487C14.9284 14.4172 15.1967 14.3061 15.3945 14.1083C15.5923 13.9105 15.7034 13.6422 15.7034 13.3625V3.86991C15.7034 3.59018 15.5923 3.32191 15.3945 3.12411C15.1967 2.92631 14.9284 2.81519 14.6487 2.81519ZM12.0119 11.253H5.68349C5.54363 11.253 5.40949 11.1975 5.31059 11.0986C5.21169 10.9997 5.15613 10.8655 5.15613 10.7257C5.15613 10.5858 5.21169 10.4516 5.31059 10.3527C5.40949 10.2538 5.54363 10.1983 5.68349 10.1983H12.0119C12.1517 10.1983 12.2859 10.2538 12.3848 10.3527C12.4837 10.4516 12.5392 10.5858 12.5392 10.7257C12.5392 10.8655 12.4837 10.9997 12.3848 11.0986C12.2859 11.1975 12.1517 11.253 12.0119 11.253ZM12.0119 9.14356H5.68349C5.54363 9.14356 5.40949 9.088 5.31059 8.9891C5.21169 8.8902 5.15613 8.75606 5.15613 8.61619C5.15613 8.47633 5.21169 8.34219 5.31059 8.24329C5.40949 8.14439 5.54363 8.08883 5.68349 8.08883H12.0119C12.1517 8.08883 12.2859 8.14439 12.3848 8.24329C12.4837 8.34219 12.5392 8.47633 12.5392 8.61619C12.5392 8.75606 12.4837 8.8902 12.3848 8.9891C12.2859 9.088 12.1517 9.14356 12.0119 9.14356ZM12.0119 7.0341H5.68349C5.54363 7.0341 5.40949 6.97854 5.31059 6.87964C5.21169 6.78074 5.15613 6.6466 5.15613 6.50674C5.15613 6.36687 5.21169 6.23273 5.31059 6.13383C5.40949 6.03493 5.54363 5.97937 5.68349 5.97937H12.0119C12.1517 5.97937 12.2859 6.03493 12.3848 6.13383C12.4837 6.23273 12.5392 6.36687 12.5392 6.50674C12.5392 6.6466 12.4837 6.78074 12.3848 6.87964C12.2859 6.97854 12.1517 7.0341 12.0119 7.0341Z" fill="#1D1B21"/>
</svg>
