<svg width="552" height="619" viewBox="0 0 552 619" fill="none" xmlns="http://www.w3.org/2000/svg">
<rect width="1662.01" height="862.438" transform="translate(-348.832 -136.658)" fill="white"/>
<line x1="-380.35" y1="44.3644" x2="482.294" y2="44.3644" stroke="#E1E1E1" stroke-width="1.51341"/>
<line x1="-380.35" y1="89.7667" x2="482.294" y2="89.7667" stroke="#E1E1E1" stroke-width="1.51341"/>
<line x1="-380.35" y1="135.169" x2="482.294" y2="135.169" stroke="#E1E1E1" stroke-width="1.51341"/>
<line x1="-380.35" y1="180.571" x2="482.294" y2="180.571" stroke="#E1E1E1" stroke-width="1.51341"/>
<line x1="-380.35" y1="225.974" x2="482.294" y2="225.974" stroke="#E1E1E1" stroke-width="1.51341"/>
<line x1="-380.35" y1="271.376" x2="482.294" y2="271.376" stroke="#E1E1E1" stroke-width="1.51341"/>
<line x1="-380.35" y1="316.778" x2="482.294" y2="316.778" stroke="#E1E1E1" stroke-width="1.51341"/>
<line x1="-380.35" y1="362.181" x2="482.294" y2="362.181" stroke="#E1E1E1" stroke-width="1.51341"/>
<line x1="-380.35" y1="407.583" x2="482.294" y2="407.583" stroke="#E1E1E1" stroke-width="1.51341"/>
<line x1="-380.35" y1="452.985" x2="482.294" y2="452.985" stroke="#E1E1E1" stroke-width="1.51341"/>
<line x1="-380.35" y1="498.388" x2="482.294" y2="498.388" stroke="#E1E1E1" stroke-width="1.51341"/>
<line x1="-380.35" y1="543.79" x2="482.294" y2="543.79" stroke="#E1E1E1" stroke-width="1.51341"/>
<line x1="-380.35" y1="589.193" x2="482.294" y2="589.193" stroke="#E1E1E1" stroke-width="1.51341"/>
<line x1="27.5138" y1="726.154" x2="27.5138" y2="-136.489" stroke="#E1E1E1" stroke-width="1.51341"/>
<line x1="72.9161" y1="726.154" x2="72.9161" y2="-136.489" stroke="#E1E1E1" stroke-width="1.51341"/>
<line x1="118.318" y1="726.154" x2="118.318" y2="-136.489" stroke="#E1E1E1" stroke-width="1.51341"/>
<line x1="163.721" y1="726.154" x2="163.721" y2="-136.489" stroke="#E1E1E1" stroke-width="1.51341"/>
<line x1="209.123" y1="726.154" x2="209.123" y2="-136.489" stroke="#E1E1E1" stroke-width="1.51341"/>
<line x1="254.526" y1="726.154" x2="254.525" y2="-136.489" stroke="#E1E1E1" stroke-width="1.51341"/>
<line x1="299.927" y1="726.154" x2="299.927" y2="-136.489" stroke="#E1E1E1" stroke-width="1.51341"/>
<line x1="345.329" y1="726.154" x2="345.329" y2="-136.489" stroke="#E1E1E1" stroke-width="1.51341"/>
<line x1="390.732" y1="726.154" x2="390.732" y2="-136.489" stroke="#E1E1E1" stroke-width="1.51341"/>
<line x1="436.134" y1="726.154" x2="436.134" y2="-136.489" stroke="#E1E1E1" stroke-width="1.51341"/>
<line x1="481.536" y1="726.154" x2="481.536" y2="-136.489" stroke="#E1E1E1" stroke-width="1.51341"/>
<line x1="482.293" y1="44.3644" x2="1344.94" y2="44.3644" stroke="#E1E1E1" stroke-width="1.51341"/>
<line x1="482.293" y1="89.7667" x2="1344.94" y2="89.7667" stroke="#E1E1E1" stroke-width="1.51341"/>
<line x1="482.293" y1="135.169" x2="1344.94" y2="135.169" stroke="#E1E1E1" stroke-width="1.51341"/>
<line x1="482.293" y1="180.571" x2="1344.94" y2="180.571" stroke="#E1E1E1" stroke-width="1.51341"/>
<line x1="482.293" y1="225.974" x2="1344.94" y2="225.974" stroke="#E1E1E1" stroke-width="1.51341"/>
<line x1="482.293" y1="271.376" x2="1344.94" y2="271.376" stroke="#E1E1E1" stroke-width="1.51341"/>
<line x1="482.293" y1="316.778" x2="1344.94" y2="316.778" stroke="#E1E1E1" stroke-width="1.51341"/>
<line x1="482.293" y1="362.181" x2="1344.94" y2="362.181" stroke="#E1E1E1" stroke-width="1.51341"/>
<line x1="482.293" y1="407.583" x2="1344.94" y2="407.583" stroke="#E1E1E1" stroke-width="1.51341"/>
<line x1="482.293" y1="452.985" x2="1344.94" y2="452.985" stroke="#E1E1E1" stroke-width="1.51341"/>
<line x1="482.293" y1="498.388" x2="1344.94" y2="498.388" stroke="#E1E1E1" stroke-width="1.51341"/>
<line x1="482.293" y1="543.79" x2="1344.94" y2="543.79" stroke="#E1E1E1" stroke-width="1.51341"/>
<line x1="482.293" y1="589.193" x2="1344.94" y2="589.193" stroke="#E1E1E1" stroke-width="1.51341"/>
<line x1="481.536" y1="726.154" x2="481.536" y2="-136.489" stroke="#E1E1E1" stroke-width="1.51341"/>
<line x1="526.939" y1="726.154" x2="526.939" y2="-136.489" stroke="#E1E1E1" stroke-width="1.51341"/>
</svg>
