<svg width="46" height="46" viewBox="0 0 46 46" fill="none" xmlns="http://www.w3.org/2000/svg">
<circle cx="23" cy="23" r="23" fill="#B7704E"/>
<path d="M35.4013 26.1315V26.1207C35.3995 26.1125 35.3969 26.1045 35.3937 26.0968C35.3216 25.9 35.2378 25.7077 35.1428 25.5209L30.6262 15.2558C30.5828 15.157 30.5212 15.0671 30.4448 14.9907C30.1219 14.6678 29.7386 14.4116 29.3168 14.2369C28.8949 14.0621 28.4427 13.9721 27.9861 13.9721C27.5295 13.9721 27.0773 14.0621 26.6554 14.2369C26.2335 14.4116 25.8502 14.6678 25.5274 14.9907C25.365 15.1534 25.2735 15.3737 25.2731 15.6035V18.3197H21.7964V15.6035C21.7965 15.4893 21.7741 15.3763 21.7305 15.2707C21.6868 15.1652 21.6229 15.0693 21.5422 14.9886C21.2193 14.6656 20.836 14.4095 20.4141 14.2347C19.9923 14.0599 19.5401 13.97 19.0835 13.97C18.6268 13.97 18.1746 14.0599 17.7528 14.2347C17.3309 14.4095 16.9476 14.6656 16.6247 14.9886C16.5483 15.0649 16.4868 15.1548 16.4433 15.2537L11.9311 25.5209C11.8361 25.7077 11.7523 25.9 11.6802 26.0968C11.6771 26.1042 11.6746 26.1118 11.6726 26.1196C11.6726 26.1196 11.6726 26.1283 11.6726 26.1315C11.2238 27.4281 11.3041 28.8492 11.896 30.087C12.4879 31.3248 13.5437 32.2794 14.8347 32.7441C16.1256 33.2088 17.5476 33.146 18.7926 32.5694C20.0376 31.9928 21.0051 30.9488 21.4857 29.6637C21.6972 29.0864 21.8039 28.476 21.8007 27.8612V20.0581H25.2775V27.8623C25.2743 28.4771 25.381 29.0875 25.5926 29.6648C26.0731 30.9499 27.0407 31.9939 28.2857 32.5705C29.5306 33.1471 30.9527 33.2099 32.2436 32.7452C33.5345 32.2805 34.5903 31.3259 35.1822 30.0881C35.7741 28.8503 35.8544 27.4292 35.4057 26.1326L35.4013 26.1315ZM19.8483 29.065C19.5274 29.9214 18.8819 30.6169 18.0517 31.0007C17.2216 31.3845 16.2736 31.4257 15.4133 31.1155C14.5529 30.8052 13.8495 30.1684 13.4553 29.3431C13.0612 28.5178 13.0082 27.5704 13.3077 26.7063L13.5044 26.2576C13.8658 25.5705 14.4468 25.0242 15.1548 24.7057C15.8627 24.3871 16.6569 24.3147 17.4108 24.4999C18.1647 24.6852 18.8349 25.1174 19.3147 25.7277C19.7944 26.3381 20.0561 27.0914 20.058 27.8677V27.8808C20.058 28.2862 19.987 28.6884 19.8483 29.0694V29.065ZM31.6834 31.1478C31.1578 31.3402 30.5936 31.4029 30.0387 31.3305C29.4837 31.2581 28.9544 31.0529 28.4958 30.7321C28.0372 30.4114 27.6627 29.9847 27.4043 29.4883C27.1459 28.9919 27.0112 28.4404 27.0115 27.8808V27.8688C27.0144 27.0929 27.2768 26.3402 27.7568 25.7306C28.2369 25.121 28.9072 24.6895 29.6608 24.5048C30.4145 24.3202 31.2083 24.3929 31.9158 24.7115C32.6233 25.0301 33.2039 25.5763 33.5652 26.263L33.7618 26.7117C34.071 27.5758 34.026 28.527 33.6366 29.358C33.2473 30.189 32.5452 30.8324 31.6834 31.1478Z" fill="#F9F3F0"/>
</svg>
