<svg width="58" height="59" viewBox="0 0 58 59" fill="none" xmlns="http://www.w3.org/2000/svg">
<path d="M48.9297 17.1868H40.9819C41.0702 17.112 41.1609 17.0395 41.247 16.9602C41.935 16.3489 42.4896 15.6022 42.8759 14.7667C43.2623 13.9313 43.4721 13.0252 43.4922 12.105C43.5219 11.0983 43.3456 10.0961 42.9741 9.16007C42.6026 8.224 42.0436 7.37374 41.3316 6.66149C40.6195 5.94925 39.7695 5.39005 38.8335 5.01822C37.8975 4.6464 36.8954 4.4698 35.8888 4.49926C34.9682 4.51909 34.0616 4.72873 33.2257 5.11507C32.3899 5.50141 31.6428 6.05612 31.0313 6.74449C30.185 7.72527 29.497 8.83213 28.9922 10.0251C28.4874 8.83213 27.7994 7.72527 26.9531 6.74449C26.3416 6.05612 25.5945 5.50141 24.7586 5.11507C23.9228 4.72873 23.0162 4.51909 22.0956 4.49926C21.0889 4.4698 20.0869 4.6464 19.1509 5.01822C18.2149 5.39005 17.3648 5.94925 16.6528 6.66149C15.9408 7.37374 15.3818 8.224 15.0103 9.16007C14.6387 10.0961 14.4624 11.0983 14.4922 12.105C14.5123 13.0252 14.7221 13.9313 15.1084 14.7667C15.4948 15.6022 16.0493 16.3489 16.7374 16.9602C16.8235 17.035 16.9141 17.1075 17.0025 17.1868H9.05469C8.09328 17.1868 7.17124 17.5687 6.49143 18.2485C5.81161 18.9283 5.42969 19.8503 5.42969 20.8118V28.0618C5.42969 29.0232 5.81161 29.9452 6.49143 30.625C7.17124 31.3048 8.09328 31.6868 9.05469 31.6868V46.1868C9.05469 47.1482 9.43661 48.0702 10.1164 48.75C10.7962 49.4298 11.7183 49.8118 12.6797 49.8118H26.2734C26.5138 49.8118 26.7443 49.7163 26.9143 49.5463C27.0842 49.3764 27.1797 49.1459 27.1797 48.9055V28.0618H9.05469V20.8118H27.1797V28.0618H30.8047V20.8118H48.9297V28.0618H30.8047V48.9055C30.8047 49.1459 30.9002 49.3764 31.0701 49.5463C31.2401 49.7163 31.4706 49.8118 31.7109 49.8118H45.3047C46.2661 49.8118 47.1881 49.4298 47.868 48.75C48.5478 48.0702 48.9297 47.1482 48.9297 46.1868V31.6868C49.8911 31.6868 50.8131 31.3048 51.493 30.625C52.1728 29.9452 52.5547 29.0232 52.5547 28.0618V20.8118C52.5547 19.8503 52.1728 18.9283 51.493 18.2485C50.8131 17.5687 49.8911 17.1868 48.9297 17.1868ZM19.139 14.2414C18.8221 13.9545 18.5679 13.6051 18.3925 13.2152C18.217 12.8253 18.1241 12.4033 18.1195 11.9758C18.108 11.4749 18.1966 10.9767 18.3802 10.5105C18.5637 10.0443 18.8384 9.61934 19.1883 9.26064C19.5381 8.90193 19.956 8.61666 20.4175 8.42153C20.879 8.2264 21.3748 8.12533 21.8759 8.12426H21.9869C22.4144 8.12887 22.8363 8.22182 23.2262 8.39726C23.6161 8.57271 23.9655 8.82687 24.2525 9.14379C26.1534 11.2916 26.824 14.8532 27.0596 17.0554C24.8484 16.822 21.2891 16.1514 19.139 14.2414ZM38.8499 14.2414C36.6998 16.1446 33.1315 16.8152 30.9202 17.0508C31.1898 14.6696 31.9375 11.1829 33.75 9.14605C34.037 8.82914 34.3864 8.57498 34.7763 8.39953C35.1662 8.22408 35.5881 8.13113 36.0156 8.12652H36.1266C36.6277 8.12965 37.1231 8.23277 37.5839 8.42982C38.0446 8.62688 38.4613 8.91391 38.8097 9.2741C39.1581 9.63428 39.4311 10.0604 39.6126 10.5274C39.7942 10.9945 39.8808 11.493 39.8672 11.9939C39.8598 12.4186 39.7653 12.8371 39.5896 13.2237C39.4138 13.6103 39.1605 13.9567 38.8454 14.2414H38.8499Z" fill="#5B8FCF"/>
</svg>
