<svg width="16" height="14" viewBox="0 0 16 14" fill="none" xmlns="http://www.w3.org/2000/svg">
<g opacity="0.5">
<path d="M13.2249 3.00195H9.91882C9.41779 3.00195 8.93727 3.17658 8.58299 3.48741C8.2287 3.79825 8.02966 4.21983 8.02966 4.65941V9.21743C8.02966 9.32733 7.9799 9.43272 7.89133 9.51043C7.80276 9.58814 7.68263 9.6318 7.55737 9.6318C7.43211 9.6318 7.31199 9.58814 7.22341 9.51043C7.13484 9.43272 7.08508 9.32733 7.08508 9.21743V4.65941C7.08508 4.21983 6.88605 3.79825 6.53176 3.48741C6.17747 3.17658 5.69696 3.00195 5.19592 3.00195H1.88989C1.63937 3.00195 1.39912 3.08927 1.22197 3.24468C1.04483 3.4001 0.945313 3.61089 0.945312 3.83068V10.4605C0.945313 10.6803 1.04483 10.8911 1.22197 11.0465C1.39912 11.2019 1.63937 11.2893 1.88989 11.2893H5.66821C6.04399 11.2893 6.40438 11.4202 6.67009 11.6534C6.93581 11.8865 7.08508 12.2027 7.08508 12.5324C7.08508 12.6422 7.13484 12.7476 7.22341 12.8254C7.31199 12.9031 7.43211 12.9467 7.55737 12.9467C7.68263 12.9467 7.80276 12.9031 7.89133 12.8254C7.9799 12.7476 8.02966 12.6422 8.02966 12.5324C8.02966 12.2027 8.17894 11.8865 8.44465 11.6534C8.71037 11.4202 9.07076 11.2893 9.44653 11.2893H13.2249C13.4754 11.2893 13.7156 11.2019 13.8928 11.0465C14.0699 10.8911 14.1694 10.6803 14.1694 10.4605V3.83068C14.1694 3.61089 14.0699 3.4001 13.8928 3.24468C13.7156 3.08927 13.4754 3.00195 13.2249 3.00195ZM12.2803 9.21743H9.91882C9.79356 9.21743 9.67344 9.17377 9.58486 9.09607C9.49629 9.01836 9.44653 8.91296 9.44653 8.80307C9.44653 8.69317 9.49629 8.58777 9.58486 8.51006C9.67344 8.43236 9.79356 8.3887 9.91882 8.3887H12.2803C12.4055 8.3887 12.5257 8.43236 12.6142 8.51006C12.7028 8.58777 12.7526 8.69317 12.7526 8.80307C12.7526 8.91296 12.7028 9.01836 12.6142 9.09607C12.5257 9.17377 12.4055 9.21743 12.2803 9.21743ZM12.2803 7.55997H9.91882C9.79356 7.55997 9.67344 7.51631 9.58486 7.43861C9.49629 7.3609 9.44653 7.2555 9.44653 7.14561C9.44653 7.03571 9.49629 6.93031 9.58486 6.8526C9.67344 6.7749 9.79356 6.73124 9.91882 6.73124H12.2803C12.4055 6.73124 12.5257 6.7749 12.6142 6.8526C12.7028 6.93031 12.7526 7.03571 12.7526 7.14561C12.7526 7.2555 12.7028 7.3609 12.6142 7.43861C12.5257 7.51631 12.4055 7.55997 12.2803 7.55997ZM12.2803 5.90251H9.91882C9.79356 5.90251 9.67344 5.85885 9.58486 5.78114C9.49629 5.70344 9.44653 5.59804 9.44653 5.48814C9.44653 5.37825 9.49629 5.27285 9.58486 5.19514C9.67344 5.11744 9.79356 5.07378 9.91882 5.07378H12.2803C12.4055 5.07378 12.5257 5.11744 12.6142 5.19514C12.7028 5.27285 12.7526 5.37825 12.7526 5.48814C12.7526 5.59804 12.7028 5.70344 12.6142 5.78114C12.5257 5.85885 12.4055 5.90251 12.2803 5.90251Z" fill="#A198AC"/>
</g>
</svg>
