<svg width="27" height="27" viewBox="0 0 27 27" fill="none" xmlns="http://www.w3.org/2000/svg">
<circle cx="13.5" cy="13.5" r="13.5" fill="#F8F7F9"/>
<path d="M16.8742 20.4463C16.8742 20.5816 16.8205 20.7113 16.7248 20.807C16.6291 20.9027 16.4994 20.9564 16.364 20.9564H11.2623C11.127 20.9564 10.9972 20.9027 10.9016 20.807C10.8059 20.7113 10.7521 20.5816 10.7521 20.4463C10.7521 20.311 10.8059 20.1812 10.9016 20.0855C10.9972 19.9898 11.127 19.9361 11.2623 19.9361H16.364C16.4994 19.9361 16.6291 19.9898 16.7248 20.0855C16.8205 20.1812 16.8742 20.311 16.8742 20.4463ZM19.4251 12.2835C19.4273 13.134 19.2352 13.9737 18.8634 14.7386C18.4916 15.5035 17.9499 16.1734 17.2798 16.6971C17.1545 16.7932 17.0528 16.9166 16.9825 17.058C16.9122 17.1993 16.8752 17.3549 16.8742 17.5128V17.8954C16.8742 18.166 16.7667 18.4255 16.5754 18.6169C16.384 18.8082 16.1245 18.9157 15.8539 18.9157H11.7725C11.5019 18.9157 11.2423 18.8082 11.051 18.6169C10.8596 18.4255 10.7521 18.166 10.7521 17.8954V17.5128C10.752 17.3568 10.7162 17.2029 10.6473 17.0629C10.5784 16.923 10.4784 16.8007 10.3548 16.7054C9.68637 16.1848 9.14511 15.519 8.772 14.7583C8.39889 13.9976 8.20372 13.162 8.20126 12.3147C8.18467 9.27535 10.6412 6.74425 13.678 6.67155C14.4262 6.65352 15.1706 6.78535 15.8671 7.05929C16.5637 7.33324 17.1984 7.74375 17.7339 8.26667C18.2694 8.78959 18.6949 9.41435 18.9854 10.1042C19.2758 10.794 19.4253 11.535 19.4251 12.2835ZM17.3774 11.6878C17.2451 10.9489 16.8896 10.2683 16.3587 9.73751C15.8279 9.20676 15.1471 8.85139 14.4082 8.71926C14.3421 8.70813 14.2745 8.71011 14.2092 8.72511C14.1438 8.7401 14.0821 8.76781 14.0275 8.80666C13.9729 8.84551 13.9265 8.89473 13.8909 8.95151C13.8554 9.0083 13.8313 9.07153 13.8202 9.13761C13.8091 9.20368 13.811 9.2713 13.826 9.33661C13.841 9.40192 13.8687 9.46364 13.9076 9.51824C13.9464 9.57283 13.9957 9.61925 14.0524 9.65482C14.1092 9.6904 14.1725 9.71444 14.2385 9.72558C15.2952 9.90351 16.1919 10.8001 16.3711 11.8587C16.3912 11.9776 16.4529 12.0854 16.5449 12.1631C16.637 12.2409 16.7537 12.2835 16.8742 12.2835C16.9031 12.2833 16.9318 12.281 16.9603 12.2765C17.0937 12.2537 17.2125 12.1789 17.2907 12.0685C17.3689 11.9581 17.4001 11.8212 17.3774 11.6878Z" fill="#F5DC7D"/>
</svg>
