<svg width="46" height="46" viewBox="0 0 46 46" fill="none" xmlns="http://www.w3.org/2000/svg">
<circle cx="23" cy="23" r="23" fill="#B7704E"/>
<path d="M32.8701 32.5114C32.9485 32.5956 33.0094 32.6945 33.0492 32.8024C33.0891 32.9103 33.1071 33.025 33.1023 33.1399C33.0975 33.2548 33.07 33.3677 33.0212 33.4718C32.9725 33.576 32.9036 33.6695 32.8185 33.7469C32.7334 33.8242 32.6337 33.8839 32.5254 33.9225C32.417 33.9611 32.3021 33.9777 32.1872 33.9716C32.0724 33.9654 31.9599 33.9365 31.8563 33.8865C31.7527 33.8365 31.66 33.7665 31.5837 33.6804L30.4668 32.4516C30.9249 32.0954 31.3546 31.7042 31.7521 31.2815L32.8701 32.5114ZM16.6033 14.6181L15.4864 13.3893C15.41 13.3033 15.3174 13.2332 15.2138 13.1832C15.1102 13.1333 14.9977 13.1044 14.8829 13.0982C14.768 13.092 14.6531 13.1087 14.5447 13.1473C14.4363 13.1858 14.3367 13.2455 14.2516 13.3229C14.1665 13.4002 14.0976 13.4937 14.0488 13.5979C14.0001 13.7021 13.9725 13.8149 13.9677 13.9298C13.9629 14.0448 13.981 14.1595 14.0209 14.2674C14.0607 14.3753 14.1216 14.4742 14.2 14.5584L15.318 15.7883C15.7155 15.3655 16.1452 14.9743 16.6033 14.6181ZM31.7521 31.2815L16.6033 14.6181C18.849 12.8697 21.672 12.0337 24.5077 12.2773C27.3433 12.521 29.9823 13.8263 31.8968 15.9323C33.8113 18.0382 34.8601 20.7893 34.8332 23.6352C34.8064 26.4812 33.706 29.2121 31.7521 31.2815ZM26.9031 20.9273C26.7619 20.3801 26.4895 19.8755 26.1093 19.4573C25.7292 19.0391 25.2528 18.7199 24.7215 18.5273C24.5101 18.4671 24.2837 18.4893 24.088 18.5893C23.8923 18.6894 23.7417 18.8599 23.6666 19.0664C23.5916 19.273 23.5976 19.5004 23.6834 19.7028C23.7693 19.9051 23.9286 20.0674 24.1293 20.157C24.3936 20.2534 24.6306 20.4126 24.8198 20.6207C25.0091 20.8289 25.145 21.0799 25.2158 21.3521C25.264 21.5386 25.3727 21.7038 25.5249 21.8218C25.6771 21.9398 25.8642 22.0039 26.0568 22.004C26.1301 22.0042 26.2032 21.9947 26.2741 21.9758C26.4959 21.9191 26.6863 21.7772 26.8041 21.5809C26.9219 21.3845 26.9575 21.1497 26.9031 20.9273ZM30.4885 21.7965C30.4889 20.6785 30.2196 19.5768 29.7036 18.585C29.1876 17.5932 28.44 16.7404 27.5243 16.099C26.6085 15.4576 25.5516 15.0464 24.4431 14.9004C23.3347 14.7544 22.2073 14.8778 21.1567 15.2602C20.9547 15.3492 20.794 15.5116 20.7074 15.7147C20.6208 15.9177 20.6147 16.1461 20.6903 16.3535C20.7659 16.5609 20.9177 16.7318 21.1146 16.8314C21.3116 16.931 21.5392 16.952 21.751 16.8899C22.5394 16.603 23.3853 16.5104 24.217 16.6201C25.0487 16.7298 25.8417 17.0385 26.5287 17.5201C27.2156 18.0017 27.7762 18.6418 28.163 19.3863C28.5497 20.1308 28.7511 20.9576 28.7502 21.7965C28.7502 22.027 28.8417 22.2481 29.0047 22.4111C29.1677 22.5741 29.3888 22.6657 29.6193 22.6657C29.8499 22.6657 30.0709 22.5741 30.2339 22.4111C30.397 22.2481 30.4885 22.027 30.4885 21.7965ZM25.708 27.8808C25.1317 27.8808 24.579 27.6519 24.1715 27.2444C23.764 26.8368 23.535 26.2841 23.535 25.7078C23.5337 25.4504 23.5703 25.1941 23.6437 24.9473L21.4218 22.5027C21.2779 22.6068 21.1051 22.6638 20.9275 22.6657C20.697 22.6657 20.4759 22.5741 20.3129 22.4111C20.1499 22.2481 20.0583 22.027 20.0583 21.7965C20.0583 21.557 20.0831 21.3182 20.1322 21.0838L18.7969 19.6148C18.4809 20.2986 18.3181 21.0432 18.3199 21.7965C18.3199 23.0894 19.049 24.0238 19.8214 25.0125C20.582 25.9816 21.3621 26.9845 21.3621 28.3154C21.3619 28.7434 21.4882 29.1619 21.7249 29.5184C21.9617 29.8749 22.2985 30.1536 22.6931 30.3194C23.0877 30.4852 23.5224 30.5308 23.9428 30.4505C24.3632 30.3702 24.7505 30.1676 25.0561 29.868C25.1365 29.783 25.2331 29.7152 25.3403 29.6685C25.4475 29.6218 25.563 29.5972 25.6799 29.5962C25.7968 29.5951 25.9127 29.6177 26.0207 29.6625C26.1287 29.7073 26.2265 29.7735 26.3084 29.857C26.3902 29.9405 26.4543 30.0397 26.4969 30.1485C26.5395 30.2574 26.5597 30.3738 26.5563 30.4906C26.5529 30.6075 26.526 30.7225 26.4771 30.8287C26.4282 30.9349 26.3584 31.0301 26.2719 31.1087C25.7218 31.6476 25.0248 32.012 24.2684 32.1564C23.512 32.3008 22.7299 32.2187 22.0199 31.9204C21.31 31.6221 20.7039 31.1209 20.2777 30.4796C19.8514 29.8383 19.6239 29.0854 19.6237 28.3154C19.6237 27.5831 19.0805 26.8878 18.4514 26.0827C17.6181 25.0157 16.5816 23.6881 16.5816 21.7965C16.5801 20.547 16.9181 19.3205 17.5594 18.248L15.318 15.7883C13.3641 17.8577 12.2637 20.5886 12.2368 23.4345C12.21 26.2804 13.2587 29.0316 15.1732 31.1375C17.0877 33.2434 19.7268 34.5488 22.5624 34.7924C25.398 35.0361 28.2211 34.2001 30.4668 32.4516L26.2512 27.8124C26.0738 27.8582 25.8913 27.8812 25.708 27.8808Z" fill="#F9F3F0"/>
</svg>
