<svg width="46" height="46" viewBox="0 0 46 46" fill="none" xmlns="http://www.w3.org/2000/svg">
<circle cx="23" cy="23" r="23" fill="#B7704E"/>
<path d="M31.3573 17.8462V13.974C31.3573 13.5129 31.1741 13.0708 30.8481 12.7448C30.5221 12.4187 30.0799 12.2356 29.6189 12.2356H17.4503C16.9892 12.2356 16.5471 12.4187 16.2211 12.7448C15.8951 13.0708 15.7119 13.5129 15.7119 13.974V17.8853C15.7127 18.1552 15.776 18.4211 15.8968 18.6624C16.0177 18.9037 16.1927 19.1137 16.4083 19.276L22.0863 23.535L16.4073 27.794C16.1918 27.9564 16.0169 28.1664 15.8962 28.4077C15.7756 28.649 15.7125 28.915 15.7119 29.1847V33.0961C15.7119 33.5571 15.8951 33.9993 16.2211 34.3253C16.5471 34.6513 16.9892 34.8344 17.4503 34.8344H29.6189C30.0799 34.8344 30.5221 34.6513 30.8481 34.3253C31.1741 33.9993 31.3573 33.5571 31.3573 33.0961V29.2238C31.3573 28.9549 31.2949 28.6896 31.175 28.4488C31.055 28.2081 30.8809 27.9984 30.6663 27.8364L24.9753 23.535L30.6663 19.2336C30.8806 19.0713 31.0545 18.8616 31.1744 18.6209C31.2943 18.3802 31.3568 18.1151 31.3573 17.8462Z" fill="#F9F3F0"/>
</svg>
