<svg width="46" height="46" viewBox="0 0 46 46" fill="none" xmlns="http://www.w3.org/2000/svg">
<circle cx="23" cy="23" r="23" fill="#B7704E"/>
<path d="M36.512 28.5056C36.5125 28.5005 36.5125 28.4954 36.512 28.4904L34.7312 19.3454C34.7312 19.3389 34.7312 19.3324 34.7312 19.3259C34.4563 17.8244 33.6639 16.4668 32.4918 15.489C31.3197 14.5112 29.842 13.9751 28.3156 13.9739H18.7426C17.2119 13.9733 15.73 14.5124 14.5575 15.4965C13.3851 16.4806 12.5971 17.8465 12.3323 19.3541L10.5603 28.4904C10.5597 28.4954 10.5597 28.5005 10.5603 28.5056C10.416 29.3246 10.5366 30.1683 10.9044 30.9141C11.2723 31.6599 11.8683 32.2691 12.6059 32.6532C13.3435 33.0373 14.1844 33.1762 15.0064 33.0499C15.8283 32.9236 16.5887 32.5386 17.1769 31.9508L17.215 31.9106L21.5272 27.0117H25.5472L29.8616 31.9106C29.8736 31.9247 29.8866 31.9378 29.8997 31.9508C30.6328 32.6824 31.6257 33.0941 32.6615 33.096C33.2324 33.0956 33.7963 32.9703 34.3136 32.7287C34.831 32.4872 35.2891 32.1353 35.656 31.6979C36.0228 31.2604 36.2895 30.7479 36.4372 30.1965C36.5848 29.645 36.61 29.0678 36.5109 28.5056H36.512ZM20.9275 21.7966H20.0583V22.6657C20.0583 22.8963 19.9667 23.1173 19.8037 23.2803C19.6407 23.4433 19.4196 23.5349 19.1891 23.5349C18.9586 23.5349 18.7375 23.4433 18.5745 23.2803C18.4115 23.1173 18.3199 22.8963 18.3199 22.6657V21.7966H17.4507C17.2202 21.7966 16.9991 21.705 16.8361 21.542C16.6731 21.379 16.5815 21.1579 16.5815 20.9274C16.5815 20.6968 16.6731 20.4758 16.8361 20.3128C16.9991 20.1498 17.2202 20.0582 17.4507 20.0582H18.3199V19.189C18.3199 18.9585 18.4115 18.7374 18.5745 18.5744C18.7375 18.4114 18.9586 18.3198 19.1891 18.3198C19.4196 18.3198 19.6407 18.4114 19.8037 18.5744C19.9667 18.7374 20.0583 18.9585 20.0583 19.189V20.0582H20.9275C21.158 20.0582 21.3791 20.1498 21.5421 20.3128C21.7051 20.4758 21.7967 20.6968 21.7967 20.9274C21.7967 21.1579 21.7051 21.379 21.5421 21.542C21.3791 21.705 21.158 21.7966 20.9275 21.7966ZM25.2734 20.9274C25.2734 20.6968 25.365 20.4758 25.528 20.3128C25.691 20.1498 25.9121 20.0582 26.1426 20.0582H28.7502C28.9807 20.0582 29.2018 20.1498 29.3648 20.3128C29.5278 20.4758 29.6193 20.6968 29.6193 20.9274C29.6193 21.1579 29.5278 21.379 29.3648 21.542C29.2018 21.705 28.9807 21.7966 28.7502 21.7966H26.1426C25.9121 21.7966 25.691 21.705 25.528 21.542C25.365 21.379 25.2734 21.1579 25.2734 20.9274ZM34.4401 30.4308C34.2773 30.6652 34.0695 30.865 33.829 31.0185C33.5884 31.172 33.3197 31.2762 33.0385 31.325C32.6984 31.3845 32.3489 31.3624 32.019 31.2606C31.689 31.1588 31.3879 30.9802 31.1404 30.7394L27.8592 27.0117H28.3156C29.4252 27.0118 30.5166 26.7287 31.4863 26.1891C32.4559 25.6495 33.2718 24.8713 33.8566 23.9282L34.8062 28.8174C34.8546 29.0972 34.8471 29.3838 34.7843 29.6607C34.7214 29.9376 34.6044 30.1993 34.4401 30.4308Z" fill="#F9F3F0"/>
</svg>
