<svg width="22" height="22" viewBox="0 0 22 22" fill="none" xmlns="http://www.w3.org/2000/svg">
<g filter="url(#filter0_d_4786_73107)">
<path d="M17.1162 8.42625C16.8806 8.18 16.6369 7.92625 16.545 7.70312C16.46 7.49875 16.455 7.16 16.45 6.83187C16.4406 6.22187 16.4306 5.53062 15.95 5.05C15.4694 4.56937 14.7781 4.55937 14.1681 4.55C13.84 4.545 13.5012 4.54 13.2969 4.455C13.0744 4.36312 12.82 4.11937 12.5737 3.88375C12.1425 3.46937 11.6525 3 11 3C10.3475 3 9.85812 3.46937 9.42625 3.88375C9.18 4.11937 8.92625 4.36312 8.70312 4.455C8.5 4.54 8.16 4.545 7.83187 4.55C7.22187 4.55937 6.53062 4.56937 6.05 5.05C5.56937 5.53062 5.5625 6.22187 5.55 6.83187C5.545 7.16 5.54 7.49875 5.455 7.70312C5.36312 7.92562 5.11937 8.18 4.88375 8.42625C4.46937 8.8575 4 9.3475 4 10C4 10.6525 4.46937 11.1419 4.88375 11.5737C5.11937 11.82 5.36312 12.0737 5.455 12.2969C5.54 12.5012 5.545 12.84 5.55 13.1681C5.55937 13.7781 5.56937 14.4694 6.05 14.95C6.53062 15.4306 7.22187 15.4406 7.83187 15.45C8.16 15.455 8.49875 15.46 8.70312 15.545C8.92562 15.6369 9.18 15.8806 9.42625 16.1162C9.8575 16.5306 10.3475 17 11 17C11.6525 17 12.1419 16.5306 12.5737 16.1162C12.82 15.8806 13.0737 15.6369 13.2969 15.545C13.5012 15.46 13.84 15.455 14.1681 15.45C14.7781 15.4406 15.4694 15.4306 15.95 14.95C16.4306 14.4694 16.4406 13.7781 16.45 13.1681C16.455 12.84 16.46 12.5012 16.545 12.2969C16.6369 12.0744 16.8806 11.82 17.1162 11.5737C17.5306 11.1425 18 10.6525 18 10C18 9.3475 17.5306 8.85812 17.1162 8.42625ZM13.8537 8.85375L10.3537 12.3537C10.3073 12.4002 10.2522 12.4371 10.1915 12.4623C10.1308 12.4874 10.0657 12.5004 10 12.5004C9.93429 12.5004 9.86923 12.4874 9.80853 12.4623C9.74783 12.4371 9.69269 12.4002 9.64625 12.3537L8.14625 10.8537C8.05243 10.7599 7.99972 10.6327 7.99972 10.5C7.99972 10.3673 8.05243 10.2401 8.14625 10.1462C8.24007 10.0524 8.36732 9.99972 8.5 9.99972C8.63268 9.99972 8.75993 10.0524 8.85375 10.1462L10 11.2931L13.1462 8.14625C13.1927 8.09979 13.2479 8.06294 13.3086 8.0378C13.3692 8.01266 13.4343 7.99972 13.5 7.99972C13.5657 7.99972 13.6308 8.01266 13.6914 8.0378C13.7521 8.06294 13.8073 8.09979 13.8537 8.14625C13.9002 8.1927 13.9371 8.24786 13.9622 8.30855C13.9873 8.36925 14.0003 8.4343 14.0003 8.5C14.0003 8.5657 13.9873 8.63075 13.9622 8.69145C13.9371 8.75214 13.9002 8.80729 13.8537 8.85375Z" fill="#CBFB62"/>
</g>
<defs>
<filter id="filter0_d_4786_73107" x="-0.619648" y="-0.714736" width="23.2393" height="23.2393" filterUnits="userSpaceOnUse" color-interpolation-filters="sRGB">
<feFlood flood-opacity="0" result="BackgroundImageFix"/>
<feColorMatrix in="SourceAlpha" type="matrix" values="0 0 0 0 0 0 0 0 0 0 0 0 0 0 0 0 0 0 127 0" result="hardAlpha"/>
<feOffset dy="0.904912"/>
<feGaussianBlur stdDeviation="1.80982"/>
<feColorMatrix type="matrix" values="0 0 0 0 0 0 0 0 0 0 0 0 0 0 0 0 0 0 0.25 0"/>
<feBlend mode="normal" in2="BackgroundImageFix" result="effect1_dropShadow_4786_73107"/>
<feBlend mode="normal" in="SourceGraphic" in2="effect1_dropShadow_4786_73107" result="shape"/>
</filter>
</defs>
</svg>
