<svg width="14" height="14" viewBox="0 0 14 14" fill="none" xmlns="http://www.w3.org/2000/svg">
<g clip-path="url(#clip0_3514_85757)">
<path d="M13.2182 4.93845L6.24182 11.9143C6.1611 11.995 6.06526 12.0591 5.95978 12.1028C5.85431 12.1465 5.74125 12.169 5.62709 12.169C5.51292 12.169 5.39986 12.1465 5.29439 12.1028C5.18891 12.0591 5.09307 11.995 5.01235 11.9143L1.12132 8.0026C0.958587 7.83962 0.867188 7.61872 0.867188 7.38841C0.867188 7.1581 0.958587 6.9372 1.12132 6.77422L2.42521 5.47033C2.58767 5.30783 2.80786 5.21626 3.03764 5.21565C3.26742 5.21504 3.48809 5.30543 3.65141 5.46707L5.64202 7.38325L5.648 7.38922L10.6859 2.42519C10.8488 2.26296 11.0694 2.17187 11.2993 2.17188C11.5292 2.17187 11.7498 2.26296 11.9127 2.42519L13.2166 3.70518C13.298 3.78586 13.3626 3.88185 13.4068 3.98762C13.451 4.09339 13.4738 4.20685 13.474 4.32147C13.4741 4.4361 13.4516 4.54962 13.4077 4.6555C13.3638 4.76139 13.2994 4.85755 13.2182 4.93845Z" fill="#292F1E"/>
</g>
<defs>
<clipPath id="clip0_3514_85757">
<rect width="13.9082" height="13.9082" fill="white"/>
</clipPath>
</defs>
</svg>
