<svg width="24" height="24" viewBox="0 0 24 24" fill="none" xmlns="http://www.w3.org/2000/svg">
<path d="M21 12.0004C21 13.7583 20.4853 15.4777 19.5193 16.9464C18.5533 18.4151 17.1783 19.5687 15.5642 20.2648C13.95 20.961 12.1673 21.1692 10.4362 20.8638C8.70505 20.5583 7.10126 19.7526 5.82281 18.5461C5.75116 18.4784 5.69355 18.3972 5.65326 18.3072C5.61298 18.2172 5.59081 18.1202 5.58802 18.0217C5.58524 17.9231 5.60189 17.825 5.63702 17.7329C5.67216 17.6408 5.7251 17.5565 5.79281 17.4848C5.92957 17.3401 6.1182 17.2557 6.31722 17.25C6.41577 17.2472 6.5139 17.2639 6.60601 17.299C6.69812 17.3342 6.78241 17.3871 6.85406 17.4548C7.92632 18.4664 9.2729 19.1396 10.7256 19.3902C12.1782 19.6408 13.6725 19.4578 15.0218 18.8641C16.371 18.2703 17.5153 17.2921 18.3118 16.0516C19.1083 14.8112 19.5215 13.3636 19.5 11.8896C19.4784 10.4157 19.0229 8.98074 18.1905 7.76416C17.358 6.54757 16.1855 5.60327 14.8195 5.04925C13.4535 4.49523 11.9544 4.35606 10.5097 4.64912C9.06504 4.94217 7.73875 5.65447 6.69656 6.69701C6.36563 7.0317 6.05438 7.36076 5.75156 7.68795L7.28063 9.21982C7.38563 9.32471 7.45716 9.4584 7.48615 9.60397C7.51514 9.74953 7.50028 9.90042 7.44347 10.0375C7.38665 10.1747 7.29043 10.2918 7.16699 10.3742C7.04354 10.4566 6.89842 10.5006 6.75 10.5004H3C2.80109 10.5004 2.61032 10.4214 2.46967 10.2808C2.32902 10.1401 2.25 9.94936 2.25 9.75045V6.00045C2.24988 5.85202 2.29381 5.7069 2.37621 5.58346C2.45861 5.46001 2.57579 5.36379 2.71291 5.30698C2.85002 5.25016 3.00092 5.23531 3.14648 5.2643C3.29204 5.29329 3.42573 5.36481 3.53063 5.46982L4.6875 6.62857C4.98938 6.30138 5.30063 5.97232 5.63063 5.63951C6.88883 4.37916 8.49267 3.52042 10.2391 3.17199C11.9856 2.82356 13.7962 3.00109 15.4417 3.68213C17.0872 4.36316 18.4937 5.51708 19.4832 6.99782C20.4726 8.47856 21.0005 10.2196 21 12.0004ZM12 6.75045C11.8011 6.75045 11.6103 6.82946 11.4697 6.97012C11.329 7.11077 11.25 7.30153 11.25 7.50045V12.0004C11.25 12.1299 11.2834 12.2572 11.3472 12.3699C11.4109 12.4826 11.5028 12.5769 11.6137 12.6436L15.3638 14.8936C15.4482 14.9443 15.5418 14.9779 15.6393 14.9924C15.7367 15.007 15.8361 15.0022 15.9316 14.9783C16.0272 14.9545 16.1172 14.912 16.1964 14.8534C16.2755 14.7948 16.3424 14.7212 16.3931 14.6367C16.4438 14.5522 16.4774 14.4586 16.492 14.3612C16.5065 14.2637 16.5017 14.1644 16.4779 14.0688C16.454 13.9732 16.4116 13.8833 16.353 13.8041C16.2943 13.7249 16.2207 13.658 16.1362 13.6073L12.75 11.5758V7.50045C12.75 7.30153 12.671 7.11077 12.5303 6.97012C12.3897 6.82946 12.1989 6.75045 12 6.75045Z" fill="#1D1B21"/>
</svg>
