<svg width="21" height="21" viewBox="0 0 21 21" fill="none" xmlns="http://www.w3.org/2000/svg">
<path d="M16.2701 7.61613C16.2701 7.43071 16.3251 7.24946 16.4281 7.09529C16.5311 6.94112 16.6775 6.82096 16.8488 6.75C17.0201 6.67904 17.2086 6.66048 17.3905 6.69665C17.5723 6.73282 17.7394 6.82211 17.8705 6.95322C18.0016 7.08433 18.0909 7.25138 18.1271 7.43324C18.1632 7.61509 18.1447 7.80359 18.0737 7.9749C18.0028 8.14621 17.8826 8.29262 17.7284 8.39564C17.5743 8.49865 17.393 8.55363 17.2076 8.55363C16.9589 8.55363 16.7205 8.45486 16.5447 8.27905C16.3689 8.10323 16.2701 7.86478 16.2701 7.61613ZM15.3326 5.74114C15.518 5.74114 15.6993 5.68615 15.8534 5.58314C16.0076 5.48012 16.1278 5.33371 16.1987 5.1624C16.2697 4.9911 16.2882 4.8026 16.2521 4.62074C16.2159 4.43888 16.1266 4.27184 15.9955 4.14072C15.8644 4.00961 15.6973 3.92032 15.5155 3.88415C15.3336 3.84798 15.1451 3.86654 14.9738 3.9375C14.8025 4.00846 14.6561 4.12862 14.5531 4.28279C14.4501 4.43696 14.3951 4.61822 14.3951 4.80364C14.3951 5.05228 14.4939 5.29073 14.6697 5.46655C14.8455 5.64236 15.0839 5.74114 15.3326 5.74114ZM17.5716 10.1161C17.4065 10.1025 17.2427 10.155 17.1163 10.2621C16.9899 10.3692 16.9112 10.5221 16.8974 10.6872C16.7856 11.9938 16.3029 13.2413 15.5061 14.2829C14.7093 15.3245 13.6316 16.1168 12.3998 16.5667C11.168 17.0165 9.83331 17.1052 8.55281 16.8223C7.27231 16.5393 6.09926 15.8966 5.17167 14.9696C4.24409 14.0426 3.60057 12.8699 3.31683 11.5896C3.03309 10.3093 3.12093 8.97455 3.57003 7.74246C4.01912 6.51037 4.81078 5.43217 5.85185 4.63474C6.89292 3.83731 8.1401 3.35381 9.44664 3.24114C9.52872 3.23437 9.60865 3.21149 9.68189 3.17383C9.75513 3.13616 9.82023 3.08444 9.87348 3.02162C9.92673 2.95879 9.96708 2.8861 9.99223 2.80768C10.0174 2.72926 10.0268 2.64665 10.0201 2.56457C10.0133 2.4825 9.99044 2.40256 9.95277 2.32932C9.9151 2.25609 9.86338 2.19098 9.80056 2.13774C9.73773 2.08449 9.66504 2.04413 9.58662 2.01898C9.5082 1.99383 9.42559 1.98437 9.34351 1.99114C7.79978 2.12392 6.32609 2.69484 5.09581 3.63673C3.86553 4.57861 2.92985 5.85228 2.39885 7.30788C1.86785 8.76348 1.76362 10.3405 2.09843 11.8533C2.43323 13.3661 3.19314 14.7518 4.28876 15.8475C5.38437 16.9431 6.7701 17.703 8.28293 18.0378C9.79575 18.3726 11.3727 18.2684 12.8283 17.7374C14.2839 17.2064 15.5576 16.2707 16.4995 15.0404C17.4414 13.8101 18.0123 12.3364 18.1451 10.7927C18.1521 10.7106 18.1429 10.6278 18.1178 10.5493C18.0928 10.4708 18.0525 10.398 17.9992 10.3351C17.9459 10.2722 17.8806 10.2205 17.8073 10.1829C17.7339 10.1453 17.6538 10.1226 17.5716 10.1161ZM10.0201 4.49114C11.1326 4.49114 12.2201 4.82104 13.1452 5.43912C14.0702 6.0572 14.7912 6.93571 15.2169 7.96354C15.6426 8.99137 15.754 10.1224 15.537 11.2135C15.32 12.3047 14.7842 13.3069 13.9976 14.0936C13.2109 14.8803 12.2086 15.416 11.1175 15.633C10.0263 15.8501 8.89532 15.7387 7.86748 15.313C6.83965 14.8872 5.96114 14.1662 5.34306 13.2412C4.72498 12.3162 4.39508 11.2287 4.39508 10.1161C4.39673 8.6248 4.98989 7.19502 6.04443 6.14049C7.09896 5.08595 8.52874 4.49279 10.0201 4.49114ZM9.39508 10.1161C9.39508 10.2819 9.46093 10.4409 9.57814 10.5581C9.69535 10.6753 9.85432 10.7411 10.0201 10.7411H13.7701C13.9358 10.7411 14.0948 10.6753 14.212 10.5581C14.3292 10.4409 14.3951 10.2819 14.3951 10.1161C14.3951 9.95037 14.3292 9.7914 14.212 9.67419C14.0948 9.55698 13.9358 9.49113 13.7701 9.49113H10.6451V6.36614C10.6451 6.20038 10.5792 6.0414 10.462 5.92419C10.3448 5.80698 10.1858 5.74114 10.0201 5.74114C9.85432 5.74114 9.69535 5.80698 9.57814 5.92419C9.46093 6.0414 9.39508 6.20038 9.39508 6.36614V10.1161ZM12.5201 3.86614C12.7055 3.86614 12.8868 3.81115 13.0409 3.70814C13.1951 3.60513 13.3153 3.45871 13.3862 3.2874C13.4572 3.1161 13.4757 2.9276 13.4396 2.74574C13.4034 2.56388 13.3141 2.39684 13.183 2.26572C13.0519 2.13461 12.8848 2.04532 12.703 2.00915C12.5211 1.97298 12.3326 1.99154 12.1613 2.0625C11.99 2.13346 11.8436 2.25362 11.7406 2.40779C11.6376 2.56196 11.5826 2.74322 11.5826 2.92864C11.5826 3.17728 11.6814 3.41573 11.8572 3.59155C12.033 3.76736 12.2714 3.86614 12.5201 3.86614Z" fill="#292F1E"/>
</svg>
