<svg width="20" height="20" viewBox="0 0 20 20" fill="none" xmlns="http://www.w3.org/2000/svg">
<path opacity="0.5" d="M17.4843 3.22743L10.0982 1.92507C9.41833 1.80519 8.77001 2.25915 8.65013 2.93902L6.91365 12.7871C6.79377 13.467 7.24773 14.1153 7.9276 14.2352L15.3137 15.5375C15.9935 15.6574 16.6418 15.2034 16.7617 14.5236L18.4982 4.6755C18.6181 3.99563 18.1641 3.34731 17.4843 3.22743Z" fill="#A198AC"/>
<path d="M10.2147 4.44347L2.82867 5.74583C2.1488 5.86571 1.69484 6.51403 1.81472 7.1939L3.5512 17.042C3.67108 17.7218 4.3194 18.1758 4.99927 18.0559L12.3853 16.7536C13.0652 16.6337 13.5192 15.9854 13.3993 15.3055L11.6628 5.45742C11.5429 4.77755 10.8946 4.32359 10.2147 4.44347Z" fill="#A198AC"/>
</svg>
