<svg width="160" height="160" viewBox="0 0 160 160" fill="none" xmlns="http://www.w3.org/2000/svg">
<path d="M69.6827 32.8938C68.5084 31.7225 67.0579 30.8659 65.4652 30.403C63.8726 29.9401 62.1889 29.8858 60.5698 30.2451C58.9506 30.6045 57.448 31.3659 56.2006 32.459C54.9532 33.5522 54.0013 34.9419 53.4327 36.5L20.6264 126.737C20.0875 128.226 19.9134 129.821 20.1188 131.39C20.3242 132.96 20.903 134.457 21.8068 135.756C22.7105 137.055 23.9127 138.119 25.3125 138.857C26.7123 139.596 28.2688 139.988 29.8514 140C31.0167 139.992 32.1716 139.781 33.2639 139.375L123.495 106.562C125.054 105.995 126.444 105.043 127.538 103.796C128.632 102.549 129.394 101.047 129.754 99.4273C130.114 97.808 130.06 96.1242 129.598 94.5311C129.135 92.9381 128.279 91.4873 127.108 90.3125L69.6827 32.8938ZM40.7139 100.706L52.7139 67.7125L92.289 107.288L59.2889 119.288L40.7139 100.706ZM100.001 45C100.095 41.6198 100.914 38.2992 102.401 35.2625C105.714 28.6437 111.964 25 120.001 25C124.189 25 126.876 23.5688 128.533 20.4938C129.405 18.7734 129.905 16.8889 130.001 14.9625C130.006 13.6364 130.538 12.3666 131.479 11.4325C132.42 10.4983 133.694 9.97628 135.02 9.98125C136.346 9.98622 137.616 10.5178 138.55 11.459C139.484 12.4002 140.006 13.6739 140.001 15C140.001 23.0375 134.676 35 120.001 35C115.814 35 113.126 36.4312 111.47 39.5062C110.598 41.2266 110.098 43.1111 110.001 45.0375C109.999 45.6941 109.867 46.3438 109.614 46.9495C109.36 47.5552 108.99 48.105 108.524 48.5675C108.058 49.0301 107.505 49.3963 106.898 49.6453C106.29 49.8943 105.639 50.0212 104.983 50.0187C104.326 50.0163 103.676 49.8845 103.071 49.631C102.465 49.3774 101.915 49.0071 101.453 48.541C100.99 48.075 100.624 47.5224 100.375 46.9148C100.126 46.3073 99.999 45.6566 100.001 45ZM85.0014 25V10C85.0014 8.67392 85.5282 7.40215 86.4659 6.46447C87.4036 5.52678 88.6754 5 90.0014 5C91.3275 5 92.5993 5.52678 93.537 6.46447C94.4747 7.40215 95.0014 8.67392 95.0014 10V25C95.0014 26.3261 94.4747 27.5979 93.537 28.5355C92.5993 29.4732 91.3275 30 90.0014 30C88.6754 30 87.4036 29.4732 86.4659 28.5355C85.5282 27.5979 85.0014 26.3261 85.0014 25ZM148.539 76.4625C149.003 76.927 149.371 77.4785 149.622 78.0853C149.873 78.6921 150.002 79.3424 150.002 79.9991C150.002 80.6558 149.872 81.306 149.621 81.9126C149.369 82.5191 149 83.0702 148.536 83.5344C148.071 83.9985 147.52 84.3666 146.913 84.6176C146.306 84.8687 145.656 84.9977 144.999 84.9974C144.343 84.9972 143.692 84.8675 143.086 84.616C142.479 84.3644 141.928 83.9958 141.464 83.5312L131.464 73.5313C130.526 72.593 129.999 71.3206 129.999 69.9937C129.999 68.6669 130.526 67.3945 131.464 66.4563C132.402 65.518 133.675 64.991 135.001 64.991C136.328 64.991 137.601 65.518 138.539 66.4563L148.539 76.4625ZM151.583 49.7437L136.583 54.7437C135.325 55.1631 133.951 55.0655 132.765 54.4725C131.579 53.8794 130.677 52.8394 130.258 51.5812C129.838 50.3231 129.936 48.9499 130.529 47.7638C131.122 46.5776 132.162 45.6756 133.42 45.2563L148.42 40.2563C149.678 39.8369 151.051 39.9345 152.238 40.5275C153.424 41.1206 154.326 42.1606 154.745 43.4188C155.165 44.6769 155.067 46.0501 154.474 47.2362C153.881 48.4224 152.841 49.3244 151.583 49.7437Z" fill="#161C20"/>
</svg>
