<svg width="37" height="30" viewBox="0 0 37 30" fill="none" xmlns="http://www.w3.org/2000/svg">
<path d="M17.885 14.202C17.885 14.398 17.8033 14.7573 17.64 15.28C17.5093 15.8027 17.4277 16.2437 17.395 16.603C17.2317 16.603 17.101 16.6357 17.003 16.701C17.003 16.799 17.0193 16.897 17.052 16.995C17.1173 17.093 17.1827 17.1583 17.248 17.191C17.15 17.877 16.9867 18.5957 16.758 19.347C16.7253 19.445 16.7253 19.5267 16.758 19.592C16.8233 19.6573 16.8397 19.739 16.807 19.837C16.7743 20.0983 16.6927 20.4087 16.562 20.768C16.4313 21.1273 16.268 21.454 16.072 21.748C15.9087 21.748 15.778 21.797 15.68 21.895C15.3533 22.5483 15.0103 23.316 14.651 24.198C14.2917 25.08 13.72 25.8803 12.936 26.599C12.6747 26.8603 12.348 27.0727 11.956 27.236C11.5967 27.3993 11.4497 27.6117 11.515 27.873C11.221 28.167 10.7147 28.4283 9.996 28.657C9.27733 28.8857 8.68933 29 8.232 29H7.252C6.86 29 6.38633 28.902 5.831 28.706C5.27567 28.51 4.73667 28.265 4.214 27.971C3.69133 27.6443 3.20133 27.2523 2.744 26.795C2.28667 26.3377 1.96 25.8313 1.764 25.276C1.73133 25.2107 1.68233 25.1453 1.617 25.08C1.55167 24.982 1.48633 24.9003 1.421 24.835C0.996333 23.9203 0.653333 22.8423 0.392 21.601C0.163333 20.327 0.049 19.298 0.049 18.514C0.049 18.4487 0.0653333 18.2363 0.098 17.877C0.163333 17.5177 0.212333 17.1093 0.245 16.652C0.310333 16.1947 0.375667 15.7047 0.441 15.182C0.539 14.6267 0.620667 14.153 0.686 13.761C0.784 13.4017 0.963667 12.83 1.225 12.046C1.519 11.2293 1.87833 10.331 2.303 9.351C2.76033 8.371 3.26667 7.37467 3.822 6.362C4.41 5.31667 5.047 4.36933 5.733 3.52C6.419 2.67067 7.13767 1.96833 7.889 1.413C8.64033 0.857665 9.42433 0.579998 10.241 0.579998C10.4043 0.579998 10.633 0.645331 10.927 0.775998C11.221 0.906665 11.515 1.05367 11.809 1.217C12.103 1.34767 12.3807 1.52733 12.642 1.756C12.9033 1.952 13.0993 2.13167 13.23 2.295C13.3607 2.45833 13.4587 2.687 13.524 2.981C13.5893 3.24233 13.671 3.471 13.769 3.667C13.573 3.53633 13.426 3.52 13.328 3.618C13.3933 3.912 13.7363 4.255 14.357 4.647C14.553 4.77767 14.7327 4.85933 14.896 4.892C15.092 4.92467 15.239 4.99 15.337 5.088C15.533 5.21867 15.729 5.41467 15.925 5.676C16.121 5.90467 16.366 6.10067 16.66 6.264C16.4967 6.362 16.4313 6.49267 16.464 6.656C16.6273 6.72133 16.758 6.852 16.856 7.048C16.954 7.244 17.0357 7.42367 17.101 7.587C17.199 7.685 17.248 7.84833 17.248 8.077C17.248 8.273 17.346 8.45267 17.542 8.616C17.5747 8.87733 17.542 9.18767 17.444 9.547C17.3787 9.90633 17.3787 10.2167 17.444 10.478C17.6073 10.9027 17.689 11.2457 17.689 11.507C17.7217 11.7683 17.7217 12.0133 17.689 12.242C17.689 12.438 17.6727 12.634 17.64 12.83C17.6073 12.9933 17.591 13.2057 17.591 13.467C17.591 13.565 17.64 13.663 17.738 13.761C17.836 13.859 17.885 14.006 17.885 14.202ZM14.21 11.703C14.21 11.4417 14.1773 11.017 14.112 10.429C14.0793 9.80833 13.9813 9.18767 13.818 8.567C13.6873 7.94633 13.4913 7.42367 13.23 6.999C12.9687 6.54167 12.6093 6.313 12.152 6.313C11.9233 6.313 11.7437 6.32933 11.613 6.362C11.515 6.39467 11.4333 6.46 11.368 6.558C11.2047 6.62333 11.0903 6.72133 11.025 6.852C10.9923 6.98267 10.9107 7.048 10.78 7.048H9.751C9.555 7.048 9.44067 6.98267 9.408 6.852C9.37533 6.68867 9.27733 6.62333 9.114 6.656H8.477C8.379 6.72133 8.31367 6.803 8.281 6.901C8.281 6.96633 8.29733 7.048 8.33 7.146C7.80733 7.86467 7.301 8.69767 6.811 9.645C6.35367 10.5923 5.929 11.556 5.537 12.536C5.145 13.4833 4.81833 14.398 4.557 15.28C4.29567 16.1293 4.116 16.799 4.018 17.289C3.92 17.681 3.85467 18.2037 3.822 18.857C3.78933 19.5103 3.773 19.935 3.773 20.131C3.773 20.2943 3.773 20.5393 3.773 20.866C3.773 21.1927 3.78933 21.4377 3.822 21.601C3.95267 21.9603 4.08333 22.3523 4.214 22.777C4.34467 23.169 4.508 23.5447 4.704 23.904C4.93267 24.2307 5.194 24.5083 5.488 24.737C5.81467 24.9657 6.223 25.08 6.713 25.08C7.987 25.08 9.09767 24.59 10.045 23.61C10.9923 22.63 11.7763 21.4377 12.397 20.033C13.0177 18.5957 13.475 17.1257 13.769 15.623C14.063 14.0877 14.21 12.781 14.21 11.703ZM36.5685 6.46C36.5685 7.146 36.3072 7.93 35.7845 8.812C35.2945 9.694 34.6902 10.5433 33.9715 11.36C33.2855 12.144 32.5669 12.8137 31.8155 13.369C31.0969 13.9243 30.5415 14.202 30.1495 14.202C30.0842 14.2347 30.0189 14.3163 29.9535 14.447C29.8882 14.545 29.7739 14.6757 29.6105 14.839C30.9825 15.3943 32.0605 16.2927 32.8445 17.534C33.6285 18.7753 34.0205 19.984 34.0205 21.16C34.0205 21.7153 33.8409 22.4013 33.4815 23.218C33.1222 24.002 32.6322 24.786 32.0115 25.57C31.3909 26.3213 30.6885 27.0073 29.9045 27.628C29.1205 28.216 28.3202 28.608 27.5035 28.804C27.3075 28.8693 27.1605 28.9673 27.0625 29.098C26.9645 29.2613 26.8175 29.343 26.6215 29.343C26.4255 29.343 26.0009 29.196 25.3475 28.902C25.2495 28.902 25.2005 28.9183 25.2005 28.951C25.2005 28.9837 25.2169 29 25.2495 29C25.2822 29.0327 25.2985 29.0653 25.2985 29.098C25.2985 29.1633 25.2332 29.196 25.1025 29.196C25.0699 29 24.9555 28.902 24.7595 28.902C24.6615 29 24.5145 29.049 24.3185 29.049C24.3185 28.853 24.2532 28.755 24.1225 28.755C23.9265 28.755 23.8285 28.804 23.8285 28.902C23.7632 28.902 23.6162 28.8203 23.3875 28.657C23.1589 28.4937 22.8975 28.314 22.6035 28.118C22.3422 27.8893 22.0809 27.677 21.8195 27.481C21.5909 27.2523 21.4112 27.0563 21.2805 26.893C21.0845 26.697 20.9212 26.403 20.7905 26.011C20.6925 25.619 20.6435 25.325 20.6435 25.129C20.6435 24.7697 20.8395 24.3777 21.2315 23.953C21.6235 23.5283 21.9665 23.2343 22.2605 23.071C22.5545 22.9403 22.8649 22.8587 23.1915 22.826C23.5509 22.7933 23.9102 22.6953 24.2695 22.532C24.4329 22.7607 24.4492 23.0383 24.3185 23.365C24.4165 23.4303 24.5145 23.4957 24.6125 23.561C24.7105 23.6263 24.7595 23.757 24.7595 23.953C24.7595 24.149 24.6289 24.394 24.3675 24.688C24.1389 24.982 24.0082 25.227 23.9755 25.423V26.256C24.5962 26.1253 25.2659 25.815 25.9845 25.325C26.7359 24.8023 27.4219 24.198 28.0425 23.512C28.6632 22.826 29.1695 22.1073 29.5615 21.356C29.9862 20.6047 30.1985 19.9187 30.1985 19.298C30.1985 19.102 30.1822 18.9713 30.1495 18.906C30.1169 18.808 30.1005 18.6773 30.1005 18.514C29.7739 18.514 29.3819 18.4977 28.9245 18.465C28.4672 18.4323 28.1405 18.416 27.9445 18.416C27.8465 18.416 27.6505 18.465 27.3565 18.563C27.0952 18.6283 26.8175 18.71 26.5235 18.808C26.2295 18.906 25.9519 19.004 25.6905 19.102C25.4619 19.1673 25.2985 19.2 25.2005 19.2C25.0045 19.2 24.8739 19.151 24.8085 19.053C24.7759 18.955 24.6615 18.906 24.4655 18.906C24.2695 18.906 24.0899 18.8243 23.9265 18.661C23.7959 18.4977 23.6325 18.416 23.4365 18.416C23.2405 18.416 23.1099 18.4487 23.0445 18.514C23.0119 18.5793 22.9792 18.612 22.9465 18.612C22.8485 18.514 22.7995 18.3997 22.7995 18.269C22.8322 18.1057 22.8975 17.9423 22.9955 17.779C22.4402 17.485 22.0482 17.2727 21.8195 17.142C21.6235 17.0113 21.5255 16.6683 21.5255 16.113C21.5255 15.917 21.5255 15.7047 21.5255 15.476C21.5582 15.2147 21.7705 15.0023 22.1625 14.839C22.5872 14.643 23.0772 14.4143 23.6325 14.153C24.1879 13.859 24.7105 13.516 25.2005 13.124C25.3639 12.9933 25.8212 12.585 26.5725 11.899C27.3239 11.213 28.1079 10.4617 28.9245 9.645C29.7739 8.79567 30.5415 7.96267 31.2275 7.146C31.9135 6.29667 32.2565 5.65967 32.2565 5.235C32.2565 5.00633 32.1422 4.892 31.9135 4.892C31.7175 4.892 31.4399 4.90833 31.0805 4.941C30.7539 4.97367 30.4925 4.99 30.2965 4.99C30.1985 4.99 30.0025 5.02267 29.7085 5.088C29.4145 5.15333 29.0715 5.235 28.6795 5.333C28.3202 5.431 27.9609 5.54533 27.6015 5.676C27.2422 5.80667 26.9155 5.95367 26.6215 6.117C26.3929 6.24767 26.0499 6.46 25.5925 6.754C25.1352 7.01533 24.7595 7.27667 24.4655 7.538C24.1715 7.76667 23.8612 8.126 23.5345 8.616C23.2079 9.07333 22.9465 9.302 22.7505 9.302C22.5872 9.302 22.4565 9.253 22.3585 9.155C22.2932 9.057 22.1625 9.008 21.9665 9.008C21.6399 9.008 21.4112 8.959 21.2805 8.861C21.1499 8.73033 21.0682 8.58333 21.0355 8.42C21.0029 8.25667 20.9702 8.126 20.9375 8.028C20.9375 7.89733 20.8559 7.832 20.6925 7.832C20.4965 7.832 20.3822 7.86467 20.3495 7.93C20.1535 7.93 19.9249 7.783 19.6635 7.489C19.4022 7.195 19.2715 6.95 19.2715 6.754C19.2715 6.068 19.5982 5.41467 20.2515 4.794C20.9049 4.14067 21.6562 3.569 22.5055 3.079C23.3875 2.589 24.2205 2.18067 25.0045 1.854C25.8212 1.52733 26.4092 1.33133 26.7685 1.266C26.9972 1.20067 27.2749 1.15167 27.6015 1.119C27.9282 1.05367 28.2712 1.021 28.6305 1.021C28.9899 0.988332 29.3002 0.955666 29.5615 0.922999C29.8555 0.890333 30.0515 0.874 30.1495 0.874C30.4435 0.874 30.8029 0.906666 31.2275 0.971999C31.6849 1.03733 32.1422 1.13533 32.5995 1.266C33.0569 1.364 33.4815 1.511 33.8735 1.707C34.2655 1.87033 34.5432 2.06633 34.7065 2.295C34.9352 2.62167 35.1802 3.01367 35.4415 3.471C35.7355 3.89567 35.9152 4.27133 35.9805 4.598C36.0459 4.66333 36.1112 4.745 36.1765 4.843C36.2419 4.90833 36.2909 4.99 36.3235 5.088C36.3562 5.284 36.4052 5.51267 36.4705 5.774C36.5359 6.03533 36.5685 6.264 36.5685 6.46Z" fill="#A198AC"/>
</svg>
