<svg width="38" height="30" viewBox="0 0 38 30" fill="none" xmlns="http://www.w3.org/2000/svg">
<path d="M17.885 14.202C17.885 14.398 17.8033 14.7573 17.64 15.28C17.5093 15.8027 17.4277 16.2437 17.395 16.603C17.2317 16.603 17.101 16.6357 17.003 16.701C17.003 16.799 17.0193 16.897 17.052 16.995C17.1173 17.093 17.1827 17.1583 17.248 17.191C17.15 17.877 16.9867 18.5957 16.758 19.347C16.7253 19.445 16.7253 19.5267 16.758 19.592C16.8233 19.6573 16.8397 19.739 16.807 19.837C16.7743 20.0983 16.6927 20.4087 16.562 20.768C16.4313 21.1273 16.268 21.454 16.072 21.748C15.9087 21.748 15.778 21.797 15.68 21.895C15.3533 22.5483 15.0103 23.316 14.651 24.198C14.2917 25.08 13.72 25.8803 12.936 26.599C12.6747 26.8603 12.348 27.0727 11.956 27.236C11.5967 27.3993 11.4497 27.6117 11.515 27.873C11.221 28.167 10.7147 28.4283 9.996 28.657C9.27733 28.8857 8.68933 29 8.232 29H7.252C6.86 29 6.38633 28.902 5.831 28.706C5.27567 28.51 4.73667 28.265 4.214 27.971C3.69133 27.6443 3.20133 27.2523 2.744 26.795C2.28667 26.3377 1.96 25.8313 1.764 25.276C1.73133 25.2107 1.68233 25.1453 1.617 25.08C1.55167 24.982 1.48633 24.9003 1.421 24.835C0.996333 23.9203 0.653333 22.8423 0.392 21.601C0.163333 20.327 0.049 19.298 0.049 18.514C0.049 18.4487 0.0653333 18.2363 0.098 17.877C0.163333 17.5177 0.212333 17.1093 0.245 16.652C0.310333 16.1947 0.375667 15.7047 0.441 15.182C0.539 14.6267 0.620667 14.153 0.686 13.761C0.784 13.4017 0.963667 12.83 1.225 12.046C1.519 11.2293 1.87833 10.331 2.303 9.351C2.76033 8.371 3.26667 7.37467 3.822 6.362C4.41 5.31667 5.047 4.36933 5.733 3.52C6.419 2.67067 7.13767 1.96833 7.889 1.413C8.64033 0.857665 9.42433 0.579998 10.241 0.579998C10.4043 0.579998 10.633 0.645331 10.927 0.775998C11.221 0.906665 11.515 1.05367 11.809 1.217C12.103 1.34767 12.3807 1.52733 12.642 1.756C12.9033 1.952 13.0993 2.13167 13.23 2.295C13.3607 2.45833 13.4587 2.687 13.524 2.981C13.5893 3.24233 13.671 3.471 13.769 3.667C13.573 3.53633 13.426 3.52 13.328 3.618C13.3933 3.912 13.7363 4.255 14.357 4.647C14.553 4.77767 14.7327 4.85933 14.896 4.892C15.092 4.92467 15.239 4.99 15.337 5.088C15.533 5.21867 15.729 5.41467 15.925 5.676C16.121 5.90467 16.366 6.10067 16.66 6.264C16.4967 6.362 16.4313 6.49267 16.464 6.656C16.6273 6.72133 16.758 6.852 16.856 7.048C16.954 7.244 17.0357 7.42367 17.101 7.587C17.199 7.685 17.248 7.84833 17.248 8.077C17.248 8.273 17.346 8.45267 17.542 8.616C17.5747 8.87733 17.542 9.18767 17.444 9.547C17.3787 9.90633 17.3787 10.2167 17.444 10.478C17.6073 10.9027 17.689 11.2457 17.689 11.507C17.7217 11.7683 17.7217 12.0133 17.689 12.242C17.689 12.438 17.6727 12.634 17.64 12.83C17.6073 12.9933 17.591 13.2057 17.591 13.467C17.591 13.565 17.64 13.663 17.738 13.761C17.836 13.859 17.885 14.006 17.885 14.202ZM14.21 11.703C14.21 11.4417 14.1773 11.017 14.112 10.429C14.0793 9.80833 13.9813 9.18767 13.818 8.567C13.6873 7.94633 13.4913 7.42367 13.23 6.999C12.9687 6.54167 12.6093 6.313 12.152 6.313C11.9233 6.313 11.7437 6.32933 11.613 6.362C11.515 6.39467 11.4333 6.46 11.368 6.558C11.2047 6.62333 11.0903 6.72133 11.025 6.852C10.9923 6.98267 10.9107 7.048 10.78 7.048H9.751C9.555 7.048 9.44067 6.98267 9.408 6.852C9.37533 6.68867 9.27733 6.62333 9.114 6.656H8.477C8.379 6.72133 8.31367 6.803 8.281 6.901C8.281 6.96633 8.29733 7.048 8.33 7.146C7.80733 7.86467 7.301 8.69767 6.811 9.645C6.35367 10.5923 5.929 11.556 5.537 12.536C5.145 13.4833 4.81833 14.398 4.557 15.28C4.29567 16.1293 4.116 16.799 4.018 17.289C3.92 17.681 3.85467 18.2037 3.822 18.857C3.78933 19.5103 3.773 19.935 3.773 20.131C3.773 20.2943 3.773 20.5393 3.773 20.866C3.773 21.1927 3.78933 21.4377 3.822 21.601C3.95267 21.9603 4.08333 22.3523 4.214 22.777C4.34467 23.169 4.508 23.5447 4.704 23.904C4.93267 24.2307 5.194 24.5083 5.488 24.737C5.81467 24.9657 6.223 25.08 6.713 25.08C7.987 25.08 9.09767 24.59 10.045 23.61C10.9923 22.63 11.7763 21.4377 12.397 20.033C13.0177 18.5957 13.475 17.1257 13.769 15.623C14.063 14.0877 14.21 12.781 14.21 11.703ZM37.7905 21.356C36.2878 21.4867 34.7525 21.552 33.1845 21.552C33.1192 21.846 33.0538 22.2707 32.9885 22.826C32.9558 23.3487 32.9395 23.708 32.9395 23.904C32.9395 24.5573 32.9722 25.08 33.0375 25.472C33.1028 25.864 33.1845 26.2233 33.2825 26.55C33.4132 26.844 33.5602 27.187 33.7235 27.579C33.9195 27.9383 34.1482 28.4447 34.4095 29.098V29.784C33.9522 29.6207 33.4295 29.4247 32.8415 29.196C32.2535 29 31.8778 28.902 31.7145 28.902C31.7145 29 31.6165 29.049 31.4205 29.049C31.2245 29.049 31.0612 28.9837 30.9305 28.853C30.8325 28.7223 30.7345 28.608 30.6365 28.51C30.3425 28.1833 30.1138 27.7913 29.9505 27.334C29.8198 26.8767 29.7055 26.3867 29.6075 25.864C29.4115 25.2107 29.2972 24.5573 29.2645 23.904C29.2645 23.218 29.2645 22.5483 29.2645 21.895C29.1992 21.8623 29.0032 21.846 28.6765 21.846C28.5785 21.846 28.1375 21.9277 27.3535 22.091C26.6022 22.2217 25.7855 22.385 24.9035 22.581C24.0215 22.7443 23.2048 22.9077 22.4535 23.071C21.7348 23.2343 21.3265 23.316 21.2285 23.316C21.1632 23.316 20.9998 23.2343 20.7385 23.071C20.4772 22.9077 20.1832 22.728 19.8565 22.532C19.5625 22.3033 19.2522 22.0747 18.9255 21.846C18.6315 21.5847 18.3702 21.356 18.1415 21.16C17.9128 21.0293 17.7985 20.768 17.7985 20.376C17.7985 20.18 17.8802 19.9187 18.0435 19.592C18.2068 19.2653 18.3538 19.0367 18.4845 18.906C19.1378 18.122 19.7422 17.3053 20.2975 16.456C20.8528 15.574 21.4408 14.7737 22.0615 14.055C22.7475 13.369 23.3028 12.6503 23.7275 11.899C24.1848 11.1477 24.8055 10.2983 25.5895 9.351C25.8835 9.057 26.2592 8.714 26.7165 8.322C27.1738 7.93 27.5658 7.57067 27.8925 7.244C27.9578 7.17867 28.0232 7.01533 28.0885 6.754C28.1865 6.49267 28.3008 6.264 28.4315 6.068C29.0195 5.088 29.6238 4.157 30.2445 3.275C30.8978 2.36033 31.6165 1.39666 32.4005 0.383997C32.5312 0.285999 32.6618 0.253333 32.7925 0.285999C32.9232 0.285999 33.0865 0.285999 33.2825 0.285999C33.4785 0.285999 33.7562 0.465665 34.1155 0.824998C34.5075 1.18433 34.8832 1.609 35.2425 2.099C35.6018 2.55633 35.9122 3.01367 36.1735 3.471C36.4675 3.89567 36.6145 4.18967 36.6145 4.353C36.6145 4.51633 36.4838 4.892 36.2225 5.48C35.9612 6.068 35.7652 6.54167 35.6345 6.901C35.5365 7.32567 35.3895 7.86467 35.1935 8.518C35.0302 9.17133 34.8832 9.75933 34.7525 10.282C34.7198 10.38 34.7035 10.4943 34.7035 10.625C34.7035 10.723 34.6708 10.8047 34.6055 10.87C34.5075 11.4253 34.3932 12.0787 34.2625 12.83C34.1318 13.5487 34.0012 14.251 33.8705 14.937C33.7398 15.623 33.6255 16.2273 33.5275 16.75C33.4295 17.24 33.3805 17.5177 33.3805 17.583V18.465C33.6745 18.563 34.0502 18.5793 34.5075 18.514C34.9648 18.416 35.4058 18.465 35.8305 18.661C36.3532 18.8897 36.7615 19.298 37.0555 19.886C37.3495 20.4413 37.5945 20.9313 37.7905 21.356ZM30.7345 10.821V10.184C29.4605 11.6867 28.1865 13.1893 26.9125 14.692C25.6712 16.1947 24.5442 17.632 23.5315 19.004C24.6422 18.8407 25.6548 18.7263 26.5695 18.661C27.5168 18.563 28.4478 18.514 29.3625 18.514C29.4278 18.024 29.4768 17.5177 29.5095 16.995C29.5748 16.4397 29.7055 15.966 29.9015 15.574C29.8688 15.0513 29.8852 14.545 29.9505 14.055C30.0158 13.565 30.0975 13.0913 30.1955 12.634C30.2608 12.5687 30.3098 12.5033 30.3425 12.438C30.4078 12.34 30.4732 12.2583 30.5385 12.193C30.5712 11.899 30.6038 11.654 30.6365 11.458C30.7018 11.2293 30.7345 11.017 30.7345 10.821Z" fill="#A198AC"/>
</svg>
