<svg width="34" height="30" viewBox="0 0 34 30" fill="none" xmlns="http://www.w3.org/2000/svg">
<path d="M17.885 14.202C17.885 14.398 17.8033 14.7573 17.64 15.28C17.5093 15.8027 17.4277 16.2437 17.395 16.603C17.2317 16.603 17.101 16.6357 17.003 16.701C17.003 16.799 17.0193 16.897 17.052 16.995C17.1173 17.093 17.1827 17.1583 17.248 17.191C17.15 17.877 16.9867 18.5957 16.758 19.347C16.7253 19.445 16.7253 19.5267 16.758 19.592C16.8233 19.6573 16.8397 19.739 16.807 19.837C16.7743 20.0983 16.6927 20.4087 16.562 20.768C16.4313 21.1273 16.268 21.454 16.072 21.748C15.9087 21.748 15.778 21.797 15.68 21.895C15.3533 22.5483 15.0103 23.316 14.651 24.198C14.2917 25.08 13.72 25.8803 12.936 26.599C12.6747 26.8603 12.348 27.0727 11.956 27.236C11.5967 27.3993 11.4497 27.6117 11.515 27.873C11.221 28.167 10.7147 28.4283 9.996 28.657C9.27733 28.8857 8.68933 29 8.232 29H7.252C6.86 29 6.38633 28.902 5.831 28.706C5.27567 28.51 4.73667 28.265 4.214 27.971C3.69133 27.6443 3.20133 27.2523 2.744 26.795C2.28667 26.3377 1.96 25.8313 1.764 25.276C1.73133 25.2107 1.68233 25.1453 1.617 25.08C1.55167 24.982 1.48633 24.9003 1.421 24.835C0.996333 23.9203 0.653333 22.8423 0.392 21.601C0.163333 20.327 0.049 19.298 0.049 18.514C0.049 18.4487 0.0653333 18.2363 0.098 17.877C0.163333 17.5177 0.212333 17.1093 0.245 16.652C0.310333 16.1947 0.375667 15.7047 0.441 15.182C0.539 14.6267 0.620667 14.153 0.686 13.761C0.784 13.4017 0.963667 12.83 1.225 12.046C1.519 11.2293 1.87833 10.331 2.303 9.351C2.76033 8.371 3.26667 7.37467 3.822 6.362C4.41 5.31667 5.047 4.36933 5.733 3.52C6.419 2.67067 7.13767 1.96833 7.889 1.413C8.64033 0.857665 9.42433 0.579998 10.241 0.579998C10.4043 0.579998 10.633 0.645331 10.927 0.775998C11.221 0.906665 11.515 1.05367 11.809 1.217C12.103 1.34767 12.3807 1.52733 12.642 1.756C12.9033 1.952 13.0993 2.13167 13.23 2.295C13.3607 2.45833 13.4587 2.687 13.524 2.981C13.5893 3.24233 13.671 3.471 13.769 3.667C13.573 3.53633 13.426 3.52 13.328 3.618C13.3933 3.912 13.7363 4.255 14.357 4.647C14.553 4.77767 14.7327 4.85933 14.896 4.892C15.092 4.92467 15.239 4.99 15.337 5.088C15.533 5.21867 15.729 5.41467 15.925 5.676C16.121 5.90467 16.366 6.10067 16.66 6.264C16.4967 6.362 16.4313 6.49267 16.464 6.656C16.6273 6.72133 16.758 6.852 16.856 7.048C16.954 7.244 17.0357 7.42367 17.101 7.587C17.199 7.685 17.248 7.84833 17.248 8.077C17.248 8.273 17.346 8.45267 17.542 8.616C17.5747 8.87733 17.542 9.18767 17.444 9.547C17.3787 9.90633 17.3787 10.2167 17.444 10.478C17.6073 10.9027 17.689 11.2457 17.689 11.507C17.7217 11.7683 17.7217 12.0133 17.689 12.242C17.689 12.438 17.6727 12.634 17.64 12.83C17.6073 12.9933 17.591 13.2057 17.591 13.467C17.591 13.565 17.64 13.663 17.738 13.761C17.836 13.859 17.885 14.006 17.885 14.202ZM14.21 11.703C14.21 11.4417 14.1773 11.017 14.112 10.429C14.0793 9.80833 13.9813 9.18767 13.818 8.567C13.6873 7.94633 13.4913 7.42367 13.23 6.999C12.9687 6.54167 12.6093 6.313 12.152 6.313C11.9233 6.313 11.7437 6.32933 11.613 6.362C11.515 6.39467 11.4333 6.46 11.368 6.558C11.2047 6.62333 11.0903 6.72133 11.025 6.852C10.9923 6.98267 10.9107 7.048 10.78 7.048H9.751C9.555 7.048 9.44067 6.98267 9.408 6.852C9.37533 6.68867 9.27733 6.62333 9.114 6.656H8.477C8.379 6.72133 8.31367 6.803 8.281 6.901C8.281 6.96633 8.29733 7.048 8.33 7.146C7.80733 7.86467 7.301 8.69767 6.811 9.645C6.35367 10.5923 5.929 11.556 5.537 12.536C5.145 13.4833 4.81833 14.398 4.557 15.28C4.29567 16.1293 4.116 16.799 4.018 17.289C3.92 17.681 3.85467 18.2037 3.822 18.857C3.78933 19.5103 3.773 19.935 3.773 20.131C3.773 20.2943 3.773 20.5393 3.773 20.866C3.773 21.1927 3.78933 21.4377 3.822 21.601C3.95267 21.9603 4.08333 22.3523 4.214 22.777C4.34467 23.169 4.508 23.5447 4.704 23.904C4.93267 24.2307 5.194 24.5083 5.488 24.737C5.81467 24.9657 6.223 25.08 6.713 25.08C7.987 25.08 9.09767 24.59 10.045 23.61C10.9923 22.63 11.7763 21.4377 12.397 20.033C13.0177 18.5957 13.475 17.1257 13.769 15.623C14.063 14.0877 14.21 12.781 14.21 11.703ZM33.0497 3.716C33.0497 3.87933 32.9517 4.17333 32.7557 4.598C32.5597 4.99 32.4291 5.34933 32.3637 5.676C32.1677 6.46 32.0207 7.26033 31.9227 8.077C31.8574 8.89367 31.7594 9.694 31.6287 10.478C31.5961 11.0333 31.5307 11.6377 31.4327 12.291C31.3347 12.9117 31.1877 13.4507 30.9917 13.908C30.9264 14.1367 30.8937 14.496 30.8937 14.986C30.8937 15.476 30.8447 15.9007 30.7467 16.26C30.6814 16.9787 30.5344 17.7627 30.3057 18.612C30.1097 19.4287 29.9137 20.131 29.7177 20.719C29.6197 20.8823 29.5707 21.1763 29.5707 21.601C29.6034 22.0257 29.6197 22.4177 29.6197 22.777C29.5871 22.777 29.5544 22.7607 29.5217 22.728C29.4891 22.728 29.4564 22.7117 29.4237 22.679C29.4237 22.6463 29.3911 22.63 29.3257 22.63C29.2604 22.9567 29.1787 23.316 29.0807 23.708C28.9827 24.0673 28.9337 24.3287 28.9337 24.492C28.9337 24.59 28.9501 24.8023 28.9827 25.129C29.0154 25.423 29.0644 25.7823 29.1297 26.207C29.1951 26.6317 29.2604 27.0727 29.3257 27.53C29.3911 27.9873 29.4564 28.3957 29.5217 28.755C29.3911 28.9183 29.1951 29.0163 28.9337 29.049C28.7051 29.0817 28.4927 29.098 28.2967 29.098C28.1007 29.098 27.9537 29 27.8557 28.804C27.7251 28.804 27.5781 28.755 27.4147 28.657C27.2841 28.559 27.1371 28.51 26.9737 28.51C26.9737 28.6407 26.8757 28.706 26.6797 28.706C26.5491 28.706 26.3531 28.657 26.0917 28.559C25.8304 28.4283 25.6017 28.314 25.4057 28.216C25.3404 28.1833 25.2751 28.069 25.2097 27.873C25.1444 27.6443 25.0791 27.3993 25.0137 27.138C24.9484 26.8767 24.8994 26.648 24.8667 26.452C24.8341 26.2233 24.8177 26.0927 24.8177 26.06C24.8177 25.9947 24.8667 25.717 24.9647 25.227C25.0627 24.737 25.1607 24.1327 25.2587 23.414C25.3894 22.6953 25.5201 21.9603 25.6507 21.209C25.8141 20.4577 25.9447 19.788 26.0427 19.2C26.2061 18.318 26.3694 17.2727 26.5327 16.064C26.6961 14.8553 26.8267 13.6957 26.9247 12.585C27.0554 11.4417 27.1371 10.4617 27.1697 9.645C27.2351 8.82833 27.2677 8.35467 27.2677 8.224V7.881V6.754C26.7777 7.11333 26.3857 7.40733 26.0917 7.636C25.8304 7.832 25.4547 8.10967 24.9647 8.469C24.4747 8.79567 23.8541 9.17133 23.1027 9.596C22.3514 10.0207 21.9431 10.233 21.8777 10.233C21.6817 10.233 21.5674 10.184 21.5347 10.086C21.5347 9.988 21.4367 9.939 21.2407 9.939H20.6527C20.5874 9.939 20.4731 9.87367 20.3097 9.743C20.1791 9.57967 20.0811 9.51433 20.0157 9.547C19.9504 9.57967 19.8034 9.48167 19.5747 9.253C19.3461 9.02433 19.1337 8.84467 18.9377 8.714C18.9377 8.518 18.9051 8.273 18.8397 7.979C18.7744 7.685 18.7417 7.40733 18.7417 7.146C19.3297 6.81933 19.8687 6.52533 20.3587 6.264C20.8487 5.97 21.4367 5.61067 22.1227 5.186C22.4167 4.99 22.9884 4.58167 23.8377 3.961C24.7197 3.30767 25.4221 2.785 25.9447 2.393C26.5001 1.96833 27.1697 1.49466 27.9537 0.971999C28.7377 0.416665 29.2277 0.138998 29.4237 0.138998H29.7177C30.0444 0.138998 30.4201 0.269665 30.8447 0.530999C31.2694 0.759666 31.6287 1.07 31.9227 1.462C32.2494 1.82133 32.5107 2.21333 32.7067 2.638C32.9354 3.03 33.0497 3.38933 33.0497 3.716Z" fill="#A198AC"/>
</svg>
