<svg width="37" height="30" viewBox="0 0 37 30" fill="none" xmlns="http://www.w3.org/2000/svg">
<path d="M17.885 14.202C17.885 14.398 17.8033 14.7573 17.64 15.28C17.5093 15.8027 17.4277 16.2437 17.395 16.603C17.2317 16.603 17.101 16.6357 17.003 16.701C17.003 16.799 17.0193 16.897 17.052 16.995C17.1173 17.093 17.1827 17.1583 17.248 17.191C17.15 17.877 16.9867 18.5957 16.758 19.347C16.7253 19.445 16.7253 19.5267 16.758 19.592C16.8233 19.6573 16.8397 19.739 16.807 19.837C16.7743 20.0983 16.6927 20.4087 16.562 20.768C16.4313 21.1273 16.268 21.454 16.072 21.748C15.9087 21.748 15.778 21.797 15.68 21.895C15.3533 22.5483 15.0103 23.316 14.651 24.198C14.2917 25.08 13.72 25.8803 12.936 26.599C12.6747 26.8603 12.348 27.0727 11.956 27.236C11.5967 27.3993 11.4497 27.6117 11.515 27.873C11.221 28.167 10.7147 28.4283 9.996 28.657C9.27733 28.8857 8.68933 29 8.232 29H7.252C6.86 29 6.38633 28.902 5.831 28.706C5.27567 28.51 4.73667 28.265 4.214 27.971C3.69133 27.6443 3.20133 27.2523 2.744 26.795C2.28667 26.3377 1.96 25.8313 1.764 25.276C1.73133 25.2107 1.68233 25.1453 1.617 25.08C1.55167 24.982 1.48633 24.9003 1.421 24.835C0.996333 23.9203 0.653333 22.8423 0.392 21.601C0.163333 20.327 0.049 19.298 0.049 18.514C0.049 18.4487 0.0653333 18.2363 0.098 17.877C0.163333 17.5177 0.212333 17.1093 0.245 16.652C0.310333 16.1947 0.375667 15.7047 0.441 15.182C0.539 14.6267 0.620667 14.153 0.686 13.761C0.784 13.4017 0.963667 12.83 1.225 12.046C1.519 11.2293 1.87833 10.331 2.303 9.351C2.76033 8.371 3.26667 7.37467 3.822 6.362C4.41 5.31667 5.047 4.36933 5.733 3.52C6.419 2.67067 7.13767 1.96833 7.889 1.413C8.64033 0.857665 9.42433 0.579998 10.241 0.579998C10.4043 0.579998 10.633 0.645331 10.927 0.775998C11.221 0.906665 11.515 1.05367 11.809 1.217C12.103 1.34767 12.3807 1.52733 12.642 1.756C12.9033 1.952 13.0993 2.13167 13.23 2.295C13.3607 2.45833 13.4587 2.687 13.524 2.981C13.5893 3.24233 13.671 3.471 13.769 3.667C13.573 3.53633 13.426 3.52 13.328 3.618C13.3933 3.912 13.7363 4.255 14.357 4.647C14.553 4.77767 14.7327 4.85933 14.896 4.892C15.092 4.92467 15.239 4.99 15.337 5.088C15.533 5.21867 15.729 5.41467 15.925 5.676C16.121 5.90467 16.366 6.10067 16.66 6.264C16.4967 6.362 16.4313 6.49267 16.464 6.656C16.6273 6.72133 16.758 6.852 16.856 7.048C16.954 7.244 17.0357 7.42367 17.101 7.587C17.199 7.685 17.248 7.84833 17.248 8.077C17.248 8.273 17.346 8.45267 17.542 8.616C17.5747 8.87733 17.542 9.18767 17.444 9.547C17.3787 9.90633 17.3787 10.2167 17.444 10.478C17.6073 10.9027 17.689 11.2457 17.689 11.507C17.7217 11.7683 17.7217 12.0133 17.689 12.242C17.689 12.438 17.6727 12.634 17.64 12.83C17.6073 12.9933 17.591 13.2057 17.591 13.467C17.591 13.565 17.64 13.663 17.738 13.761C17.836 13.859 17.885 14.006 17.885 14.202ZM14.21 11.703C14.21 11.4417 14.1773 11.017 14.112 10.429C14.0793 9.80833 13.9813 9.18767 13.818 8.567C13.6873 7.94633 13.4913 7.42367 13.23 6.999C12.9687 6.54167 12.6093 6.313 12.152 6.313C11.9233 6.313 11.7437 6.32933 11.613 6.362C11.515 6.39467 11.4333 6.46 11.368 6.558C11.2047 6.62333 11.0903 6.72133 11.025 6.852C10.9923 6.98267 10.9107 7.048 10.78 7.048H9.751C9.555 7.048 9.44067 6.98267 9.408 6.852C9.37533 6.68867 9.27733 6.62333 9.114 6.656H8.477C8.379 6.72133 8.31367 6.803 8.281 6.901C8.281 6.96633 8.29733 7.048 8.33 7.146C7.80733 7.86467 7.301 8.69767 6.811 9.645C6.35367 10.5923 5.929 11.556 5.537 12.536C5.145 13.4833 4.81833 14.398 4.557 15.28C4.29567 16.1293 4.116 16.799 4.018 17.289C3.92 17.681 3.85467 18.2037 3.822 18.857C3.78933 19.5103 3.773 19.935 3.773 20.131C3.773 20.2943 3.773 20.5393 3.773 20.866C3.773 21.1927 3.78933 21.4377 3.822 21.601C3.95267 21.9603 4.08333 22.3523 4.214 22.777C4.34467 23.169 4.508 23.5447 4.704 23.904C4.93267 24.2307 5.194 24.5083 5.488 24.737C5.81467 24.9657 6.223 25.08 6.713 25.08C7.987 25.08 9.09767 24.59 10.045 23.61C10.9923 22.63 11.7763 21.4377 12.397 20.033C13.0177 18.5957 13.475 17.1257 13.769 15.623C14.063 14.0877 14.21 12.781 14.21 11.703ZM36.1563 26.256C36.1563 26.452 36.1236 26.6153 36.0583 26.746C36.0256 26.844 35.9929 26.942 35.9603 27.04C35.6009 27.138 35.2253 27.285 34.8333 27.481C34.4413 27.6443 34.1473 27.726 33.9513 27.726C33.7879 27.726 33.5756 27.7097 33.3143 27.677C33.0529 27.6117 32.8243 27.579 32.6283 27.579C31.9749 27.579 31.1419 27.7097 30.1293 27.971C29.1493 28.2323 28.1203 28.51 27.0423 28.804C25.9969 29.098 25.0169 29.3593 24.1023 29.588C23.2203 29.8167 22.5669 29.931 22.1423 29.931C21.9463 29.931 21.8646 29.8493 21.8973 29.686C21.9299 29.5553 21.8973 29.5063 21.7993 29.539C21.7013 29.6043 21.5543 29.637 21.3583 29.637C21.1623 29.637 21.0316 29.588 20.9663 29.49C20.9009 29.392 20.7866 29.3267 20.6233 29.294C20.5253 29.2287 20.4599 29.147 20.4273 29.049C20.4273 28.951 20.3946 28.853 20.3293 28.755C20.0026 28.6897 19.6106 28.461 19.1533 28.069C18.7286 27.6443 18.5163 27.334 18.5163 27.138C18.5163 27.04 18.7123 26.7297 19.1043 26.207C19.5289 25.6517 20.0026 25.0473 20.5253 24.394C21.0479 23.708 21.5706 23.0383 22.0933 22.385C22.6486 21.7317 23.0406 21.258 23.2693 20.964C23.5633 20.572 23.8736 20.0657 24.2003 19.445C24.5269 18.7917 24.8373 18.22 25.1313 17.73C25.3599 17.4033 25.6049 17.1093 25.8663 16.848C26.1603 16.5867 26.3889 16.3417 26.5523 16.113C26.9443 15.427 27.4996 14.4797 28.2183 13.271C28.9696 12.0297 29.5903 10.9517 30.0803 10.037C30.6029 9.08967 31.0603 8.15867 31.4523 7.244C31.8443 6.29667 32.0729 5.36567 32.1383 4.451C32.0729 4.38567 31.9913 4.33667 31.8933 4.304C31.8279 4.23867 31.6973 4.206 31.5013 4.206C30.9133 4.206 30.1946 4.41833 29.3453 4.843C28.4959 5.26767 27.7119 5.80667 26.9933 6.46C26.3073 7.08067 25.7519 7.783 25.3273 8.567C24.9353 9.31833 24.9026 10.0207 25.2293 10.674C24.9679 10.772 24.6739 10.8537 24.3473 10.919C24.0533 10.9517 23.8246 10.968 23.6613 10.968C23.2366 10.968 22.8283 10.919 22.4363 10.821C22.1423 10.723 21.9299 10.5107 21.7993 10.184C21.6686 9.82467 21.5053 9.56333 21.3093 9.4C21.1133 9.17133 20.9499 8.97533 20.8193 8.812C20.6886 8.64867 20.6233 8.469 20.6233 8.273C20.6233 8.077 20.6723 7.76667 20.7703 7.342C20.9009 6.88467 21.0643 6.49267 21.2603 6.166C21.4236 5.90467 21.7013 5.56167 22.0933 5.137C22.4853 4.71233 22.9099 4.28767 23.3673 3.863C23.8246 3.40567 24.2983 2.981 24.7883 2.589C25.2783 2.197 25.7356 1.83767 26.1603 1.511C26.3563 1.34766 26.5849 1.20066 26.8463 1.07C27.1403 0.939332 27.4016 0.841333 27.6303 0.775998C28.1203 0.612665 28.6919 0.498332 29.3453 0.433C30.0313 0.334999 30.4723 0.285999 30.6683 0.285999C31.4849 0.285999 32.2526 0.432999 32.9713 0.726999C33.7226 0.988333 34.3596 1.34767 34.8823 1.805C35.4376 2.22966 35.8786 2.75233 36.2053 3.373C36.5319 3.99367 36.6953 4.647 36.6953 5.333C36.6953 6.607 36.3686 7.979 35.7153 9.449C35.0946 10.919 34.2453 12.5523 33.1673 14.349C32.1219 16.1457 31.1256 17.681 30.1783 18.955C29.2636 20.229 28.4796 21.3233 27.8263 22.238C27.5649 22.5973 27.2709 22.9893 26.9443 23.414C26.6176 23.806 26.2583 24.1817 25.8663 24.541C26.3889 24.5083 27.0259 24.443 27.7773 24.345C28.5286 24.247 29.2473 24.1653 29.9333 24.1C30.6519 24.002 31.2563 23.9203 31.7463 23.855C32.2689 23.757 32.5956 23.708 32.7263 23.708C32.8896 23.708 33.1673 23.7407 33.5593 23.806C33.9839 23.8713 34.3596 23.9693 34.6863 24.1C34.8169 24.198 34.9639 24.3613 35.1273 24.59C35.2906 24.786 35.4539 24.9983 35.6173 25.227C35.7806 25.4557 35.9113 25.668 36.0093 25.864C36.1073 26.06 36.1563 26.1907 36.1563 26.256Z" fill="#A198AC"/>
</svg>
