<svg width="21" height="17" viewBox="0 0 21 17" fill="none" xmlns="http://www.w3.org/2000/svg">
<path d="M9.49 8.148C9.49 8.252 9.44667 8.44267 9.36 8.72C9.29067 8.99733 9.24733 9.23133 9.23 9.422C9.14333 9.422 9.074 9.43933 9.022 9.474C9.022 9.526 9.03067 9.578 9.048 9.63C9.08267 9.682 9.11733 9.71667 9.152 9.734C9.1 10.098 9.01333 10.4793 8.892 10.878C8.87467 10.93 8.87467 10.9733 8.892 11.008C8.92667 11.0427 8.93533 11.086 8.918 11.138C8.90067 11.2767 8.85733 11.4413 8.788 11.632C8.71867 11.8227 8.632 11.996 8.528 12.152C8.44133 12.152 8.372 12.178 8.32 12.23C8.14667 12.5767 7.96467 12.984 7.774 13.452C7.58333 13.92 7.28 14.3447 6.864 14.726C6.72533 14.8647 6.552 14.9773 6.344 15.064C6.15333 15.1507 6.07533 15.2633 6.11 15.402C5.954 15.558 5.68533 15.6967 5.304 15.818C4.92267 15.9393 4.61067 16 4.368 16H3.848C3.64 16 3.38867 15.948 3.094 15.844C2.79933 15.74 2.51333 15.61 2.236 15.454C1.95867 15.2807 1.69867 15.0727 1.456 14.83C1.21333 14.5873 1.04 14.3187 0.936 14.024C0.918667 13.9893 0.892667 13.9547 0.858 13.92C0.823333 13.868 0.788667 13.8247 0.754 13.79C0.528667 13.3047 0.346667 12.7327 0.208 12.074C0.0866667 11.398 0.026 10.852 0.026 10.436C0.026 10.4013 0.0346667 10.2887 0.052 10.098C0.0866667 9.90733 0.112667 9.69067 0.13 9.448C0.164667 9.20533 0.199333 8.94533 0.234 8.668C0.286 8.37333 0.329333 8.122 0.364 7.914C0.416 7.72333 0.511333 7.42 0.65 7.004C0.806 6.57067 0.996667 6.094 1.222 5.574C1.46467 5.054 1.73333 4.52533 2.028 3.988C2.34 3.43333 2.678 2.93067 3.042 2.48C3.406 2.02933 3.78733 1.65667 4.186 1.362C4.58467 1.06733 5.00067 0.919999 5.434 0.919999C5.52067 0.919999 5.642 0.954666 5.798 1.024C5.954 1.09333 6.11 1.17133 6.266 1.258C6.422 1.32733 6.56933 1.42267 6.708 1.544C6.84667 1.648 6.95067 1.74333 7.02 1.83C7.08933 1.91667 7.14133 2.038 7.176 2.194C7.21067 2.33267 7.254 2.454 7.306 2.558C7.202 2.48867 7.124 2.48 7.072 2.532C7.10667 2.688 7.28867 2.87 7.618 3.078C7.722 3.14733 7.81733 3.19067 7.904 3.208C8.008 3.22533 8.086 3.26 8.138 3.312C8.242 3.38133 8.346 3.48533 8.45 3.624C8.554 3.74533 8.684 3.84933 8.84 3.936C8.75333 3.988 8.71867 4.05733 8.736 4.144C8.82267 4.17867 8.892 4.248 8.944 4.352C8.996 4.456 9.03933 4.55133 9.074 4.638C9.126 4.69 9.152 4.77667 9.152 4.898C9.152 5.002 9.204 5.09733 9.308 5.184C9.32533 5.32267 9.308 5.48733 9.256 5.678C9.22133 5.86867 9.22133 6.03333 9.256 6.172C9.34267 6.39733 9.386 6.57933 9.386 6.718C9.40333 6.85667 9.40333 6.98667 9.386 7.108C9.386 7.212 9.37733 7.316 9.36 7.42C9.34267 7.50667 9.334 7.61933 9.334 7.758C9.334 7.81 9.36 7.862 9.412 7.914C9.464 7.966 9.49 8.044 9.49 8.148ZM7.54 6.822C7.54 6.68333 7.52267 6.458 7.488 6.146C7.47067 5.81667 7.41867 5.48733 7.332 5.158C7.26267 4.82867 7.15867 4.55133 7.02 4.326C6.88133 4.08333 6.69067 3.962 6.448 3.962C6.32667 3.962 6.23133 3.97067 6.162 3.988C6.11 4.00533 6.06667 4.04 6.032 4.092C5.94533 4.12667 5.88467 4.17867 5.85 4.248C5.83267 4.31733 5.78933 4.352 5.72 4.352H5.174C5.07 4.352 5.00933 4.31733 4.992 4.248C4.97467 4.16133 4.92267 4.12667 4.836 4.144H4.498C4.446 4.17867 4.41133 4.222 4.394 4.274C4.394 4.30867 4.40267 4.352 4.42 4.404C4.14267 4.78533 3.874 5.22733 3.614 5.73C3.37133 6.23267 3.146 6.744 2.938 7.264C2.73 7.76667 2.55667 8.252 2.418 8.72C2.27933 9.17067 2.184 9.526 2.132 9.786C2.08 9.994 2.04533 10.2713 2.028 10.618C2.01067 10.9647 2.002 11.19 2.002 11.294C2.002 11.3807 2.002 11.5107 2.002 11.684C2.002 11.8573 2.01067 11.9873 2.028 12.074C2.09733 12.2647 2.16667 12.4727 2.236 12.698C2.30533 12.906 2.392 13.1053 2.496 13.296C2.61733 13.4693 2.756 13.6167 2.912 13.738C3.08533 13.8593 3.302 13.92 3.562 13.92C4.238 13.92 4.82733 13.66 5.33 13.14C5.83267 12.62 6.24867 11.9873 6.578 11.242C6.90733 10.4793 7.15 9.69933 7.306 8.902C7.462 8.08733 7.54 7.394 7.54 6.822ZM20.7909 2.35C20.7909 2.506 20.7215 2.64467 20.5829 2.766C20.4615 2.87 20.3142 2.96533 20.1409 3.052C19.9849 3.12133 19.8289 3.182 19.6729 3.234C19.5342 3.26867 19.4475 3.286 19.4129 3.286C19.3262 3.286 19.2569 3.27733 19.2049 3.26C19.1529 3.24267 19.0749 3.234 18.9709 3.234C18.8669 3.234 18.8062 3.26 18.7889 3.312C18.7889 3.364 18.7369 3.39 18.6329 3.39C18.5809 3.39 18.4162 3.39867 18.1389 3.416C17.8615 3.416 17.5235 3.42467 17.1249 3.442C16.7262 3.442 16.3102 3.45067 15.8769 3.468C15.4609 3.468 15.0882 3.468 14.7589 3.468C14.5855 3.936 14.4469 4.33467 14.3429 4.664C14.2389 4.99333 14.1002 5.40067 13.9269 5.886C13.9269 5.95533 13.9615 6.016 14.0309 6.068C14.1869 6.08533 14.3775 6.12 14.6029 6.172C14.8282 6.20667 14.9929 6.224 15.0969 6.224C15.0969 6.18933 15.1489 6.172 15.2529 6.172C15.4609 6.172 15.6949 6.25867 15.9549 6.432C16.2322 6.60533 16.4922 6.81333 16.7349 7.056C16.9949 7.29867 17.2029 7.53267 17.3589 7.758C17.5322 7.98333 17.6449 8.13933 17.6969 8.226C17.7489 8.39933 17.7922 8.59 17.8269 8.798C17.8615 9.006 17.8962 9.214 17.9309 9.422C17.9829 9.578 18.0262 9.75133 18.0609 9.942C18.1129 10.1327 18.1389 10.28 18.1389 10.384C18.1389 10.4187 18.1302 10.5053 18.1129 10.644C18.0955 10.7653 18.0782 10.8953 18.0609 11.034C18.0435 11.1727 18.0349 11.268 18.0349 11.32C18.0349 11.3547 18.0175 11.4413 17.9829 11.58C17.9482 11.684 17.8789 11.8053 17.7749 11.944C17.6709 12.0827 17.6015 12.23 17.5669 12.386C17.5149 12.5073 17.4802 12.646 17.4629 12.802C17.4629 12.9407 17.4282 13.0793 17.3589 13.218C17.3242 13.322 17.2289 13.452 17.0729 13.608C16.9342 13.7467 16.8129 13.8853 16.7089 14.024C16.6049 14.128 16.5182 14.2753 16.4489 14.466C16.3795 14.6567 16.2929 14.8213 16.1889 14.96C16.0849 15.064 15.9635 15.1593 15.8249 15.246C15.6862 15.3153 15.5735 15.428 15.4869 15.584C15.4522 15.6533 15.4002 15.7313 15.3309 15.818C15.2789 15.9047 15.2269 15.9827 15.1749 16.052C15.0189 16.0347 14.8369 16.026 14.6289 16.026C14.4382 16.026 14.2475 16.026 14.0569 16.026C13.8662 16.026 13.7015 16.026 13.5629 16.026C13.4242 16.0433 13.3289 16.052 13.2769 16.052C13.1902 16.052 13.1555 16.026 13.1729 15.974C13.2075 15.922 13.1642 15.8613 13.0429 15.792C12.8349 15.6533 12.6269 15.5493 12.4189 15.48C12.2109 15.3933 12.0549 15.2633 11.9509 15.09C11.8989 15.0033 11.8295 14.908 11.7429 14.804C11.6735 14.7 11.6129 14.5873 11.5609 14.466C11.5262 14.3273 11.4915 14.1453 11.4569 13.92C11.4395 13.6773 11.4309 13.504 11.4309 13.4C11.4309 13.296 11.5695 13.1573 11.8469 12.984C12.1242 12.8107 12.3409 12.6373 12.4969 12.464C12.5835 12.4987 12.6529 12.568 12.7049 12.672C12.7742 12.776 12.8262 12.88 12.8609 12.984C12.9129 13.088 12.9475 13.1833 12.9649 13.27C12.9822 13.3567 13.0169 13.4 13.0689 13.4C13.1555 13.4693 13.2162 13.5907 13.2509 13.764C13.2855 13.9373 13.3029 14.1107 13.3029 14.284V14.31C13.3029 14.3273 13.3462 14.336 13.4329 14.336C13.5542 14.336 13.7102 14.232 13.9009 14.024C14.1089 13.7987 14.3082 13.5473 14.4989 13.27C14.6895 12.9927 14.8542 12.7327 14.9929 12.49C15.1489 12.2473 15.2355 12.1 15.2529 12.048C15.4089 11.7013 15.5475 11.3027 15.6689 10.852C15.7902 10.384 15.8509 9.916 15.8509 9.448C15.8509 9.27467 15.8249 9.07533 15.7729 8.85C15.7382 8.62467 15.6429 8.46867 15.4869 8.382C15.3829 8.34733 15.2355 8.29533 15.0449 8.226C14.8542 8.15667 14.7069 8.122 14.6029 8.122C14.4295 8.122 14.2389 8.2 14.0309 8.356C13.8229 8.49467 13.6235 8.65933 13.4329 8.85C13.2595 9.04067 13.0949 9.22267 12.9389 9.396C12.8002 9.56933 12.7222 9.69067 12.7049 9.76C12.6355 9.864 12.5229 9.95067 12.3669 10.02C12.2282 10.0893 12.1069 10.15 12.0029 10.202C11.8989 10.2367 11.8035 10.2887 11.7169 10.358C11.6475 10.4273 11.5609 10.462 11.4569 10.462C11.3529 10.462 11.2229 10.4533 11.0669 10.436C10.9109 10.4187 10.7895 10.3667 10.7029 10.28C10.5295 10.124 10.3562 9.90733 10.1829 9.63C10.0095 9.35267 9.92286 9.162 9.92286 9.058C9.92286 8.93667 9.97486 8.76333 10.0789 8.538C10.1829 8.29533 10.2869 8.06133 10.3909 7.836C10.5122 7.59333 10.6249 7.38533 10.7289 7.212C10.8329 7.02133 10.8849 6.90867 10.8849 6.874C11.0062 6.52733 11.1535 6.12867 11.3269 5.678C11.5175 5.22733 11.6909 4.90667 11.8469 4.716C11.8815 4.68133 11.8815 4.638 11.8469 4.586C11.8122 4.51667 11.8035 4.456 11.8209 4.404C11.8902 4.248 11.9769 4.07467 12.0809 3.884C12.2022 3.69333 12.2715 3.50267 12.2889 3.312C12.3062 3.13867 12.3495 2.93067 12.4189 2.688C12.5055 2.428 12.5835 2.17667 12.6529 1.934C12.7222 1.674 12.8002 1.44 12.8869 1.232C12.9735 1.024 13.0342 0.859332 13.0689 0.738C13.2249 0.755333 13.4069 0.798666 13.6149 0.868C13.8229 0.919999 14.0222 0.989332 14.2129 1.076C14.4035 1.14533 14.5769 1.21467 14.7329 1.284C14.8889 1.336 14.9929 1.362 15.0449 1.362C15.0795 1.362 15.3049 1.336 15.7209 1.284C16.1542 1.232 16.6222 1.18 17.1249 1.128C17.6449 1.076 18.1129 1.024 18.5289 0.972C18.9622 0.919999 19.2049 0.893999 19.2569 0.893999C19.3089 0.893999 19.4129 0.945999 19.5689 1.05C19.7249 1.13667 19.8809 1.24067 20.0369 1.362C20.1929 1.466 20.3315 1.57867 20.4529 1.7C20.5915 1.804 20.6695 1.87333 20.6869 1.908C20.7042 1.97733 20.7215 2.04667 20.7389 2.116C20.7735 2.168 20.7909 2.246 20.7909 2.35Z" fill="#A198AC"/>
</svg>
