<svg width="154" height="67" viewBox="0 0 154 67" fill="none" xmlns="http://www.w3.org/2000/svg">
<g clip-path="url(#clip0_4128_68816)">
<rect x="0.355469" y="27.0488" width="148.28" height="39.8061" rx="19.9031" transform="rotate(-10.2741 0.355469 27.0488)" fill="#DFB19D"/>
<path d="M24.2829 38.1207C21.767 38.5767 20.5073 41.087 20.9633 43.6029C21.336 45.659 22.8811 47.9247 25.8567 47.3854C27.8107 47.0312 28.9688 45.6341 29.2181 43.9533L27.4251 43.012L27.3357 43.0282C27.1758 44.5477 26.6263 45.3728 25.5663 45.5649C24.0721 45.8358 23.1266 44.6221 22.8674 43.1918C22.5734 41.5699 23.2405 40.1563 24.607 39.9086C25.6287 39.7234 26.3156 40.3112 26.964 41.3412L27.0534 41.325L28.1187 39.7073C27.4158 38.7399 26.1347 37.785 24.2829 38.1207ZM32.3479 38.5055C30.3173 38.8735 29.1298 40.764 29.5234 42.935C29.9053 45.0422 31.5798 46.348 33.687 45.966C35.8325 45.5771 36.9119 43.7458 36.5346 41.6642C36.1434 39.5059 34.3784 38.1374 32.3479 38.5055ZM32.6488 40.1657C33.7088 39.9736 34.543 40.8644 34.7421 41.9627C34.9388 43.0482 34.446 44.1137 33.3733 44.3081C32.3516 44.4933 31.5173 43.7476 31.3136 42.6237C31.1076 41.4871 31.5888 40.3578 32.6488 40.1657ZM44.8426 36.2406C43.872 36.4166 43.181 37.0431 42.924 37.8811L42.8857 37.888C42.4089 37.2226 41.6754 36.8147 40.6665 36.9976C39.6576 37.1805 39.1756 37.6504 38.8478 38.4617L38.7967 38.4709L38.5105 37.5467L37.0546 37.8106L38.3509 44.9623L40.1389 44.6382L39.4814 41.0113C39.2893 39.9513 39.5499 38.9148 40.546 38.7342C41.274 38.6023 41.7392 39.0587 41.9267 40.0932L42.6675 44.1799L44.4554 43.8558L43.798 40.2289C43.6059 39.1689 43.8665 38.1323 44.8371 37.9564C45.5522 37.8268 46.0454 38.2914 46.2329 39.3258L46.9713 43.3998L48.7592 43.0757L47.8865 38.261C47.7037 37.2521 46.9881 35.8517 44.8426 36.2406ZM52.6176 34.8313C51.4555 35.042 50.8398 35.7207 50.6712 36.3185L50.6329 36.3255L50.3466 35.4012L48.8908 35.6651L50.6154 45.1795L52.4033 44.8554L51.8315 41.701L51.8826 41.6917C52.3397 42.1761 53.1522 42.4377 53.9568 42.2918C55.8469 41.9492 56.6964 40.1596 56.3145 38.0524C55.9325 35.9452 54.4439 34.5003 52.6176 34.8313ZM52.5354 36.561C53.5571 36.3758 54.3228 37.2527 54.5265 38.3765C54.7372 39.5387 54.2561 40.5228 53.2855 40.6988C52.3149 40.8747 51.5014 40.2439 51.2699 38.9668C51.0385 37.6897 51.501 36.7485 52.5354 36.561ZM62.7232 33.1578L60.9352 33.4819L61.5904 37.0961C61.7894 38.1944 61.4604 39.2169 60.5153 39.3883C59.8129 39.5156 59.4289 39.0707 59.2344 37.998L58.496 33.9241L56.7081 34.2481L57.5808 39.0628C57.8285 40.4293 58.9261 41.3911 60.5225 41.1017C61.3526 40.9512 62.0634 40.3607 62.2391 39.6562L62.2774 39.6492L62.6275 40.5619L64.0195 40.3096L62.7232 33.1578ZM66.3715 30.6498L65.286 30.8466C65.1763 31.9877 64.745 33.0288 63.8845 33.5937L64.072 34.6281L65.2469 34.4151L65.9136 38.0932C66.1683 39.498 67.113 39.9071 68.1985 39.7103C68.9648 39.5714 69.6058 39.1782 69.8881 38.916L69.1344 37.2324L69.045 37.2486C68.7906 37.5189 68.4863 37.7323 68.1798 37.7879C67.8606 37.8458 67.6946 37.7308 67.6205 37.3221L67.0349 34.091L69.0144 33.7322L68.7134 32.072L66.6956 32.4378L66.3715 30.6498ZM72.5311 31.2217C70.6155 31.569 69.4304 33.3271 69.8448 35.6131C70.2545 37.8735 71.9418 39.0318 73.9979 38.6591C75.5432 38.379 76.4574 37.3823 76.6469 36.8995L75.5517 35.5151L75.4623 35.5313C75.2484 36.0977 74.5654 36.8415 73.697 36.9989C72.7903 37.1633 71.9547 36.6288 71.795 35.7476L76.6863 34.861L76.6539 34.6822C76.6353 34.58 76.625 34.45 76.6064 34.3478C76.199 32.1002 74.434 30.8768 72.5311 31.2217ZM72.832 32.8819C73.8026 32.706 74.3885 33.3912 74.538 33.8522L71.5752 34.3893C71.5917 33.8982 71.8742 33.0556 72.832 32.8819ZM80.2811 29.8169C79.4765 29.9628 79.0919 30.5337 78.9093 31.2L78.871 31.2069L78.5848 30.2827L77.1289 30.5466L78.4252 37.6983L80.2132 37.3742L79.5534 33.7345C79.352 32.6235 79.5452 31.797 80.4519 31.6327C80.8989 31.5516 81.3109 31.7144 81.5465 31.9223L81.6359 31.9061L81.6089 30.1566C81.3038 29.8558 80.8047 29.722 80.2811 29.8169ZM87.8304 26.6019C85.9403 26.9445 85.0154 28.3916 85.2747 29.8219C85.5779 31.4949 86.8466 31.8717 88.6494 31.9934C90.1724 32.0999 90.7969 32.1977 90.9126 32.8363C91.0353 33.5131 90.3526 33.8216 89.7779 33.9257C88.3858 34.1781 87.1673 33.4228 86.5268 32.8003L86.4374 32.8165L85.936 34.7804C86.7355 35.4797 88.1909 36.0865 90.0683 35.7462C92.0733 35.3827 93.1223 34.111 92.8283 32.489C92.5134 30.7522 91.2042 30.3696 89.254 30.235C88.2417 30.1811 87.3038 30.1005 87.1857 29.4492C87.0862 28.9 87.4346 28.4939 88.1626 28.3619C89.2737 28.1605 90.245 28.7891 90.8669 29.4546L90.9562 29.4384L91.5783 27.7032C91.0469 27.1004 89.6438 26.2731 87.8304 26.6019ZM96.2195 26.9279C94.2272 27.289 93.0236 29.0901 93.431 31.3377C93.8014 33.3811 95.3493 34.7889 97.5459 34.3907C99.2955 34.0736 100.101 32.912 100.36 31.6514L98.7563 30.8078L98.6669 30.824C98.6907 31.7562 98.2283 32.5523 97.2449 32.7305C96.2232 32.9157 95.418 32.112 95.2213 31.0264C95.0199 29.9154 95.5115 28.771 96.5332 28.5858C97.2995 28.4469 97.9377 28.9116 98.339 29.6699L98.4284 29.6537L99.5099 28.2705C98.9113 27.4424 97.7776 26.6455 96.2195 26.9279ZM102.067 26.0263L100.279 26.3504L101.575 33.5021L103.363 33.1781L102.067 26.0263ZM100.594 22.9956C99.8276 23.1345 99.4999 23.6556 99.6273 24.358C99.7499 25.0348 100.244 25.4333 101.011 25.2944C101.738 25.1625 102.074 24.6135 101.952 23.9367C101.824 23.2343 101.322 22.8637 100.594 22.9956ZM106.582 25.0495C104.667 25.3967 103.482 27.1548 103.896 29.4408C104.306 31.7013 105.993 32.8596 108.049 32.4869C109.594 32.2068 110.508 31.2101 110.698 30.7273L109.603 29.3429L109.513 29.3591C109.3 29.9255 108.617 30.6693 107.748 30.8267C106.841 30.991 106.006 30.4566 105.846 29.5754L110.737 28.6888L110.705 28.51C110.686 28.4078 110.676 28.2778 110.658 28.1756C110.25 25.9279 108.485 24.7046 106.582 25.0495ZM106.883 26.7097C107.854 26.5338 108.44 27.219 108.589 27.68L105.626 28.217C105.643 27.726 105.925 26.8834 106.883 26.7097ZM114.856 23.5498C113.975 23.7095 113.28 24.2443 112.96 25.0278L112.922 25.0347L112.636 24.1105L111.18 24.3744L112.476 31.5261L114.264 31.202L113.609 27.5879C113.398 26.4257 113.816 25.4531 114.876 25.261C115.604 25.129 116.165 25.4625 116.344 26.4459L117.112 30.6858L118.9 30.3617L118.027 25.5471C117.78 24.1806 116.695 23.2165 114.856 23.5498ZM122.1 22.2366C120.108 22.5977 118.905 24.3988 119.312 26.6465C119.682 28.6898 121.23 30.0976 123.427 29.6995C125.176 29.3823 125.982 28.2207 126.241 26.9601L124.637 26.1165L124.548 26.1327C124.572 27.0649 124.109 27.861 123.126 28.0393C122.104 28.2244 121.299 27.4207 121.102 26.3352C120.901 25.2241 121.393 24.0797 122.414 23.8945C123.18 23.7556 123.819 24.2203 124.22 24.9786L124.309 24.9624L125.391 23.5792C124.792 22.7512 123.659 21.9542 122.1 22.2366ZM129.12 20.9642C127.205 21.3114 126.02 23.0695 126.434 25.3555C126.844 27.616 128.531 28.7743 130.587 28.4016C132.132 28.1215 133.046 27.1248 133.236 26.642L132.141 25.2576L132.051 25.2738C131.838 25.8402 131.155 26.584 130.286 26.7414C129.379 26.9057 128.544 26.3713 128.384 25.4901L133.275 24.6035L133.243 24.4247C133.224 24.3225 133.214 24.1925 133.196 24.0903C132.788 21.8426 131.023 20.6193 129.12 20.9642ZM129.421 22.6244C130.392 22.4485 130.978 23.1337 131.127 23.5947L128.164 24.1317C128.181 23.6407 128.463 22.798 129.421 22.6244Z" fill="#43332D"/>
</g>
<defs>
<clipPath id="clip0_4128_68816">
<rect x="0.355469" y="27.0488" width="148.28" height="39.8061" rx="19.9031" transform="rotate(-10.2741 0.355469 27.0488)" fill="white"/>
</clipPath>
</defs>
</svg>
