<svg width="118" height="60" viewBox="0 0 118 60" fill="none" xmlns="http://www.w3.org/2000/svg">
<path d="M1.59783 3.54403C1.1551 3.21386 0.528544 3.30511 0.198374 3.74783C-0.131796 4.19056 -0.0405515 4.81712 0.402174 5.14729L1.59783 3.54403ZM70.6 15.8677L71.0793 16.7454L70.6 15.8677ZM40.5165 34.0845L41.4851 33.8358L40.5165 34.0845ZM117.998 40.069C118.03 39.5176 117.609 39.0447 117.058 39.0126L108.073 38.4902C107.522 38.4581 107.049 38.8791 107.017 39.4304C106.985 39.9818 107.406 40.4547 107.957 40.4868L115.944 40.9512L115.479 48.9377C115.447 49.4891 115.868 49.962 116.42 49.9941C116.971 50.0261 117.444 49.6052 117.476 49.0538L117.998 40.069ZM0.402174 5.14729C6.38111 9.60618 17.3122 16.1444 30.091 19.7606C42.8709 23.3772 57.6126 24.0998 71.0793 16.7454L70.1207 14.9901C57.2771 22.0042 43.125 21.3705 30.6356 17.8362C18.1451 14.3016 7.43134 7.89447 1.59783 3.54403L0.402174 5.14729ZM71.0793 16.7454C75.2441 14.4709 77.8624 12.2523 79.1274 10.1331C79.7695 9.05748 80.0814 7.97554 80.0301 6.91721C79.9786 5.85367 79.5644 4.90046 78.9011 4.08381C77.6037 2.48655 75.3342 1.37753 72.6806 0.725268C69.9952 0.0651867 66.7758 -0.162766 63.4104 0.117388C56.6977 0.676201 49.2193 3.276 44.159 8.76699C39.05 14.3108 36.5472 22.6474 39.5479 34.3333L41.4851 33.8358C38.622 22.6859 41.0588 15.0823 45.6297 10.1224C50.2493 5.10959 57.1913 2.64202 63.5764 2.11049C66.7599 1.84548 69.7588 2.06661 72.2032 2.66745C74.6794 3.27611 76.4512 4.23986 77.3487 5.34479C77.7828 5.87923 78.0044 6.43447 78.0325 7.01393C78.0608 7.5986 77.8959 8.29422 77.4101 9.10792C76.4195 10.7674 74.1779 12.7743 70.1207 14.9901L71.0793 16.7454ZM39.5479 34.3333C42.3277 45.159 47.5514 52.0299 54.1859 55.9134C60.7971 59.7831 68.6735 60.607 76.6309 59.6164C92.5128 57.6394 109.089 48.3916 117.665 40.7579L116.335 39.264C108 46.683 91.7886 55.7141 76.3838 57.6317C68.6978 58.5885 61.3061 57.7636 55.1963 54.1873C49.1098 50.6247 44.1597 44.2522 41.4851 33.8358L39.5479 34.3333Z" fill="#D8FD87"/>
</svg>
