<svg width="88" height="68" viewBox="0 0 88 68" fill="none" xmlns="http://www.w3.org/2000/svg">
    <path d="M43.2238 24.8202L44.2237 24.8031L43.2238 24.8202ZM6.42956 66.6488C6.78313 67.0731 7.4137 67.1304 7.83797 66.7768L14.7518 61.015C15.1761 60.6614 15.2334 60.0308 14.8798 59.6066C14.5263 59.1823 13.8957 59.125 13.4714 59.4786L7.32577 64.6002L2.20415 58.4545C1.85057 58.0303 1.22001 57.973 0.79574 58.3265C0.371473 58.6801 0.314161 59.3107 0.667734 59.735L6.42956 66.6488ZM87.5068 1.06787C81.1615 0.128579 69.8586 -0.41094 60.1442 2.46325C55.2782 3.90294 50.7388 6.22029 47.4377 9.84384C44.116 13.4899 42.114 18.3877 42.224 24.8372L44.2237 24.8031C44.1217 18.826 45.9624 14.4329 48.9161 11.1907C51.8904 7.92601 56.0589 5.75766 60.7116 4.38107C70.0346 1.62268 81.0119 2.12823 87.214 3.04631L87.5068 1.06787ZM42.224 24.8372C42.4547 38.3712 48.5693 44.1832 54.0664 44.0253C56.7665 43.9477 59.1334 42.3598 60.045 39.7184C60.9515 37.0921 60.3483 33.6593 57.6849 29.9319L56.0576 31.0947C58.4867 34.4941 58.7809 37.251 58.1545 39.0659C57.5332 40.8658 55.937 41.9707 54.009 42.0261C50.25 42.1341 44.4482 37.9727 44.2237 24.8031L42.224 24.8372ZM57.6849 29.9319C52.3452 22.4595 40.6784 17.7349 29.694 21.8481C18.6391 25.9878 8.65742 38.8999 6.20187 65.9181L8.19366 66.0991C10.6171 39.434 20.3795 27.4717 30.3954 23.7211C40.4817 19.9442 51.2121 24.3137 56.0576 31.0947L57.6849 29.9319Z"
          fill="#F9F3F0"/>
</svg>
