<svg xmlns="http://www.w3.org/2000/svg" width="133" height="69" viewBox="0 0 133 69" fill="none">
<path d="M132.628 1.64358C132.754 1.24463 132.533 0.818947 132.134 0.69278C131.735 0.566613 131.309 0.787742 131.183 1.18669L132.628 1.64358ZM63.8366 4.92176L63.9689 4.17579L63.8771 4.1595L63.7841 4.16596L63.8366 4.92176ZM0.989124 59.518C0.596307 59.6622 0.394693 60.0974 0.538813 60.4902L2.88733 66.8916C3.03145 67.2844 3.46672 67.486 3.85953 67.3419C4.25235 67.1977 4.45397 66.7625 4.30985 66.3697L2.22228 60.6796L7.91234 58.592C8.30515 58.4479 8.50676 58.0126 8.36264 57.6198C8.21853 57.227 7.78325 57.0254 7.39044 57.1695L0.989124 59.518ZM131.183 1.18669C124.674 21.7697 115.591 32.2155 106.185 36.4435C96.7864 40.6679 86.863 38.7746 78.462 34.2271C70.05 29.6735 63.2853 22.519 60.2707 16.4525C58.7533 13.3991 58.2552 10.7628 58.7936 8.90608C59.0559 8.00136 59.5671 7.26587 60.3654 6.72161C61.1749 6.16975 62.3222 5.78645 63.8891 5.67755L63.7841 4.16596C62.0325 4.28771 60.6036 4.72537 59.5119 5.46965C58.409 6.22154 57.694 7.25739 57.3383 8.48411C56.6406 10.8903 57.3387 13.9573 58.9138 17.1268C62.0839 23.5062 69.0886 30.8761 77.7407 35.5596C86.404 40.2491 96.8397 42.3052 106.806 37.8256C116.764 33.3496 126.051 22.4378 132.628 1.64358L131.183 1.18669ZM63.7043 5.66773C69.3435 6.66813 72.8896 12.2891 73.7689 20.1624C74.6423 27.9826 72.8169 37.7185 68.0152 46.3074C63.22 54.8846 55.4808 62.2778 44.5505 65.4985C33.6192 68.7194 19.3921 67.7975 1.56849 59.5418L0.93165 60.9167C18.9932 69.2826 33.6051 70.3032 44.9787 66.9519C56.3532 63.6004 64.3846 55.9067 69.3378 47.0468C74.2845 38.1987 76.1853 28.1472 75.2748 19.9942C74.3701 11.8942 70.622 5.35604 63.9689 4.17579L63.7043 5.66773Z" fill="#102031"/>
</svg>