<svg width="85" height="96" viewBox="0 0 85 96" fill="none" xmlns="http://www.w3.org/2000/svg">
    <path d="M20.5016 25.4543L21.1818 26.1874L20.5016 25.4543ZM84.8101 8.5699C85.1072 9.03546 84.9706 9.65372 84.5051 9.95083L76.9183 14.7924C76.4528 15.0895 75.8345 14.953 75.5374 14.4874C75.2403 14.0219 75.3768 13.4036 75.8424 13.1065L82.5862 8.80284L78.2825 2.05906C77.9854 1.5935 78.122 0.975232 78.5875 0.678127C79.0531 0.381022 79.6714 0.517582 79.9685 0.983143L84.8101 8.5699ZM19.8215 24.7212C35.1433 10.5055 59.9435 2.77747 84.1828 8.13139L83.7514 10.0843C60.1559 4.87259 36.0246 12.4161 21.1818 26.1874L19.8215 24.7212ZM21.1818 26.1874C7.57496 38.8119 -3.53017 61.9235 7.23975 95.3013L5.33638 95.9154C-5.68182 61.7681 5.66764 37.8533 19.8215 24.7212L21.1818 26.1874Z"
          fill="#F5F4F6"/>
</svg>
