<svg width="61" height="61" viewBox="0 0 61 61" fill="none" xmlns="http://www.w3.org/2000/svg">
<g clip-path="url(#clip0_16960_35952)">
<path fill-rule="evenodd" clip-rule="evenodd" d="M0 30.5C0 22.4109 3.21338 14.6531 8.93324 8.93324C14.6531 3.21338 22.4109 0 30.5 0C38.5891 0 46.3469 3.21338 52.0668 8.93324C57.7866 14.6531 61 22.4109 61 30.5C61 38.5891 57.7866 46.3469 52.0668 52.0668C46.3469 57.7866 38.5891 61 30.5 61C22.4109 61 14.6531 57.7866 8.93324 52.0668C3.21338 46.3469 0 38.5891 0 30.5ZM28.7595 43.554L46.3193 21.6021L43.1473 19.0645L28.1739 37.7753L17.568 28.9384L14.9653 32.0616L28.7595 43.554Z" fill="#0FA958"/>
</g>
<defs>
<clipPath id="clip0_16960_35952">
<rect width="61" height="61" fill="white"/>
</clipPath>
</defs>
</svg>
