<svg width="120" height="62" viewBox="0 0 120 62" fill="none" xmlns="http://www.w3.org/2000/svg">
<g clip-path="url(#clip0_4128_68814)">
<rect y="22.6211" width="114.13" height="39.8061" rx="19.9031" transform="rotate(-11 0 22.6211)" fill="#FEEC8D"/>
<path d="M20.2736 34.2851L22.0072 43.2035L25.4217 42.5398C27.9825 42.042 29.2719 40.3766 28.68 37.3316C28.0757 34.2229 26.1853 33.1359 23.6881 33.6213L20.2736 34.2851ZM24.2642 35.3605C25.5764 35.1054 26.442 36.0213 26.759 37.6521C27.0983 39.3976 26.5274 40.4737 25.3043 40.7115L23.5716 41.0483L22.5314 35.6973L24.2642 35.3605ZM32.0354 33.6912C30.7231 33.9463 29.8432 34.7255 29.4004 35.6446L30.5389 36.9438L30.628 36.9265C30.9353 36.1263 31.527 35.4295 32.3297 35.2735C33.1324 35.1175 33.528 35.3844 33.6073 35.7921C33.6791 36.1615 33.431 36.3817 31.8288 37.0501C30.3081 37.7291 29.8858 38.6177 30.1013 39.7262C30.3365 40.9365 31.1756 41.58 32.6535 41.2927C33.6345 41.102 34.2712 40.5684 34.53 39.7909L34.5682 39.7834L34.9298 40.6916L36.3186 40.4216L35.4369 35.886C35.0803 34.0513 33.6279 33.3817 32.0354 33.6912ZM33.932 37.3949L34.0806 38.1593C34.2069 38.8091 33.5416 39.4673 32.6625 39.6382C32.1401 39.7397 31.8559 39.5702 31.7891 39.2262C31.7222 38.8822 31.8917 38.598 32.6318 38.2559C33.3718 37.9137 33.8389 37.6642 33.9066 37.3999L33.932 37.3949ZM38.2945 30.7822L37.2115 30.9927C37.1163 32.135 36.6983 33.1815 35.845 33.7572L36.0456 34.7892L37.2177 34.5614L37.9309 38.2307C38.2034 39.6321 39.1532 40.0293 40.2361 39.8188C41.0006 39.6702 41.6366 39.2689 41.9155 39.0031L41.1405 37.3291L41.0513 37.3465C40.8004 37.62 40.4989 37.8373 40.1931 37.8967C39.8746 37.9587 39.7072 37.8457 39.6279 37.438L39.0014 34.2147L40.9762 33.8308L40.6542 32.1745L38.6412 32.5658L38.2945 30.7822ZM44.4039 31.287C43.0916 31.5421 42.2117 32.3213 41.769 33.2404L42.9074 34.5396L42.9966 34.5223C43.3038 33.7221 43.8956 33.0254 44.6982 32.8693C45.5009 32.7133 45.8965 32.9802 45.9758 33.3879C46.0476 33.7574 45.7995 33.9775 44.1973 34.6459C42.6766 35.3249 42.2543 36.2135 42.4698 37.322C42.7051 38.5323 43.5441 39.1758 45.022 38.8885C46.003 38.6978 46.6397 38.1642 46.8985 37.3867L46.9367 37.3792L47.2984 38.2874L48.6871 38.0174L47.8054 33.4818C47.4488 31.6471 45.9964 30.9775 44.4039 31.287ZM46.3006 34.9907L46.4491 35.7551C46.5754 36.4049 45.9101 37.0631 45.031 37.234C44.5086 37.3355 44.2244 37.166 44.1576 36.822C44.0907 36.478 44.2602 36.1938 45.0003 35.8517C45.7403 35.5095 46.2075 35.26 46.2751 34.9957L46.3006 34.9907ZM54.1879 27.5341C52.3023 27.9006 51.3959 29.3594 51.6732 30.7863C51.9977 32.4553 53.271 32.816 55.0752 32.9149C56.5994 33.002 57.2251 33.092 57.3489 33.729C57.4802 34.4042 56.8014 34.7213 56.2281 34.8327C54.8393 35.1027 53.6113 34.363 52.963 33.7485L52.8739 33.7659L52.3974 35.736C53.2056 36.4251 54.6686 37.0134 56.5415 36.6493C58.5418 36.2605 59.5745 34.9756 59.26 33.3575C58.9232 31.6248 57.6092 31.2588 55.6574 31.149C54.6446 31.1078 53.7057 31.0391 53.5794 30.3894C53.4729 29.8415 53.8162 29.431 54.5424 29.2898C55.6508 29.0744 56.6301 29.6906 57.2603 30.3482L57.3495 30.3308L57.9495 28.5879C57.4105 27.9919 55.9971 27.1825 54.1879 27.5341ZM62.5805 27.7538C60.593 28.1402 59.4122 29.9563 59.8481 32.1987C60.2444 34.2372 61.8099 35.6253 64.0013 35.1993C65.7468 34.86 66.5371 33.6883 66.7807 32.4245L65.1662 31.6013L65.077 31.6186C65.1127 32.5504 64.6604 33.3523 63.6794 33.543C62.6601 33.7411 61.8448 32.9476 61.6343 31.8647C61.4188 30.7563 61.8959 29.6058 62.9152 29.4076C63.6796 29.2591 64.3237 29.7156 64.7345 30.4687L64.8237 30.4514L65.8876 29.0546C65.2786 28.2343 64.1349 27.4517 62.5805 27.7538ZM68.4156 26.7783L66.632 27.125L68.0188 34.2597L69.8025 33.913L68.4156 26.7783ZM66.9047 23.7665C66.1402 23.9151 65.8192 24.4402 65.9554 25.141C66.0867 25.8162 66.586 26.2084 67.3505 26.0598C68.0767 25.9186 68.4055 25.3655 68.2742 24.6902C68.138 23.9895 67.6309 23.6253 66.9047 23.7665ZM72.9186 25.7443C71.0075 26.1158 69.8448 27.8888 70.2881 30.1693C70.7265 32.4244 72.4283 33.5613 74.4795 33.1625C76.0212 32.8629 76.9226 31.8547 77.106 31.3695L75.9934 29.9991L75.9042 30.0164C75.6975 30.5855 75.024 31.3379 74.1576 31.5063C73.253 31.6821 72.4108 31.1583 72.2399 30.2792L77.1195 29.3307L77.0849 29.1523C77.065 29.0504 77.053 28.9205 77.0332 28.8186C76.5973 26.5762 74.8169 25.3753 72.9186 25.7443ZM73.2405 27.4006C74.2088 27.2124 74.8033 27.8901 74.9587 28.3492L72.0029 28.9237C72.0131 28.4325 72.285 27.5863 73.2405 27.4006ZM81.1725 24.1399C80.2934 24.3108 79.6057 24.8544 79.296 25.6418L79.2578 25.6492L78.9599 24.7287L77.5074 25.011L78.8943 32.1457L80.678 31.799L79.9771 28.1934C79.7518 27.034 80.1567 26.0562 81.2142 25.8507C81.9404 25.7095 82.5062 26.0359 82.6969 27.0169L83.5191 31.2468L85.3028 30.9L84.3692 26.0968C84.1042 24.7336 83.0071 23.7833 81.1725 24.1399ZM88.4 22.735C86.4125 23.1214 85.2317 24.9375 85.6676 27.1799C86.0638 29.2184 87.6294 30.6065 89.8208 30.1805C91.5663 29.8412 92.3566 28.6695 92.6001 27.4057L90.9857 26.5825L90.8965 26.5998C90.9322 27.5316 90.4799 28.3335 89.4988 28.5242C88.4796 28.7223 87.6643 27.9288 87.4538 26.8459C87.2383 25.7375 87.7154 24.587 88.7347 24.3888C89.4991 24.2403 90.1432 24.6968 90.554 25.45L90.6432 25.4326L91.7071 24.0358C91.0981 23.2155 89.9543 22.4329 88.4 22.735ZM95.403 21.3738C93.4919 21.7453 92.3293 23.5182 92.7726 25.7988C93.2109 28.0539 94.9127 29.1907 96.964 28.792C98.5056 28.4923 99.407 27.4841 99.5904 26.9989L98.4778 25.6286L98.3886 25.6459C98.1819 26.215 97.5084 26.9673 96.642 27.1357C95.7375 27.3116 94.8952 26.7877 94.7243 25.9086L99.604 24.9601L99.5693 24.7818C99.5495 24.6798 99.5375 24.55 99.5176 24.448C99.0818 22.2057 97.3014 21.0048 95.403 21.3738ZM95.725 23.0301C96.6933 22.8419 97.2878 23.5196 97.4431 23.9786L94.4873 24.5532C94.4976 24.062 94.7694 23.2158 95.725 23.0301Z" fill="#575131"/>
</g>
<defs>
<clipPath id="clip0_4128_68814">
<rect y="22.6211" width="114.13" height="39.8061" rx="19.9031" transform="rotate(-11 0 22.6211)" fill="white"/>
</clipPath>
</defs>
</svg>
