<svg width="15.4" height="15.4" viewBox="0 0 29 28" fill="none" xmlns="http://www.w3.org/2000/svg">
  <path d="M23.5488 9.00594L17.4238 2.88094C17.3424 2.79971 17.2459 2.7353 17.1397 2.69138C17.0335 2.64747 16.9196 2.62491 16.8047 2.625H6.30469C5.84056 2.625 5.39544 2.80937 5.06725 3.13756C4.73906 3.46575 4.55469 3.91087 4.55469 4.375V23.625C4.55469 24.0891 4.73906 24.5342 5.06725 24.8624C5.39544 25.1906 5.84056 25.375 6.30469 25.375H22.0547C22.5188 25.375 22.9639 25.1906 23.2921 24.8624C23.6203 24.5342 23.8047 24.0891 23.8047 23.625V9.625C23.8048 9.51006 23.7822 9.39623 23.7383 9.29001C23.6944 9.18379 23.63 9.08726 23.5488 9.00594ZM17.6797 19.25H10.6797C10.4476 19.25 10.2251 19.1578 10.061 18.9937C9.89687 18.8296 9.80469 18.6071 9.80469 18.375C9.80469 18.1429 9.89687 17.9204 10.061 17.7563C10.2251 17.5922 10.4476 17.5 10.6797 17.5H17.6797C17.9118 17.5 18.1343 17.5922 18.2984 17.7563C18.4625 17.9204 18.5547 18.1429 18.5547 18.375C18.5547 18.6071 18.4625 18.8296 18.2984 18.9937C18.1343 19.1578 17.9118 19.25 17.6797 19.25ZM17.6797 15.75H10.6797C10.4476 15.75 10.2251 15.6578 10.061 15.4937C9.89687 15.3296 9.80469 15.1071 9.80469 14.875C9.80469 14.6429 9.89687 14.4204 10.061 14.2563C10.2251 14.0922 10.4476 14 10.6797 14H17.6797C17.9118 14 18.1343 14.0922 18.2984 14.2563C18.4625 14.4204 18.5547 14.6429 18.5547 14.875C18.5547 15.1071 18.4625 15.3296 18.2984 15.4937C18.1343 15.6578 17.9118 15.75 17.6797 15.75ZM16.8047 9.625V4.8125L21.6172 9.625H16.8047Z" fill="white" stroke="black" stroke-width="1" opacity="0.6"/>
</svg>
