<svg width="17" height="17" viewBox="0 0 17 17" fill="none" xmlns="http://www.w3.org/2000/svg">
<g id="Alarm">
<path id="Vector" d="M4.29986 2.21776L2.21532 4.3023C2.1669 4.35072 2.10942 4.38913 2.04616 4.41533C1.9829 4.44154 1.91509 4.45503 1.84662 4.45503C1.77815 4.45503 1.71034 4.44154 1.64708 4.41533C1.58382 4.38913 1.52634 4.35072 1.47792 4.3023C1.38013 4.20452 1.3252 4.07189 1.3252 3.9336C1.3252 3.79531 1.38013 3.66268 1.47792 3.5649L3.56246 1.48036C3.61088 1.43194 3.66836 1.39353 3.73162 1.36733C3.79488 1.34112 3.86269 1.32764 3.93116 1.32764C3.99963 1.32764 4.06744 1.34112 4.1307 1.36733C4.19396 1.39353 4.25144 1.43194 4.29986 1.48036C4.34828 1.52878 4.38669 1.58626 4.41289 1.64952C4.4391 1.71278 4.45258 1.78059 4.45258 1.84906C4.45258 1.91754 4.4391 1.98534 4.41289 2.0486C4.38669 2.11186 4.34828 2.16935 4.29986 2.21776ZM15.7648 3.5649L13.6803 1.48036C13.5825 1.38257 13.4499 1.32764 13.3116 1.32764C13.1733 1.32764 13.0407 1.38257 12.9429 1.48036C12.8451 1.57814 12.7902 1.71077 12.7902 1.84906C12.7902 1.98735 12.8451 2.11998 12.9429 2.21776L15.0274 4.3023C15.0758 4.35072 15.1333 4.38913 15.1966 4.41533C15.2598 4.44154 15.3277 4.45503 15.3961 4.45503C15.4646 4.45503 15.5324 4.44154 15.5957 4.41533C15.6589 4.38913 15.7164 4.35072 15.7648 4.3023C15.8133 4.25389 15.8517 4.1964 15.8779 4.13314C15.9041 4.06988 15.9176 4.00208 15.9176 3.9336C15.9176 3.86513 15.9041 3.79732 15.8779 3.73406C15.8517 3.6708 15.8133 3.61332 15.7648 3.5649ZM14.875 8.62382C14.875 9.86067 14.5082 11.0697 13.8211 12.0981C13.1339 13.1265 12.1572 13.9281 11.0145 14.4014C9.87183 14.8747 8.61444 14.9986 7.40135 14.7573C6.18827 14.516 5.07398 13.9204 4.1994 13.0458C3.32481 12.1712 2.72921 11.0569 2.48792 9.84384C2.24662 8.63075 2.37046 7.37336 2.84378 6.23066C3.3171 5.08796 4.11865 4.11128 5.14705 3.42412C6.17545 2.73696 7.38452 2.3702 8.62137 2.3702C10.2794 2.37209 11.8689 3.03156 13.0413 4.20393C14.2136 5.3763 14.8731 6.96584 14.875 8.62382ZM12.7905 8.62382C12.7905 8.4856 12.7355 8.35305 12.6378 8.25532C12.5401 8.15759 12.4075 8.10268 12.2693 8.10268H9.14251V4.97587C9.14251 4.83766 9.0876 4.70511 8.98987 4.60737C8.89214 4.50964 8.75959 4.45474 8.62137 4.45474C8.48316 4.45474 8.35061 4.50964 8.25288 4.60737C8.15514 4.70511 8.10024 4.83766 8.10024 4.97587V8.62382C8.10024 8.76203 8.15514 8.89458 8.25288 8.99231C8.35061 9.09005 8.48316 9.14495 8.62137 9.14495H12.2693C12.4075 9.14495 12.5401 9.09005 12.6378 8.99231C12.7355 8.89458 12.7905 8.76203 12.7905 8.62382Z" fill="#B7704E"/>
</g>
</svg>
