<svg width="15" height="16" viewBox="0 0 15 16" fill="none" xmlns="http://www.w3.org/2000/svg">
<path d="M6.38124 2.53177C6.81575 1.89971 7.7315 1.85172 8.22969 2.43489L9.06969 3.41816C9.3102 3.69969 9.67008 3.85034 10.0394 3.82409L11.3294 3.73243C12.0945 3.67807 12.7029 4.3641 12.5576 5.11721L12.3126 6.387C12.2424 6.75057 12.349 7.12586 12.5998 7.39827L13.4758 8.34965C13.9953 8.91391 13.8383 9.81737 13.1589 10.1733L12.0134 10.7734C11.6854 10.9453 11.4584 11.2626 11.4018 11.6285L11.2042 12.9066C11.0869 13.6645 10.2827 14.1051 9.5808 13.7959L8.39736 13.2744C8.05852 13.1251 7.66891 13.1455 7.34753 13.3294L6.22509 13.9717C5.55937 14.3527 4.71349 13.9986 4.51766 13.257L4.18747 12.0066C4.09293 11.6486 3.83406 11.3568 3.48989 11.2201L2.28791 10.743C1.57502 10.4601 1.32446 9.57796 1.78215 8.96249L2.55384 7.92476C2.7748 7.62763 2.84159 7.24325 2.73381 6.889L2.35741 5.65178C2.13416 4.91799 2.6676 4.17211 3.43416 4.1462L4.72663 4.10252C5.0967 4.09002 5.43886 3.90258 5.64863 3.59745L6.38124 2.53177Z" fill="#292F1E"/>
<path d="M9.42834 5.91747C9.40177 5.89352 9.37074 5.87504 9.33702 5.86309C9.30331 5.85114 9.26757 5.84596 9.23184 5.84783C9.19612 5.8497 9.16112 5.8586 9.12884 5.874C9.09655 5.88941 9.06763 5.91103 9.0437 5.93763L5.43758 9.94264C5.38924 9.99632 5.36421 10.067 5.368 10.1391C5.37178 10.2113 5.40406 10.2789 5.45773 10.3273C5.51141 10.3756 5.58209 10.4006 5.65423 10.3969C5.72636 10.3931 5.79404 10.3608 5.84237 10.3071L9.4485 6.30211C9.47245 6.27554 9.49093 6.24451 9.50288 6.21079C9.51483 6.17707 9.52001 6.14133 9.51814 6.10561C9.51627 6.06989 9.50737 6.03489 9.49196 6.0026C9.47656 5.97032 9.45494 5.94139 9.42834 5.91747Z" fill="#CBFB62"/>
<circle cx="6.15555" cy="6.96306" r="0.952698" transform="rotate(-3 6.15555 6.96306)" stroke="#CBFB62" stroke-width="0.544399"/>
<circle cx="8.72977" cy="9.28141" r="0.952698" transform="rotate(-3 8.72977 9.28141)" stroke="#CBFB62" stroke-width="0.544399"/>
</svg>
