<svg width="15" height="16" viewBox="0 0 15 16" fill="none" xmlns="http://www.w3.org/2000/svg">
<path d="M6.38124 2.27005C6.81575 1.638 7.7315 1.59 8.22969 2.17317L9.06969 3.15644C9.3102 3.43797 9.67008 3.58862 10.0394 3.56237L11.3294 3.47071C12.0945 3.41635 12.7029 4.10238 12.5576 4.85549L12.3126 6.12528C12.2424 6.48885 12.349 6.86414 12.5998 7.13655L13.4758 8.08793C13.9953 8.65219 13.8383 9.55566 13.1589 9.91159L12.0134 10.5117C11.6854 10.6836 11.4584 11.0009 11.4018 11.3668L11.2042 12.6448C11.0869 13.4028 10.2827 13.8434 9.5808 13.5341L8.39736 13.0127C8.05852 12.8634 7.66891 12.8838 7.34753 13.0677L6.22509 13.71C5.55937 14.0909 4.71349 13.7368 4.51766 12.9953L4.18747 11.7449C4.09293 11.3869 3.83406 11.095 3.48989 10.9584L2.28791 10.4813C1.57502 10.1983 1.32446 9.31624 1.78215 8.70077L2.55384 7.66304C2.7748 7.36591 2.84159 6.98153 2.73381 6.62728L2.35741 5.39006C2.13416 4.65627 2.6676 3.91039 3.43416 3.88448L4.72663 3.84081C5.0967 3.8283 5.43886 3.64086 5.64863 3.33573L6.38124 2.27005Z" fill="#292F1E"/>
<path d="M9.42834 5.65575C9.40177 5.6318 9.37074 5.61332 9.33702 5.60137C9.30331 5.58942 9.26757 5.58424 9.23184 5.58611C9.19612 5.58798 9.16112 5.59688 9.12884 5.61229C9.09655 5.62769 9.06763 5.64931 9.0437 5.67591L5.43758 9.68092C5.38924 9.7346 5.36421 9.80528 5.368 9.87741C5.37178 9.94955 5.40406 10.0172 5.45773 10.0656C5.51141 10.1139 5.58209 10.1389 5.65423 10.1351C5.72636 10.1314 5.79404 10.0991 5.84237 10.0454L9.4485 6.04039C9.47245 6.01382 9.49093 5.98279 9.50288 5.94907C9.51483 5.91536 9.52001 5.87961 9.51814 5.84389C9.51627 5.80817 9.50737 5.77317 9.49196 5.74089C9.47656 5.7086 9.45494 5.67967 9.42834 5.65575Z" fill="#A198AC"/>
<circle cx="6.15555" cy="6.70134" r="0.952698" transform="rotate(-3 6.15555 6.70134)" stroke="#A198AC" stroke-width="0.544399"/>
<circle cx="8.72977" cy="9.0197" r="0.952698" transform="rotate(-3 8.72977 9.0197)" stroke="#A198AC" stroke-width="0.544399"/>
</svg>
