<svg width="28" height="28" viewBox="0 0 28 28" fill="none" xmlns="http://www.w3.org/2000/svg">
<circle cx="14" cy="14" r="12.8" fill="#B7704E" stroke="#B7704E" stroke-width="1.6"/>
<path d="M19.5878 10.9259L17.0745 8.41211C16.9909 8.32852 16.8917 8.26221 16.7825 8.21697C16.6733 8.17172 16.5562 8.14844 16.438 8.14844C16.3198 8.14844 16.2028 8.17172 16.0936 8.21697C15.9844 8.26221 15.8851 8.32852 15.8016 8.41211L8.86538 15.3489C8.78144 15.4321 8.7149 15.5313 8.66961 15.6405C8.62432 15.7497 8.60119 15.8668 8.60157 15.9851V18.4989C8.60157 18.7376 8.69639 18.9665 8.86517 19.1353C9.03395 19.304 9.26287 19.3989 9.50157 19.3989H12.0154C12.1336 19.3992 12.2507 19.3761 12.36 19.3308C12.4692 19.2855 12.5683 19.219 12.6516 19.1351L19.5878 12.1989C19.6713 12.1153 19.7377 12.0161 19.7829 11.9069C19.8281 11.7977 19.8514 11.6806 19.8514 11.5624C19.8514 11.4442 19.8281 11.3271 19.7829 11.2179C19.7377 11.1087 19.6713 11.0095 19.5878 10.9259ZM17.6016 12.9121L15.0878 10.3989L16.4378 9.04886L18.9516 11.5621L17.6016 12.9121Z" fill="white"/>
</svg>
