<svg width="29" height="28" viewBox="0 0 29 28" fill="none" xmlns="http://www.w3.org/2000/svg">
<path d="M23.3679 8.3125V7.875C23.3668 6.92699 23.0857 6.00043 22.5599 5.21161C22.0341 4.42278 21.287 3.80682 20.4124 3.44102C19.5378 3.07522 18.5746 2.97589 17.6438 3.15547C16.713 3.33506 15.8559 3.78557 15.1801 4.45047C15.1402 4.49076 15.1086 4.53856 15.0872 4.59112C15.0658 4.64369 15.055 4.69997 15.0554 4.75672V14.4605C15.0557 14.5393 15.0772 14.6167 15.1178 14.6843C15.1583 14.752 15.2164 14.8074 15.2859 14.8447C15.3554 14.8821 15.4337 14.8999 15.5125 14.8964C15.5913 14.8928 15.6677 14.8681 15.7336 14.8247C16.5656 14.2912 17.5321 14.0052 18.5204 14C18.7492 13.9957 18.9709 14.0793 19.14 14.2335C19.3091 14.3877 19.4126 14.6009 19.4294 14.8291C19.4356 14.9478 19.4176 15.0665 19.3764 15.178C19.3352 15.2896 19.2718 15.3915 19.1899 15.4777C19.108 15.5639 19.0094 15.6325 18.9002 15.6793C18.7909 15.7261 18.6732 15.7502 18.5544 15.75C17.6261 15.75 16.7359 16.1187 16.0795 16.7751C15.4231 17.4315 15.0544 18.3217 15.0544 19.25V22.9556C15.0543 23.0211 15.0689 23.0857 15.0971 23.1448C15.1253 23.2038 15.1664 23.2558 15.2173 23.2969C15.8382 23.8107 16.5693 24.1745 17.3536 24.3598C18.138 24.5452 18.9546 24.5471 19.7398 24.3656C20.525 24.184 21.2578 23.8238 21.8812 23.3129C22.5046 22.802 23.0017 22.1543 23.334 21.42C23.3675 21.3462 23.3798 21.2645 23.3695 21.1841C23.3592 21.1036 23.3268 21.0277 23.2759 20.9646C23.225 20.9015 23.1575 20.8539 23.0811 20.8269C23.0046 20.7999 22.9222 20.7947 22.8429 20.8119C22.2976 20.9369 21.7399 21 21.1804 21H20.335C20.1092 21.0028 19.8908 20.9201 19.7234 20.7686C19.5561 20.6171 19.4522 20.4079 19.4326 20.183C19.4247 20.0633 19.4414 19.9432 19.4818 19.8303C19.5222 19.7173 19.5854 19.6139 19.6675 19.5264C19.7495 19.4389 19.8487 19.3692 19.9588 19.3217C20.069 19.2741 20.1877 19.2497 20.3076 19.25H21.1826C22.0968 19.2514 22.9976 19.0307 23.8076 18.6069C24.7669 18.1073 25.5638 17.3446 26.1049 16.4081C26.646 15.4717 26.9089 14.4004 26.8628 13.3198C26.8166 12.2393 26.4633 11.1943 25.8443 10.3074C25.2253 9.42048 24.3663 8.72847 23.3679 8.3125ZM22.0554 12.25H21.6179C20.5737 12.25 19.5721 11.8352 18.8337 11.0967C18.0953 10.3583 17.6804 9.35679 17.6804 8.3125V7.875C17.6804 7.64294 17.7726 7.42038 17.9367 7.25628C18.1008 7.09219 18.3234 7 18.5554 7C18.7875 7 19.0101 7.09219 19.1742 7.25628C19.3383 7.42038 19.4304 7.64294 19.4304 7.875V8.3125C19.4304 8.59977 19.487 8.88422 19.597 9.14962C19.7069 9.41502 19.868 9.65617 20.0711 9.8593C20.4814 10.2695 21.0378 10.5 21.6179 10.5H22.0554C22.2875 10.5 22.5101 10.5922 22.6742 10.7563C22.8383 10.9204 22.9304 11.1429 22.9304 11.375C22.9304 11.6071 22.8383 11.8296 22.6742 11.9937C22.5101 12.1578 22.2875 12.25 22.0554 12.25ZM9.80545 3.0625C8.52954 3.06395 7.3063 3.57144 6.40409 4.47365C5.50189 5.37585 4.99439 6.59909 4.99295 7.875V8.3125C3.99471 8.7287 3.13584 9.42089 2.51705 10.3079C1.89825 11.1949 1.54519 12.24 1.49927 13.3205C1.45335 14.4011 1.71647 15.4723 2.25777 16.4086C2.79908 17.3449 3.59612 18.1075 4.55545 18.6069C5.36545 19.0307 6.26627 19.2514 7.18045 19.25H8.02591C8.25203 19.2467 8.47102 19.3291 8.63884 19.4807C8.80665 19.6322 8.91084 19.8417 8.93045 20.067C8.93839 20.1867 8.92165 20.3068 8.88125 20.4197C8.84085 20.5327 8.77765 20.6361 8.6956 20.7236C8.61354 20.8111 8.51437 20.8808 8.40425 20.9283C8.29412 20.9759 8.1754 21.0003 8.05545 21H7.18045C6.62053 21.0002 6.06241 20.9368 5.51685 20.8108C5.43768 20.7935 5.35526 20.7986 5.2788 20.8254C5.20233 20.8522 5.13481 20.8997 5.08378 20.9627C5.03274 21.0256 5.00019 21.1015 4.98975 21.1819C4.97932 21.2622 4.9914 21.3439 5.02466 21.4178C5.35687 22.1523 5.85399 22.8003 6.47736 23.3113C7.10074 23.8224 7.83358 24.1829 8.61893 24.3647C9.40427 24.5465 10.221 24.5447 11.0055 24.3595C11.7901 24.1743 12.5213 23.8107 13.1425 23.2969C13.1934 23.2558 13.2345 23.2038 13.2627 23.1448C13.2909 23.0857 13.3055 23.0211 13.3054 22.9556V19.25C13.3054 18.3217 12.9367 17.4315 12.2803 16.7751C11.6239 16.1187 10.7337 15.75 9.80545 15.75C9.68657 15.7502 9.56891 15.7261 9.45964 15.6793C9.35037 15.6325 9.25178 15.5639 9.1699 15.4777C9.08802 15.3915 9.02456 15.2896 8.98339 15.178C8.94222 15.0665 8.9242 14.9478 8.93045 14.8291C8.9472 14.6007 9.0509 14.3874 9.22019 14.2331C9.38948 14.0789 9.61148 13.9955 9.84045 14C10.8288 14.0052 11.7953 14.2912 12.6273 14.8247C12.6932 14.8681 12.7696 14.8928 12.8484 14.8964C12.9272 14.8999 13.0055 14.8821 13.075 14.8447C13.1444 14.8074 13.2026 14.752 13.2431 14.6843C13.2837 14.6167 13.3052 14.5393 13.3054 14.4605V4.75672C13.3058 4.64188 13.261 4.53149 13.1808 4.44938C12.2823 3.5604 11.0693 3.06199 9.80545 3.0625ZM10.6804 8.3125C10.6804 9.35679 10.2656 10.3583 9.52718 11.0967C8.78875 11.8352 7.78724 12.25 6.74295 12.25H6.30545C6.07338 12.25 5.85082 12.1578 5.68673 11.9937C5.52263 11.8296 5.43045 11.6071 5.43045 11.375C5.43045 11.1429 5.52263 10.9204 5.68673 10.7563C5.85082 10.5922 6.07338 10.5 6.30545 10.5H6.74295C7.03021 10.5 7.31467 10.4434 7.58007 10.3335C7.84547 10.2236 8.08661 10.0624 8.28974 9.8593C8.49287 9.65617 8.654 9.41502 8.76393 9.14962C8.87386 8.88422 8.93045 8.59977 8.93045 8.3125V7.875C8.93045 7.64294 9.02263 7.42038 9.18673 7.25628C9.35082 7.09219 9.57338 7 9.80545 7C10.0375 7 10.2601 7.09219 10.4242 7.25628C10.5883 7.42038 10.6804 7.64294 10.6804 7.875V8.3125Z" fill="#A198AC"/>
</svg>
