<svg width="210" height="107" viewBox="0 0 210 107" fill="none" xmlns="http://www.w3.org/2000/svg">
<path opacity="0.7" d="M6.21671 105.23C3.33841 105.23 0.991516 102.896 1.13536 100.021C1.73126 88.1129 4.3667 76.3819 8.93929 65.3427C14.1774 52.6967 21.8551 41.2062 31.5339 31.5274C41.2127 21.8486 52.7032 14.1709 65.3491 8.9328C77.9951 3.69466 91.549 0.998639 105.237 0.99864C118.925 0.998642 132.479 3.69468 145.125 8.93283C157.771 14.171 169.261 21.8486 178.94 31.5274C188.619 41.2063 196.296 52.6967 201.535 65.3427C206.107 76.3819 208.743 88.1129 209.338 100.021C209.482 102.896 207.135 105.23 204.257 105.23C201.379 105.23 199.061 102.895 198.901 100.021C198.315 89.4829 195.954 79.1059 191.905 69.3315C187.19 57.9501 180.281 47.6087 171.57 38.8977C162.859 30.1868 152.517 23.2769 141.136 18.5626C129.755 13.8483 117.556 11.4218 105.237 11.4218C92.9178 11.4218 80.7193 13.8482 69.3379 18.5626C57.9565 23.2769 47.6151 30.1868 38.9042 38.8977C30.1933 47.6087 23.2834 57.95 18.569 69.3314C14.5204 79.1058 12.1591 89.4829 11.573 100.021C11.4132 102.895 9.09499 105.23 6.21671 105.23Z" fill="#DFB19D"/>
<path d="M8.51815 65.1692C3.92569 76.2564 1.27878 88.0385 0.680283 99.9983C0.522721 103.147 3.09203 105.684 6.21423 105.684C9.34883 105.684 11.8508 103.144 12.023 100.047C12.6063 89.559 14.9561 79.232 18.9853 69.5049C23.6768 58.1785 30.5533 47.887 39.2222 39.2182C47.8911 30.5493 58.1825 23.6728 69.5089 18.9813C80.8353 14.2897 92.9749 11.875 105.234 11.875C117.494 11.875 129.634 14.2897 140.96 18.9813C150.687 23.0104 159.651 28.651 167.479 35.6545C169.792 37.7232 173.356 37.7495 175.573 35.533C177.781 33.3253 177.804 29.7148 175.466 27.5998C166.586 19.5661 156.383 13.1066 145.296 8.51414C132.595 3.25322 118.982 0.545466 105.234 0.545465C91.4871 0.545464 77.8742 3.2532 65.1733 8.51412C52.4723 13.775 40.9319 21.4861 31.211 31.207C21.4901 40.9279 13.7791 52.4683 8.51815 65.1692Z" fill="#CBFB62" stroke="#CBFB62" stroke-width="0.906364"/>
<circle cx="171.393" cy="30.9105" r="14.5018" fill="white" stroke="#CBFB62" stroke-width="7.25091"/>
</svg>
