<svg width="209" height="106" viewBox="0 0 209 106" fill="none" xmlns="http://www.w3.org/2000/svg">
<path opacity="0.7" d="M5.21671 105.23C2.33841 105.23 -0.00848368 102.896 0.135361 100.021C0.731264 88.1129 3.3667 76.3819 7.93929 65.3427C13.1774 52.6967 20.8551 41.2062 30.5339 31.5274C40.2127 21.8486 51.7032 14.1709 64.3491 8.9328C76.9951 3.69466 90.549 0.998639 104.237 0.99864C117.925 0.998642 131.479 3.69468 144.125 8.93283C156.771 14.171 168.261 21.8486 177.94 31.5274C187.619 41.2063 195.296 52.6967 200.535 65.3427C205.107 76.3819 207.743 88.1129 208.338 100.021C208.482 102.896 206.135 105.23 203.257 105.23C200.379 105.23 198.061 102.895 197.901 100.021C197.315 89.4829 194.954 79.1059 190.905 69.3315C186.19 57.9501 179.281 47.6087 170.57 38.8977C161.859 30.1868 151.517 23.2769 140.136 18.5626C128.755 13.8483 116.556 11.4218 104.237 11.4218C91.9178 11.4218 79.7193 13.8482 68.3379 18.5626C56.9565 23.2769 46.6151 30.1868 37.9042 38.8977C29.1933 47.6087 22.2834 57.95 17.569 69.3314C13.5204 79.1058 11.1591 89.4829 10.573 100.021C10.4132 102.895 8.09499 105.23 5.21671 105.23Z" fill="#DFB19D"/>
</svg>
