<svg width="23" height="23" viewBox="0 0 23 23" fill="none" xmlns="http://www.w3.org/2000/svg">
<path d="M20.1989 18.8997L15.8969 14.5977C17.1462 13.0993 17.7698 11.1769 17.6379 9.23049C17.5059 7.28406 16.6287 5.46342 15.1885 4.14733C13.7484 2.83124 11.8563 2.12105 9.90592 2.16448C7.9555 2.20791 6.09691 3.00163 4.7168 4.38052C3.3367 5.75941 2.54133 7.6173 2.49617 9.56768C2.45102 11.5181 3.15954 13.4108 4.47436 14.8521C5.78917 16.2933 7.60903 17.1722 9.55535 17.3059C11.5017 17.4395 13.4246 16.8177 14.9241 15.5696L19.2261 19.8725C19.29 19.9364 19.3658 19.9871 19.4493 20.0216C19.5327 20.0562 19.6222 20.074 19.7125 20.074C19.8029 20.074 19.8923 20.0562 19.9758 20.0216C20.0592 19.9871 20.1351 19.9364 20.1989 19.8725C20.2628 19.8087 20.3135 19.7328 20.348 19.6494C20.3826 19.5659 20.4004 19.4765 20.4004 19.3861C20.4004 19.2958 20.3826 19.2063 20.348 19.1229C20.3135 19.0394 20.2628 18.9636 20.1989 18.8997ZM12.8375 10.4486H10.775V12.5111C10.775 12.6935 10.7026 12.8683 10.5737 12.9973C10.4447 13.1262 10.2699 13.1986 10.0875 13.1986C9.90519 13.1986 9.73032 13.1262 9.60139 12.9973C9.47246 12.8683 9.40002 12.6935 9.40002 12.5111V10.4486H7.33752C7.15519 10.4486 6.98032 10.3762 6.85139 10.2473C6.72246 10.1183 6.65002 9.94346 6.65002 9.76113C6.65002 9.57879 6.72246 9.40392 6.85139 9.27499C6.98032 9.14606 7.15519 9.07363 7.33752 9.07363H9.40002V7.01113C9.40002 6.82879 9.47246 6.65392 9.60139 6.52499C9.73032 6.39606 9.90519 6.32363 10.0875 6.32363C10.2699 6.32363 10.4447 6.39606 10.5737 6.52499C10.7026 6.65392 10.775 6.82879 10.775 7.01113V9.07363H12.8375C13.0199 9.07363 13.1947 9.14606 13.3237 9.27499C13.4526 9.40392 13.525 9.57879 13.525 9.76113C13.525 9.94346 13.4526 10.1183 13.3237 10.2473C13.1947 10.3762 13.0199 10.4486 12.8375 10.4486Z" fill="white"/>
</svg>
