<svg width="33" height="33" viewBox="0 0 33 33" fill="none" xmlns="http://www.w3.org/2000/svg">
<circle cx="16.4566" cy="16.4566" r="16.4566" fill="#161C20"/>
<path d="M27 16.4988C26.9967 19.0651 26.0551 21.5416 24.3527 23.4618C22.6502 25.382 20.3043 26.6134 17.757 26.9241C17.7002 26.9306 17.6428 26.9249 17.5884 26.9075C17.5341 26.8901 17.484 26.8614 17.4415 26.8232C17.3991 26.785 17.3652 26.7383 17.3421 26.6861C17.3191 26.6339 17.3073 26.5774 17.3077 26.5203V18.9219H19.7308C19.8415 18.9221 19.9511 18.8996 20.0527 18.8557C20.1544 18.8118 20.2459 18.7475 20.3217 18.6667C20.3974 18.586 20.4557 18.4905 20.493 18.3862C20.5303 18.282 20.5458 18.1712 20.5384 18.0607C20.5206 17.853 20.4248 17.6598 20.2703 17.5198C20.1157 17.3799 19.914 17.3037 19.7055 17.3065H17.3077V14.8834C17.3077 14.455 17.4779 14.0441 17.7808 13.7412C18.0838 13.4382 18.4946 13.268 18.9231 13.268H20.5384C20.6492 13.2683 20.7588 13.2458 20.8604 13.2019C20.9621 13.158 21.0536 13.0936 21.1294 13.0129C21.2051 12.9321 21.2634 12.8366 21.3007 12.7324C21.338 12.6281 21.3535 12.5173 21.3461 12.4068C21.3283 12.1988 21.2322 12.0053 21.0772 11.8653C20.9223 11.7253 20.72 11.6493 20.5112 11.6527H18.9231C18.0662 11.6527 17.2444 11.993 16.6386 12.5989C16.0327 13.2048 15.6923 14.0266 15.6923 14.8834V17.3065H13.2692C13.1585 17.3063 13.0489 17.3288 12.9472 17.3727C12.8456 17.4166 12.754 17.4809 12.6783 17.5617C12.6025 17.6424 12.5442 17.7379 12.5069 17.8422C12.4696 17.9464 12.4542 18.0572 12.4615 18.1677C12.4794 18.3758 12.5755 18.5693 12.7304 18.7093C12.8854 18.8492 13.0877 18.9252 13.2965 18.9219H15.6923V26.5223C15.6926 26.5793 15.6809 26.6357 15.6579 26.6878C15.6349 26.74 15.6011 26.7866 15.5588 26.8248C15.5164 26.8629 15.4665 26.8917 15.4122 26.9092C15.358 26.9266 15.3007 26.9324 15.244 26.9261C12.6285 26.6076 10.2278 25.3187 8.51721 23.3146C6.80662 21.3105 5.91079 18.7372 6.00702 16.1041C6.20894 10.6521 10.625 6.2199 16.081 6.00788C17.4935 5.95316 18.9026 6.18391 20.2239 6.68631C21.5452 7.1887 22.7516 7.95244 23.771 8.93183C24.7903 9.91122 25.6017 11.0861 26.1565 12.3863C26.7113 13.6865 26.9982 15.0852 27 16.4988Z" fill="#CBFB62"/>
</svg>
