<svg width="15" height="15" viewBox="0 0 15 15" fill="none" xmlns="http://www.w3.org/2000/svg">
<path d="M13.0912 7.68334C13.0893 9.11586 12.5637 10.4983 11.6134 11.5702C10.663 12.6421 9.35354 13.3295 7.93155 13.5029C7.89989 13.5065 7.86782 13.5033 7.83747 13.4936C7.80713 13.4839 7.77918 13.4679 7.75548 13.4466C7.73178 13.4253 7.71287 13.3992 7.69999 13.37C7.68711 13.3409 7.68055 13.3093 7.68076 13.2775V9.03594H9.03335C9.09516 9.03608 9.15634 9.0235 9.21308 8.999C9.26983 8.9745 9.32093 8.93859 9.36321 8.89351C9.40549 8.84842 9.43805 8.79513 9.45887 8.73693C9.47969 8.67873 9.48832 8.61688 9.48422 8.5552C9.47426 8.43927 9.42077 8.3314 9.33451 8.25329C9.24825 8.17519 9.13562 8.13264 9.01926 8.13421H7.68076V6.78161C7.68076 6.54245 7.77576 6.3131 7.94487 6.14399C8.11397 5.97488 8.34333 5.87988 8.58249 5.87988H9.48422C9.54603 5.88001 9.6072 5.86744 9.66395 5.84294C9.72069 5.81843 9.77179 5.78252 9.81408 5.73744C9.85636 5.69236 9.88892 5.63906 9.90974 5.58087C9.93055 5.52267 9.93918 5.46081 9.93509 5.39914C9.92511 5.283 9.87147 5.17497 9.78497 5.09684C9.69847 5.01871 9.58555 4.97629 9.469 4.97814H8.58249C8.10418 4.97814 7.64546 5.16815 7.30725 5.50637C6.96903 5.84458 6.77902 6.3033 6.77902 6.78161V8.13421H5.42642C5.36462 8.13407 5.30344 8.14665 5.2467 8.17115C5.18995 8.19565 5.13885 8.23156 5.09657 8.27664C5.05429 8.32173 5.02173 8.37502 5.00091 8.43322C4.98009 8.49142 4.97146 8.55327 4.97556 8.61494C4.98553 8.73108 5.03918 8.83911 5.12568 8.91724C5.21218 8.99538 5.32509 9.0378 5.44164 9.03594H6.77902V13.2786C6.77922 13.3104 6.77267 13.3419 6.75983 13.371C6.74698 13.4001 6.72812 13.4262 6.70448 13.4474C6.68085 13.4687 6.65297 13.4848 6.62269 13.4945C6.59241 13.5043 6.56041 13.5075 6.52879 13.504C5.06875 13.3262 3.72867 12.6067 2.77379 11.488C1.81892 10.3693 1.31885 8.93283 1.37257 7.46298C1.48529 4.41963 3.9504 1.9455 6.996 1.82715C7.7845 1.79661 8.57107 1.92541 9.30865 2.20586C10.0462 2.48631 10.7197 2.91263 11.2887 3.45934C11.8577 4.00605 12.3106 4.66191 12.6203 5.38768C12.93 6.11346 13.0902 6.89425 13.0912 7.68334Z" fill="#CBFB62"/>
</svg>
