<?xml version="1.0" encoding="UTF-8"?>
<svg id="Layer_1" data-name="Layer 1" xmlns="http://www.w3.org/2000/svg" xmlns:xlink="http://www.w3.org/1999/xlink" version="1.1" viewBox="0 0 439.2 401.6">
  <defs>
    <style>
      .cls-1 {
        fill: url(#linear-gradient);
      }

      .cls-1, .cls-2, .cls-3 {
        stroke-width: 0px;
      }

      .cls-2 {
        fill: #beec4b;
      }

      .cls-4 {
        isolation: isolate;
        opacity: .7;
      }

      .cls-3 {
        fill: #161c20;
      }
    </style>
    <linearGradient id="linear-gradient" x1="12.3" y1="214.1" x2="407.1" y2="214.1" gradientTransform="translate(0 402.8) scale(1 -1)" gradientUnits="userSpaceOnUse">
      <stop offset="0" stop-color="#76b83f"/>
      <stop offset="1" stop-color="#acd479"/>
    </linearGradient>
  </defs>
  <g class="cls-4">
    <image width="474" height="435" transform="translate(-22 -21.4)" xlink:href="w footer final-01-01-1.png"/>
  </g>
  <path class="cls-1" d="M156,364.5c-54.7-31.4-57.7-76.2-57.7-85.2v-2l-1.8-.9C43.8,249.2,12.3,204.8,12.3,157.7,12.3,77.9,100.9,12.9,209.7,12.9s197.4,65,197.4,144.8-88.5,144.8-197.4,144.8-39.6-2.2-58.5-6.5l-2.6-.6-1.1,2.4c-8.5,17.6-5.7,39.9,8.5,66.6h0Z"/>
  <path class="cls-2" d="M140.8,346c-33.8-27.7-35.8-59.8-35.8-66.7v-6l-5.4-2.8c-50.5-26-80.6-68.1-80.6-112.7C19,81.5,104.5,19.5,209.7,19.5s190.7,62,190.7,138.2-85.6,138.2-190.7,138.2-38.6-2.1-57-6.3l-7.7-1.8-3.4,7.1c-7,14.4-7.3,31.5-.8,51h0Z"/>
  <g>
    <path class="cls-3" d="M118.9,128.2v20.2h39.1v17h-39.1v32.9h-18.8v-87.6h58.3v17.5h-39.6,0Z"/>
    <path class="cls-3" d="M226.9,198.3l-6.4-18.9h-35.2l-6.3,18.9h-19.4l30.8-87.6h25l30.8,87.6h-19.4,0ZM190.7,163h24.4l-11.9-35.7h-.6l-11.9,35.7Z"/>
    <path class="cls-3" d="M329.9,155.5c0,8.3-2.6,17.4-7.6,25.3l13.5,16.7v.9h-20.2l-4.5-5.5c-6.1,4.4-13.6,7-22.4,7-29,0-41.2-22.9-41.2-44.3s17.2-46.3,41.2-46.3,41.2,20.8,41.2,46.3h0ZM266.3,154.8c0,15,7.6,27.2,22.4,27.2s8.1-1.1,11.3-3l-17.9-22,12.5-10.1,15.2,18.5c.9-3.1,1.4-6.8,1.4-10.5,0-15.4-8-28.4-22.4-28.4s-22.4,13.1-22.4,28.4h-.1Z"/>
  </g>
  <metadata>
    <sfw xmlns="http://ns.adobe.com/SaveForWeb/1.0/">
      <slices/>
      <sliceSourceBounds x="-22" y="-12" width="474" height="435" bottomLeftOrigin="true"/>
    </sfw>
  </metadata>
</svg>