<svg width="64" height="65" viewBox="0 0 64 65" fill="none" xmlns="http://www.w3.org/2000/svg">
<path d="M29.4579 61.2036C25.9317 60.7702 20.7306 54.24 19.52 51.2863L20.6073 51.5983L24.7579 56.1469L30.5889 51.9103C32.0981 57.0002 32.9841 61.6369 29.4579 61.2036Z" fill="#161C20"/>
<path d="M27.0432 20.1014L25.7033 17.0424C25.7033 17.0424 25.1293 15.5135 25.9558 14.5449C25.9558 14.5449 27.1672 13.1788 28.9533 14.3222C30.394 15.5892 30.8274 16.474 31.746 18.5292C32.6644 20.5845 33.0017 22.4207 33.0172 23.063C33.0172 23.063 38.6955 18.7044 40.8946 17.2447C43.0936 15.7851 46.765 13.5821 48.5517 14.5449C49.7928 15.2137 49.5834 16.4365 48.7898 17.4492C47.9435 18.5292 46.9451 18.9847 45.0964 20.5599C44.1322 21.3435 38.1956 26.3499 38.1956 26.3499C38.1956 26.3499 40.3685 24.6822 41.2512 24.3761C42.1338 24.0701 44.962 25.0717 43.4035 27.3571C41.9366 29.5315 39.4108 31.4387 39.4108 31.4387C39.4108 31.4387 42.7438 28.4782 43.9474 28.5999C45.4056 28.5834 46.3928 29.6186 45.8809 31.3584C45.5057 32.6821 41.1836 36.1834 42.8292 34.6278C42.8292 34.6278 45.7301 32.2736 46.765 32.3025C48.4057 32.3482 48.2025 35.4865 47.146 36.5578C45.9524 37.7681 45.7705 37.979 44.619 39.0239C43.4675 40.0689 40.4637 42.555 37.7173 45.0039C36.3821 46.1099 29.4115 52.9237 29.4115 52.9237C27.9946 54.3553 25.8834 56.1206 24.9293 56.091C23.7367 56.0541 21.2213 53.1553 20.2612 51.5586C19.493 50.2812 17.7895 47.5093 17.3813 45.6098C17.8644 45.1318 20.6471 42.5279 21.5483 41.7223C22.4494 40.9167 24.1188 38.9066 24.4384 37.2176C24.7581 35.5286 24.4605 34.092 25.3746 30.6202C26.2888 27.1484 28.1637 23.7389 27.0432 20.1014Z" stroke="#161C20" stroke-width="2" stroke-miterlimit="10" stroke-linecap="round"/>
<path d="M38.8057 14.3805C38.8057 14.3805 39.9639 13.3394 40.7447 12.7776C41.3941 12.3226 42.3024 11.6936 42.5734 11.4006" stroke="#161C20" stroke-width="2" stroke-miterlimit="10" stroke-linecap="round"/>
<path d="M36.4077 13.0488C36.4077 13.0488 36.5251 12.2052 36.6522 10.6306C36.7794 9.05603 36.8405 8.44303 37.0127 7.46326" stroke="#161C20" stroke-width="2" stroke-miterlimit="10" stroke-linecap="round"/>
<path d="M34.1908 14.186C34.1908 14.186 34.4097 14.4083 33.5703 13.162C32.5559 11.6578 31.8433 10.8268 31.2549 10.1281" stroke="#161C20" stroke-width="2" stroke-miterlimit="10" stroke-linecap="round"/>
</svg>
