<?xml version="1.0" encoding="UTF-8"?>
<svg width="18px" height="15px" viewBox="0 0 18 15" version="1.1" xmlns="http://www.w3.org/2000/svg" xmlns:xlink="http://www.w3.org/1999/xlink">
    <title>focus copy</title>
    <g id="as-per-new-designs" stroke="none" stroke-width="1" fill="none" fill-rule="evenodd">
        <path d="M0.78853887,5.23318872 C1.18934717,5.23318872 1.51426649,4.91415519 1.51426649,4.52060738 L1.51426649,1.670282 L4.41717696,1.670282 C4.81798525,1.670282 5.14290457,1.35124846 5.14290457,0.957700651 C5.14290457,0.564152841 4.81798525,0.245119306 4.41717696,0.245119306 L0.0628112522,0.245119306 L0.0628112522,4.52060738 C0.0628112522,4.91415519 0.387730574,5.23318872 0.78853887,5.23318872 Z M4.41717696,13.0715835 L1.51426649,13.0715835 L1.51426649,10.2212581 C1.51426649,9.82771032 1.18934717,9.50867679 0.78853887,9.50867679 C0.387730574,9.50867679 0.0628112522,9.82771032 0.0628112522,10.2212581 L0.0628112522,14.4967462 L4.41717696,14.4967462 C4.81798525,14.4967462 5.14290457,14.1777127 5.14290457,13.7841649 C5.14290457,13.390617 4.81798525,13.0715835 4.41717696,13.0715835 Z M16.7545465,9.50867679 C16.3537382,9.50867679 16.0288188,9.82771032 16.0288188,10.2212581 L16.0288188,13.0715835 L13.1259084,13.0715835 C12.7251001,13.0715835 12.4001807,13.390617 12.4001807,13.7841649 C12.4001807,14.1777127 12.7251001,14.4967462 13.1259084,14.4967462 L17.4802741,14.4967462 L17.4802741,10.2212581 C17.4802741,9.82771032 17.1553547,9.50867679 16.7545465,9.50867679 Z M13.1259084,0.245119306 C12.7251001,0.245119306 12.4001807,0.564152841 12.4001807,0.957700651 C12.4001807,1.35124846 12.7251001,1.670282 13.1259084,1.670282 L16.0288188,1.670282 L16.0288188,4.52060738 C16.0288188,4.91415519 16.3537382,5.23318872 16.7545465,5.23318872 C17.1553547,5.23318872 17.4802741,4.91415519 17.4802741,4.52060738 L17.4802741,0.245119306 L13.1259084,0.245119306 Z" id="focus-copy" fill="#FFFFFF" fill-rule="nonzero"></path>
    </g>
</svg>