<svg width="188" height="71" viewBox="0 0 188 71" fill="none" xmlns="http://www.w3.org/2000/svg">
<path d="M39.2492 7.94968L39.4614 8.92691L39.2492 7.94968ZM4.97445 40.1678C5.21311 40.6658 5.81034 40.8761 6.3084 40.6374L14.4247 36.7483C14.9228 36.5096 15.133 35.9124 14.8944 35.4143C14.6557 34.9163 14.0585 34.706 13.5605 34.9447L6.34596 38.4017L2.88893 31.1872C2.65027 30.6891 2.05304 30.4788 1.55498 30.7175C1.05693 30.9562 0.846645 31.5534 1.0853 32.0514L4.97445 40.1678ZM39.037 6.97245C24.961 10.029 11.0789 21.9487 4.93303 39.4035L6.81951 40.0677C12.7587 23.2 26.1308 11.8216 39.4614 8.92691L39.037 6.97245ZM39.4614 8.92691C51.6403 6.28235 68.9246 9.7975 83.869 31.5122L85.5166 30.3784C70.155 8.05752 52.0807 4.14012 39.037 6.97245L39.4614 8.92691Z" fill="#161C20"/>
<path d="M39.9871 52.6566C40.0249 52.8346 40.0095 53.0311 39.9407 53.2461C39.8689 53.4474 39.7441 53.567 39.566 53.6048C39.525 53.6136 39.4507 53.6007 39.3432 53.5663C39.2465 53.5153 39.1346 53.4604 39.0076 53.4015C38.8942 53.3397 38.7838 53.2916 38.6763 53.2572C38.5796 53.2062 38.5107 53.1851 38.4696 53.1938C38.3053 53.2287 38.1159 53.3477 37.9014 53.5508C37.7006 53.7509 37.4895 54.0033 37.268 54.308C37.0436 54.599 36.8182 54.9189 36.5918 55.2676C36.3761 55.5997 36.1795 55.9205 36.002 56.2302C35.8245 56.5399 35.6686 56.8164 35.5342 57.0596C35.4107 57.2862 35.3288 57.4396 35.2885 57.5197C35.2375 57.6165 35.162 57.7327 35.0621 57.8684C34.9621 58.0042 34.8798 58.1219 34.8151 58.2215C34.7778 58.3153 34.6949 58.4975 34.5663 58.7682C34.4378 59.0388 34.292 59.3632 34.1291 59.7413C33.9632 60.1058 33.7841 60.5088 33.5917 60.9505C33.4131 61.3892 33.252 61.8099 33.1086 62.2125C32.9652 62.6151 32.8516 62.9899 32.7679 63.3369C32.695 63.6673 32.6789 63.9284 32.7197 64.1201C32.7517 64.2707 32.8499 64.3286 33.0142 64.2936C33.0964 64.2762 33.1932 64.2269 33.3049 64.146C33.4301 64.0621 33.5457 63.966 33.6515 63.8576C33.7709 63.7463 33.8767 63.638 33.9688 63.5325C34.0609 63.4271 34.13 63.348 34.176 63.2953C34.3386 63.1176 34.5272 62.9272 34.7416 62.7242C34.9532 62.5075 35.1251 62.3063 35.2575 62.1207C35.4172 61.9294 35.6053 61.7033 35.8218 61.4426C36.0354 61.1682 36.253 60.8786 36.4744 60.5739C36.7096 60.2663 36.9365 59.9533 37.1551 59.6349C37.3874 59.3136 37.6005 59.0035 37.7946 58.7046C37.8456 58.6079 37.8948 58.4686 37.942 58.2868C38 58.0884 38.0628 57.9463 38.1304 57.8603C38.1578 57.8545 38.1964 57.8678 38.2462 57.9001C38.3098 57.9295 38.3757 57.937 38.4442 57.9224C38.5127 57.9079 38.5562 57.8772 38.5749 57.8303C38.6073 57.7804 38.6714 57.7453 38.7672 57.725C38.8631 57.7046 38.9608 57.7268 39.0604 57.7915C39.1709 57.8395 39.2705 57.9042 39.3593 57.9856C39.4619 58.0639 39.5522 58.1521 39.6302 58.25C39.7083 58.3479 39.7737 58.4199 39.8264 58.4659C39.9016 58.5502 39.9635 58.673 40.0121 58.8344C40.0715 58.9792 40.1099 59.0927 40.1274 59.1749C40.1419 59.2433 40.1266 59.3396 40.0814 59.4637C40.05 59.5849 40.0322 59.7032 40.0281 59.8186C40.0079 60.195 40.0058 60.589 40.0217 61.0007C40.0513 61.4095 40.0492 61.8035 40.0153 62.1829C40.0138 62.5124 40.0019 62.8942 39.9797 63.3283C39.9712 63.7595 39.9739 64.2098 39.9877 64.6792C39.9799 64.7095 39.9612 64.7564 39.9318 64.8199C39.8994 64.8697 39.8905 64.9288 39.9051 64.9973C39.9808 65.3534 40.0564 65.7094 40.1321 66.0654C40.2049 66.4078 40.2492 66.7848 40.2652 67.1965C40.2698 67.353 40.3087 67.5021 40.3818 67.644C40.4686 67.783 40.5251 67.9141 40.5513 68.0374C40.5658 68.1059 40.5764 68.1895 40.5831 68.2882C40.5927 68.4007 40.5872 68.5092 40.5665 68.6138C40.5487 68.7321 40.5128 68.8328 40.4589 68.9158C40.405 68.9988 40.3232 69.052 40.2137 69.0753C40.0494 69.1102 39.8817 69.0957 39.7107 69.0319C39.5397 68.9681 39.378 68.8808 39.2256 68.77C39.087 68.6564 38.9591 68.5261 38.842 68.3792C38.7278 68.2461 38.6493 68.1125 38.6065 67.9784C38.5558 67.8747 38.513 67.7407 38.4781 67.5763C38.4461 67.4257 38.4214 67.3093 38.4039 67.2272C38.3253 66.8574 38.2708 66.4325 38.2403 65.9523C38.2235 65.4692 38.2174 64.9696 38.2222 64.4533C38.227 63.937 38.2346 63.4345 38.2452 62.9456C38.2529 62.443 38.2517 61.9996 38.2416 61.6153L38.1376 61.53C37.8613 61.8464 37.5365 62.2375 37.1632 62.7032C36.7899 63.169 36.4367 63.5948 36.1036 63.9805C35.9655 64.1386 35.8112 64.3217 35.6407 64.5297C35.4702 64.7377 35.2914 64.9403 35.1043 65.1375C34.928 65.3181 34.7405 65.4796 34.5418 65.6221C34.3567 65.7616 34.1684 65.8517 33.9766 65.8925L33.3399 66.0278C33.2577 66.0453 33.1726 66.049 33.0846 66.0391C32.9967 66.0292 32.9014 65.985 32.7989 65.9066C32.2762 65.6027 31.8734 65.3233 31.5902 65.0686C31.3042 64.8002 31.1117 64.4332 31.0127 63.9676C30.9661 63.7485 30.9749 63.4533 31.0391 63.0818C31.0896 62.7132 31.1728 62.3306 31.2889 61.9338C31.3912 61.5399 31.5062 61.1719 31.6339 60.8299C31.7587 60.4742 31.8598 60.2094 31.9373 60.0355C31.9668 59.972 32.0777 59.7194 32.2701 59.2777C32.4761 58.8332 32.7347 58.2987 33.0457 57.6744C33.3538 57.0364 33.7025 56.354 34.0919 55.6272C34.4813 54.9003 34.8809 54.2214 35.2906 53.5904C35.7004 52.9595 36.1085 52.4219 36.5151 51.9776C36.9187 51.5197 37.2917 51.2544 37.634 51.1816C37.8668 51.1321 38.1 51.1183 38.3337 51.1402C38.5781 51.1455 38.8874 51.2873 39.2614 51.5656C39.3112 51.598 39.3766 51.6699 39.4576 51.7815C39.5357 51.8795 39.6098 51.9925 39.68 52.1207C39.7609 52.2323 39.8268 52.34 39.8774 52.4437C39.9418 52.5445 39.9784 52.6155 39.9871 52.6566ZM49.3128 61.6666C49.2929 61.8425 49.205 62.0687 49.0491 62.3452C48.904 62.6051 48.6981 62.9494 48.4314 63.3782C48.1618 63.7933 47.9295 64.1146 47.7346 64.3421C47.5367 64.556 47.427 64.6795 47.4054 64.7127C47.1516 65.0672 46.9116 65.3186 46.6855 65.4668C46.4731 65.6122 46.2279 65.7717 45.9499 65.9452C45.8627 66.0067 45.7439 66.0534 45.5932 66.0855C45.4455 66.1312 45.3237 66.1642 45.2279 66.1846C44.7486 66.2865 44.3134 66.2931 43.9225 66.2044C43.5423 66.0992 43.2081 65.9412 42.92 65.7305C42.6427 65.5032 42.3987 65.1972 42.1882 64.8126C41.9913 64.4251 41.8565 64.0601 41.7837 63.7178C41.7662 63.6356 41.7548 63.4806 41.7493 63.2528C41.7438 63.0249 41.7387 62.8328 41.7341 62.6763C41.7319 62.2617 41.7624 61.833 41.8257 61.3902C41.889 60.9473 41.9675 60.5084 42.0611 60.0735C42.1684 59.6356 42.2952 59.2222 42.4415 58.8332C42.5987 58.4277 42.7689 58.0838 42.9522 57.8015C42.9679 57.7409 42.9999 57.6554 43.048 57.545C43.0961 57.4346 43.128 57.3491 43.1437 57.2885C43.181 57.1947 43.2443 57.0882 43.3334 56.9691C43.4197 56.8362 43.5211 56.7073 43.6377 56.5824C43.768 56.4545 43.8943 56.3418 44.0167 56.2442C44.1391 56.1466 44.2413 56.0891 44.3235 56.0716C44.392 56.0571 44.5019 56.0695 44.6534 56.1088C44.802 56.1345 44.934 56.1494 45.0494 56.1535C45.5997 56.2512 46.0047 56.4729 46.2642 56.8185C46.5237 57.164 46.6913 57.5149 46.767 57.8709C46.8077 58.0626 46.7892 58.3457 46.7113 58.72C46.6471 59.0915 46.5527 59.4551 46.4279 59.8108C46.3031 60.1665 46.1848 60.4851 46.0728 60.7665C45.9717 61.0313 45.9103 61.1803 45.8888 61.2135C45.7378 61.446 45.5927 61.7059 45.4533 61.9931C45.3248 62.2638 45.1933 62.5207 45.059 62.7639C44.9246 63.0072 44.7653 63.2343 44.5812 63.4452C44.4078 63.6395 44.1875 63.8151 43.9203 63.9721C43.8195 64.0365 43.7529 64.0936 43.7205 64.1434C43.8892 64.4653 44.0345 64.6778 44.1566 64.7806C44.2786 64.8835 44.4766 64.9058 44.7505 64.8476C45.1339 64.7661 45.5243 64.5829 45.9218 64.2981C46.333 64.0103 46.7123 63.7078 47.06 63.3906C47.4184 63.0568 47.7671 62.7107 48.106 62.3524C48.4557 61.9775 48.6648 61.7828 48.7333 61.7683L49.1664 61.483C49.2133 61.5016 49.2519 61.5149 49.2822 61.5228C49.3233 61.514 49.3335 61.562 49.3128 61.6666ZM44.9612 58.0615L44.8957 57.7534C44.5153 58.3209 44.2166 58.9354 43.9994 59.597C43.7959 60.2557 43.676 60.9038 43.6398 61.5413C43.6887 61.5023 43.7951 61.3294 43.9589 61.0226C44.1227 60.7159 44.2792 60.3749 44.4285 59.9996C44.5914 59.6215 44.727 59.2492 44.8351 58.8827C44.957 58.5133 44.999 58.2396 44.9612 58.0615ZM56.1699 54.4768C56.2078 54.6548 56.1763 54.776 56.0754 54.8403C55.9746 54.9047 55.8342 54.9847 55.6541 55.0802C55.6325 55.1134 55.6027 55.1412 55.5645 55.1636C55.5263 55.1861 55.4911 55.2222 55.4587 55.272C55.3002 55.3343 55.1295 55.4064 54.9465 55.4882C54.7635 55.5701 54.627 55.6349 54.5369 55.6826C54.4606 55.7275 54.3554 55.7713 54.2214 55.8141C54.0874 55.8569 53.993 55.8841 53.9382 55.8958C53.905 55.8742 53.8473 55.8722 53.7651 55.8896C53.6966 55.9042 53.6462 55.9364 53.6139 55.9862C53.5923 56.0194 53.5473 56.0433 53.4788 56.0578C53.1697 56.1522 52.8278 56.2606 52.4531 56.3832C52.0755 56.4921 51.8249 56.6599 51.7013 56.8865C51.6366 56.9861 51.596 57.2667 51.5796 57.7282C51.5632 58.1897 51.557 58.6991 51.561 59.2565C51.5757 59.7972 51.5944 60.3228 51.617 60.8333C51.6533 61.3408 51.6933 61.6973 51.737 61.9027C51.8176 62.2147 51.9487 62.4946 52.1301 62.7423C52.3087 62.9763 52.576 63.0554 52.932 62.9798C53.2196 62.9186 53.5059 62.7504 53.7909 62.4752C54.0896 62.197 54.4177 61.8553 54.7753 61.4501C55.1299 61.0312 55.4968 60.6026 55.876 60.1642C56.2551 59.7258 56.5034 59.4798 56.6208 59.4262C56.798 59.3169 56.8899 59.3117 56.8966 59.4105C56.9033 59.5093 56.8909 59.6192 56.8594 59.7404C56.8121 59.9222 56.7541 60.1206 56.6853 60.3356C56.6302 60.5477 56.5653 60.7476 56.4907 60.9352C56.565 60.948 56.4638 61.2128 56.1873 61.7296C55.9077 62.2328 55.4859 62.7733 54.9217 63.3512C54.3713 63.9262 53.8084 64.2748 53.2333 64.3971L52.8225 64.4844C52.7403 64.5019 52.5482 64.5069 52.246 64.4996C51.9468 64.506 51.6936 64.4596 51.4865 64.3605C51.0449 64.1681 50.6826 63.8443 50.3998 63.3892C50.1307 62.9311 49.9452 62.4625 49.8433 61.9832C49.655 61.1644 49.5731 60.4089 49.5977 59.7167C49.6224 59.0245 49.6364 58.4847 49.64 58.0975C49.3624 58.0707 49.1088 57.9886 48.8792 57.8513C48.633 57.7033 48.4794 57.4855 48.4183 57.1979C48.3746 56.9925 48.4028 56.8219 48.5027 56.6861C48.5861 56.5396 48.7041 56.4215 48.8568 56.3318C49.0095 56.2421 49.1636 56.1592 49.3192 56.0832C49.4885 56.0043 49.6094 55.8999 49.682 55.7699C49.7712 55.6508 49.8062 55.4788 49.787 55.2538C49.7815 55.026 49.7872 54.8172 49.8042 54.6276C49.8853 54.0664 49.9432 53.6319 49.9779 53.324C50.0097 53.0023 50.0366 52.7247 50.0585 52.491C50.0804 52.2573 50.1189 52.0345 50.174 51.8224C50.2262 51.5966 50.3215 51.3044 50.46 50.9458C50.4708 50.9292 50.5075 50.8999 50.5702 50.8579C50.6465 50.8131 50.7311 50.7736 50.8241 50.7396C50.917 50.7055 51.0114 50.6783 51.1073 50.6579C51.2139 50.6209 51.2878 50.598 51.3289 50.5893C51.3974 50.5748 51.5156 50.5926 51.6837 50.6427C51.8489 50.6792 51.9892 50.6994 52.1046 50.7035C52.1926 50.7135 52.2976 50.7699 52.4196 50.8727C52.5417 50.9756 52.6115 51.0681 52.6289 51.1503C52.6435 51.2188 52.589 51.3663 52.4654 51.593C52.3389 51.8059 52.2603 52.0087 52.2297 52.2012C52.1303 52.6088 52.0572 53.0394 52.0105 53.4931C51.9775 53.9438 51.9293 54.3905 51.866 54.8334C52.1399 54.7752 52.4534 54.7014 52.8065 54.612C53.1734 54.5197 53.5211 54.4386 53.8498 54.3688C54.1755 54.2852 54.4069 54.2289 54.5438 54.1998C54.6944 54.1678 54.7834 54.1489 54.8108 54.143C54.893 54.1256 55.0069 54.1228 55.1526 54.1348C55.2953 54.1331 55.4381 54.1314 55.5809 54.1296C55.6112 54.1375 55.6747 54.167 55.7714 54.218C55.8681 54.269 55.9644 54.2843 56.0603 54.2639C56.0935 54.2855 56.113 54.3099 56.1188 54.3373C56.1354 54.3481 56.1525 54.3946 56.1699 54.4768ZM71.8085 58.0657C71.8144 58.0931 71.7986 58.1537 71.7613 58.2475C71.7211 58.3276 71.6755 58.4161 71.6245 58.5128C71.5842 58.5929 71.5279 58.6979 71.4553 58.8278C71.3798 58.9441 71.3151 59.0437 71.2612 59.1267C71.1533 59.2928 71.0127 59.4729 70.8393 59.6672C70.663 59.8478 70.4716 60.0245 70.265 60.1972C70.0721 60.3671 69.8543 60.5207 69.6115 60.6582C69.3825 60.7927 69.1447 60.8862 68.8983 60.9386C68.8572 60.9473 68.7872 60.955 68.6885 60.9617C68.5926 60.9821 68.4831 61.0054 68.3598 61.0316C68.2474 61.0412 68.1266 61.0454 67.9975 61.0442C67.8821 61.0401 67.7859 61.0248 67.7087 60.9982C67.5015 60.8991 67.3286 60.7928 67.19 60.6791C67.065 60.5625 66.9523 60.4362 66.8518 60.3001C66.765 60.1611 66.6904 60.0124 66.6281 59.8539C66.5766 59.6788 66.5001 59.4875 66.3988 59.28C66.291 59.4461 66.2016 59.6654 66.1308 59.9381C66.057 60.1971 65.9583 60.4399 65.8348 60.6666C65.7601 60.8542 65.6552 61.0339 65.52 61.2058C65.3985 61.3748 65.2877 61.5271 65.1878 61.6629C65.1143 61.7214 65.0204 61.7843 64.9058 61.8516C64.805 61.916 64.7135 61.9569 64.6314 61.9744L63.9124 62.1272C63.8303 62.1446 63.6528 62.118 63.3801 62.0471C63.1211 61.9733 62.9238 61.8865 62.788 61.7865C62.6631 61.6699 62.5401 61.4957 62.4193 61.2638C62.3121 61.0289 62.2498 60.8704 62.2323 60.7882C62.1683 60.487 62.1499 60.0973 62.1771 59.6192C62.215 59.1245 62.2897 58.6005 62.4011 58.0472C62.5233 57.4774 62.6563 56.8909 62.8 56.2879C62.9438 55.6848 63.1031 55.1213 63.2781 54.5975C63.453 54.0737 63.6204 53.6159 63.7805 53.2241C63.9542 52.8293 64.0964 52.5558 64.2072 52.4034C64.2669 52.3478 64.3487 52.2946 64.4524 52.2439C64.5561 52.1933 64.6491 52.1592 64.7312 52.1417C64.8819 52.1097 64.9792 52.0962 65.0232 52.1012C65.1033 52.1414 65.2068 52.1909 65.3339 52.2498C65.4717 52.2921 65.6026 52.3358 65.7267 52.381C65.8645 52.4233 65.9803 52.4631 66.0741 52.5004C66.1816 52.5348 66.2491 52.5491 66.2765 52.5432C66.3586 52.5258 66.3968 52.5033 66.391 52.476C66.3852 52.4486 66.4233 52.4261 66.5055 52.4087C66.6287 52.3825 66.7661 52.3891 66.9176 52.4284C67.0828 52.4649 67.2387 52.5248 67.3852 52.6081C67.5317 52.6915 67.6621 52.7998 67.7763 52.9329C67.8875 53.0524 67.9606 53.1943 67.9956 53.3586C68.0159 53.4545 68.0177 53.5973 68.0007 53.7869C67.9975 53.9737 67.982 54.1702 67.9543 54.3765C67.9266 54.5827 67.9028 54.7739 67.8829 54.9498C67.8739 55.1092 67.8669 55.2109 67.8619 55.2549C67.8607 55.3839 67.8604 55.5844 67.8609 55.8562C67.8585 56.1143 67.862 56.3999 67.8712 56.7128C67.8942 57.0228 67.9171 57.3328 67.9401 57.6428C67.963 57.9528 67.9934 58.1968 68.0313 58.3748C68.0575 58.4981 68.0783 58.6296 68.0937 58.7695C68.1228 58.9064 68.1641 59.0336 68.2177 59.151C68.2713 59.2684 68.3523 59.3801 68.4606 59.4858C68.5798 59.575 68.7298 59.6075 68.9108 59.5834C69.0614 59.5514 69.2761 59.4842 69.555 59.382C69.8309 59.2661 70.0927 59.1175 70.3404 58.936C70.6018 58.7516 70.8358 58.5731 71.0424 58.4003C71.249 58.2276 71.4865 57.9982 71.7549 57.7122C71.7636 57.7532 71.7723 57.7943 71.7811 57.8354C71.7898 57.8765 71.799 57.9533 71.8085 58.0657ZM66.0236 53.7778L65.98 53.5724C65.9389 53.5811 65.9032 53.5815 65.8729 53.5737L65.8231 53.5413C65.5526 53.8851 65.3256 54.2983 65.1419 54.781C64.9554 55.2501 64.7995 55.7627 64.6744 56.3188C64.5601 56.8584 64.4639 57.4156 64.3857 57.9904C64.3212 58.5623 64.2714 59.1025 64.2363 59.6109C64.204 59.6607 64.1839 59.7007 64.176 59.731C64.1681 59.7613 64.1729 59.8176 64.1904 59.8997L64.2515 60.1873C64.5415 59.868 64.7802 59.5096 64.9676 59.1119C65.1521 58.7006 65.2994 58.2828 65.4097 57.8586C65.5307 57.4178 65.6297 56.9746 65.7067 56.5288C65.7837 56.083 65.8567 55.6524 65.9259 55.237C65.9329 55.1353 65.9492 55.0102 65.9749 54.8616C65.9977 54.6993 66.015 54.5453 66.027 54.3997C66.039 54.254 66.0402 54.1249 66.0306 54.0125C66.0318 53.8834 66.0294 53.8052 66.0236 53.7778ZM83.1589 55.0091C83.0105 55.4557 82.8353 55.8436 82.6334 56.1728C82.4422 56.4853 82.2315 56.7734 82.0013 57.0371C81.7681 57.287 81.5199 57.533 81.2564 57.7751C81.0038 58.0005 80.7418 58.2494 80.4705 58.5218C80.4352 58.5579 80.3726 58.5998 80.2826 58.6476C80.1925 58.6954 80.0888 58.746 79.9714 58.7996C79.8676 58.8503 79.7624 58.8941 79.6558 58.9311C79.5658 58.9789 79.5002 59.0071 79.4591 59.0159C79.418 59.0246 79.3276 59.0367 79.1877 59.0521C79.0508 59.0812 78.8987 59.1063 78.7315 59.1276C78.5779 59.1459 78.4312 59.1628 78.2914 59.1782C78.1544 59.2073 78.0654 59.2262 78.0243 59.235C77.9422 59.2524 77.8322 59.24 77.6944 59.1977C77.5566 59.1555 77.4159 59.0995 77.2722 59.0298C77.1286 58.9602 77.0016 58.9013 76.8912 58.8532C76.7779 58.7914 76.7114 58.7483 76.6919 58.7238C76.6334 58.6504 76.5539 58.5456 76.4534 58.4095C76.3637 58.2568 76.2725 58.0973 76.1799 57.9309C76.0981 57.7479 76.0177 57.5718 75.9388 57.4025C75.8569 57.2195 75.8015 57.0596 75.7724 56.9226C75.7025 56.594 75.6592 56.1881 75.6424 55.7051C75.6363 55.2054 75.6548 54.6862 75.6977 54.1475C75.7515 53.5922 75.834 53.0379 75.9454 52.4847C76.0676 51.9148 76.222 51.3954 76.4086 50.9263C76.5951 50.4573 76.8197 50.066 77.0822 49.7526C77.3419 49.4255 77.6498 49.2241 78.0058 49.1484C78.1701 49.1135 78.3677 49.1001 78.5984 49.1083C78.8292 49.1165 79.0657 49.1521 79.3081 49.2151C79.5476 49.2644 79.7861 49.3425 80.0235 49.4495C80.258 49.5427 80.4558 49.6653 80.6169 49.8171C80.6696 49.8632 80.7213 49.9381 80.772 50.0418C80.8198 50.1318 80.8621 50.2302 80.8991 50.3368C80.9469 50.4268 80.9809 50.5198 81.0013 50.6156C81.0325 50.6949 81.0524 50.7551 81.0612 50.7961C81.0641 50.8098 81.0527 50.891 81.027 51.0396C80.9984 51.1745 80.9659 51.3245 80.9295 51.4897C80.893 51.6549 80.8483 51.8147 80.7952 51.9691C80.7529 52.1069 80.7127 52.187 80.6745 52.2094C80.5982 52.2543 80.5194 52.3211 80.4381 52.41C80.3539 52.4851 80.2711 52.5671 80.1898 52.656C80.1193 52.7282 80.0488 52.8004 79.9782 52.8727C79.9185 52.9283 79.8681 52.9605 79.827 52.9692C79.7585 52.9838 79.6759 52.9656 79.5792 52.9146C79.4825 52.8635 79.3912 52.8042 79.3052 52.7366C79.2164 52.6553 79.1427 52.578 79.0841 52.5045C79.0227 52.4174 78.9876 52.3533 78.9789 52.3122C78.9614 52.23 78.9715 52.0418 79.0091 51.7476C79.0468 51.4533 79.0736 51.1757 79.0897 50.9146L78.9403 50.8176C78.6573 51.0352 78.4186 51.3936 78.2242 51.893C78.0435 52.3894 77.9003 52.9279 77.7947 53.5086C77.6891 54.0892 77.6261 54.6679 77.6056 55.2448C77.5988 55.8188 77.6332 56.2838 77.7089 56.6398C77.7205 56.6946 77.7507 56.8027 77.7993 56.9641C77.8587 57.1089 77.9318 57.2508 78.0186 57.3898C78.1054 57.5288 78.2015 57.6444 78.3069 57.7364C78.4261 57.8256 78.5498 57.8351 78.678 57.7649C78.7464 57.7504 78.785 57.7636 78.7938 57.8047C78.8133 57.8292 78.8641 57.8327 78.9463 57.8152C79.1243 57.7774 79.3538 57.6785 79.6347 57.5186C79.9156 57.3587 80.2004 57.1837 80.4892 56.9935C80.775 56.7896 81.0418 56.5969 81.2895 56.4155C81.5479 56.2174 81.7369 56.0627 81.8564 55.9515C81.8916 55.9153 81.9582 55.8583 82.0561 55.7802C82.1511 55.6884 82.2461 55.5967 82.3411 55.5049C82.4498 55.4103 82.5531 55.3239 82.651 55.2458C82.7597 55.1512 82.8454 55.0829 82.9081 55.0409C82.9707 54.999 83.0118 54.9902 83.0313 55.0147C83.0479 55.0255 83.0904 55.0236 83.1589 55.0091ZM92.1491 53.7422C92.1549 53.7696 92.1391 53.8302 92.1018 53.924C92.0616 54.0041 92.016 54.0925 91.965 54.1893C91.9248 54.2694 91.8684 54.3744 91.7958 54.5043C91.7203 54.6206 91.6556 54.7202 91.6017 54.8032C91.4938 54.9693 91.3532 55.1494 91.1798 55.3437C91.0035 55.5243 90.8121 55.701 90.6055 55.8737C90.4126 56.0435 90.1948 56.1972 89.952 56.3347C89.723 56.4692 89.4852 56.5627 89.2388 56.6151C89.1977 56.6238 89.1277 56.6315 89.029 56.6382C88.9331 56.6586 88.8236 56.6819 88.7003 56.7081C88.5879 56.7177 88.4671 56.7219 88.338 56.7207C88.2227 56.7166 88.1264 56.7013 88.0492 56.6747C87.842 56.5756 87.6691 56.4692 87.5305 56.3556C87.4055 56.239 87.2928 56.1127 87.1923 55.9766C87.1055 55.8376 87.0309 55.6889 86.9686 55.5304C86.9171 55.3553 86.8406 55.164 86.7393 54.9565C86.6315 55.1226 86.5421 55.3419 86.4713 55.6146C86.3975 55.8736 86.2988 56.1164 86.1753 56.3431C86.1006 56.5307 85.9957 56.7104 85.8605 56.8823C85.739 57.0513 85.6282 57.2036 85.5283 57.3394C85.4548 57.3979 85.3609 57.4608 85.2463 57.5281C85.1455 57.5925 85.054 57.6334 84.9719 57.6509L84.2529 57.8037C84.1708 57.8211 83.9933 57.7944 83.7206 57.7236C83.4616 57.6498 83.2643 57.563 83.1285 57.463C83.0036 57.3464 82.8806 57.1722 82.7598 56.9402C82.6526 56.7054 82.5903 56.5469 82.5728 56.4647C82.5088 56.1635 82.4904 55.7738 82.5176 55.2957C82.5555 54.801 82.6302 54.277 82.7416 53.7237C82.8638 53.1539 82.9968 52.5674 83.1406 51.9643C83.2843 51.3613 83.4436 50.7978 83.6186 50.274C83.7935 49.7502 83.9609 49.2924 84.121 48.9006C84.2947 48.5058 84.4369 48.2323 84.5477 48.0799C84.6074 48.0243 84.6892 47.9711 84.7929 47.9204C84.8966 47.8698 84.9896 47.8357 85.0717 47.8182C85.2224 47.7862 85.3197 47.7727 85.3637 47.7776C85.4438 47.8179 85.5473 47.8674 85.6744 47.9263C85.8122 47.9686 85.9431 48.0123 86.0672 48.0575C86.205 48.0998 86.3208 48.1395 86.4146 48.1769C86.5221 48.2113 86.5896 48.2256 86.617 48.2197C86.6991 48.2023 86.7373 48.1798 86.7315 48.1525C86.7257 48.1251 86.7638 48.1026 86.846 48.0852C86.9692 48.059 87.1066 48.0656 87.2581 48.1049C87.4233 48.1414 87.5792 48.2013 87.7257 48.2846C87.8722 48.368 88.0026 48.4763 88.1168 48.6094C88.228 48.7289 88.3011 48.8708 88.3361 49.0351C88.3564 49.131 88.3582 49.2737 88.3412 49.4634C88.338 49.6502 88.3225 49.8467 88.2948 50.053C88.2671 50.2592 88.2433 50.4503 88.2234 50.6263C88.2144 50.7857 88.2074 50.8874 88.2024 50.9314C88.2012 51.0604 88.2009 51.2609 88.2014 51.5327C88.199 51.7908 88.2025 52.0764 88.2117 52.3893C88.2347 52.6993 88.2576 53.0093 88.2806 53.3193C88.3035 53.6293 88.3339 53.8733 88.3718 54.0513C88.398 54.1746 88.4188 54.3061 88.4342 54.446C88.4633 54.5829 88.5046 54.7101 88.5582 54.8275C88.6118 54.9449 88.6928 55.0565 88.8011 55.1623C88.9203 55.2515 89.0703 55.284 89.2513 55.2599C89.4019 55.2279 89.6166 55.1607 89.8955 55.0585C90.1714 54.9426 90.4332 54.7939 90.6809 54.6125C90.9423 54.4281 91.1763 54.2496 91.3829 54.0768C91.5895 53.9041 91.827 53.6747 92.0954 53.3887C92.1041 53.4297 92.1128 53.4708 92.1216 53.5119C92.1303 53.553 92.1395 53.6298 92.1491 53.7422ZM86.3641 49.4543L86.3205 49.2489C86.2794 49.2576 86.2437 49.258 86.2134 49.2502L86.1636 49.2178C85.8931 49.5615 85.6661 49.9748 85.4824 50.4575C85.2959 50.9266 85.1401 51.4392 85.015 51.9953C84.9006 52.5349 84.8044 53.0921 84.7262 53.6669C84.6617 54.2388 84.6119 54.7789 84.5768 55.2873C84.5445 55.3372 84.5244 55.3772 84.5165 55.4075C84.5086 55.4378 84.5134 55.494 84.5309 55.5762L84.592 55.8638C84.882 55.5445 85.1207 55.1861 85.3081 54.7884C85.4926 54.3771 85.6399 53.9593 85.7502 53.5351C85.8712 53.0943 85.9702 52.651 86.0472 52.2053C86.1242 51.7595 86.1972 51.3289 86.2664 50.9135C86.2734 50.8118 86.2897 50.6867 86.3154 50.5381C86.3382 50.3758 86.3555 50.2218 86.3675 50.0762C86.3795 49.9305 86.3807 49.8014 86.3711 49.689C86.3723 49.5599 86.3699 49.4817 86.3641 49.4543ZM97.996 53.165C97.889 53.4024 97.7492 53.654 97.5767 53.9196C97.4012 54.1716 97.2107 54.4197 97.0049 54.6638C96.7963 54.8942 96.5666 55.0933 96.316 55.261C96.0684 55.4425 95.8144 55.5609 95.5542 55.6162L95.2461 55.6817C95.0955 55.7137 94.9185 55.7227 94.7151 55.7087C94.5284 55.7054 94.3372 55.6817 94.1418 55.6373C93.9629 55.6038 93.7894 55.5619 93.6213 55.5118C93.464 55.445 93.3355 55.3793 93.2359 55.3146C92.9644 55.1147 92.7267 54.8718 92.5228 54.586C92.3189 54.3001 92.1409 54.0016 91.9889 53.6904C91.8477 53.3626 91.727 53.0304 91.6268 52.6939C91.5267 52.3574 91.4446 52.0385 91.3805 51.7372C91.2961 51.3401 91.2358 50.8877 91.1994 50.3802C91.1739 49.856 91.1567 49.3373 91.1477 48.8239C91.1525 48.3077 91.1699 47.8173 91.2 47.3529C91.2302 46.8885 91.2572 46.5106 91.2811 46.2193C91.2782 46.2056 91.2941 46.0448 91.3289 45.7368C91.3636 45.4289 91.4126 45.0535 91.4759 44.6106C91.5363 44.1541 91.6114 43.6658 91.7013 43.1458C91.8019 42.6091 91.9181 42.1121 92.0499 41.6547C92.1817 41.1973 92.328 40.8084 92.4889 40.4879C92.6498 40.1675 92.8329 39.9854 93.0384 39.9418C93.1068 39.9272 93.2085 39.9342 93.3434 39.9628C93.492 39.9885 93.6366 40.0293 93.7773 40.0852C93.9288 40.1246 94.0612 40.1752 94.1746 40.237C94.3016 40.2959 94.3831 40.3429 94.4193 40.3782C94.5081 40.4595 94.5895 40.6068 94.6635 40.8201C94.7482 41.0167 94.7979 41.1493 94.8124 41.2178C94.8182 41.2452 94.8166 41.3386 94.8076 41.4979C94.8122 41.6544 94.8089 41.8411 94.7978 42.0582C94.8004 42.2723 94.7991 42.5016 94.7938 42.7461C94.7993 42.9739 94.8058 43.1729 94.8133 43.343C94.8179 43.4995 94.8186 43.6711 94.8154 43.8579C94.8229 44.028 94.8207 44.1859 94.8087 44.3316C94.7906 44.6503 94.7636 45.0282 94.7277 45.4652C94.6888 45.8886 94.6168 46.2903 94.5115 46.6705C94.4929 46.7174 94.4952 46.7956 94.5185 46.9052C94.5389 47.001 94.5372 47.0944 94.5136 47.1853C94.4063 47.6232 94.2853 48.064 94.1506 48.5077C94.013 48.9377 93.892 49.3785 93.7876 49.8301C93.7669 49.9346 93.7182 50.1096 93.6415 50.3549C93.5757 50.5836 93.5073 50.8343 93.4364 51.107C93.3764 51.3631 93.3231 51.6177 93.2768 51.8709C93.2412 52.1074 93.2365 52.2873 93.2627 52.4106C93.3005 52.5886 93.372 52.8239 93.4771 53.1164C93.593 53.3924 93.7432 53.661 93.9275 53.9224C94.1256 54.1809 94.356 54.3895 94.6188 54.5484C94.8952 54.7043 95.2115 54.7444 95.5675 54.6687C96.0468 54.5669 96.4769 54.3681 96.8578 54.0724C97.2494 53.7602 97.5443 53.3969 97.7425 52.9827L97.9479 52.939L97.996 53.165ZM93.4681 43.4787C93.3786 43.7983 93.3018 44.1438 93.2376 44.5153C93.1734 44.8867 93.1161 45.2567 93.0656 45.6253C93.0259 45.9772 92.9931 46.3277 92.9671 46.6768C92.9382 47.0121 92.9171 47.3171 92.904 47.5919C93.1104 46.9469 93.2533 46.2724 93.3327 45.5685C93.412 44.8646 93.4572 44.168 93.4681 43.4787ZM103.011 52.099C102.904 52.3364 102.764 52.588 102.592 52.8537C102.416 53.1057 102.226 53.3537 102.02 53.5978C101.811 53.8282 101.582 54.0273 101.331 54.1951C101.083 54.3766 100.829 54.4949 100.569 54.5502L100.261 54.6157C100.11 54.6478 99.9334 54.6568 99.73 54.6427C99.5433 54.6395 99.3522 54.6157 99.1567 54.5714C98.9778 54.5378 98.8043 54.496 98.6362 54.4458C98.4789 54.3791 98.3504 54.3134 98.2508 54.2487C97.9793 54.0487 97.7416 53.8059 97.5377 53.52C97.3338 53.2341 97.1559 52.9356 97.0038 52.6244C96.8626 52.2966 96.7419 51.9645 96.6417 51.6279C96.5416 51.2914 96.4595 50.9725 96.3955 50.6712C96.311 50.2741 96.2507 49.8218 96.2144 49.3142C96.1888 48.7901 96.1716 48.2713 96.1627 47.758C96.1674 47.2417 96.1849 46.7514 96.215 46.287C96.2451 45.8226 96.2721 45.4447 96.296 45.1533C96.2931 45.1396 96.309 44.9788 96.3438 44.6709C96.3785 44.3629 96.4275 43.9875 96.4908 43.5447C96.5512 43.0881 96.6264 42.5999 96.7162 42.0798C96.8168 41.5432 96.933 41.0461 97.0648 40.5887C97.1966 40.1314 97.3429 39.7424 97.5038 39.422C97.6647 39.1015 97.8479 38.9195 98.0533 38.8758C98.1217 38.8612 98.2234 38.8683 98.3583 38.8968C98.5069 38.9225 98.6515 38.9633 98.7923 39.0193C98.9437 39.0587 99.0762 39.1092 99.1895 39.171C99.3165 39.2299 99.3981 39.277 99.4342 39.3122C99.523 39.3935 99.6044 39.5408 99.6784 39.7541C99.7631 39.9508 99.8128 40.0834 99.8273 40.1518C99.8332 40.1792 99.8315 40.2726 99.8225 40.432C99.8271 40.5884 99.8239 40.7752 99.8128 40.9922C99.8153 41.2064 99.814 41.4357 99.8087 41.6801C99.8142 41.908 99.8207 42.1069 99.8282 42.2771C99.8329 42.4336 99.8336 42.6052 99.8303 42.7919C99.8378 42.9621 99.8356 43.12 99.8237 43.2656C99.8055 43.5844 99.7785 43.9623 99.7426 44.3993C99.7037 44.8226 99.6317 45.2244 99.5264 45.6046C99.5078 45.6515 99.5101 45.7297 99.5334 45.8392C99.5538 45.9351 99.5521 46.0285 99.5285 46.1194C99.4212 46.5572 99.3002 46.998 99.1655 47.4417C99.0279 47.8717 98.9069 48.3125 98.8025 48.7641C98.7818 48.8687 98.7331 49.0436 98.6565 49.2889C98.5906 49.5176 98.5222 49.7683 98.4513 50.041C98.3913 50.2971 98.3381 50.5517 98.2917 50.8049C98.2561 51.0415 98.2514 51.2214 98.2776 51.3446C98.3154 51.5227 98.3869 51.7579 98.492 52.0505C98.6079 52.3264 98.7581 52.5951 98.9424 52.8564C99.1405 53.1149 99.3709 53.3236 99.6337 53.4824C99.9102 53.6383 100.226 53.6785 100.582 53.6028C101.062 53.5009 101.492 53.3021 101.873 53.0065C102.264 52.6942 102.559 52.331 102.757 51.9167L102.963 51.8731L103.011 52.099ZM98.483 42.4127C98.3935 42.7323 98.3167 43.0779 98.2525 43.4493C98.1883 43.8208 98.131 44.1908 98.0805 44.5593C98.0408 44.9113 98.008 45.2618 97.982 45.6108C97.9531 45.9461 97.932 46.2512 97.9189 46.5259C98.1253 45.8809 98.2682 45.2065 98.3476 44.5026C98.427 43.7987 98.4721 43.1021 98.483 42.4127ZM109.774 41.0003C109.803 41.1373 109.794 41.2609 109.746 41.3714C109.698 41.4818 109.625 41.576 109.527 41.6541C109.429 41.7321 109.32 41.7911 109.199 41.831C109.093 41.868 108.998 41.8952 108.916 41.9127C108.82 41.933 108.698 41.9304 108.549 41.9047C108.401 41.8791 108.262 41.8299 108.132 41.7574C108.002 41.6848 107.884 41.6025 107.779 41.5104C107.684 41.4017 107.623 41.2857 107.597 41.1625C107.53 40.8475 107.545 40.6153 107.642 40.4658C107.739 40.3164 107.959 40.2053 108.302 40.1325C108.384 40.1151 108.45 40.1225 108.5 40.1549C108.546 40.1735 108.585 40.1868 108.615 40.1947C109.065 40.1563 109.361 40.2365 109.504 40.4352C109.643 40.6202 109.733 40.8086 109.774 41.0003ZM112.536 49.0439C112.55 49.1124 112.5 49.2805 112.385 49.5482C112.271 49.8159 112.198 50.0461 112.167 50.2387C112.08 50.5006 111.948 50.7575 111.773 51.0095C111.608 51.2449 111.419 51.4641 111.204 51.6671C111 51.8535 110.777 52.0155 110.535 52.1529C110.292 52.2904 110.068 52.381 109.862 52.4246C109.246 52.5556 108.711 52.4618 108.257 52.1433C107.803 51.8248 107.466 51.3881 107.248 50.8333C107.195 50.7159 107.156 50.5667 107.132 50.3858C107.108 50.2049 107.087 50.0733 107.069 49.9912C106.889 49.1421 106.803 48.4018 106.812 47.7701C106.832 47.1219 106.831 46.478 106.809 45.8385C106.81 45.7094 106.828 45.5554 106.861 45.3766C106.892 45.184 106.917 44.9997 106.937 44.8237C106.935 44.681 106.958 44.483 107.004 44.2298C107.064 43.9737 107.169 43.7583 107.318 43.5835C107.366 43.5445 107.436 43.5011 107.526 43.4533C107.627 43.389 107.718 43.3481 107.801 43.3306C108.006 43.2869 108.252 43.3348 108.539 43.4741C108.84 43.6105 109.013 43.7814 109.056 43.9868C109.065 44.0279 109.031 44.2356 108.953 44.61C108.886 44.9678 108.825 45.4243 108.771 45.9796C108.718 46.5349 108.688 47.1709 108.683 47.8876C108.689 48.5878 108.767 49.2939 108.919 50.0059C108.933 50.0744 108.957 50.184 108.989 50.3346C109.034 50.4823 109.095 50.634 109.171 50.7896C109.244 50.9315 109.328 51.0568 109.423 51.1655C109.515 51.2605 109.636 51.292 109.787 51.2599C109.978 51.2192 110.199 51.0792 110.449 50.8401C110.696 50.5873 110.938 50.3139 111.176 50.0199C111.411 49.7123 111.622 49.4242 111.808 49.1556C111.994 48.887 112.136 48.7137 112.234 48.6357C112.395 48.7161 112.495 48.8522 112.536 49.0439ZM122.385 45.9627C122.338 46.1445 122.298 46.3606 122.266 46.6108C122.244 46.8445 122.197 47.062 122.125 47.2633C122.074 47.36 122.021 47.4787 121.965 47.6194C121.919 47.7435 121.858 47.8925 121.781 48.0665C121.751 48.13 121.716 48.2018 121.676 48.2819C121.65 48.3591 121.627 48.4211 121.608 48.4681C121.512 48.6889 121.405 48.8906 121.286 49.0733C121.178 49.2393 121.064 49.4068 120.942 49.5758C120.893 49.6148 120.82 49.6734 120.722 49.7514C120.635 49.8129 120.534 49.8772 120.419 49.9445C120.305 50.0118 120.196 50.0708 120.092 50.1215C120.002 50.1692 119.943 50.196 119.916 50.2018C119.834 50.2193 119.782 50.2446 119.76 50.2778C119.739 50.3111 119.687 50.3364 119.605 50.3539C119.235 50.4324 118.905 50.3952 118.615 50.2422C118.325 50.0892 118.071 49.8712 117.853 49.5883C117.633 49.2916 117.454 48.9574 117.318 48.5856C117.179 48.2001 117.058 47.8323 116.955 47.4821C116.852 47.1318 116.763 46.8144 116.688 46.5297C116.627 46.2422 116.575 46.0314 116.532 45.8973C116.273 46.2958 116.101 46.7331 116.016 47.2092C115.945 47.6823 115.859 48.1515 115.757 48.6168C115.738 48.7928 115.68 49.0268 115.585 49.319C115.489 49.6113 115.392 49.8609 115.293 50.0681C115.149 50.3993 115.01 50.622 114.877 50.7362C114.744 50.8504 114.568 50.9664 114.35 51.0844C114.301 51.1234 114.236 51.1874 114.154 51.2762C114.073 51.365 113.991 51.4182 113.909 51.4357C113.827 51.4531 113.769 51.4511 113.736 51.4295C113.703 51.4079 113.663 51.3878 113.616 51.3692C113.369 51.4216 113.148 51.3899 112.952 51.2742C112.766 51.1419 112.616 50.9735 112.501 50.7689C112.383 50.5507 112.285 50.3281 112.208 50.1011C112.132 49.8741 112.079 49.6921 112.049 49.5552C111.994 49.295 111.954 48.9385 111.929 48.4858C111.902 48.0193 111.881 47.5157 111.866 46.975C111.851 46.4342 111.849 45.8837 111.858 45.3234C111.879 44.7466 111.903 44.2191 111.93 43.741C111.968 43.2463 112.007 42.823 112.046 42.471C112.097 42.1025 112.15 41.8478 112.206 41.7071C112.249 41.6407 112.323 41.5822 112.426 41.5315C112.541 41.4642 112.639 41.4218 112.721 41.4044C112.804 41.3869 112.929 41.4032 113.097 41.4534C113.262 41.4898 113.416 41.5072 113.559 41.5055C113.647 41.5154 113.766 41.6046 113.916 41.773C114.067 41.9415 114.15 42.0667 114.168 42.1489C114.174 42.1763 114.167 42.3137 114.148 42.561C114.126 42.7947 114.099 43.0723 114.068 43.394C114.049 43.7127 114.021 44.0481 113.981 44.4C113.941 44.7519 113.913 45.0584 113.897 45.3195C113.879 45.6382 113.866 46.0132 113.857 46.4444C113.859 46.859 113.852 47.2613 113.835 47.6514L113.959 48.033C114.015 47.8923 114.097 47.6387 114.205 47.2722C114.31 46.892 114.427 46.4663 114.556 45.9953C114.685 45.5242 114.826 45.0433 114.979 44.5527C115.133 44.0621 115.293 43.6057 115.461 43.1836C115.643 42.7586 115.825 42.4049 116.009 42.1226C116.203 41.8237 116.396 41.6539 116.587 41.6132C116.628 41.6044 116.71 41.6158 116.831 41.6473C116.966 41.6759 117.11 41.7167 117.265 41.7698C117.416 41.8091 117.555 41.8582 117.682 41.9171C117.823 41.9731 117.906 42.027 117.932 42.0789C117.954 42.117 117.978 42.1621 118.003 42.2139C118.039 42.2492 118.066 42.3079 118.084 42.3901C118.092 42.4311 118.095 42.5451 118.092 42.7318C118.099 42.902 118.107 43.1078 118.116 43.3493C118.124 43.5909 118.133 43.8324 118.141 44.0739C118.163 44.3126 118.183 44.5086 118.202 44.6622C118.223 44.8294 118.25 45.0241 118.283 45.2461C118.313 45.4544 118.343 45.6627 118.373 45.871C118.413 46.0628 118.451 46.2408 118.486 46.4051C118.518 46.5557 118.537 46.6447 118.543 46.6721C118.56 46.7543 118.604 46.9597 118.674 47.2884C118.757 47.6141 118.84 47.8685 118.922 48.0515C118.97 48.1415 119.017 48.2315 119.065 48.3216C119.113 48.4116 119.164 48.5153 119.217 48.6328C119.335 48.851 119.443 48.9856 119.539 49.0366C119.636 49.0877 119.712 49.1073 119.767 49.0957C120.013 49.0433 120.261 48.8618 120.51 48.5513C120.772 48.2379 121.01 47.9082 121.223 47.5625C121.449 47.2138 121.643 46.8792 121.804 46.5587C121.978 46.2354 122.103 46.0156 122.179 45.8993C122.261 45.8819 122.305 45.8868 122.311 45.9142C122.327 45.925 122.352 45.9412 122.385 45.9627ZM130.315 36.7845C130.33 36.853 130.315 36.985 130.27 37.1804C130.223 37.3622 130.2 37.5245 130.202 37.6673C130.19 38.0134 130.199 38.362 130.231 38.7131C130.277 39.0613 130.307 39.4055 130.322 39.7458C130.358 39.9815 130.384 40.2407 130.401 40.5233C130.415 40.7922 130.402 41.0313 130.36 41.2404C130.353 41.3421 130.372 41.4957 130.415 41.7011C130.459 41.9065 130.476 42.0889 130.467 42.2482C130.504 42.5553 130.512 42.8971 130.492 43.2735C130.483 43.6333 130.463 43.9452 130.433 44.2092C130.407 44.2864 130.412 44.414 130.45 44.592C130.502 44.7671 130.544 44.93 130.576 45.0806C130.562 45.0835 130.547 45.0796 130.53 45.0688C130.516 45.0717 130.501 45.0678 130.485 45.057C130.482 45.0433 130.467 45.0394 130.439 45.0452C130.441 45.188 130.439 45.3459 130.433 45.5189C130.423 45.6783 130.426 45.7922 130.441 45.8607C130.45 45.9018 130.475 45.9893 130.518 46.1234C130.558 46.2437 130.611 46.39 130.676 46.5622C130.741 46.7344 130.808 46.9134 130.876 47.0993C130.944 47.2852 131.008 47.4506 131.067 47.5954C131.027 47.6755 130.953 47.734 130.847 47.771C130.754 47.8051 130.666 47.8309 130.584 47.8483C130.502 47.8658 130.432 47.8378 130.373 47.7644C130.318 47.776 130.252 47.7686 130.175 47.742C130.112 47.7126 130.046 47.7052 129.977 47.7197C129.989 47.7745 129.954 47.8106 129.871 47.8281C129.817 47.8397 129.73 47.8366 129.612 47.8188C129.491 47.7874 129.385 47.7598 129.294 47.7362C129.263 47.7283 129.226 47.6862 129.181 47.6099C129.133 47.5198 129.084 47.4229 129.033 47.3192C128.983 47.2155 128.942 47.124 128.911 47.0447C128.876 46.9518 128.858 46.8985 128.855 46.8848C128.849 46.8574 128.845 46.7366 128.842 46.5225C128.84 46.3083 128.827 46.0463 128.804 45.7363C128.795 45.4233 128.784 45.1036 128.772 44.777C128.774 44.4475 128.769 44.1551 128.757 43.8999C128.747 43.5156 128.723 43.0628 128.683 42.5416C128.644 42.0203 128.596 41.5226 128.538 41.0482C128.491 40.5573 128.437 40.1392 128.378 39.7939C128.333 39.4458 128.304 39.2443 128.293 39.1895L128.262 39.0457L128.162 38.5733C127.988 38.7676 127.85 38.9257 127.747 39.0478C127.655 39.1532 127.523 39.3031 127.349 39.4974C127.173 39.678 126.946 39.8908 126.669 40.1358C126.392 40.3807 126.24 40.5061 126.212 40.512C126.13 40.5294 126.078 40.5191 126.055 40.4809C126.047 40.4398 126.001 40.428 125.919 40.4455L125.673 40.4979C125.645 40.5037 125.591 40.4865 125.511 40.4463C125.442 40.3894 125.395 40.3708 125.371 40.3903C125.346 40.4098 125.276 40.3818 125.16 40.3063C125.043 40.2309 124.938 40.1745 124.845 40.1372C124.827 40.055 124.792 39.9552 124.738 39.8378C124.684 39.7203 124.646 39.6069 124.623 39.4973C124.84 39.308 125.04 39.1367 125.222 38.9835C125.401 38.8166 125.616 38.6135 125.865 38.3744C125.971 38.266 126.174 38.0439 126.475 37.7081C126.787 37.3556 127.034 37.0739 127.219 36.863C127.414 36.6355 127.652 36.3773 127.934 36.0883C128.213 35.7856 128.394 35.6256 128.476 35.6081L128.599 35.5819C128.736 35.5528 128.906 35.5741 129.107 35.6458C129.305 35.7038 129.484 35.8019 129.642 35.94C129.811 36.0616 129.955 36.2026 130.075 36.3632C130.206 36.5071 130.286 36.6476 130.315 36.7845ZM138.657 40.2283C138.745 40.6391 138.757 41.1016 138.695 41.6159C138.632 42.1301 138.51 42.6643 138.327 43.2184C138.155 43.7559 137.939 44.2884 137.679 44.816C137.416 45.3299 137.128 45.7919 136.814 46.2021C136.714 46.3378 136.589 46.4574 136.439 46.5608C136.3 46.6476 136.152 46.7222 135.993 46.7845C135.835 46.8468 135.682 46.9008 135.534 46.9465C135.4 46.9893 135.292 47.0195 135.21 47.0369C134.895 47.1039 134.599 47.0951 134.324 47.0105C134.065 46.9368 133.838 46.8132 133.644 46.6398C133.449 46.4664 133.285 46.2652 133.15 46.0362C133.027 45.7905 132.94 45.5513 132.891 45.3185C132.847 45.1131 132.819 44.8471 132.807 44.5205C132.795 44.1939 132.791 43.8727 132.795 43.5568C132.813 43.2381 132.827 42.9634 132.835 42.7326C132.854 42.4853 132.867 42.3464 132.875 42.3161C132.926 41.9476 132.961 41.4749 132.982 40.898C133.013 40.3045 133.084 39.7312 133.196 39.1779C133.304 38.611 133.483 38.1077 133.733 37.6681C133.981 37.2148 134.357 36.9343 134.864 36.8266C134.946 36.8091 135.06 36.8064 135.206 36.8184C135.352 36.8303 135.492 36.8506 135.627 36.8792C135.775 36.9049 135.912 36.9403 136.036 36.9855C136.157 37.017 136.242 37.0489 136.292 37.0812C136.298 37.1086 136.334 37.1439 136.401 37.187C136.478 37.2136 136.544 37.2567 136.6 37.3164C136.642 37.3791 136.673 37.4583 136.693 37.5542C136.714 37.65 136.765 37.7249 136.849 37.7788C137.152 37.929 137.411 38.1029 137.625 38.3008C137.839 38.4987 138.013 38.7121 138.148 38.9412C138.293 39.1536 138.404 39.3733 138.481 39.6003C138.558 39.8272 138.617 40.0366 138.657 40.2283ZM136.802 40.3866C136.79 40.3318 136.76 40.2594 136.713 40.1694C136.678 40.0764 136.631 39.9864 136.569 39.8992C136.521 39.8092 136.477 39.7329 136.435 39.6702C136.39 39.5939 136.361 39.5572 136.347 39.5601C136.238 39.6547 136.128 39.7426 136.016 39.8235C135.902 39.8908 135.81 39.9317 135.742 39.9463C135.646 39.9667 135.546 39.9665 135.441 39.9458C135.334 39.9114 135.225 39.8701 135.114 39.822C134.919 40.4504 134.787 41.1083 134.718 41.7956C134.649 42.4828 134.619 43.112 134.625 43.6831C134.627 43.8258 134.633 43.9891 134.644 44.173C134.654 44.3568 134.663 44.5338 134.671 44.704C134.675 44.8604 134.684 45.0017 134.696 45.1279C134.709 45.254 134.72 45.3377 134.728 45.3787C134.743 45.4472 134.763 45.5074 134.788 45.5592C134.813 45.6111 134.833 45.6713 134.848 45.7398L135.074 45.6917C135.359 45.4165 135.626 45.059 135.877 44.6194C136.124 44.1661 136.331 43.6927 136.498 43.1992C136.662 42.692 136.77 42.1896 136.822 41.692C136.887 41.1914 136.88 40.7563 136.802 40.3866ZM158.721 38.8619C158.625 39.2832 158.449 39.6999 158.193 40.1121C157.948 40.5077 157.653 40.871 157.308 41.2019C156.977 41.5299 156.636 41.81 156.284 42.0421C155.93 42.2605 155.602 42.4018 155.301 42.4658C154.863 42.559 154.486 42.5388 154.172 42.4053C153.857 42.2718 153.585 42.0719 153.357 41.8055C153.126 41.5255 152.937 41.2079 152.79 40.8527C152.643 40.4975 152.52 40.1585 152.423 39.8356C152.396 39.8415 152.363 39.8913 152.326 39.9851C152.174 40.6185 152.065 41.2142 151.998 41.7725C151.941 42.3141 151.775 42.879 151.499 43.4672C151.462 43.561 151.381 43.621 151.258 43.6472C151.135 43.6734 151.034 43.702 150.954 43.7332C150.903 43.7585 150.84 43.8005 150.766 43.859C150.71 43.9283 150.64 43.9717 150.558 43.9892C150.489 44.0038 150.342 43.9849 150.117 43.9327C149.904 43.8776 149.734 43.785 149.607 43.6547C149.418 43.5087 149.275 43.2743 149.178 42.9514C149.081 42.6286 149.007 42.3508 148.958 42.118C148.863 41.537 148.812 40.961 148.805 40.3899C148.798 39.8189 148.783 39.2425 148.76 38.6606L148.729 38.5168L148.668 38.5299C148.532 38.9023 148.393 39.3254 148.25 39.7994C148.119 40.2568 148 40.6756 147.895 41.0558C147.845 41.2239 147.79 41.436 147.73 41.6921C147.683 41.9452 147.627 42.2219 147.562 42.5219C147.511 42.8191 147.448 43.126 147.372 43.4427C147.293 43.7457 147.218 44.0336 147.147 44.3062C147.121 44.3834 147.029 44.4889 146.871 44.6226C146.727 44.7534 146.614 44.8275 146.532 44.845C146.272 44.9003 146.049 44.8975 145.865 44.8365C145.68 44.7756 145.53 44.6786 145.416 44.5454C145.302 44.4122 145.214 44.2664 145.151 44.1079C145.086 43.9357 145.036 43.7674 145.001 43.6031C144.995 43.5757 144.987 43.3342 144.976 42.8785C144.979 42.4199 144.972 41.8845 144.957 41.2724C144.952 40.6437 144.943 39.9944 144.929 39.3246C144.929 38.6518 144.932 38.093 144.938 37.6481C144.937 37.5768 144.946 37.4531 144.966 37.2771C144.986 37.1011 144.995 36.9418 144.993 36.799C144.996 36.5409 144.999 36.2539 145.004 35.9381C145.008 35.6223 145.116 35.3203 145.326 35.0322C145.375 34.9932 145.409 34.9145 145.426 34.7962C145.458 34.675 145.515 34.6057 145.597 34.5882C145.679 34.5708 145.8 34.5666 145.959 34.5756C146.116 34.571 146.249 34.5927 146.36 34.6408C146.437 34.6673 146.51 34.7447 146.581 34.8729C146.665 34.9982 146.712 35.0883 146.724 35.143C146.725 35.2144 146.695 35.3425 146.634 35.5272C146.57 35.6982 146.522 35.8443 146.491 35.9655C146.451 36.3174 146.423 36.7241 146.407 37.1856C146.404 37.6442 146.398 38.0891 146.39 38.5203C146.378 38.9378 146.37 39.3045 146.366 39.6203C146.359 39.9224 146.358 40.0872 146.364 40.1146L146.391 40.3449C146.457 40.3166 146.51 40.2625 146.55 40.1823C146.59 40.1022 146.622 40.0167 146.646 39.9258C146.775 39.2543 146.951 38.5657 147.173 37.8601C147.406 37.1379 147.637 36.4445 147.868 35.78C147.919 35.6119 148.005 35.4145 148.129 35.1879C148.266 34.9583 148.394 34.7522 148.513 34.5696C148.587 34.5824 148.664 34.5732 148.743 34.5421C148.819 34.4972 148.899 34.4661 148.981 34.4486C149.268 34.3875 149.566 34.4388 149.872 34.6026C150.179 34.7664 150.352 34.973 150.391 35.2224C150.396 35.2498 150.398 35.4571 150.394 35.8443C150.39 36.2315 150.389 36.697 150.39 37.2406C150.402 37.7677 150.406 38.325 150.402 38.9127C150.395 39.4866 150.401 39.9863 150.42 40.4117C150.473 40.4577 150.5 40.4519 150.502 40.3942C150.634 39.9368 150.751 39.4755 150.852 39.0102C150.967 38.5421 151.081 38.067 151.193 37.5852C151.316 37.0867 151.461 36.5907 151.628 36.0972C151.793 35.59 152.005 35.0726 152.265 34.545C152.353 34.5549 152.443 34.5428 152.536 34.5088C152.64 34.4581 152.733 34.424 152.815 34.4066C152.897 34.3891 153.039 34.4162 153.24 34.4879C153.452 34.543 153.641 34.6245 153.807 34.7323C153.841 34.7539 153.884 34.8234 153.938 34.9408C153.988 35.0446 154.022 35.1375 154.04 35.2197C154.046 35.2471 154.041 35.3624 154.027 35.5658C154.027 35.7662 154.026 35.9955 154.023 36.2537C154.021 36.5118 154.012 36.7714 153.996 37.0324C153.98 37.2935 153.975 37.5091 153.983 37.6792C153.985 37.822 153.991 37.9853 154.001 38.1691C154.022 38.3364 154.038 38.5119 154.049 38.6958C154.07 38.863 154.088 39.0166 154.104 39.1564C154.119 39.2963 154.131 39.3867 154.14 39.4278C154.16 39.5237 154.189 39.6606 154.227 39.8386C154.262 40.003 154.295 40.1893 154.325 40.3976C154.368 40.603 154.442 40.7806 154.545 40.9304C154.662 41.0773 154.825 41.1714 155.035 41.2128C155.257 41.2513 155.549 41.175 155.909 40.984C156.28 40.7763 156.631 40.5442 156.963 40.2876C157.292 40.0173 157.586 39.7831 157.844 39.585C158.103 39.3869 158.267 39.2518 158.338 39.1795L158.691 38.7181L158.721 38.8619ZM160.204 30.2811C160.233 30.418 160.224 30.5417 160.176 30.6521C160.128 30.7625 160.055 30.8568 159.957 30.9348C159.859 31.0129 159.75 31.0719 159.629 31.1118C159.523 31.1487 159.428 31.176 159.346 31.1934C159.25 31.2138 159.128 31.2112 158.979 31.1855C158.831 31.1598 158.692 31.1107 158.562 31.0381C158.432 30.9656 158.314 30.8832 158.209 30.7911C158.114 30.6824 158.053 30.5665 158.027 30.4432C157.96 30.1283 157.975 29.8961 158.072 29.7466C158.169 29.5972 158.389 29.4861 158.732 29.4133C158.814 29.3958 158.88 29.4033 158.93 29.4356C158.976 29.4543 159.015 29.4675 159.045 29.4754C159.495 29.4371 159.791 29.5172 159.934 29.716C160.073 29.901 160.163 30.0894 160.204 30.2811ZM162.966 38.3247C162.98 38.3931 162.93 38.5612 162.815 38.829C162.701 39.0967 162.628 39.3269 162.597 39.5194C162.51 39.7813 162.378 40.0383 162.203 40.2903C162.038 40.5256 161.849 40.7448 161.634 40.9479C161.43 41.1343 161.207 41.2962 160.965 41.4337C160.722 41.5712 160.498 41.6617 160.292 41.7054C159.676 41.8364 159.141 41.7426 158.687 41.4241C158.233 41.1055 157.896 40.6689 157.678 40.1141C157.625 39.9967 157.586 39.8475 157.562 39.6666C157.538 39.4856 157.517 39.3541 157.499 39.2719C157.319 38.4229 157.233 37.6826 157.242 37.0509C157.262 36.4027 157.261 35.7588 157.239 35.1193C157.24 34.9902 157.258 34.8362 157.291 34.6573C157.322 34.4647 157.347 34.2805 157.367 34.1045C157.365 33.9617 157.388 33.7638 157.434 33.5106C157.494 33.2545 157.599 33.0391 157.748 32.8643C157.796 32.8253 157.866 32.7819 157.956 32.7341C158.057 32.6697 158.148 32.6288 158.231 32.6114C158.436 32.5677 158.682 32.6155 158.969 32.7549C159.27 32.8913 159.443 33.0622 159.486 33.2676C159.495 33.3087 159.461 33.5164 159.383 33.8908C159.316 34.2485 159.255 34.7051 159.201 35.2604C159.148 35.8157 159.118 36.4517 159.113 37.1684C159.119 37.8685 159.197 38.5746 159.349 39.2867C159.363 39.3552 159.387 39.4647 159.419 39.6154C159.464 39.7631 159.525 39.9148 159.601 40.0704C159.674 40.2123 159.758 40.3376 159.853 40.4462C159.945 40.5412 160.066 40.5727 160.217 40.5407C160.408 40.5 160.629 40.36 160.879 40.1209C161.126 39.868 161.368 39.5946 161.606 39.3007C161.841 38.9931 162.052 38.705 162.238 38.4364C162.424 38.1678 162.566 37.9945 162.664 37.9164C162.825 37.9969 162.925 38.133 162.966 38.3247ZM172.815 35.2435C172.768 35.4253 172.728 35.6413 172.696 35.8916C172.674 36.1253 172.627 36.3427 172.555 36.544C172.504 36.6408 172.451 36.7595 172.395 36.9002C172.349 37.0243 172.288 37.1733 172.211 37.3472C172.181 37.4107 172.146 37.4826 172.106 37.5627C172.08 37.6399 172.057 37.7019 172.038 37.7488C171.942 37.9697 171.835 38.1714 171.716 38.354C171.608 38.5201 171.494 38.6876 171.372 38.8566C171.323 38.8956 171.25 38.9541 171.152 39.0322C171.065 39.0937 170.964 39.158 170.849 39.2253C170.735 39.2926 170.626 39.3516 170.522 39.4022C170.432 39.45 170.373 39.4768 170.346 39.4826C170.264 39.5001 170.212 39.5254 170.19 39.5586C170.169 39.5918 170.117 39.6172 170.035 39.6346C169.665 39.7132 169.335 39.676 169.045 39.523C168.755 39.37 168.501 39.152 168.283 38.869C168.063 38.5724 167.884 38.2382 167.748 37.8664C167.609 37.4809 167.488 37.1131 167.385 36.7628C167.282 36.4126 167.193 36.0952 167.118 35.8105C167.057 35.5229 167.005 35.3121 166.962 35.1781C166.703 35.5766 166.531 36.0139 166.446 36.4899C166.375 36.9631 166.289 37.4323 166.187 37.8976C166.168 38.0735 166.11 38.3076 166.015 38.5998C165.919 38.892 165.822 39.1417 165.723 39.3488C165.579 39.6801 165.44 39.9028 165.307 40.017C165.174 40.1311 164.998 40.2472 164.78 40.3652C164.731 40.4042 164.666 40.4681 164.584 40.557C164.503 40.6458 164.421 40.699 164.339 40.7164C164.257 40.7339 164.199 40.7319 164.166 40.7103C164.133 40.6887 164.093 40.6686 164.046 40.65C163.799 40.7023 163.578 40.6707 163.382 40.555C163.196 40.4227 163.046 40.2542 162.931 40.0497C162.813 39.8314 162.715 39.6088 162.638 39.3819C162.562 39.1549 162.509 38.9729 162.479 38.836C162.424 38.5758 162.384 38.2193 162.359 37.7666C162.332 37.3001 162.311 36.7965 162.296 36.2557C162.281 35.715 162.279 35.1645 162.288 34.6042C162.309 34.0273 162.333 33.4999 162.36 33.0218C162.398 32.5271 162.437 32.1037 162.476 31.7518C162.527 31.3832 162.58 31.1286 162.636 30.9879C162.679 30.9215 162.753 30.8629 162.856 30.8123C162.971 30.745 163.069 30.7026 163.151 30.6851C163.234 30.6677 163.359 30.684 163.527 30.7342C163.692 30.7706 163.846 30.788 163.989 30.7863C164.077 30.7962 164.196 30.8854 164.346 31.0538C164.497 31.2222 164.58 31.3475 164.598 31.4297C164.604 31.4571 164.597 31.5944 164.578 31.8418C164.556 32.0755 164.529 32.3531 164.498 32.6748C164.479 32.9935 164.451 33.3288 164.411 33.6808C164.371 34.0327 164.343 34.3392 164.327 34.6003C164.309 34.919 164.296 35.294 164.287 35.7252C164.289 36.1397 164.282 36.5421 164.265 36.9322L164.389 37.3138C164.445 37.1731 164.527 36.9194 164.635 36.553C164.74 36.1728 164.857 35.7471 164.986 35.276C165.115 34.8049 165.256 34.3241 165.409 33.8335C165.563 33.3429 165.723 32.8865 165.891 32.4644C166.073 32.0393 166.255 31.6857 166.439 31.4034C166.633 31.1045 166.826 30.9347 167.017 30.8939C167.058 30.8852 167.14 30.8966 167.261 30.9281C167.396 30.9567 167.54 30.9975 167.695 31.0505C167.846 31.0899 167.985 31.139 168.112 31.1979C168.253 31.2539 168.336 31.3078 168.362 31.3596C168.384 31.3978 168.408 31.4428 168.433 31.4947C168.469 31.53 168.496 31.5887 168.514 31.6708C168.522 31.7119 168.525 31.8258 168.522 32.0126C168.529 32.1827 168.537 32.3886 168.546 32.6301C168.554 32.8716 168.563 33.1132 168.571 33.3547C168.593 33.5933 168.613 33.7894 168.632 33.943C168.653 34.1102 168.68 34.3048 168.713 34.5268C168.743 34.7352 168.773 34.9435 168.803 35.1518C168.843 35.3435 168.881 35.5215 168.916 35.6859C168.948 35.8365 168.967 35.9255 168.973 35.9529C168.99 36.0351 169.034 36.2405 169.104 36.5691C169.187 36.8949 169.27 37.1493 169.352 37.3322C169.4 37.4223 169.447 37.5123 169.495 37.6023C169.543 37.6924 169.594 37.7961 169.647 37.9135C169.765 38.1318 169.873 38.2664 169.969 38.3174C170.066 38.3684 170.142 38.3881 170.197 38.3765C170.443 38.3241 170.691 38.1426 170.94 37.8321C171.202 37.5186 171.44 37.189 171.653 36.8432C171.879 36.4945 172.073 36.16 172.234 35.8395C172.408 35.5161 172.533 35.2963 172.609 35.1801C172.691 35.1626 172.735 35.1676 172.741 35.195C172.757 35.2058 172.782 35.2219 172.815 35.2435ZM176.913 29.7137C176.963 30.0179 176.947 30.279 176.865 30.4969C176.793 30.6982 176.579 30.8367 176.223 30.9124L175.812 30.9997C175.744 31.0142 175.635 31.0087 175.487 30.983C175.352 30.9544 175.244 30.92 175.164 30.8798C175.043 30.8483 174.963 30.7724 174.923 30.6521C174.896 30.5288 174.877 30.4041 174.865 30.278C174.852 30.1518 174.836 30.0408 174.815 29.9449C174.795 29.8491 174.737 29.8113 174.641 29.8317C174.518 29.8579 174.429 29.9125 174.375 29.9955C174.318 30.0649 174.278 30.145 174.254 30.2359C174.242 30.3102 174.236 30.383 174.237 30.4544C174.234 30.5121 174.235 30.5478 174.238 30.5615C174.299 30.849 174.502 31.1994 174.848 31.6126C175.204 32.0092 175.589 32.4425 176.004 32.9126C176.43 33.366 176.823 33.8336 177.183 34.3152C177.543 34.7969 177.762 35.2583 177.842 35.6994C177.913 36.0995 177.877 36.4719 177.736 36.8169C177.608 37.1589 177.415 37.4646 177.158 37.7341C176.897 37.9898 176.606 38.202 176.284 38.3706C175.965 38.553 175.655 38.6762 175.354 38.7402C175.271 38.7577 175.144 38.7633 174.971 38.7572C174.814 38.7618 174.634 38.7571 174.431 38.7431C174.241 38.7261 174.056 38.694 173.874 38.6468C173.706 38.5967 173.569 38.5255 173.464 38.4335C173.344 38.3443 173.2 38.2032 173.03 38.0103C172.857 37.8037 172.689 37.582 172.524 37.3451C172.37 37.0916 172.231 36.842 172.107 36.5964C171.98 36.337 171.905 36.1169 171.881 35.936C171.872 35.8949 171.871 35.8235 171.878 35.7218C171.869 35.6094 171.866 35.4954 171.87 35.3801C171.874 35.2647 171.886 35.1547 171.907 35.0501C171.939 34.9289 171.971 34.8434 172.003 34.7936L172.044 34.7849C172.058 34.782 172.073 34.7859 172.089 34.7967C172.103 34.7938 172.124 34.7894 172.151 34.7836C172.184 34.8052 172.22 34.8404 172.259 34.8894C172.296 34.9246 172.328 34.975 172.356 35.0406C172.419 35.07 172.48 35.0858 172.538 35.0878C172.595 35.0899 172.661 35.0973 172.736 35.1102C172.86 35.1553 172.945 35.2518 172.99 35.3995C173.047 35.5306 173.103 35.6618 173.16 35.7929C173.221 35.88 173.293 35.9794 173.374 36.091C173.468 36.1997 173.561 36.3015 173.653 36.3965C173.739 36.4641 173.846 36.5631 173.974 36.6933C174.115 36.8207 174.265 36.9534 174.424 37.0915C174.579 37.216 174.738 37.3253 174.901 37.4194C175.061 37.4998 175.224 37.5226 175.388 37.4877C175.539 37.4557 175.66 37.3869 175.752 37.2815C175.844 37.176 175.913 37.0612 175.958 36.9371C176.017 36.8101 176.048 36.6889 176.052 36.5736C176.07 36.4553 176.073 36.3687 176.062 36.314C176.038 36.133 175.932 35.905 175.745 35.63C175.554 35.3412 175.345 35.0636 175.117 34.7973C174.885 34.5173 174.67 34.2768 174.47 34.0761C174.28 33.8587 174.166 33.7255 174.127 33.6766C173.865 33.3887 173.625 33.1321 173.405 32.9068C173.186 32.6816 172.989 32.4656 172.817 32.259C172.641 32.0387 172.486 31.8141 172.351 31.585C172.228 31.3394 172.139 31.0576 172.086 30.7398C172.009 30.3123 172.054 29.9521 172.221 29.659C172.388 29.366 172.602 29.1272 172.863 28.9429C173.135 28.7419 173.426 28.5942 173.735 28.4999C174.055 28.389 174.331 28.3088 174.564 28.2593C174.66 28.2389 174.789 28.2401 174.951 28.2628C175.125 28.269 175.294 28.2903 175.459 28.3268C175.638 28.3603 175.804 28.4036 175.959 28.4566C176.113 28.5097 176.232 28.5632 176.315 28.6171C176.457 28.7445 176.565 28.8502 176.64 28.9345C176.715 29.0187 176.768 29.1004 176.799 29.1797C176.831 29.2589 176.848 29.3411 176.852 29.4262C176.869 29.5083 176.89 29.6042 176.913 29.7137ZM183.756 31.4191L181.309 31.9393L178.714 22.2489L182.184 21.5113L183.756 31.4191ZM181.486 35.4868C181.419 35.1725 181.407 34.8992 181.448 34.6667C181.495 34.4262 181.584 34.222 181.716 34.0541C181.848 33.8863 182.015 33.7495 182.216 33.6439C182.417 33.5382 182.641 33.4591 182.889 33.4065C183.123 33.3568 183.35 33.3399 183.57 33.3561C183.797 33.3708 184.005 33.4279 184.194 33.5275C184.382 33.6272 184.547 33.7774 184.688 33.9781C184.827 34.1722 184.93 34.4264 184.996 34.7406C185.06 35.0415 185.068 35.3089 185.02 35.5428C184.972 35.7766 184.883 35.9808 184.752 36.1554C184.621 36.3299 184.456 36.47 184.254 36.5756C184.061 36.6866 183.848 36.7669 183.614 36.8166C183.366 36.8692 183.129 36.8848 182.9 36.8634C182.674 36.8487 182.465 36.7882 182.275 36.6819C182.084 36.5756 181.92 36.4254 181.781 36.2314C181.648 36.0359 181.55 35.7877 181.486 35.4868Z" fill="#161C20"/>
</svg>
