<svg width="47" height="47" viewBox="0 0 47 47" fill="none" xmlns="http://www.w3.org/2000/svg">
<g clip-path="url(#clip0_3514_85743)">
<path d="M31.9424 11.5047L27.3806 13.3824C27.4137 13.3186 27.4486 13.2556 27.4792 13.1897C27.7298 12.6763 27.8716 12.1167 27.896 11.5459C27.9204 10.9751 27.8267 10.4055 27.6209 9.87254C27.4001 9.28771 27.0622 8.75416 26.6278 8.30466C26.1934 7.85516 25.6717 7.49919 25.0947 7.2586C24.5178 7.01801 23.8977 6.89788 23.2727 6.90559C22.6476 6.91329 22.0307 7.04867 21.4599 7.30341C20.9362 7.53228 20.4654 7.86679 20.0769 8.286C19.6884 8.70522 19.3907 9.20011 19.2023 9.73969C18.9483 10.5026 18.8149 11.3004 18.807 12.1044C18.2354 11.5389 17.579 11.0662 16.8616 10.7032C16.3479 10.4525 15.788 10.3106 15.217 10.2864C14.646 10.2621 14.0761 10.3559 13.5431 10.562C12.9583 10.783 12.4248 11.1211 11.9755 11.5556C11.5261 11.9901 11.1703 12.5119 10.9299 13.089C10.6894 13.666 10.5695 14.2861 10.5774 14.9111C10.5853 15.5362 10.7209 16.153 10.9758 16.7238C11.2047 17.2472 11.5392 17.7177 11.9583 18.106C12.3774 18.4942 12.8721 18.7918 13.4115 18.9801C13.4786 19.0027 13.5477 19.0229 13.6172 19.0475L9.05538 20.9252C8.50356 21.1523 8.06456 21.5894 7.83498 22.1402C7.60539 22.691 7.60401 23.3104 7.83114 23.8623L9.54396 28.0235C9.77109 28.5754 10.2081 29.0143 10.7589 29.2439C11.3097 29.4735 11.9292 29.4749 12.481 29.2478L15.9066 37.5703C16.1338 38.1222 16.5708 38.5611 17.1216 38.7907C17.6724 39.0203 18.2919 39.0217 18.8437 38.7946L26.6461 35.583C26.784 35.5263 26.8938 35.417 26.9512 35.2793C27.0086 35.1416 27.0089 34.9867 26.9521 34.8488L22.0278 22.8851L11.6246 27.1671L9.91178 23.0058L20.315 18.7238L22.0278 22.8851L24.1084 22.0287L22.3956 17.8674L32.7988 13.5854L34.5116 17.7466L24.1084 22.0287L29.0328 33.9924C29.0896 34.1303 29.1988 34.2401 29.3365 34.2975C29.4742 34.3549 29.6291 34.3552 29.767 34.2984L37.5694 31.0869C38.1213 30.8598 38.5603 30.4227 38.7898 29.8719C39.0194 29.3211 39.0208 28.7017 38.7937 28.1499L35.3681 19.8273C35.9199 19.6002 36.3589 19.1631 36.5885 18.6123C36.818 18.0615 36.8194 17.4421 36.5923 16.8902L34.8795 12.729C34.6523 12.1771 34.2153 11.7382 33.6645 11.5086C33.1137 11.279 32.4942 11.2776 31.9424 11.5047ZM14.1476 16.8523C13.8979 16.7624 13.6695 16.6219 13.4767 16.4396C13.2839 16.2573 13.1308 16.037 13.0272 15.7927C12.9023 15.5079 12.8355 15.201 12.8306 14.8901C12.8258 14.5791 12.8831 14.2703 12.9992 13.9818C13.1152 13.6933 13.2877 13.4308 13.5065 13.2098C13.7253 12.9887 13.986 12.8136 14.2733 12.6946L14.337 12.6684C14.5835 12.57 14.8477 12.5237 15.1129 12.5323C15.3781 12.5409 15.6387 12.6042 15.8783 12.7183C17.4768 13.502 18.7031 15.3878 19.3586 16.5961C18.0343 16.9846 15.8329 17.4406 14.1476 16.8523ZM25.4611 12.1956C24.6766 13.7958 22.7869 15.0238 21.5734 15.6814C21.1656 14.251 20.771 12.0731 21.3301 10.4758C21.42 10.2261 21.5605 9.99769 21.7428 9.80487C21.9251 9.61206 22.1454 9.45903 22.3897 9.35538L22.4534 9.32915C22.7417 9.21257 23.0504 9.15471 23.3614 9.15897C23.6724 9.16323 23.9795 9.22951 24.2645 9.35395C24.5495 9.47838 24.8069 9.65846 25.0215 9.88362C25.236 10.1088 25.4035 10.3745 25.514 10.6652C25.6101 10.9107 25.6548 11.1733 25.6452 11.4367C25.6357 11.7001 25.5721 11.9588 25.4585 12.1966L25.4611 12.1956Z" fill="#292F1E"/>
</g>
<defs>
<clipPath id="clip0_3514_85743">
<rect width="36" height="36" fill="white" transform="translate(0 13.7026) rotate(-22.3724)"/>
</clipPath>
</defs>
</svg>
