<svg width="28" height="28" viewBox="0 0 28 28" fill="none" xmlns="http://www.w3.org/2000/svg">
<path d="M14 0.1875C11.2682 0.1875 8.59765 0.997589 6.32619 2.51533C4.05474 4.03306 2.28436 6.19028 1.23892 8.71418C0.193485 11.2381 -0.0800488 14.0153 0.45291 16.6947C0.985868 19.374 2.30138 21.8352 4.23309 23.7669C6.16481 25.6986 8.62596 27.0141 11.3053 27.5471C13.9847 28.0801 16.7619 27.8065 19.2858 26.7611C21.8097 25.7157 23.9669 23.9453 25.4847 21.6738C27.0024 19.4024 27.8125 16.7319 27.8125 14C27.8055 10.3389 26.348 6.82967 23.7592 4.24084C21.1703 1.65202 17.6612 0.19452 14 0.1875ZM20.5742 11.5828L12.7914 19.0203C12.5902 19.2096 12.3239 19.3142 12.0477 19.3125C11.9126 19.3144 11.7786 19.2896 11.6532 19.2395C11.5278 19.1893 11.4136 19.1148 11.3172 19.0203L7.42579 15.3016C7.31785 15.2074 7.23008 15.0924 7.16773 14.9634C7.10538 14.8345 7.06975 14.6942 7.06298 14.5512C7.05621 14.4081 7.07844 14.2651 7.12833 14.1308C7.17823 13.9966 7.25476 13.8738 7.35332 13.7698C7.45188 13.6659 7.57044 13.583 7.70187 13.526C7.8333 13.4691 7.97489 13.4393 8.11812 13.4385C8.26136 13.4376 8.40328 13.4658 8.53537 13.5212C8.66745 13.5766 8.78696 13.6582 8.88672 13.7609L12.0477 16.7758L19.1133 10.0422C19.3199 9.86195 19.5881 9.76854 19.862 9.7815C20.1359 9.79445 20.3941 9.91277 20.5828 10.1117C20.7714 10.3107 20.8759 10.5748 20.8743 10.849C20.8727 11.1231 20.7652 11.3861 20.5742 11.5828Z" fill="#CBFB62"/>
</svg>
