<svg width="57" height="55" viewBox="0 0 57 55" fill="none" xmlns="http://www.w3.org/2000/svg">
<g filter="url(#filter0_d_3514_85703)">
<mask id="path-1-outside-1_3514_85703" maskUnits="userSpaceOnUse" x="5" y="1" width="47" height="45" fill="black">
<rect fill="white" x="5" y="1" width="47" height="45"/>
<path fill-rule="evenodd" clip-rule="evenodd" d="M27.5 2C15.6259 2 6 11.6259 6 23.5C6 35.3741 15.6259 45 27.5 45C32.4587 45 37.0253 43.3213 40.6625 40.5012L48.1201 41.105C49.9055 41.2495 50.966 39.1545 49.7925 37.8012L46.3559 33.8382C48.0413 30.7706 49 27.2473 49 23.5C49 11.6259 39.3741 2 27.5 2Z"/>
</mask>
<path fill-rule="evenodd" clip-rule="evenodd" d="M27.5 2C15.6259 2 6 11.6259 6 23.5C6 35.3741 15.6259 45 27.5 45C32.4587 45 37.0253 43.3213 40.6625 40.5012L48.1201 41.105C49.9055 41.2495 50.966 39.1545 49.7925 37.8012L46.3559 33.8382C48.0413 30.7706 49 27.2473 49 23.5C49 11.6259 39.3741 2 27.5 2Z" fill="#CBFB62"/>
<path d="M40.6625 40.5012L40.7432 39.5045L40.3564 39.4732L40.0498 39.711L40.6625 40.5012ZM48.1201 41.105L48.0394 42.1017L48.1201 41.105ZM49.7925 37.8012L50.548 37.146L49.7925 37.8012ZM46.3559 33.8382L45.4795 33.3566L45.1441 33.9671L45.6004 34.4933L46.3559 33.8382ZM7 23.5C7 12.1782 16.1782 3 27.5 3V1C15.0736 1 5 11.0736 5 23.5H7ZM27.5 44C16.1782 44 7 34.8218 7 23.5H5C5 35.9264 15.0736 46 27.5 46V44ZM40.0498 39.711C36.5817 42.3999 32.2291 44 27.5 44V46C32.6882 46 37.4689 44.2427 41.2752 41.2915L40.0498 39.711ZM48.2008 40.1082L40.7432 39.5045L40.5818 41.498L48.0394 42.1017L48.2008 40.1082ZM49.037 38.4563C49.6238 39.133 49.0935 40.1805 48.2008 40.1082L48.0394 42.1017C50.7175 42.3185 52.3083 39.176 50.548 37.146L49.037 38.4563ZM45.6004 34.4933L49.037 38.4563L50.548 37.146L47.1114 33.183L45.6004 34.4933ZM48 23.5C48 27.0747 47.0859 30.4329 45.4795 33.3566L47.2323 34.3197C48.9968 31.1083 50 27.4198 50 23.5H48ZM27.5 3C38.8218 3 48 12.1782 48 23.5H50C50 11.0736 39.9264 1 27.5 1V3Z" fill="#CFED8E" mask="url(#path-1-outside-1_3514_85703)"/>
<path d="M33.2824 12.6032C33.3121 12.4918 33.3636 12.3874 33.4337 12.2959C33.5039 12.2044 33.5914 12.1277 33.6912 12.07C33.791 12.0124 33.9013 11.9749 34.0156 11.9599C34.1299 11.9449 34.246 11.9525 34.3574 11.9823C36.1015 12.4507 37.5385 13.5301 38.4007 15.0241C38.517 15.2258 38.5486 15.4653 38.4883 15.6902C38.428 15.915 38.2809 16.1067 38.0793 16.2231C37.8777 16.3395 37.6381 16.371 37.4132 16.3107C37.1884 16.2504 36.9967 16.1033 36.8803 15.9017C36.2529 14.8135 35.1954 14.0237 33.9032 13.6782C33.7919 13.6484 33.6874 13.597 33.596 13.5268C33.5045 13.4567 33.4277 13.3692 33.3701 13.2693C33.3124 13.1695 33.275 13.0593 33.2599 12.945C33.2449 12.8307 33.2525 12.7145 33.2824 12.6032ZM21.7985 34.0802C20.7696 33.2684 19.9096 32.2329 19.0946 30.8201C19.0369 30.7202 18.9602 30.6327 18.8688 30.5625C18.7773 30.4924 18.673 30.4409 18.5616 30.411C18.4503 30.3812 18.3342 30.3736 18.2199 30.3886C18.1056 30.4036 17.9954 30.441 17.8956 30.4987C17.7958 30.5563 17.7083 30.633 17.6381 30.7244C17.5679 30.8159 17.5164 30.9202 17.4866 31.0316C17.4567 31.1429 17.4491 31.259 17.4641 31.3733C17.4792 31.4876 17.5166 31.5978 17.5742 31.6976C18.5055 33.3101 19.5015 34.5047 20.7114 35.4579C20.8944 35.5987 21.1255 35.6617 21.3547 35.6333C21.5838 35.6048 21.7925 35.4872 21.9355 35.306C22.0785 35.1247 22.1443 34.8944 22.1187 34.6649C22.093 34.4355 21.978 34.2254 21.7985 34.0802ZM34.5899 15.7284C34.4762 15.5258 34.3235 15.3478 34.1405 15.2047C33.9575 15.0615 33.7479 14.9562 33.5239 14.8947C33.2999 14.8332 33.0659 14.8168 32.8355 14.8464C32.6051 14.876 32.3828 14.9511 32.1817 15.0672C31.9805 15.1834 31.8044 15.3384 31.6635 15.5231C31.5227 15.7078 31.4199 15.9187 31.3612 16.1435C31.3025 16.3682 31.2889 16.6024 31.3214 16.8324C31.3539 17.0625 31.4317 17.2837 31.5503 17.4835L33.3054 20.5231C33.363 20.6229 33.4005 20.7331 33.4155 20.8474C33.4305 20.9617 33.4229 21.0778 33.3931 21.1892C33.3632 21.3005 33.3117 21.4049 33.2415 21.4963C33.1714 21.5877 33.0838 21.6644 32.984 21.722C32.1779 22.1876 31.5897 22.9542 31.3488 23.8534C31.1079 24.7526 31.2341 25.7106 31.6995 26.5168C31.8158 26.7184 31.8474 26.958 31.7871 27.1828C31.7268 27.4077 31.5797 27.5993 31.3781 27.7157C31.1765 27.8321 30.9369 27.8636 30.712 27.8033C30.4872 27.7431 30.2955 27.5959 30.1791 27.3943C29.5584 26.3159 29.3391 25.0527 29.5599 23.8282C29.7807 22.6037 30.4275 21.4967 31.3858 20.703L26.9596 13.0409C26.7269 12.6376 26.3435 12.3434 25.8938 12.2228C25.4441 12.1023 24.9649 12.1653 24.5617 12.3981C24.1585 12.6308 23.8642 13.0142 23.7437 13.4639C23.6231 13.9136 23.6862 14.3928 23.9189 14.796L27.4291 20.8763C27.5382 21.0773 27.5646 21.313 27.5025 21.5332C27.4405 21.7533 27.2949 21.9406 27.0968 22.055C26.8988 22.1694 26.6638 22.2019 26.4421 22.1457C26.2204 22.0894 26.0294 21.9488 25.9098 21.7539L21.5221 14.1532C21.2893 13.7499 20.9059 13.4557 20.4563 13.3351C20.0066 13.2146 19.5274 13.2776 19.1242 13.5104C18.7209 13.7431 18.4267 14.1265 18.3061 14.5762C18.1856 15.0259 18.2486 15.505 18.4814 15.9083L23.3079 24.268C23.3692 24.3679 23.4098 24.4791 23.4274 24.5949C23.445 24.7108 23.4392 24.829 23.4104 24.9426C23.3816 25.0562 23.3303 25.1629 23.2596 25.2563C23.1889 25.3498 23.1002 25.4281 22.9988 25.4867C22.8973 25.5453 22.7851 25.583 22.6688 25.5976C22.5525 25.6121 22.4345 25.6033 22.3217 25.5715C22.2089 25.5397 22.1037 25.4856 22.0121 25.4125C21.9205 25.3393 21.8446 25.2486 21.7886 25.1456L18.7172 19.8265C18.602 19.6269 18.4485 19.4519 18.2657 19.3115C18.0828 19.1712 17.874 19.0682 17.6514 19.0085C17.4287 18.9488 17.1965 18.9336 16.9679 18.9636C16.7394 18.9937 16.519 19.0685 16.3193 19.1837C16.1196 19.299 15.9446 19.4524 15.8043 19.6353C15.6639 19.8182 15.561 20.0269 15.5013 20.2496C15.4416 20.4722 15.4263 20.7045 15.4564 20.933C15.4865 21.1616 15.5613 21.382 15.6765 21.5816L20.503 29.9414C21.7861 32.1527 23.8939 33.7647 26.3641 34.4237C28.8342 35.0827 31.4649 34.7349 33.6789 33.4567C35.893 32.1784 37.5095 30.074 38.1739 27.6053C38.8382 25.1366 38.4961 22.5051 37.2226 20.2883L34.5899 15.7284Z" fill="#292F1E"/>
</g>
<defs>
<filter id="filter0_d_3514_85703" x="0" y="0" width="56.2891" height="55" filterUnits="userSpaceOnUse" color-interpolation-filters="sRGB">
<feFlood flood-opacity="0" result="BackgroundImageFix"/>
<feColorMatrix in="SourceAlpha" type="matrix" values="0 0 0 0 0 0 0 0 0 0 0 0 0 0 0 0 0 0 127 0" result="hardAlpha"/>
<feOffset dy="4"/>
<feGaussianBlur stdDeviation="2.5"/>
<feComposite in2="hardAlpha" operator="out"/>
<feColorMatrix type="matrix" values="0 0 0 0 0 0 0 0 0 0 0 0 0 0 0 0 0 0 0.04 0"/>
<feBlend mode="normal" in2="BackgroundImageFix" result="effect1_dropShadow_3514_85703"/>
<feBlend mode="normal" in="SourceGraphic" in2="effect1_dropShadow_3514_85703" result="shape"/>
</filter>
</defs>
</svg>
