<svg width="32" height="32" viewBox="0 0 32 32" fill="none" xmlns="http://www.w3.org/2000/svg">
<g id="HandWaving">
<path id="Vector" d="M23.0335 3.74161C23.0675 3.6147 23.1261 3.49572 23.206 3.39148C23.286 3.28723 23.3857 3.19975 23.4994 3.13405C23.6132 3.06835 23.7388 3.0257 23.869 3.00856C23.9993 2.99141 24.1316 3.00009 24.2585 3.03411C26.246 3.56786 27.8835 4.79786 28.866 6.50036C28.9986 6.73011 29.0345 7.00312 28.9658 7.25934C28.8972 7.51556 28.7295 7.734 28.4998 7.86661C28.27 7.99922 27.997 8.03513 27.7408 7.96645C27.4846 7.89776 27.2661 7.73011 27.1335 7.50036C26.4185 6.26036 25.2135 5.36036 23.741 4.96661C23.6141 4.93267 23.4951 4.87405 23.3909 4.79411C23.2866 4.71416 23.1992 4.61446 23.1335 4.5007C23.0677 4.38694 23.0251 4.26135 23.008 4.1311C22.9908 4.00085 22.9995 3.8685 23.0335 3.74161ZM9.94726 28.2154C8.77476 27.2904 7.79476 26.1104 6.86601 24.5004C6.80035 24.3866 6.71293 24.2869 6.60873 24.2069C6.50454 24.127 6.38561 24.0683 6.25874 24.0343C6.13187 24.0003 5.99955 23.9916 5.86932 24.0087C5.7391 24.0258 5.61352 24.0685 5.49976 24.1341C5.38601 24.1998 5.2863 24.2872 5.20632 24.3914C5.12635 24.4956 5.06769 24.6145 5.03368 24.7414C4.99967 24.8683 4.99098 25.0006 5.00811 25.1308C5.02524 25.261 5.06785 25.3866 5.13351 25.5004C6.19476 27.3379 7.32976 28.6991 8.70851 29.7854C8.91704 29.9458 9.18039 30.0176 9.44148 29.9852C9.70257 29.9528 9.94038 29.8188 10.1033 29.6122C10.2663 29.4057 10.3413 29.1432 10.3121 28.8817C10.2829 28.6203 10.1518 28.3808 9.94726 28.2154ZM24.5235 7.30286C24.394 7.072 24.2199 6.86914 24.0114 6.70606C23.8029 6.54299 23.564 6.42293 23.3088 6.35285C23.0535 6.28277 22.7868 6.26406 22.5243 6.29782C22.2617 6.33157 22.0085 6.41711 21.7792 6.54948C21.55 6.68185 21.3493 6.85842 21.1888 7.06894C21.0283 7.27946 20.9112 7.51974 20.8443 7.77587C20.7773 8.03199 20.7619 8.29885 20.7989 8.56097C20.8359 8.82309 20.9246 9.07526 21.0598 9.30286L23.0598 12.7666C23.1255 12.8804 23.1681 13.0059 23.1852 13.1362C23.2024 13.2664 23.1937 13.3987 23.1597 13.5256C23.1257 13.6525 23.067 13.7714 22.987 13.8756C22.907 13.9798 22.8073 14.0672 22.6935 14.1329C21.7749 14.6634 21.1047 15.537 20.8302 16.5616C20.5557 17.5862 20.6994 18.6779 21.2298 19.5966C21.3624 19.8264 21.3983 20.0994 21.3296 20.3556C21.2609 20.6118 21.0933 20.8303 20.8635 20.9629C20.6338 21.0955 20.3608 21.1314 20.1045 21.0627C19.8483 20.994 19.6299 20.8264 19.4973 20.5966C18.79 19.3677 18.54 17.9283 18.7917 16.5329C19.0433 15.1375 19.7803 13.876 20.8723 12.9716L15.8285 4.24036C15.5633 3.78087 15.1264 3.44556 14.614 3.30819C14.1015 3.17082 13.5555 3.24265 13.096 3.50786C12.6365 3.77308 12.3012 4.20996 12.1638 4.72241C12.0265 5.23485 12.0983 5.78087 12.3635 6.24036L16.3635 13.1691C16.4879 13.3982 16.5179 13.6668 16.4472 13.9176C16.3765 14.1685 16.2106 14.3819 15.9849 14.5122C15.7592 14.6426 15.4915 14.6797 15.2388 14.6156C14.9862 14.5515 14.7685 14.3913 14.6323 14.1691L9.63226 5.50786C9.36705 5.04837 8.93016 4.71306 8.41772 4.57569C7.90528 4.43832 7.35925 4.51015 6.89976 4.77536C6.44028 5.04058 6.10497 5.47746 5.96759 5.98991C5.83022 6.50235 5.90205 7.04837 6.16726 7.50786L11.6673 17.0341C11.7371 17.1479 11.7834 17.2746 11.8035 17.4066C11.8235 17.5387 11.8169 17.6734 11.7841 17.8028C11.7513 17.9322 11.6928 18.0538 11.6123 18.1603C11.5317 18.2668 11.4306 18.356 11.315 18.4228C11.1993 18.4896 11.0715 18.5326 10.939 18.5492C10.8065 18.5658 10.672 18.5556 10.5435 18.5194C10.415 18.4832 10.295 18.4216 10.1907 18.3382C10.0863 18.2549 9.99974 18.1515 9.93601 18.0341L6.43601 11.9729C6.30469 11.7453 6.12984 11.5459 5.92145 11.386C5.71306 11.226 5.47521 11.1087 5.22147 11.0407C4.96773 10.9727 4.70309 10.9553 4.44263 10.9896C4.18218 11.0238 3.93103 11.109 3.70351 11.2404C3.476 11.3717 3.27658 11.5465 3.11664 11.7549C2.95669 11.9633 2.83936 12.2012 2.77134 12.4549C2.70333 12.7086 2.68595 12.9733 2.72021 13.2337C2.75447 13.4942 2.83969 13.7453 2.97101 13.9729L8.47101 23.4991C9.93308 26.0189 12.335 27.8559 15.1499 28.6068C17.9647 29.3578 20.9625 28.9615 23.4854 27.5049C26.0084 26.0482 27.8505 23.6502 28.6075 20.837C29.3646 18.0238 28.9747 15.0252 27.5235 12.4991L24.5235 7.30286Z" fill="black"/>
</g>
</svg>
