<svg width="108" height="53" viewBox="0 0 108 53" fill="none" xmlns="http://www.w3.org/2000/svg">
<rect x="0.878906" y="13.3066" width="102.27" height="39.8061" rx="19.9031" transform="rotate(-7 0.878906 13.3066)" fill="#B5CECD"/>
<path d="M28.0301 25.4055L26.0977 25.6428L26.5359 29.2112L23.0963 29.6335L22.6582 26.0651L20.7258 26.3024L21.833 35.32L23.7654 35.0827L23.3098 31.3726L26.7494 30.9503L27.205 34.6604L29.1373 34.4231L28.0301 25.4055ZM32.9479 26.4755C31.0155 26.7127 29.732 28.4003 30.0151 30.7062C30.2951 32.9864 31.9135 34.2392 33.9875 33.9845C35.5463 33.7931 36.5159 32.8502 36.7326 32.379L35.7184 30.9344L35.6282 30.9455C35.3823 31.4987 34.6579 32.2022 33.7819 32.3098C32.8673 32.4221 32.0636 31.8408 31.9545 30.9519L36.8884 30.3461L36.8663 30.1658C36.8536 30.0627 36.8507 29.9323 36.838 29.8292C36.5596 27.562 34.8673 26.2398 32.9479 26.4755ZM33.1535 28.1502C34.1325 28.03 34.6783 28.7475 34.8013 29.2163L31.8126 29.5832C31.8571 29.0939 32.1873 28.2688 33.1535 28.1502ZM40.263 25.5773C38.9361 25.7402 38.0041 26.4562 37.4982 27.3421L38.5433 28.7176L38.6334 28.7065C38.9957 27.9297 39.6347 27.2759 40.4463 27.1763C41.2578 27.0766 41.6339 27.3704 41.6845 27.7827C41.7304 28.1563 41.4675 28.3585 39.8227 28.9136C38.2583 29.4849 37.775 30.3419 37.9126 31.4626C38.0629 32.6864 38.855 33.3869 40.3494 33.2034C41.3413 33.0816 42.0137 32.5936 42.3261 31.8361L42.3647 31.8313L42.6621 32.7625L44.0663 32.5901L43.5032 28.004C43.2754 26.1489 41.8733 25.3796 40.263 25.5773ZM41.8967 29.4043L41.9916 30.1772C42.0723 30.8342 41.3626 31.4444 40.4737 31.5535C39.9456 31.6184 39.6739 31.4294 39.6312 31.0816C39.5885 30.7338 39.7774 30.4621 40.5395 30.1724C41.3016 29.8827 41.785 29.6664 41.8709 29.4074L41.8967 29.4043ZM46.138 22.6329L44.3344 22.8544L45.5081 32.413L47.3116 32.1916L46.138 22.6329ZM50.2078 22.6824L49.1128 22.8169C48.938 23.9498 48.448 24.9646 47.5567 25.4794L47.6848 26.5229L48.87 26.3774L49.3255 30.0875C49.4995 31.5045 50.4193 31.9669 51.5143 31.8325C52.2873 31.7376 52.9497 31.3816 53.2464 31.136L52.5902 29.412L52.5 29.4231C52.2306 29.6785 51.9146 29.8742 51.6054 29.9121C51.2834 29.9517 51.1243 29.8274 51.0737 29.4151L50.6735 26.1559L52.6702 25.9107L52.4646 24.236L50.4292 24.486L50.2078 22.6824ZM55.0964 21.533L53.2929 21.7544L54.4665 31.3131L56.27 31.0916L55.824 27.4588C55.7354 26.7374 55.9445 25.3518 57.1812 25.1999C58.186 25.0766 58.4868 25.9288 58.5754 26.6502L59.0784 30.7468L60.8819 30.5254L60.2872 25.6816C60.1179 24.3032 59.1527 23.2579 57.5939 23.4493C56.6664 23.5632 55.9409 24.0446 55.5318 24.8663L55.5061 24.8695L55.0964 21.533ZM64.5426 22.5961C62.533 22.8429 61.2284 24.5722 61.5068 26.8395C61.7599 28.9007 63.2248 30.3946 65.4406 30.1226C67.2055 29.9059 68.0756 28.7921 68.4067 27.5484L66.8536 26.6145L66.7635 26.6256C66.7341 27.5577 66.2269 28.3261 65.235 28.4479C64.2044 28.5744 63.4464 27.726 63.3119 26.631C63.1743 25.5102 63.7305 24.3958 64.7611 24.2692C65.5341 24.1743 66.1447 24.6747 66.502 25.4547L66.5922 25.4436L67.7509 24.1244C67.2006 23.2636 66.1143 22.4032 64.5426 22.5961ZM71.3144 21.7647C69.9875 21.9276 69.0554 22.6435 68.5496 23.5295L69.5946 24.905L69.6848 24.8939C70.0471 24.1171 70.686 23.4633 71.4976 23.3636C72.3092 23.264 72.6853 23.5578 72.7359 23.97C72.7818 24.3436 72.5189 24.5459 70.874 25.1009C69.3096 25.6722 68.8264 26.5292 68.964 27.65C69.1143 28.8738 69.9064 29.5742 71.4008 29.3907C72.3927 29.2689 73.0651 28.781 73.3774 28.0235L73.4161 28.0187L73.7135 28.9499L75.1177 28.7774L74.5545 24.1913C74.3268 22.3363 72.9247 21.5669 71.3144 21.7647ZM72.9481 25.5916L73.043 26.3646C73.1237 27.0216 72.414 27.6318 71.5251 27.7409C70.9969 27.8058 70.7253 27.6168 70.6826 27.269C70.6399 26.9212 70.8288 26.6495 71.5909 26.3598C72.353 26.0701 72.8364 25.8538 72.9223 25.5948L72.9481 25.5916ZM78.8624 20.8379C78.0508 20.9375 77.6343 21.4856 77.4139 22.1403L77.3753 22.1451L77.1423 21.206L75.6737 21.3863L76.5595 28.6004L78.363 28.379L77.9122 24.7075C77.7746 23.5868 78.0146 22.7727 78.9293 22.6604C79.3801 22.605 79.7822 22.791 80.0055 23.0121L80.0957 23.001L80.1687 21.2529C79.8812 20.9351 79.3906 20.773 78.8624 20.8379ZM83.79 20.2329C81.8576 20.4701 80.5741 22.1577 80.8572 24.4636C81.1372 26.7438 82.7556 27.9965 84.8297 27.7419C86.3884 27.5505 87.358 26.6076 87.5747 26.1364L86.5605 24.6918L86.4703 24.7028C86.2244 25.2561 85.5 25.9596 84.624 26.0672C83.7094 26.1795 82.9057 25.5982 82.7966 24.7093L87.7305 24.1035L87.7084 23.9231C87.6957 23.8201 87.6928 23.6897 87.6801 23.5866C87.4017 21.3193 85.7094 19.9972 83.79 20.2329ZM83.9956 21.9075C84.9747 21.7873 85.5204 22.5049 85.6434 22.9736L82.6547 23.3406C82.6992 22.8513 83.0294 22.0262 83.9956 21.9075Z" fill="#2D3737"/>
</svg>
