<svg width="13" height="14" viewBox="0 0 13 14" fill="none" xmlns="http://www.w3.org/2000/svg">
<path d="M6.5 0.601562C5.21442 0.601563 3.95772 0.982781 2.8888 1.69701C1.81988 2.41124 0.986756 3.4264 0.494786 4.61412C0.00281635 5.80184 -0.125905 7.10877 0.124899 8.36965C0.375703 9.63053 0.994767 10.7887 1.90381 11.6978C2.81285 12.6068 3.97104 13.2259 5.23192 13.4767C6.49279 13.7275 7.79972 13.5987 8.98744 13.1068C10.1752 12.6148 11.1903 11.7817 11.9046 10.7128C12.6188 9.64385 13 8.38714 13 7.10156C12.9982 5.37821 12.3128 3.72597 11.0942 2.50738C9.87559 1.28879 8.22335 0.603382 6.5 0.601562ZM6.25 3.60156C6.39834 3.60156 6.54334 3.64555 6.66668 3.72796C6.79002 3.81037 6.88615 3.92751 6.94291 4.06455C6.99968 4.20159 7.01453 4.35239 6.98559 4.49788C6.95665 4.64337 6.88522 4.777 6.78033 4.88189C6.67544 4.98678 6.54181 5.05821 6.39632 5.08715C6.25083 5.11609 6.10003 5.10124 5.96299 5.04447C5.82595 4.98771 5.70881 4.89158 5.6264 4.76824C5.54399 4.6449 5.5 4.4999 5.5 4.35156C5.5 4.15265 5.57902 3.96188 5.71967 3.82123C5.86032 3.68058 6.05109 3.60156 6.25 3.60156ZM7 10.6016C6.73479 10.6016 6.48043 10.4962 6.2929 10.3087C6.10536 10.1211 6 9.86678 6 9.60156V7.10156C5.86739 7.10156 5.74022 7.04888 5.64645 6.95512C5.55268 6.86135 5.5 6.73417 5.5 6.60156C5.5 6.46895 5.55268 6.34178 5.64645 6.24801C5.74022 6.15424 5.86739 6.10156 6 6.10156C6.26522 6.10156 6.51957 6.20692 6.70711 6.39446C6.89465 6.58199 7 6.83635 7 7.10156V9.60156C7.13261 9.60156 7.25979 9.65424 7.35356 9.74801C7.44732 9.84178 7.5 9.96895 7.5 10.1016C7.5 10.2342 7.44732 10.3613 7.35356 10.4551C7.25979 10.5489 7.13261 10.6016 7 10.6016Z" fill="#ffffff"/>
</svg>
