<svg width="33" height="33" viewBox="0 0 33 33" fill="none" xmlns="http://www.w3.org/2000/svg">
<circle cx="16.4566" cy="16.4566" r="16.4566" fill="#161C20"/>
<path d="M20.4351 7.96875H12.5601C11.3421 7.97005 10.1744 8.45445 9.31323 9.31567C8.45201 10.1769 7.96761 11.3446 7.96631 12.5625V20.4375C7.96761 21.6554 8.45201 22.8231 9.31323 23.6843C10.1744 24.5455 11.3421 25.0299 12.5601 25.0312H20.4351C21.653 25.0299 22.8207 24.5455 23.6819 23.6843C24.5431 22.8231 25.0275 21.6554 25.0288 20.4375V12.5625C25.0275 11.3446 24.5431 10.1769 23.6819 9.31567C22.8207 8.45445 21.653 7.97005 20.4351 7.96875ZM16.4976 20.4375C15.7188 20.4375 14.9575 20.2066 14.31 19.7739C13.6625 19.3413 13.1578 18.7263 12.8598 18.0068C12.5618 17.2873 12.4838 16.4956 12.6357 15.7318C12.7876 14.968 13.1627 14.2664 13.7133 13.7158C14.264 13.1651 14.9656 12.7901 15.7294 12.6382C16.4932 12.4862 17.2849 12.5642 18.0044 12.8622C18.7239 13.1602 19.3388 13.6649 19.7715 14.3124C20.2041 14.96 20.4351 15.7212 20.4351 16.5C20.434 17.544 20.0188 18.5448 19.2806 19.283C18.5424 20.0212 17.5415 20.4364 16.4976 20.4375ZM21.4194 12.5625C21.2247 12.5625 21.0344 12.5048 20.8725 12.3966C20.7107 12.2884 20.5845 12.1347 20.51 11.9548C20.4355 11.775 20.416 11.577 20.454 11.3861C20.492 11.1951 20.5857 11.0197 20.7234 10.8821C20.861 10.7444 21.0364 10.6506 21.2274 10.6127C21.4183 10.5747 21.6163 10.5942 21.7961 10.6687C21.976 10.7432 22.1297 10.8694 22.2379 11.0312C22.3461 11.1931 22.4038 11.3834 22.4038 11.5781C22.4038 11.8392 22.3001 12.0896 22.1155 12.2742C21.9309 12.4588 21.6805 12.5625 21.4194 12.5625ZM19.1226 16.5C19.1226 17.0192 18.9686 17.5267 18.6802 17.9584C18.3917 18.39 17.9818 18.7265 17.5021 18.9252C17.0224 19.1239 16.4946 19.1758 15.9854 19.0746C15.4762 18.9733 15.0085 18.7233 14.6414 18.3562C14.2743 17.989 14.0243 17.5213 13.923 17.0121C13.8217 16.5029 13.8737 15.9751 14.0724 15.4955C14.2711 15.0158 14.6075 14.6058 15.0392 14.3174C15.4709 14.029 15.9784 13.875 16.4976 13.875C17.1938 13.875 17.8614 14.1516 18.3537 14.6438C18.846 15.1361 19.1226 15.8038 19.1226 16.5Z" fill="#CBFB62"/>
</svg>
