<svg width="15" height="15" viewBox="0 0 15 15" fill="none" xmlns="http://www.w3.org/2000/svg">
<path d="M9.96392 1.8208H4.55352C3.71676 1.8217 2.91452 2.1545 2.32284 2.74618C1.73116 3.33786 1.39836 4.1401 1.39746 4.97686V10.3873C1.39836 11.224 1.73116 12.0263 2.32284 12.6179C2.91452 13.2096 3.71676 13.5424 4.55352 13.5433H9.96392C10.8007 13.5424 11.6029 13.2096 12.1946 12.6179C12.7863 12.0263 13.1191 11.224 13.12 10.3873V4.97686C13.1191 4.1401 12.7863 3.33786 12.1946 2.74618C11.6029 2.1545 10.8007 1.8217 9.96392 1.8208ZM7.25872 10.3873C6.72368 10.3873 6.20066 10.2286 5.7558 9.93135C5.31093 9.6341 4.9642 9.21161 4.75945 8.7173C4.5547 8.22299 4.50112 7.67906 4.6055 7.1543C4.70989 6.62955 4.96753 6.14753 5.34586 5.7692C5.72419 5.39087 6.20621 5.13323 6.73096 5.02884C7.25572 4.92446 7.79965 4.97804 8.29396 5.18279C8.78827 5.38754 9.21076 5.73427 9.50801 6.17913C9.80526 6.624 9.96392 7.14702 9.96392 7.68206C9.96317 8.3993 9.67792 9.08694 9.17076 9.5941C8.6636 10.1013 7.97596 10.3865 7.25872 10.3873ZM10.6402 4.97686C10.5065 4.97686 10.3757 4.9372 10.2645 4.86289C10.1533 4.78858 10.0666 4.68295 10.0154 4.55937C9.96421 4.4358 9.95082 4.29981 9.97692 4.16863C10.003 4.03744 10.0674 3.91693 10.162 3.82235C10.2566 3.72777 10.3771 3.66336 10.5083 3.63726C10.6395 3.61117 10.7755 3.62456 10.899 3.67575C11.0226 3.72693 11.1282 3.81362 11.2025 3.92483C11.2769 4.03605 11.3165 4.16681 11.3165 4.30057C11.3165 4.47993 11.2453 4.65195 11.1184 4.77878C10.9916 4.90561 10.8196 4.97686 10.6402 4.97686ZM9.06219 7.68206C9.06219 8.03875 8.95642 8.38744 8.75825 8.68401C8.56008 8.98059 8.27842 9.21175 7.94888 9.34825C7.61934 9.48475 7.25672 9.52046 6.90688 9.45087C6.55705 9.38129 6.2357 9.20952 5.98348 8.9573C5.73126 8.70509 5.5595 8.38374 5.48991 8.0339C5.42032 7.68406 5.45604 7.32145 5.59254 6.99191C5.72904 6.66237 5.96019 6.3807 6.25677 6.18254C6.55335 5.98437 6.90203 5.8786 7.25872 5.8786C7.73703 5.8786 8.19575 6.0686 8.53396 6.40682C8.87218 6.74504 9.06219 7.20375 9.06219 7.68206Z" fill="#CBFB62"/>
</svg>
