<svg width="21" height="19" viewBox="0 0 21 19" fill="none" xmlns="http://www.w3.org/2000/svg">
<path d="M19.8313 12.5742C19.8316 12.5706 19.8316 12.5669 19.8313 12.5633L18.5508 5.9875C18.5508 5.98281 18.5508 5.97813 18.5508 5.97344C18.3531 4.89379 17.7833 3.91756 16.9405 3.21446C16.0977 2.51137 15.0351 2.12587 13.9375 2.125H7.05391C5.95324 2.12458 4.88767 2.51226 4.0446 3.21987C3.20153 3.92747 2.63496 4.90968 2.44453 5.99375L1.17031 12.5633C1.16994 12.5669 1.16994 12.5706 1.17031 12.5742C1.0666 13.1631 1.15329 13.7698 1.4178 14.3061C1.68232 14.8424 2.11088 15.2804 2.64128 15.5566C3.17168 15.8328 3.77629 15.9327 4.36734 15.8419C4.9584 15.7511 5.50512 15.4742 5.92813 15.0516L5.95547 15.0227L9.05625 11.5H11.9469L15.0492 15.0227C15.0578 15.0328 15.0672 15.0422 15.0766 15.0516C15.6038 15.5776 16.3177 15.8737 17.0625 15.875C17.473 15.8747 17.8785 15.7846 18.2505 15.6109C18.6225 15.4373 18.9519 15.1842 19.2157 14.8697C19.4795 14.5551 19.6712 14.1866 19.7774 13.7901C19.8836 13.3935 19.9017 12.9785 19.8305 12.5742H19.8313ZM8.625 7.75H8V8.375C8 8.54076 7.93415 8.69973 7.81694 8.81694C7.69973 8.93415 7.54076 9 7.375 9C7.20924 9 7.05027 8.93415 6.93306 8.81694C6.81585 8.69973 6.75 8.54076 6.75 8.375V7.75H6.125C5.95924 7.75 5.80027 7.68415 5.68306 7.56694C5.56585 7.44973 5.5 7.29076 5.5 7.125C5.5 6.95924 5.56585 6.80027 5.68306 6.68306C5.80027 6.56585 5.95924 6.5 6.125 6.5H6.75V5.875C6.75 5.70924 6.81585 5.55027 6.93306 5.43306C7.05027 5.31585 7.20924 5.25 7.375 5.25C7.54076 5.25 7.69973 5.31585 7.81694 5.43306C7.93415 5.55027 8 5.70924 8 5.875V6.5H8.625C8.79076 6.5 8.94973 6.56585 9.06694 6.68306C9.18415 6.80027 9.25 6.95924 9.25 7.125C9.25 7.29076 9.18415 7.44973 9.06694 7.56694C8.94973 7.68415 8.79076 7.75 8.625 7.75ZM11.75 7.125C11.75 6.95924 11.8158 6.80027 11.9331 6.68306C12.0503 6.56585 12.2092 6.5 12.375 6.5H14.25C14.4158 6.5 14.5747 6.56585 14.6919 6.68306C14.8092 6.80027 14.875 6.95924 14.875 7.125C14.875 7.29076 14.8092 7.44973 14.6919 7.56694C14.5747 7.68415 14.4158 7.75 14.25 7.75H12.375C12.2092 7.75 12.0503 7.68415 11.9331 7.56694C11.8158 7.44973 11.75 7.29076 11.75 7.125ZM18.3414 13.9586C18.2243 14.1271 18.075 14.2708 17.902 14.3811C17.729 14.4915 17.5358 14.5664 17.3336 14.6016C17.089 14.6443 16.8378 14.6285 16.6005 14.5553C16.3632 14.4821 16.1467 14.3536 15.9688 14.1805L13.6094 11.5H13.9375C14.7354 11.5001 15.5202 11.2965 16.2174 10.9085C16.9147 10.5205 17.5014 9.96095 17.9219 9.28281L18.6047 12.7984C18.6395 12.9996 18.6341 13.2057 18.5889 13.4048C18.5437 13.6039 18.4596 13.7921 18.3414 13.9586Z" fill="#2B1911"/>
</svg>
