<svg width="29" height="28" viewBox="0 0 29 28" fill="none" xmlns="http://www.w3.org/2000/svg">
<path d="M17.6797 14.2067L19.3269 17.5H16.0325L16.7281 16.1109L17.6797 14.2067ZM24.6797 5.25V22.75C24.6797 23.2141 24.4953 23.6592 24.1671 23.9874C23.8389 24.3156 23.3938 24.5 22.9297 24.5H5.42969C4.96556 24.5 4.52044 24.3156 4.19225 23.9874C3.86406 23.6592 3.67969 23.2141 3.67969 22.75V5.25C3.67969 4.78587 3.86406 4.34075 4.19225 4.01256C4.52044 3.68437 4.96556 3.5 5.42969 3.5H22.9297C23.3938 3.5 23.8389 3.68437 24.1671 4.01256C24.4953 4.34075 24.6797 4.78587 24.6797 5.25ZM22.8378 20.6084L18.4628 11.8584C18.3902 11.7128 18.2785 11.5903 18.1402 11.5047C18.0018 11.4191 17.8424 11.3737 17.6797 11.3737C17.517 11.3737 17.3575 11.4191 17.2192 11.5047C17.0809 11.5903 16.9691 11.7128 16.8966 11.8584L15.455 14.7438C14.5277 14.5621 13.6483 14.1897 12.8727 13.65C14.0816 12.2813 14.8296 10.5671 15.0109 8.75H16.8047C17.0368 8.75 17.2593 8.65781 17.4234 8.49372C17.5875 8.32962 17.6797 8.10706 17.6797 7.875C17.6797 7.64294 17.5875 7.42038 17.4234 7.25628C17.2593 7.09219 17.0368 7 16.8047 7H12.4297V6.125C12.4297 5.89294 12.3375 5.67038 12.1734 5.50628C12.0093 5.34219 11.7868 5.25 11.5547 5.25C11.3226 5.25 11.1001 5.34219 10.936 5.50628C10.7719 5.67038 10.6797 5.89294 10.6797 6.125V7H6.30469C6.07262 7 5.85006 7.09219 5.68597 7.25628C5.52187 7.42038 5.42969 7.64294 5.42969 7.875C5.42969 8.10706 5.52187 8.32962 5.68597 8.49372C5.85006 8.65781 6.07262 8.75 6.30469 8.75H13.2478C13.0742 10.1306 12.4914 11.4277 11.5744 12.4742C11.1859 12.0207 10.8552 11.5207 10.59 10.9856C10.4825 10.7852 10.3013 10.6345 10.0846 10.5655C9.86797 10.4964 9.63294 10.5144 9.42932 10.6157C9.22571 10.7169 9.0695 10.8934 8.9938 11.1078C8.91809 11.3223 8.92884 11.5577 9.02375 11.7644C9.35865 12.4397 9.77759 13.07 10.2706 13.6402C9.1052 14.4459 7.72155 14.8768 6.30469 14.875C6.07262 14.875 5.85006 14.9672 5.68597 15.1313C5.52187 15.2954 5.42969 15.5179 5.42969 15.75C5.42969 15.9821 5.52187 16.2046 5.68597 16.3687C5.85006 16.5328 6.07262 16.625 6.30469 16.625C8.20424 16.627 10.0523 16.0074 11.5667 14.8608C12.4831 15.5612 13.5314 16.0694 14.6489 16.3548L12.5216 20.6084C12.4177 20.8161 12.4006 21.0566 12.4741 21.2769C12.5475 21.4972 12.7054 21.6793 12.9131 21.7831C13.1208 21.887 13.3613 21.9041 13.5816 21.8306C13.8019 21.7572 13.984 21.5993 14.0878 21.3916L15.1575 19.25H20.2019L21.2716 21.3916C21.323 21.4944 21.3942 21.5861 21.481 21.6614C21.5679 21.7368 21.6687 21.7943 21.7778 21.8306C21.8869 21.867 22.0021 21.8815 22.1168 21.8734C22.2314 21.8652 22.3434 21.8345 22.4463 21.7831C22.5491 21.7317 22.6408 21.6605 22.7161 21.5737C22.7915 21.4868 22.849 21.386 22.8853 21.2769C22.9217 21.1678 22.9362 21.0526 22.928 20.9379C22.9199 20.8232 22.8892 20.7113 22.8378 20.6084Z" fill="#A198AC"/>
</svg>
