<svg width="42" height="42" viewBox="0 0 42 42" fill="none" xmlns="http://www.w3.org/2000/svg">
<path d="M37.2162 29.5979L35.9135 29.4379L37.8329 13.8053C37.9602 12.7688 37.6705 11.7242 37.0276 10.9013C36.3846 10.0784 35.4411 9.5446 34.4046 9.41733L10.9557 6.53817C9.91922 6.4109 8.87461 6.7006 8.0517 7.34353C7.22878 7.98646 6.69498 8.92996 6.56771 9.96646L4.64827 25.5991L3.34555 25.4391C3.00005 25.3967 2.65185 25.4933 2.37754 25.7076C2.10324 25.9219 1.9253 26.2364 1.88288 26.5819L1.56298 29.1873C1.43571 30.2238 1.7254 31.2684 2.36833 32.0913C3.01126 32.9142 3.95476 33.4481 4.99127 33.5753L33.651 37.0943C34.6875 37.2216 35.7322 36.9319 36.5551 36.2889C37.378 35.646 37.9118 34.7025 38.039 33.666L38.359 31.0606C38.4014 30.7151 38.3048 30.3669 38.0905 30.0926C37.8762 29.8183 37.5617 29.6403 37.2162 29.5979ZM19.5949 11.566L24.8057 12.2058C25.1513 12.2482 25.4657 12.4262 25.6801 12.7005C25.8944 12.9748 25.9909 13.323 25.9485 13.6685C25.9061 14.014 25.7282 14.3285 25.4539 14.5428C25.1795 14.7571 24.8313 14.8537 24.4858 14.8112L19.275 14.1714C18.9295 14.129 18.615 13.9511 18.4007 13.6768C18.1864 13.4025 18.0898 13.0543 18.1322 12.7088C18.1746 12.3633 18.3526 12.0488 18.6269 11.8344C18.9012 11.6201 19.2494 11.5236 19.5949 11.566ZM35.4336 33.3461C35.3912 33.6916 35.2133 34.0061 34.939 34.2204C34.6647 34.4347 34.3164 34.5313 33.9709 34.4889L5.31117 30.9699C4.96567 30.9275 4.65117 30.7495 4.43686 30.4752C4.22255 30.2009 4.12599 29.8527 4.16841 29.5072L4.32836 28.2045L35.5936 32.0434L35.4336 33.3461Z" fill="#5B8FCF"/>
</svg>
