<svg width="29" height="28" viewBox="0 0 29 28" fill="none" xmlns="http://www.w3.org/2000/svg">
<path d="M26.4297 14.0005C26.4304 14.2976 26.3542 14.5899 26.2086 14.8488C26.0629 15.1077 25.8527 15.3246 25.5984 15.4782L9.83969 25.1185C9.574 25.2812 9.2697 25.37 8.95821 25.3758C8.64672 25.3816 8.33934 25.3041 8.06781 25.1513C7.79887 25.001 7.57483 24.7817 7.41874 24.516C7.26265 24.2503 7.18014 23.9479 7.17969 23.6398V4.36133C7.18014 4.0532 7.26265 3.75076 7.41874 3.48509C7.57483 3.21943 7.79887 3.00014 8.06781 2.84976C8.33934 2.69702 8.64672 2.61953 8.95821 2.6253C9.2697 2.63107 9.574 2.71989 9.83969 2.88258L25.5984 12.5229C25.8527 12.6765 26.0629 12.8934 26.2086 13.1523C26.3542 13.4112 26.4304 13.7035 26.4297 14.0005Z" fill="#A198AC"/>
</svg>
