<svg width="47" height="48" viewBox="0 0 47 48" fill="none" xmlns="http://www.w3.org/2000/svg">
<path d="M39.2614 23.9077L18.6989 45.939C18.481 46.1715 18.1933 46.3269 17.8794 46.3816C17.5654 46.4363 17.2422 46.3875 16.9585 46.2424C16.6747 46.0973 16.4459 45.8639 16.3064 45.5773C16.167 45.2907 16.1245 44.9666 16.1855 44.6538L18.877 31.1909L8.29646 27.2179C8.06923 27.1329 7.86659 26.9929 7.70665 26.8105C7.54671 26.6281 7.43445 26.4089 7.3799 26.1725C7.32535 25.9361 7.3302 25.6899 7.39403 25.4558C7.45786 25.2218 7.57867 25.0072 7.74568 24.8312L28.3082 2.79993C28.5261 2.56738 28.8137 2.41202 29.1277 2.35728C29.4416 2.30254 29.7649 2.3514 30.0486 2.49649C30.3323 2.64157 30.5612 2.87501 30.7006 3.16157C30.8401 3.44814 30.8825 3.77228 30.8216 4.08508L28.1227 17.5627L38.7033 21.5302C38.9288 21.6157 39.1298 21.7555 39.2885 21.9372C39.4472 22.1189 39.5587 22.3369 39.6132 22.5719C39.6676 22.807 39.6633 23.0518 39.6007 23.2847C39.538 23.5177 39.419 23.7317 39.254 23.9077H39.2614Z" fill="#5B8FCF"/>
</svg>
