<svg width="39" height="39" viewBox="0 0 39 39" fill="none" xmlns="http://www.w3.org/2000/svg">
<circle opacity="0.1" cx="19.5" cy="19.5" r="19.5" fill="#999999"/>
<g opacity="0.5">
<path d="M27.9805 18.3164C27.9805 23.5117 20.2773 27.717 19.9493 27.8906C19.8628 27.9371 19.7661 27.9615 19.668 27.9615C19.5698 27.9615 19.4731 27.9371 19.3867 27.8906C19.0586 27.717 11.3555 23.5117 11.3555 18.3164C11.3568 17.0964 11.8421 15.9268 12.7048 15.0641C13.5674 14.2015 14.737 13.7162 15.957 13.7148C17.4896 13.7148 18.8315 14.3739 19.668 15.4879C20.5044 14.3739 21.8463 13.7148 23.3789 13.7148C24.5989 13.7162 25.7685 14.2015 26.6312 15.0641C27.4938 15.9268 27.9791 17.0964 27.9805 18.3164Z" fill="#999999"/>
</g>
</svg>
