<svg width="105" height="53" viewBox="0 0 105 53" fill="none" xmlns="http://www.w3.org/2000/svg">
<rect x="4.93359" y="0.84375" width="100.56" height="39.8061" rx="19.9031" transform="rotate(7.12 4.93359 0.84375)" fill="#BACFE8"/>
<path d="M22.7461 18.506L20.8142 18.2647L19.6881 27.28L24.9942 27.9428L25.2195 26.1397L21.8452 25.7182L22.7461 18.506ZM28.6279 21.0719L26.8248 20.8467L25.9239 28.0589L27.727 28.2841L28.6279 21.0719ZM28.1285 17.7396C27.3558 17.643 26.8874 18.0423 26.7989 18.7507C26.7136 19.4332 27.0662 19.9612 27.839 20.0578C28.5731 20.1495 29.0576 19.726 29.1428 19.0434C29.2313 18.3351 28.8626 17.8312 28.1285 17.7396ZM33.9503 21.5798C33.0616 21.4688 32.239 21.7715 31.6998 22.4235L31.6612 22.4187L31.6643 21.4512L30.1961 21.2678L29.2952 28.48L31.0983 28.7052L31.5535 25.0605C31.6999 23.8885 32.3889 23.0851 33.4578 23.2186C34.1919 23.3103 34.6282 23.7965 34.5044 24.7882L33.9703 29.064L35.7733 29.2892L36.3798 24.4338C36.5519 23.0558 35.8049 21.8114 33.9503 21.5798ZM40.8442 22.4409C39.157 22.2301 37.5746 23.4844 37.314 25.5708C37.0759 27.4768 38.1064 28.9659 39.8193 29.1798C40.7466 29.2957 41.413 28.9865 41.78 28.5615L41.8315 28.5679L41.7334 29.3535C41.5934 30.474 40.9238 30.8089 39.9836 30.6915C39.1465 30.5869 38.6071 30.0879 38.1064 29.4891L38.0163 29.4778L37.2034 30.9589C37.6848 31.6077 38.6154 32.2209 39.8389 32.3738C41.3071 32.5572 43.2823 32.1368 43.6025 29.5739L44.4181 23.0443L43.0143 22.8689L42.7793 23.8075L42.7407 23.8027C42.5394 23.2151 41.8745 22.5696 40.8442 22.4409ZM40.9312 24.1522C41.9616 24.2809 42.385 25.1839 42.2628 26.1627C42.1341 27.1931 41.4966 27.689 40.5307 27.5683C39.3973 27.4267 39.0318 26.5832 39.1364 25.7461C39.2426 24.8961 39.8365 24.0154 40.9312 24.1522ZM51.9313 23.9828L50.1283 23.7575L49.673 27.4023C49.5347 28.5099 48.915 29.3873 47.9619 29.2683C47.2536 29.1798 47.0201 28.6405 47.1552 27.5587L47.6684 23.4503L45.8654 23.2251L45.2589 28.0804C45.0867 29.4585 45.8467 30.7044 47.4566 30.9055C48.2937 31.0101 49.1485 30.6591 49.5268 30.0392L49.5654 30.0441L49.6267 31.0196L51.0305 31.195L51.9313 23.9828ZM55.3063 24.4043L53.5033 24.1791L52.6024 31.3913L54.4054 31.6166L55.3063 24.4043ZM54.807 21.072C54.0343 20.9755 53.5658 21.3747 53.4773 22.0831C53.3921 22.7657 53.7447 23.2937 54.5174 23.3902C55.2515 23.4819 55.736 23.0585 55.8213 22.3759C55.9098 21.6675 55.5411 21.1637 54.807 21.072ZM59.3537 24.7529C57.6666 24.5422 56.572 25.4519 56.4256 26.6238C56.2776 27.8087 56.9538 28.5733 58.6168 29.1865C59.9562 29.6678 60.1301 29.8464 60.0883 30.1813C60.0416 30.5548 59.6666 30.7303 58.8552 30.6289C57.9794 30.5196 57.2485 29.8789 56.7413 29.227L56.6512 29.2157L55.7273 30.6437C56.1909 31.3295 57.2165 32.1246 58.7748 32.3193C60.359 32.5172 61.7112 31.849 61.8785 30.5096C62.0522 29.1186 61.2022 28.4892 59.4506 27.8519C58.2013 27.3819 58.1176 27.2145 58.1594 26.8797C58.198 26.5706 58.5345 26.2856 59.1913 26.3676C59.8481 26.4497 60.5678 26.9712 61.1023 27.8228L61.1925 27.834L62.1132 26.4318C61.796 25.9344 60.8477 24.9396 59.3537 24.7529ZM66.1249 23.9245L65.0302 23.7878C64.5844 24.8439 63.8616 25.7084 62.8716 25.9902L62.7413 27.0334L63.9261 27.1814L63.4628 30.8906C63.2859 32.3073 64.0651 32.9801 65.1598 33.1169C65.9325 33.2134 66.6618 33.0298 67.0095 32.8639L66.7936 31.0319L66.7035 31.0207C66.3799 31.2026 66.0257 31.3154 65.7166 31.2767C65.3947 31.2365 65.2707 31.0772 65.3222 30.665L65.7292 27.4067L67.7254 27.656L67.9346 25.9817L65.8997 25.7276L66.1249 23.9245ZM70.8535 26.3463L69.0504 26.1211L68.1495 33.3333L69.9526 33.5586L70.8535 26.3463ZM70.3541 23.014C69.5814 22.9175 69.1129 23.3168 69.0245 24.0251C68.9392 24.7077 69.2918 25.2357 70.0645 25.3322C70.7986 25.4239 71.2832 25.0005 71.3684 24.3179C71.4569 23.6095 71.0882 23.1057 70.3541 23.014ZM75.5577 26.777C73.5486 26.526 71.8616 27.8849 71.5784 30.1516C71.321 32.2122 72.3772 34.0184 74.5924 34.2951C76.3568 34.5155 77.4724 33.6477 78.0969 32.5223L76.8186 31.2378L76.7284 31.2265C76.4725 32.1232 75.7932 32.7447 74.8016 32.6208C73.7712 32.4921 73.2431 31.4844 73.3799 30.3897C73.5198 29.2692 74.3311 28.3242 75.3614 28.4529C76.1342 28.5494 76.6043 29.1836 76.7605 30.0272L76.8507 30.0384L78.2962 29.0418C77.9726 28.0727 77.1289 26.9733 75.5577 26.777ZM82.083 27.5921C80.3958 27.3813 79.3012 28.291 79.1548 29.463C79.0068 30.6478 79.683 31.4125 81.3461 32.0257C82.6855 32.5069 82.8594 32.6856 82.8176 33.0204C82.7709 33.3939 82.3958 33.5694 81.5844 33.4681C80.7087 33.3587 79.9777 32.718 79.4706 32.0661L79.3804 32.0548L78.4565 33.4828C78.9202 34.1686 79.9457 34.9638 81.5041 35.1584C83.0882 35.3563 84.4404 34.6881 84.6077 33.3487C84.7815 31.9578 83.9314 31.3284 82.1798 30.691C80.9306 30.2211 80.8468 30.0537 80.8887 29.7188C80.9273 29.4097 81.2637 29.1247 81.9205 29.2068C82.5774 29.2888 83.297 29.8103 83.8316 30.6619L83.9217 30.6732L84.8424 29.2709C84.5252 28.7735 83.5769 27.7787 82.083 27.5921Z" fill="#403D46"/>
</svg>
