<svg width="33" height="33" viewBox="0 0 33 33" fill="none" xmlns="http://www.w3.org/2000/svg">
<circle cx="16.4566" cy="16.4566" r="16.4566" fill="#161C20"/>
<g clip-path="url(#clip0_12459_101584)">
<path d="M12 8.001C11.9997 8.53144 11.7888 9.04004 11.4135 9.41492C11.0382 9.78981 10.5294 10.0003 9.999 10C9.46857 9.99974 8.95997 9.78877 8.58508 9.41351C8.2102 9.03825 7.99973 8.52944 8 7.999C8.00027 7.46857 8.21124 6.95997 8.5865 6.58508C8.96176 6.21019 9.47057 5.99974 10.001 6C10.5314 6.00027 11.04 6.21123 11.4149 6.58649C11.7898 6.96175 12.0003 7.47057 12 8.001ZM12.06 11.481H8.06V24.001H12.06V11.481ZM18.38 11.481H14.4V24.001H18.34V17.431C18.34 13.771 23.11 13.431 23.11 17.431V24.001H27.06V16.071C27.06 9.901 20 10.131 18.34 13.161L18.38 11.481Z" fill="#D9FA50"/>
</g>
<defs>
<clipPath id="clip0_12459_101584">
<rect width="21" height="21" fill="white" transform="translate(6 6)"/>
</clipPath>
</defs>
</svg>
