<svg width="70" height="70" viewBox="0 0 70 70" fill="none" xmlns="http://www.w3.org/2000/svg">
<g filter="url(#filter0_b_16078_84116)">
<rect width="70" height="70" rx="35" fill="#F8F5F2"/>
<g clip-path="url(#clip0_16078_84116)">
<path d="M48.4502 25.7034L53.5038 43.08C53.6953 43.7384 53.6174 44.4459 53.2872 45.0468C52.9571 45.6477 52.4018 46.0929 51.7434 46.2843L26.9196 53.5039C26.2613 53.6953 25.5538 53.6174 24.9529 53.2873C24.3519 52.9571 23.9068 52.4018 23.7153 51.7434L18.6617 34.3668C18.4702 33.7084 18.5481 33.001 18.8782 32.4001C19.2084 31.7991 19.7637 31.354 20.4221 31.1625L25.3868 29.7186L24.3039 25.995C23.7317 24.0199 23.9664 21.8986 24.9565 20.0963C25.9467 18.2941 27.6113 16.9583 29.5852 16.382C33.1846 15.3352 37.0349 16.933 38.7406 20.1827C38.8958 20.4858 38.9251 20.838 38.8221 21.1627C38.7191 21.4873 38.4921 21.7582 38.1905 21.9164C37.8889 22.0746 37.537 22.1074 37.2113 22.0076C36.8857 21.9079 36.6126 21.6836 36.4514 21.3835C35.3338 19.2535 32.6918 18.1709 30.3071 18.8644C28.9904 19.2474 27.8797 20.1377 27.2194 21.3395C26.5591 22.5414 26.4033 23.9563 26.7863 25.2731L27.8692 28.9966L45.2458 23.943C45.9042 23.7515 46.6117 23.8294 47.2126 24.1595C47.8135 24.4897 48.2587 25.045 48.4502 25.7034Z" fill="#B59B7B"/>
</g>
</g>
<defs>
<filter id="filter0_b_16078_84116" x="-133.636" y="-133.636" width="337.273" height="337.273" filterUnits="userSpaceOnUse" color-interpolation-filters="sRGB">
<feFlood flood-opacity="0" result="BackgroundImageFix"/>
<feGaussianBlur in="BackgroundImageFix" stdDeviation="66.8182"/>
<feComposite in2="SourceAlpha" operator="in" result="effect1_backgroundBlur_16078_84116"/>
<feBlend mode="normal" in="SourceGraphic" in2="effect1_backgroundBlur_16078_84116" result="shape"/>
</filter>
<clipPath id="clip0_16078_84116">
<rect width="41.3636" height="41.3636" fill="white" transform="translate(9.36523 20.9165) rotate(-16.2161)"/>
</clipPath>
</defs>
</svg>
