<svg xmlns="http://www.w3.org/2000/svg" width="61" height="27" viewBox="0 0 61 27" fill="none">
    <path d="M34.553 18.9946L43.1499 8.22783L43.1489 8.01383V5.01172H30.3171V8.51855H38.2775L29.9025 18.9946H29.8985V20.0808L29.8965 20.0879L29.8985 20.0899V22.5348H43.2225V18.9946H34.553Z"
          fill="white"/>
    <path d="M28.2709 10.5195H24.5585C24.5089 10.5195 24.4688 10.5598 24.4688 10.6094V22.4462C24.4688 22.4958 24.5089 22.536 24.5585 22.536H28.2709C28.3204 22.536 28.3606 22.4958 28.3606 22.4462V10.6094C28.3606 10.5598 28.3204 10.5195 28.2709 10.5195Z"
          fill="white"/>
    <path d="M26.4536 9.04991C27.7277 9.04991 28.7607 8.06286 28.7607 6.84527C28.7607 5.62768 27.7277 4.64062 26.4536 4.64062C25.1794 4.64062 24.1465 5.62768 24.1465 6.84527C24.1465 8.06286 25.1794 9.04991 26.4536 9.04991Z"
          fill="white"/>
    <path d="M60.014 22.5222H55.766C55.769 17.5678 54.1146 16.203 51.7379 16.203H48.9163V22.5222H44.8711V4.99609H52.4763C56.6053 4.99609 59.0314 7.1755 59.0314 10.4794C59.0314 12.3772 58.6117 14.385 56.7102 15.237C58.8115 16.2636 59.8626 18.5167 60.0129 22.5232L60.014 22.5222ZM52.2312 12.9082C53.707 12.9082 54.7098 12.1905 54.7098 10.6127C54.7098 9.03491 53.6859 8.18394 52.209 8.18394H48.8275V12.9072H52.2312V12.9082Z"
          fill="white"/>
    <path d="M14.4192 26.5931C13.8413 26.5931 13.0573 26.4058 12.3154 25.6204C11.0906 24.3234 10.7426 22.5047 10.4627 21.0426C10.4247 20.8432 10.3877 20.6488 10.3497 20.4646C10.2507 19.9893 10.1627 19.5119 10.0847 19.0326C9.76276 19.666 9.4478 20.2622 9.14284 20.815C6.96011 24.7644 5.76526 25.6506 4.88537 25.997C4.37143 26.1994 3.8345 26.2336 3.33856 26.1017C2.72964 25.997 2.19071 25.6486 1.81975 25.1118C1.58078 24.7644 1.4158 24.3485 1.31582 23.839C1.19283 23.2106 1.18383 22.5229 1.17683 21.9156L1.17483 21.7656L0.97286 7.74626C0.957861 6.71712 1.77476 5.87124 2.79563 5.85715C2.80463 5.85715 2.81363 5.85715 2.82263 5.85715C3.8315 5.85715 4.6574 6.67382 4.6714 7.69289L4.85837 20.7787C5.19933 20.2471 5.60628 19.5613 6.08422 18.6792C7.26107 16.5101 8.59991 13.6412 9.85375 10.5991C10.1977 9.76629 11.0846 9.30106 11.9595 9.4944C12.8344 9.68774 13.4453 10.4853 13.4103 11.3865C13.4023 11.602 13.3903 11.8296 13.3783 12.0582C13.3603 12.4086 13.3423 12.7711 13.3373 13.0732C13.3263 13.7671 13.3393 14.4699 13.3773 15.1628C13.4593 16.6763 13.6583 18.2039 13.9692 19.7023C14.0112 19.9047 14.0522 20.1171 14.0942 20.3367C14.2042 20.9086 14.3292 21.5622 14.5082 22.109C14.6511 21.822 14.8191 21.4454 15.0131 20.9519L15.0291 20.9107C16.8559 16.2715 17.8518 11.9172 18.9056 7.30721C19.3156 5.51578 19.7385 3.66392 20.2275 1.7164C20.4774 0.718471 21.4833 0.113269 22.4742 0.366024C23.465 0.617772 24.065 1.63081 23.815 2.62873C23.3361 4.53799 22.9171 6.37172 22.5112 8.14402C21.4243 12.895 20.3984 17.3832 18.4687 22.2852L18.4527 22.3255C17.7088 24.2166 16.7079 26.1974 14.9281 26.5448C14.7881 26.572 14.6152 26.5941 14.4182 26.5941L14.4192 26.5931Z"
          fill="white"/>
</svg>
