<svg width="73" height="72" viewBox="0 0 73 72" fill="none" xmlns="http://www.w3.org/2000/svg">
<g id="Group 48097443">
<path id="Vector" d="M36.2949 72C56.1772 72 72.2949 55.8823 72.2949 36C72.2949 16.1177 56.1772 0 36.2949 0C16.4127 0 0.294922 16.1177 0.294922 36C0.294922 55.8823 16.4127 72 36.2949 72Z" fill="#CBFB62"/>
<g id="Union" opacity="0.8">
<path fill-rule="evenodd" clip-rule="evenodd" d="M38.7939 36.068C38.7939 39.0648 37.7237 42.9372 33.4815 42.9372C29.2393 42.9372 28.1691 39.0648 28.1691 36.068C28.1691 32.1177 29.9983 28.8486 33.4815 28.8486C36.9648 28.8486 38.7939 32.1177 38.7939 36.068ZM30.9907 36.0096C30.9907 37.9361 31.5356 40.3102 33.4815 40.3102C35.4275 40.3102 35.9723 37.9361 35.9723 36.0096C35.9723 33.694 35.2134 31.3783 33.4815 31.3783C31.7496 31.3783 30.9907 33.694 30.9907 36.0096Z" fill="#292F1E"/>
<path fill-rule="evenodd" clip-rule="evenodd" d="M41.0827 40.5729C42.1627 40.5729 42.4157 39.6486 42.4157 38.9286C42.4157 37.975 41.9778 37.2064 41.0827 37.2064C40.1876 37.2064 39.7497 37.975 39.7497 38.9286C39.7497 39.6583 40.0027 40.5729 41.0827 40.5729ZM41.0924 39.7945C40.6935 39.7945 40.6157 39.3469 40.6157 38.8994C40.6157 38.3448 40.7811 37.9848 41.0924 37.9848C41.4038 37.9848 41.5692 38.335 41.5692 38.8994C41.5692 39.3469 41.4914 39.7945 41.0924 39.7945Z" fill="#292F1E"/>
<path d="M41.8416 43.1513L45.0816 37.3231L44.313 36.8756L41.073 42.694L41.8416 43.1513Z" fill="#292F1E"/>
<path fill-rule="evenodd" clip-rule="evenodd" d="M45.0427 42.7426C46.1227 42.7426 46.3757 41.8183 46.3757 41.0983C46.3757 40.1448 45.9378 39.3761 45.0427 39.3761C44.1476 39.3761 43.7097 40.1545 43.7097 41.0983C43.7097 41.828 43.9627 42.7426 45.0427 42.7426ZM45.0524 41.9642C44.6535 41.9642 44.5757 41.5167 44.5757 41.0691C44.5757 40.5145 44.7411 40.1545 45.0524 40.1545C45.3638 40.1545 45.5292 40.5048 45.5292 41.0691C45.5292 41.5167 45.4514 41.9642 45.0524 41.9642Z" fill="#292F1E"/>
<path fill-rule="evenodd" clip-rule="evenodd" d="M17.6146 36C17.6146 25.6865 25.9724 17.319 36.2957 17.319C46.6092 17.319 54.9768 25.6865 54.9768 36C54.9768 46.3136 46.6092 54.6811 36.2957 54.6811C25.9822 54.6811 17.6146 46.3136 17.6146 36ZM54.0038 36C54.0038 26.2411 46.0643 18.2919 36.2957 18.2919C26.5368 18.2919 18.5876 26.2411 18.5876 36C18.5876 45.759 26.5368 53.7082 36.2957 53.7082C46.0546 53.7082 54.0038 45.759 54.0038 36Z" fill="#292F1E"/>
<path d="M10.4905 21.6388L12.6213 25.4431L13.6721 23.215L14.6645 23.682L12.9424 27.3502L12.2029 26.9999L10.0915 23.1664L9.031 25.4334L8.0483 24.9664L9.77046 21.2885L10.5099 21.6388H10.4905Z" fill="#292F1E"/>
<path d="M12.3318 19.3426L13.7815 17.3383H13.8107L12.9253 16.6961L10.7848 19.6442L15.1924 22.8453L17.3329 19.8972L16.4475 19.2551L14.988 21.2594L14.0734 20.5978L15.5232 18.5934L14.7059 17.9999L13.2464 20.0042L12.3318 19.3426Z" fill="#292F1E"/>
<path fill-rule="evenodd" clip-rule="evenodd" d="M16.1938 13.3686C16.9332 12.6972 17.9548 12.5707 18.7721 13.4561C19.4824 14.2345 19.2684 15.081 18.8402 15.6356L21.2532 16.1221L20.1732 17.1048L17.8867 16.5502L17.6046 16.8129L18.9181 18.2529L18.0521 19.041L14.384 15.0226L16.2035 13.3686H16.1938ZM15.97 15.0421L16.8846 16.0442L17.6727 15.3242C18.1008 14.935 18.1786 14.5459 17.8673 14.1956C17.5754 13.8745 17.2251 13.894 16.8262 14.254L15.97 15.0323V15.0421Z" fill="#292F1E"/>
<path fill-rule="evenodd" clip-rule="evenodd" d="M24.0834 14.4876C25.6499 13.6022 25.611 11.9871 24.9493 10.8292C24.171 9.44763 22.6045 8.86384 21.3007 9.59357C19.9969 10.3233 19.705 11.9774 20.4931 13.359C21.1548 14.5168 22.5169 15.373 24.0834 14.4876ZM23.5385 13.5244C22.7504 13.972 21.9526 13.5536 21.4953 12.746C21.0283 11.919 21.0575 10.9557 21.8358 10.5179C22.6142 10.0703 23.4412 10.5276 23.918 11.3644C24.385 12.1817 24.3266 13.0768 23.5385 13.5244Z" fill="#292F1E"/>
<path d="M28.4918 10.0314L26.3221 10.7806L25.9913 9.8271L28.161 9.07791L28.4918 10.0314Z" fill="#292F1E"/>
<path d="M33.2688 7.93955L33.9304 6.97631L33.9207 6.98604C33.5121 6.40226 32.7531 5.80874 31.6342 5.99361C30.1164 6.23685 29.338 7.7255 29.5812 9.24334C29.7856 10.479 30.6904 11.8606 32.4807 11.5687C33.658 11.3741 34.3683 10.5471 34.5337 9.54496L33.4731 8.9709H33.4148C33.298 9.87577 32.9672 10.3623 32.325 10.4693C31.4202 10.6152 30.8656 9.87577 30.7294 9.00982C30.5737 8.03685 30.9823 7.20009 31.8094 7.06388C32.4321 6.96658 32.831 7.32658 33.2104 7.93955H33.2688Z" fill="#292F1E"/>
<path fill-rule="evenodd" clip-rule="evenodd" d="M40.5668 8.72761C40.4889 10.0509 39.6425 11.4325 37.8425 11.3157C36.0425 11.2087 35.3711 9.73951 35.4587 8.40653C35.556 6.82059 36.6944 5.59464 38.1927 5.69194C39.6911 5.78924 40.6641 7.14167 40.5668 8.71788V8.72761ZM36.6263 8.44545C36.5679 9.37951 37.0057 10.1579 37.9106 10.2163C38.8154 10.2746 39.3408 9.55464 39.3992 8.62059C39.4576 7.65734 39.01 6.83032 38.1149 6.77194C37.2198 6.71356 36.6749 7.50167 36.6165 8.44545H36.6263Z" fill="#292F1E"/>
<path d="M46.1509 8.33807L45.3629 9.09728L45.3142 9.07782C45.1586 8.55241 44.7986 7.9589 44.1467 7.77403C43.7186 7.65728 43.4267 7.77403 43.3294 8.09511C43.2223 8.47457 43.6991 8.76646 44.2342 9.06809C45.2461 9.6616 45.8494 10.2065 45.5575 11.2281C45.285 12.1816 44.3802 12.5805 43.2126 12.2497C42.1131 11.9384 41.4904 11.2281 41.2472 10.6346L42.0353 9.71025L42.084 9.72971C42.2688 10.2357 42.7164 10.9654 43.5337 11.1989C43.8742 11.2962 44.3218 11.3059 44.4288 10.9167C44.5359 10.547 44.2245 10.3232 43.4364 9.86592C42.5023 9.32106 41.9186 8.78593 42.2007 7.80322C42.444 6.96647 43.3196 6.43133 44.4288 6.75241C45.4892 7.05397 46.0243 7.871 46.1509 8.33807Z" fill="#292F1E"/>
<path d="M51.2789 10.8681L49.9167 10.1773L47.9513 14.0692L46.9102 13.5438L48.8756 9.65186L47.5232 8.97078L48.0097 7.99781L51.7653 9.88538L51.2789 10.8583V10.8681Z" fill="#292F1E"/>
<path d="M55.2858 13.8455L57.1345 15.4898V15.5093L57.8642 14.692L55.1496 12.2693L51.5204 16.3363L54.235 18.759L54.9648 17.9417L53.1161 16.2974L53.8653 15.4509L55.7139 17.0952L56.3853 16.3363L54.5366 14.692L55.2858 13.8455Z" fill="#292F1E"/>
<path d="M58.6034 24.665L57.9417 23.7017L61.5612 21.2498L57.1731 22.5536L56.5212 21.6001L59.3623 18.0001L55.7526 20.4423L55.1007 19.479L59.6153 16.4142L60.705 18.0293L58.1071 21.2109L62.0282 19.9947L63.1277 21.6098L58.6131 24.6747L58.6034 24.665Z" fill="#292F1E"/>
<path d="M58.985 25.9005L59.4325 26.9805L64.4628 24.8789L64.0152 23.7989L58.985 25.9005Z" fill="#292F1E"/>
<path d="M14.1494 48.9113L14.1423 48.91L14.8792 48.561L13.1278 44.9123L12.1451 45.3891L13.2251 47.6367L8.92458 46.8583L8.18512 47.2086L9.93648 50.8572L10.9192 50.3805L9.85864 48.1621L14.1423 48.91L14.1397 48.9113H14.1494Z" fill="#292F1E"/>
<path d="M15.1531 50.8185L16.6223 52.8131H16.6321L17.5077 52.1709L15.3477 49.2423L10.9596 52.4725L13.1196 55.4012L13.9953 54.759L12.5261 52.7644L13.431 52.0931L14.9002 54.0877L15.7175 53.4844L14.2483 51.4898L15.1531 50.8185Z" fill="#292F1E"/>
<path fill-rule="evenodd" clip-rule="evenodd" d="M19.997 54.5837C20.7365 55.255 20.9603 56.2669 20.1527 57.1621C19.4424 57.9502 18.5765 57.8042 17.983 57.4345L17.73 59.8864L16.6403 58.9037L16.9808 56.5685L16.6889 56.3058L15.3754 57.7556L14.5094 56.9675L18.1678 52.9199L19.997 54.574V54.5837ZM18.304 54.5253L17.3992 55.5275L18.1873 56.2475C18.6251 56.6367 19.0143 56.6853 19.3257 56.335C19.6078 56.014 19.5592 55.6637 19.1603 55.3037L18.304 54.5253Z" fill="#292F1E"/>
<path fill-rule="evenodd" clip-rule="evenodd" d="M21.3313 62.3091C22.8978 63.2042 24.26 62.348 24.9216 61.1902C25.7097 59.8183 25.4178 58.174 24.1237 57.4248C22.8297 56.6756 21.2632 57.2691 20.4751 58.6507C19.8135 59.7988 19.7648 61.414 21.3313 62.3091ZM21.8762 61.3556C21.0881 60.8983 21.0394 60.0031 21.5065 59.1956C21.9735 58.3685 22.8102 57.9015 23.5886 58.3491C24.367 58.7967 24.3962 59.7404 23.9194 60.5772C23.4524 61.3945 22.6643 61.8031 21.8762 61.3556Z" fill="#292F1E"/>
<path d="M28.1116 62.708L28.103 62.705L28.4424 61.7545L26.2727 60.9956L25.9419 61.9491L28.103 62.705L28.1019 62.708H28.1116Z" fill="#292F1E"/>
<path d="M33.2703 62.6885L34.2044 61.9977C34.0098 61.3069 33.4747 60.5091 32.3655 60.3145C30.8476 60.0615 29.6217 61.2194 29.3687 62.7275C29.1547 63.9631 29.5633 65.5588 31.3536 65.8604C32.5309 66.0648 33.4649 65.5102 33.9514 64.615L33.1341 63.7102H33.0855C32.6866 64.5372 32.2001 64.8875 31.5676 64.7804C30.6628 64.6345 30.3806 63.7491 30.5266 62.8929C30.692 61.9199 31.3633 61.2583 32.1806 61.3945C32.7936 61.4918 33.0563 61.9685 33.212 62.6885H33.2703Z" fill="#292F1E"/>
<path fill-rule="evenodd" clip-rule="evenodd" d="M40.2274 63.3405C40.2955 64.6734 39.6144 66.1329 37.8047 66.2205C36.0047 66.308 35.1777 64.9264 35.1095 63.5934C35.0317 62.0075 36.0339 60.6648 37.5225 60.5869C39.0112 60.5091 40.1496 61.7545 40.2274 63.3405ZM36.2771 63.4961C36.3258 64.4302 36.8414 65.1599 37.756 65.1113C38.6706 65.0626 39.1085 64.294 39.0695 63.3502C39.0209 62.3869 38.4858 61.6086 37.5906 61.6572C36.6955 61.7059 36.2382 62.5426 36.2868 63.4961H36.2771Z" fill="#292F1E"/>
<path d="M44.4697 61.3945L44.7616 60.3242H44.7519C44.4016 59.9934 43.526 59.5653 42.4557 59.8475C41.3465 60.1491 40.86 61.0539 41.0838 61.9004C41.3465 62.8929 42.1249 63.0485 43.2049 63.0388C44.1195 63.0291 44.4989 63.0583 44.5962 63.4377C44.7033 63.8366 44.3141 64.0604 43.9735 64.148C43.1465 64.362 42.3778 63.9729 41.9692 63.642H41.9206L41.7162 64.8388C42.2319 65.2183 43.127 65.5102 44.2362 65.2183C45.4233 64.9069 45.9876 64.0896 45.7346 63.1361C45.4622 62.1145 44.6643 61.9491 43.487 61.9588C42.8838 61.9783 42.3195 61.9685 42.2124 61.5891C42.1249 61.2583 42.3195 61.0053 42.7476 60.8885C43.4092 60.7134 44.0124 61.0442 44.4211 61.3945H44.4697Z" fill="#292F1E"/>
<path d="M49.315 58.3979L47.9431 59.0595L49.8209 62.9903L48.7701 63.4962L46.8923 59.5654L45.5301 60.2173L45.0631 59.2346L48.8577 57.4249L49.3247 58.4076L49.315 58.3979Z" fill="#292F1E"/>
<path d="M52.5443 56.0725L54.4319 54.4671L54.4222 54.4574L53.7216 53.6304L50.9389 55.985L54.4611 60.1396L57.2438 57.785L56.5433 56.958L54.6557 58.5634L53.926 57.6974L55.8135 56.1017L55.1616 55.3331L53.2741 56.9288L52.5443 56.0725Z" fill="#292F1E"/>
<path d="M62.5839 51.1395L61.8931 52.0833L58.3515 49.5146L61.0855 53.2119L60.4044 54.146L56.0552 52.6962L59.5969 55.2746L58.9061 56.2184L54.4888 53.0173L55.6369 51.4411L59.5093 52.7935L57.0185 49.5049L58.1569 47.9287L62.5742 51.1297L62.5839 51.1395Z" fill="#292F1E"/>
<path d="M63.5003 49.067L63.9868 48.0065L59.0344 45.7395L58.5479 46.8L63.5003 49.067Z" fill="#292F1E"/>
<path d="M62.5258 44.3092L62.5202 44.3072C63.5683 41.3335 64.102 38.224 64.102 35.0659C64.102 32.5849 63.7712 30.1232 63.1193 27.7297L62.1853 27.9827C62.8177 30.2887 63.1388 32.6724 63.1388 35.0562C63.1388 38.1114 62.6231 41.1178 61.6112 43.9881L62.5202 44.3072L62.5161 44.3189L62.5258 44.3092Z" fill="#292F1E"/>
<path d="M10.0596 44.2975C10.061 44.3014 10.0623 44.3053 10.0637 44.3092L10.054 44.2994L10.0596 44.2975Z" fill="#292F1E"/>
<path d="M8.47778 35.0562C8.47778 38.2142 9.01151 41.3237 10.0596 44.2975L10.9686 43.9784C9.9567 41.1081 9.44102 38.1016 9.44102 35.0465C9.44102 32.6627 9.7621 30.2789 10.3945 27.973L9.46048 27.72C8.80859 30.1135 8.47778 32.5849 8.47778 35.0562Z" fill="#292F1E"/>
<path fill-rule="evenodd" clip-rule="evenodd" d="M0.294922 36C0.294922 16.1222 16.4171 0 36.2949 0C56.1728 0 72.2949 16.1222 72.2949 36C72.2949 55.8778 56.1728 72 36.2949 72C16.4171 72 0.294922 55.8778 0.294922 36ZM71.322 36C71.322 16.6865 55.6084 0.972973 36.2949 0.972973C16.9814 0.972973 1.26789 16.6865 1.26789 36C1.26789 55.3135 16.9814 71.027 36.2949 71.027C55.6084 71.027 71.322 55.3135 71.322 36Z" fill="#292F1E"/>
</g>
</g>
</svg>
