<svg width="593" height="593" viewBox="0 0 593 593" fill="none" xmlns="http://www.w3.org/2000/svg">
<g clip-path="url(#clip0_123_1532)">
<path d="M385.141 437.318L393.943 398.334C478.886 339.791 506.402 310.31 514.606 259.782C530.347 162.166 481.438 44.0982 335.969 33.1025C335.888 33.0964 335.726 33.0842 335.646 33.0781C220.449 24.3707 138.645 104.49 141.648 215.132L82.4726 315.959C77.9998 323.578 83.0357 333.214 91.8349 333.879L125.567 338.098L114.356 372.492L127.612 397.347C127.526 412.441 108.517 438.333 135.334 447.978C169.084 460.118 227.628 441.519 227.628 441.519L223.367 526.478L375.455 537.974L378.372 502.685" fill="white"/>
<path d="M385.141 437.318L393.943 398.334C478.886 339.791 506.402 310.31 514.606 259.782C530.347 162.166 481.438 44.0982 335.969 33.1025C335.888 33.0964 335.726 33.0842 335.646 33.0781C220.449 24.3707 138.645 104.49 141.648 215.132L82.4726 315.959C77.9998 323.578 83.0357 333.214 91.8349 333.879L125.567 338.098L114.356 372.492L127.612 397.347C127.526 412.441 108.517 438.333 135.334 447.978C169.084 460.118 227.628 441.519 227.628 441.519L223.367 526.478L375.455 537.974L378.372 502.685" stroke="#A198AC" stroke-width="16" stroke-miterlimit="13.3333" stroke-linecap="round" stroke-linejoin="round"/>
<path d="M366.56 125.133C380.934 130.043 389.481 140.165 394.019 150.975C394.1 151.14 394.181 151.305 394.262 151.47C404.591 145.532 417.729 142.611 432.288 147.584C458.272 156.46 471.076 184.842 461.655 212.423C450.156 246.086 412.89 255.581 361.229 276.691C357.853 277.938 354.548 277.975 351.415 276.905C351.292 276.863 351.169 276.821 351.047 276.779C347.996 275.669 345.589 273.68 343.722 270.711C315.834 222.428 292.164 192.118 303.662 158.455C313.084 130.874 340.576 116.257 366.56 125.133Z" fill="#DFB19D"/>
<path d="M366.562 125.133C380.936 130.043 389.483 140.165 394.021 150.975C394.102 151.14 394.183 151.305 394.264 151.47C404.592 145.532 417.731 142.611 432.29 147.584C458.274 156.46 471.078 184.842 461.657 212.423C450.158 246.086 412.892 255.581 361.231 276.691C357.855 277.938 354.55 277.975 351.417 276.905C351.294 276.863 351.171 276.821 351.049 276.779C347.998 275.669 345.591 273.68 343.724 270.711C315.836 222.428 292.166 192.118 303.664 158.455C313.086 130.874 340.578 116.257 366.562 125.133Z" stroke="#534C5C" stroke-width="16" stroke-miterlimit="13.3333" stroke-linecap="round" stroke-linejoin="round"/>
<circle cx="382.91" cy="471.491" r="6.98092" transform="rotate(4.32263 382.91 471.491)" fill="#A198AC"/>
</g>
<defs>
<clipPath id="clip0_123_1532">
<rect width="552.691" height="552.691" fill="white" transform="translate(41.6582) rotate(4.32263)"/>
</clipPath>
</defs>
</svg>
