<svg width="22" height="24" viewBox="0 0 22 24" fill="none" xmlns="http://www.w3.org/2000/svg">
<path d="M22 2V22C22 22.5304 21.7893 23.0391 21.4142 23.4142C21.0391 23.7893 20.5304 24 20 24H15C14.4696 24 13.9609 23.7893 13.5858 23.4142C13.2107 23.0391 13 22.5304 13 22V2C13 1.4696 13.2107 0.9609 13.5858 0.5858C13.9609 0.2107 14.4696 0 15 0H20C20.5304 0 21.0391 0.2107 21.4142 0.5858C21.7893 0.9609 22 1.4696 22 2ZM7 0H2C1.4696 0 0.9609 0.2107 0.5858 0.5858C0.2107 0.9609 0 1.4696 0 2V22C0 22.5304 0.2107 23.0391 0.5858 23.4142C0.9609 23.7893 1.4696 24 2 24H7C7.5304 24 8.0391 23.7893 8.4142 23.4142C8.7893 23.0391 9 22.5304 9 22V2C9 1.4696 8.7893 0.9609 8.4142 0.5858C8.0391 0.2107 7.5304 0 7 0Z" fill="#CBFB62"/>
</svg>
