<?xml version="1.0" encoding="UTF-8"?>
<svg width="24px" height="24px" viewBox="0 0 24 24" version="1.1" xmlns="http://www.w3.org/2000/svg" xmlns:xlink="http://www.w3.org/1999/xlink">
    <title>pause-circle</title>
    <g id="as-per-new-designs" stroke="none" stroke-width="1" fill="none" fill-rule="evenodd">
        <path d="M12,0 C5.372583,0 0,5.372583 0,12 C0,18.627417 5.372583,24 12,24 C18.627417,24 24,18.627417 24,12 C24,5.372583 18.627417,0 12,0 Z M11,15.99927 C11,16.2646842 10.8945838,16.5192315 10.7069076,16.7069076 C10.5192315,16.8945838 10.2646842,17 9.99927,17 L9.00073,17 C8.73531584,17 8.48076854,16.8945838 8.29309238,16.7069076 C8.10541623,16.5192315 8,16.2646842 8,15.99927 L8,8.00073 C8,7.73531584 8.10541623,7.48076854 8.29309238,7.29309238 C8.48076854,7.10541623 8.73531584,7 9.00073,7 L9.99927,7 C10.2646842,7 10.5192315,7.10541623 10.7069076,7.29309238 C10.8945838,7.48076854 11,7.73531584 11,8.00073 L11,15.99927 Z M16,15.99927 C16,16.2646842 15.8945838,16.5192315 15.7069076,16.7069076 C15.5192315,16.8945838 15.2646842,17 14.99927,17 L14.00073,17 C13.7353158,17 13.4807685,16.8945838 13.2930924,16.7069076 C13.1054162,16.5192315 13,16.2646842 13,15.99927 L13,8.00073 C13,7.73531584 13.1054162,7.48076854 13.2930924,7.29309238 C13.4807685,7.10541623 13.7353158,7 14.00073,7 L14.99927,7 C15.2646842,7 15.5192315,7.10541623 15.7069076,7.29309238 C15.8945838,7.48076854 16,7.73531584 16,8.00073 L16,15.99927 Z" id="pause-circle" fill="#FFFFFF" fill-rule="nonzero"></path>
    </g>
</svg>