<svg width="206" height="55" viewBox="0 0 206 55" fill="none" xmlns="http://www.w3.org/2000/svg">
<path d="M103.622 27.1239C103.622 27.2173 103.603 27.4039 103.566 27.6839C103.529 27.9453 103.454 28.1786 103.342 28.3839C103.379 28.4213 103.389 28.4773 103.37 28.5519C103.351 28.6266 103.342 28.6826 103.342 28.7199C103.286 28.8133 103.221 28.9159 103.146 29.0279C103.09 29.1399 103.034 29.2426 102.978 29.3359C102.903 29.4293 102.847 29.5506 102.81 29.6999C102.791 29.8493 102.735 29.9893 102.642 30.1199C102.138 30.7733 101.615 31.3426 101.074 31.8279C100.533 32.2946 99.9728 32.7239 99.3941 33.1159C98.8341 33.5079 98.2554 33.8719 97.6581 34.2079C97.0608 34.5253 96.4634 34.8426 95.8661 35.1599C95.6421 35.2719 95.3434 35.3653 94.9701 35.4399C94.6154 35.4959 94.2608 35.5519 93.9061 35.6079C93.7194 35.9999 93.6168 36.4106 93.5981 36.8399C93.5981 37.2506 93.5981 37.6519 93.5981 38.0439C93.5981 38.1373 93.5888 38.3053 93.5701 38.5479C93.5514 38.7906 93.5794 38.9866 93.6541 39.1359C93.7101 39.3786 93.7848 39.6213 93.8781 39.8639C93.9714 40.1253 94.0181 40.3026 94.0181 40.3959C94.0181 40.6386 93.9248 40.7786 93.7381 40.8159C93.5701 40.8719 93.4581 40.8999 93.4021 40.8999C93.2901 40.8999 93.1594 40.8719 93.0101 40.8159C92.8608 40.7786 92.7021 40.7133 92.5341 40.6199C92.3848 40.5453 92.2448 40.4613 92.1141 40.3679C91.9834 40.2933 91.8808 40.2093 91.8061 40.1159C91.7128 40.0226 91.6288 39.8733 91.5541 39.6679C91.4981 39.4626 91.4421 39.2386 91.3861 38.9959C91.3488 38.7346 91.3114 38.4826 91.2741 38.2399C91.2554 37.9973 91.2461 37.7919 91.2461 37.6239C91.2461 36.9146 91.2928 36.1026 91.3861 35.1879C91.4794 34.2546 91.6008 33.2839 91.7501 32.2759C91.9181 31.2679 92.0954 30.2599 92.2821 29.2519C92.4874 28.2253 92.6928 27.2639 92.8981 26.3679C93.1221 25.4719 93.3368 24.6786 93.5421 23.9879C93.7474 23.2786 93.9341 22.7279 94.1021 22.3359C93.9901 22.1866 93.8688 22.1026 93.7381 22.0839C93.6074 22.0653 93.4861 22.0373 93.3741 21.9999C93.2621 21.8319 93.1408 21.6453 93.0101 21.4399C92.8794 21.2159 92.7581 21.0013 92.6461 20.7959C92.5341 20.5906 92.4408 20.4133 92.3661 20.2639C92.2914 20.1146 92.2541 20.0119 92.2541 19.9559C92.2541 19.7879 92.3381 19.6199 92.5061 19.4519C92.6741 19.2839 92.8514 19.1439 93.0381 19.0319C93.2434 18.9013 93.4301 18.7986 93.5981 18.7239C93.7848 18.6493 93.8874 18.6119 93.9061 18.6119C93.9994 18.5933 94.1394 18.5839 94.3261 18.5839C94.5128 18.5839 94.6621 18.5839 94.7741 18.5839C95.4274 18.5839 96.1274 18.7426 96.8741 19.0599C97.6394 19.3773 98.3768 19.7879 99.0861 20.2919C99.7954 20.7959 100.449 21.3559 101.046 21.9719C101.643 22.5693 102.119 23.1573 102.474 23.7359C102.549 23.8666 102.661 24.0066 102.81 24.1559C102.959 24.3053 103.081 24.4733 103.174 24.6599C103.249 24.8466 103.314 25.0706 103.37 25.3319C103.426 25.5933 103.473 25.8546 103.51 26.1159C103.547 26.3586 103.575 26.5733 103.594 26.7599C103.613 26.9466 103.622 27.0679 103.622 27.1239ZM101.158 25.9479C101.158 25.5559 101.055 25.1733 100.85 24.7999C100.645 24.4079 100.383 24.0346 100.066 23.6799C99.7488 23.3066 99.3848 22.9613 98.9741 22.6439C98.5634 22.3079 98.1621 21.9999 97.7701 21.7199H97.5181C97.2008 22.4853 96.8648 23.2226 96.5101 23.9319C96.1741 24.6413 95.8941 25.3693 95.6701 26.1159C95.5208 26.5266 95.3994 26.9559 95.3061 27.4039C95.2314 27.8519 95.1474 28.2626 95.0541 28.6359C94.9794 28.9159 94.8861 29.2706 94.7741 29.6999C94.6808 30.1106 94.5874 30.5213 94.4941 30.9319C94.4194 31.3426 94.3448 31.7066 94.2701 32.0239C94.2141 32.3226 94.1861 32.4999 94.1861 32.5559C94.1861 32.7426 94.2328 32.8826 94.3261 32.9759C94.9048 32.6773 95.5861 32.2946 96.3701 31.8279C97.1728 31.3613 97.9194 30.8293 98.6101 30.2319C99.3194 29.6346 99.9168 28.9813 100.402 28.2719C100.906 27.5439 101.158 26.7693 101.158 25.9479ZM116.112 36.9239C116.112 36.9613 116.075 37.0359 116 37.1479C115.925 37.2413 115.841 37.3439 115.748 37.4559C115.673 37.5493 115.571 37.6706 115.44 37.8199C115.309 37.9506 115.197 38.0626 115.104 38.1559C114.917 38.3426 114.684 38.5386 114.404 38.7439C114.124 38.9306 113.825 39.1079 113.508 39.2759C113.209 39.4439 112.883 39.5839 112.528 39.6959C112.192 39.8079 111.856 39.8639 111.52 39.8639C111.464 39.8639 111.371 39.8546 111.24 39.8359C111.109 39.8359 110.96 39.8359 110.792 39.8359C110.643 39.8173 110.484 39.7893 110.316 39.7519C110.167 39.7146 110.045 39.6679 109.952 39.6119C109.709 39.4253 109.513 39.2386 109.364 39.0519C109.233 38.8653 109.121 38.6693 109.028 38.4639C108.953 38.2586 108.897 38.0439 108.86 37.8199C108.841 37.5773 108.795 37.3066 108.72 37.0079C108.533 37.1946 108.356 37.4559 108.188 37.7919C108.02 38.1093 107.824 38.3986 107.6 38.6599C107.451 38.8839 107.264 39.0893 107.04 39.2759C106.835 39.4626 106.648 39.6306 106.48 39.7799C106.368 39.8359 106.228 39.8919 106.06 39.9479C105.911 40.0039 105.78 40.0319 105.668 40.0319H104.688C104.576 40.0319 104.352 39.9479 104.016 39.7799C103.699 39.6119 103.465 39.4439 103.316 39.2759C103.185 39.0893 103.073 38.8279 102.98 38.4919C102.905 38.1559 102.868 37.9319 102.868 37.8199C102.868 37.4093 102.952 36.8959 103.12 36.2799C103.307 35.6453 103.549 34.9826 103.848 34.2919C104.165 33.5826 104.501 32.8546 104.856 32.1079C105.211 31.3613 105.575 30.6706 105.948 30.0359C106.321 29.4013 106.667 28.8506 106.984 28.3839C107.32 27.9173 107.581 27.5999 107.768 27.4319C107.861 27.3759 107.983 27.3293 108.132 27.2919C108.281 27.2546 108.412 27.2359 108.524 27.2359C108.729 27.2359 108.86 27.2453 108.916 27.2639C109.009 27.3386 109.131 27.4319 109.28 27.5439C109.448 27.6373 109.607 27.7306 109.756 27.8239C109.924 27.9173 110.064 28.0013 110.176 28.0759C110.307 28.1506 110.391 28.1879 110.428 28.1879C110.54 28.1879 110.596 28.1693 110.596 28.1319C110.596 28.0946 110.652 28.0759 110.764 28.0759C110.932 28.0759 111.109 28.1226 111.296 28.2159C111.501 28.3093 111.688 28.4306 111.856 28.5799C112.024 28.7293 112.164 28.9066 112.276 29.1119C112.388 29.2986 112.444 29.5039 112.444 29.7279C112.444 29.8586 112.407 30.0453 112.332 30.2879C112.276 30.5306 112.201 30.7826 112.108 31.0439C112.015 31.3053 111.931 31.5479 111.856 31.7719C111.8 31.9773 111.763 32.1079 111.744 32.1639C111.707 32.3319 111.651 32.5933 111.576 32.9479C111.501 33.2839 111.427 33.6573 111.352 34.0679C111.296 34.4786 111.24 34.8893 111.184 35.2999C111.128 35.7106 111.1 36.0373 111.1 36.2799C111.1 36.4479 111.091 36.6253 111.072 36.8119C111.072 36.9986 111.091 37.1759 111.128 37.3439C111.165 37.5119 111.24 37.6799 111.352 37.8479C111.483 37.9973 111.669 38.0813 111.912 38.0999C112.117 38.0999 112.416 38.0719 112.808 38.0159C113.2 37.9413 113.583 37.8199 113.956 37.6519C114.348 37.4839 114.703 37.3159 115.02 37.1479C115.337 36.9799 115.711 36.7466 116.14 36.4479C116.14 36.5039 116.14 36.5599 116.14 36.6159C116.14 36.6719 116.131 36.7746 116.112 36.9239ZM109.756 29.7279V29.4479C109.7 29.4479 109.653 29.4386 109.616 29.4199L109.56 29.3639C109.112 29.7373 108.701 30.2133 108.328 30.7919C107.955 31.3519 107.609 31.9773 107.292 32.6679C106.993 33.3399 106.713 34.0399 106.452 34.7679C106.209 35.4959 105.995 36.1866 105.808 36.8399C105.752 36.8959 105.715 36.9426 105.696 36.9799C105.677 37.0173 105.668 37.0919 105.668 37.2039V37.5959C106.135 37.2599 106.545 36.8586 106.9 36.3919C107.255 35.9066 107.563 35.4026 107.824 34.8799C108.104 34.3386 108.356 33.7879 108.58 33.2279C108.804 32.6679 109.019 32.1266 109.224 31.6039C109.261 31.4733 109.317 31.3146 109.392 31.1279C109.467 30.9226 109.532 30.7266 109.588 30.5399C109.644 30.3533 109.681 30.1853 109.7 30.0359C109.737 29.8679 109.756 29.7653 109.756 29.7279ZM126.376 28.5239C126.376 28.5613 126.339 28.7479 126.264 29.0839C126.208 29.4013 126.143 29.7746 126.068 30.2039C125.994 30.6333 125.91 31.0626 125.816 31.4919C125.742 31.9026 125.695 32.2199 125.676 32.4439C125.639 32.6866 125.611 32.9759 125.592 33.3119C125.592 33.6479 125.574 33.9466 125.536 34.2079C125.48 34.8053 125.434 35.3093 125.396 35.7199C125.378 36.1306 125.359 36.4853 125.34 36.7839C125.322 37.0639 125.303 37.3066 125.284 37.5119C125.284 37.7173 125.275 37.9133 125.256 38.0999C125.163 39.0146 125.032 39.9853 124.864 41.0119C124.696 42.0386 124.491 43.0466 124.248 44.0359C124.006 45.0253 123.726 45.9586 123.408 46.8359C123.091 47.7133 122.755 48.4599 122.4 49.0759C122.344 49.1693 122.316 49.2626 122.316 49.3559C122.316 49.4493 122.298 49.5239 122.26 49.5799C121.906 50.1213 121.523 50.5226 121.112 50.7839C120.72 51.0453 120.375 51.2226 120.076 51.3159C119.983 51.3346 119.89 51.3719 119.796 51.4279C119.722 51.5026 119.638 51.5399 119.544 51.5399C119.488 51.5399 119.395 51.5306 119.264 51.5119C119.152 51.5119 119.022 51.5026 118.872 51.4839C118.742 51.4839 118.62 51.4746 118.508 51.4559C118.396 51.4559 118.312 51.4559 118.256 51.4559C118.2 51.4559 118.116 51.4373 118.004 51.3999C117.892 51.3626 117.762 51.3159 117.612 51.2599C117.482 51.2226 117.342 51.1666 117.192 51.0919C117.062 51.0359 116.95 50.9799 116.856 50.9239C116.576 50.7559 116.315 50.5226 116.072 50.2239C115.848 49.9439 115.652 49.6359 115.484 49.2999C115.316 48.9639 115.186 48.6373 115.092 48.3199C114.999 48.0026 114.952 47.7319 114.952 47.5079C114.952 47.4146 114.952 47.2186 114.952 46.9199C114.934 46.6213 114.952 46.3879 115.008 46.2199C115.027 46.1639 115.064 46.0706 115.12 45.9399C115.176 45.8093 115.26 45.6879 115.372 45.5759C115.522 45.6506 115.634 45.7533 115.708 45.8839C115.783 46.0146 115.895 46.1266 116.044 46.2199C116.063 46.2759 116.138 46.5093 116.268 46.9199C116.399 47.3306 116.567 47.7693 116.772 48.2359C116.996 48.7026 117.239 49.1226 117.5 49.4959C117.78 49.8879 118.079 50.0839 118.396 50.0839C118.602 50.0839 118.826 49.9346 119.068 49.6359C119.33 49.3559 119.572 49.0386 119.796 48.6839C120.02 48.3293 120.207 47.9933 120.356 47.6759C120.524 47.3773 120.618 47.2093 120.636 47.1719C120.711 47.0413 120.786 46.8919 120.86 46.7239C120.935 46.5559 121.01 46.3693 121.084 46.1639C121.215 45.7719 121.364 45.3239 121.532 44.8199C121.719 44.3346 121.868 43.8026 121.98 43.2239C122.092 42.7759 122.204 42.1506 122.316 41.3479C122.428 40.5639 122.522 39.7893 122.596 39.0239C122.69 38.2399 122.764 37.5586 122.82 36.9799C122.876 36.4013 122.904 36.0839 122.904 36.0279C122.904 35.9346 122.886 35.8039 122.848 35.6359C122.83 35.4679 122.802 35.3093 122.764 35.1599C122.223 35.7759 121.691 36.4293 121.168 37.1199C120.646 37.8106 120.114 38.4453 119.572 39.0239C119.199 39.4346 118.872 39.7333 118.592 39.9199C118.312 40.1253 118.032 40.2279 117.752 40.2279C117.715 40.2279 117.612 40.2093 117.444 40.1719C117.295 40.1346 117.118 40.0879 116.912 40.0319C116.726 39.9759 116.52 39.9106 116.296 39.8359C116.091 39.7799 115.923 39.7146 115.792 39.6399C115.326 39.3973 115.055 39.0986 114.98 38.7439C114.924 38.3893 114.896 38.0253 114.896 37.6519C114.896 37.2599 114.962 36.7746 115.092 36.1959C115.223 35.6173 115.391 35.0106 115.596 34.3759C115.82 33.7226 116.054 33.0693 116.296 32.4159C116.539 31.7439 116.772 31.1279 116.996 30.5679C117.239 30.0079 117.444 29.5319 117.612 29.1399C117.799 28.7293 117.93 28.4493 118.004 28.2999C118.004 28.2626 118.051 28.2253 118.144 28.1879C118.238 28.1506 118.34 28.1133 118.452 28.0759C118.564 28.0386 118.667 28.0106 118.76 27.9919C118.854 27.9546 118.919 27.9359 118.956 27.9359C119.068 27.9359 119.152 27.9639 119.208 28.0199C119.283 28.0573 119.358 28.0946 119.432 28.1319C119.507 28.1693 119.6 28.2346 119.712 28.3279C119.824 28.4213 119.936 28.5239 120.048 28.6359C120.16 28.7479 120.254 28.8693 120.328 28.9999C120.422 29.1119 120.468 29.2146 120.468 29.3079C120.468 29.3639 120.394 29.5506 120.244 29.8679C120.114 30.1666 119.946 30.5399 119.74 30.9879C119.554 31.4173 119.348 31.8746 119.124 32.3599C118.919 32.8266 118.732 33.2559 118.564 33.6479C118.527 33.7413 118.49 33.8626 118.452 34.0119C118.415 34.1426 118.378 34.2639 118.34 34.3759C118.098 35.0106 117.855 35.6359 117.612 36.2519C117.37 36.8679 117.276 37.4093 117.332 37.8759C118.508 36.6999 119.498 35.5333 120.3 34.3759C121.122 33.1999 121.868 32.0146 122.54 30.8199C122.596 30.7079 122.662 30.5586 122.736 30.3719C122.811 30.1666 122.886 29.9519 122.96 29.7279C123.054 29.4853 123.138 29.2613 123.212 29.0559C123.287 28.8319 123.352 28.6546 123.408 28.5239C123.464 28.3746 123.52 28.2066 123.576 28.0199C123.651 27.8146 123.698 27.6279 123.716 27.4599C123.716 27.4413 123.754 27.4039 123.828 27.3479C123.922 27.2733 124.024 27.1986 124.136 27.1239C124.248 27.0493 124.36 26.9933 124.472 26.9559C124.584 26.8999 124.668 26.8719 124.724 26.8719C124.78 26.8719 124.855 26.8999 124.948 26.9559C125.06 27.0119 125.182 27.0773 125.312 27.1519C125.443 27.2266 125.564 27.3199 125.676 27.4319C125.807 27.5253 125.919 27.6093 126.012 27.6839C126.087 27.7773 126.162 27.9173 126.236 28.1039C126.33 28.2719 126.376 28.4119 126.376 28.5239ZM140.115 25.1919C140.115 25.3786 140.068 25.5373 139.975 25.6679C139.882 25.7986 139.76 25.9013 139.611 25.9759C139.462 26.0506 139.303 26.0973 139.135 26.1159C138.986 26.1346 138.855 26.1439 138.743 26.1439C138.612 26.1439 138.454 26.1066 138.267 26.0319C138.08 25.9573 137.912 25.8546 137.763 25.7239C137.614 25.5933 137.483 25.4533 137.371 25.3039C137.278 25.1359 137.231 24.9679 137.231 24.7999C137.231 24.3706 137.315 24.0719 137.483 23.9039C137.651 23.7359 137.968 23.6519 138.435 23.6519C138.547 23.6519 138.631 23.6799 138.687 23.7359C138.743 23.7733 138.79 23.8013 138.827 23.8199C139.424 23.8946 139.788 24.0813 139.919 24.3799C140.05 24.6599 140.115 24.9306 140.115 25.1919ZM141.487 36.4479C141.487 36.5413 141.375 36.7466 141.151 37.0639C140.927 37.3813 140.768 37.6613 140.675 37.9039C140.488 38.2213 140.246 38.5199 139.947 38.7999C139.667 39.0613 139.359 39.2946 139.023 39.4999C138.706 39.6866 138.37 39.8359 138.015 39.9479C137.66 40.0599 137.343 40.1159 137.063 40.1159C136.223 40.1159 135.551 39.8453 135.047 39.3039C134.543 38.7626 134.226 38.0999 134.095 37.3159C134.058 37.1479 134.048 36.9426 134.067 36.6999C134.086 36.4573 134.095 36.2799 134.095 36.1679C134.095 35.0106 134.188 34.0213 134.375 33.1999C134.58 32.3599 134.758 31.5199 134.907 30.6799C134.944 30.5119 135.01 30.3159 135.103 30.0919C135.196 29.8493 135.28 29.6159 135.355 29.3919C135.392 29.2053 135.476 28.9533 135.607 28.6359C135.756 28.3186 135.952 28.0666 136.195 27.8799C136.27 27.8426 136.372 27.8053 136.503 27.7679C136.652 27.7119 136.783 27.6839 136.895 27.6839C137.175 27.6839 137.483 27.8146 137.819 28.0759C138.174 28.3373 138.351 28.6079 138.351 28.8879C138.351 28.9439 138.248 29.2053 138.043 29.6719C137.856 30.1199 137.651 30.6986 137.427 31.4079C137.203 32.1173 136.988 32.9386 136.783 33.8719C136.596 34.7866 136.503 35.7293 136.503 36.6999C136.503 36.7933 136.503 36.9426 136.503 37.1479C136.522 37.3533 136.559 37.5679 136.615 37.7919C136.671 37.9973 136.746 38.1839 136.839 38.3519C136.932 38.5013 137.082 38.5759 137.287 38.5759C137.548 38.5759 137.875 38.4546 138.267 38.2119C138.659 37.9506 139.051 37.6613 139.443 37.3439C139.835 37.0079 140.19 36.6906 140.507 36.3919C140.824 36.0933 141.058 35.9066 141.207 35.8319C141.394 35.9813 141.487 36.1866 141.487 36.4479ZM155.187 35.1599C155.075 35.3839 154.963 35.6546 154.851 35.9719C154.758 36.2706 154.636 36.5413 154.487 36.7839C154.394 36.8959 154.291 37.0359 154.179 37.2039C154.086 37.3533 153.964 37.5306 153.815 37.7359C153.759 37.8106 153.694 37.8946 153.619 37.9879C153.563 38.0813 153.516 38.1559 153.479 38.2119C153.292 38.4733 153.096 38.7066 152.891 38.9119C152.704 39.0986 152.508 39.2853 152.303 39.4719C152.228 39.5093 152.116 39.5653 151.967 39.6399C151.836 39.6959 151.687 39.7519 151.519 39.8079C151.351 39.8639 151.192 39.9106 151.043 39.9479C150.912 39.9853 150.828 40.0039 150.791 40.0039C150.679 40.0039 150.604 40.0226 150.567 40.0599C150.53 40.0973 150.455 40.1159 150.343 40.1159C149.839 40.1159 149.419 39.9759 149.083 39.6959C148.747 39.4159 148.476 39.0613 148.271 38.6319C148.066 38.1839 147.926 37.6986 147.851 37.1759C147.776 36.6346 147.72 36.1213 147.683 35.6359C147.646 35.1506 147.618 34.7119 147.599 34.3199C147.599 33.9279 147.59 33.6386 147.571 33.4519C147.123 33.8999 146.778 34.4226 146.535 35.0199C146.311 35.6173 146.068 36.2053 145.807 36.7839C145.732 37.0079 145.592 37.2973 145.387 37.6519C145.182 38.0066 144.986 38.3053 144.799 38.5479C144.519 38.9399 144.276 39.1919 144.071 39.3039C143.866 39.4159 143.604 39.5186 143.287 39.6119C143.212 39.6493 143.11 39.7146 142.979 39.8079C142.848 39.9013 142.727 39.9479 142.615 39.9479C142.503 39.9479 142.428 39.9293 142.391 39.8919C142.354 39.8546 142.307 39.8173 142.251 39.7799C141.915 39.7799 141.635 39.6773 141.411 39.4719C141.206 39.2479 141.056 38.9866 140.963 38.6879C140.87 38.3706 140.804 38.0533 140.767 37.7359C140.73 37.4186 140.711 37.1666 140.711 36.9799C140.711 36.6253 140.758 36.1493 140.851 35.5519C140.944 34.9359 141.056 34.2733 141.187 33.5639C141.318 32.8546 141.467 32.1359 141.635 31.4079C141.822 30.6613 141.999 29.9799 142.167 29.3639C142.354 28.7293 142.522 28.1879 142.671 27.7399C142.839 27.2733 142.979 26.9559 143.091 26.7879C143.166 26.7133 143.278 26.6573 143.427 26.6199C143.595 26.5639 143.735 26.5359 143.847 26.5359C143.959 26.5359 144.118 26.5919 144.323 26.7039C144.528 26.7973 144.724 26.8626 144.911 26.8999C145.023 26.9373 145.154 27.0866 145.303 27.3479C145.452 27.6093 145.527 27.7959 145.527 27.9079C145.527 27.9453 145.48 28.1226 145.387 28.4399C145.294 28.7386 145.182 29.0933 145.051 29.5039C144.939 29.9146 144.808 30.3439 144.659 30.7919C144.51 31.2399 144.388 31.6319 144.295 31.9679C144.183 32.3786 144.062 32.8639 143.931 33.4239C143.819 33.9653 143.698 34.4879 143.567 34.9919L143.623 35.5239C143.735 35.3559 143.912 35.0479 144.155 34.5999C144.398 34.1333 144.668 33.6106 144.967 33.0319C145.266 32.4533 145.583 31.8653 145.919 31.2679C146.255 30.6706 146.591 30.1199 146.927 29.6159C147.282 29.1119 147.618 28.7013 147.935 28.3839C148.271 28.0479 148.57 27.8799 148.831 27.8799C148.887 27.8799 148.99 27.9173 149.139 27.9919C149.307 28.0666 149.484 28.1599 149.671 28.2719C149.858 28.3653 150.026 28.4679 150.175 28.5799C150.343 28.6919 150.436 28.7853 150.455 28.8599C150.474 28.9159 150.492 28.9813 150.511 29.0559C150.548 29.1119 150.567 29.1959 150.567 29.3079C150.567 29.3639 150.539 29.5133 150.483 29.7559C150.446 29.9799 150.399 30.2506 150.343 30.5679C150.287 30.8853 150.231 31.2026 150.175 31.5199C150.138 31.8373 150.11 32.0986 150.091 32.3039C150.072 32.5279 150.054 32.7893 150.035 33.0879C150.016 33.3679 149.998 33.6479 149.979 33.9279C149.979 34.1893 149.979 34.4319 149.979 34.6559C149.979 34.8613 149.979 34.9826 149.979 35.0199C149.979 35.1319 149.979 35.4119 149.979 35.8599C149.998 36.3079 150.035 36.6626 150.091 36.9239C150.128 37.0546 150.166 37.1853 150.203 37.3159C150.24 37.4466 150.278 37.5959 150.315 37.7639C150.408 38.0813 150.511 38.2866 150.623 38.3799C150.735 38.4733 150.828 38.5199 150.903 38.5199C151.239 38.5199 151.612 38.3519 152.023 38.0159C152.452 37.6799 152.854 37.3159 153.227 36.9239C153.619 36.5319 153.964 36.1493 154.263 35.7759C154.58 35.4026 154.804 35.1506 154.935 35.0199C155.047 35.0199 155.103 35.0386 155.103 35.0759C155.122 35.0946 155.15 35.1226 155.187 35.1599ZM176.109 21.6919C176.109 22.0839 176.044 22.4386 175.913 22.7559C175.782 23.0546 175.484 23.2039 175.017 23.2039C174.924 23.2039 174.774 23.1573 174.569 23.0639C174.364 22.9706 174.186 22.9146 174.037 22.8959C173.832 22.8773 173.608 22.8493 173.365 22.8119C173.122 22.7559 172.87 22.7279 172.609 22.7279C172.18 22.7279 171.676 22.7279 171.097 22.7279C170.537 22.7279 169.986 22.7279 169.445 22.7279C168.922 22.7093 168.465 22.6999 168.073 22.6999C167.7 22.6999 167.485 22.6999 167.429 22.6999C167.242 22.6999 167.018 22.8119 166.757 23.0359C166.514 23.2413 166.262 23.4839 166.001 23.7639C165.758 24.0439 165.534 24.3239 165.329 24.6039C165.124 24.8839 164.984 25.0893 164.909 25.2199C164.648 25.6493 164.405 26.1159 164.181 26.6199C163.957 27.1239 163.742 27.6279 163.537 28.1319V28.3839C163.574 28.4213 163.593 28.4586 163.593 28.4959C163.593 28.5146 163.649 28.5239 163.761 28.5239C163.798 28.5239 163.92 28.5146 164.125 28.4959C164.349 28.4586 164.601 28.4213 164.881 28.3839C165.161 28.3279 165.45 28.2813 165.749 28.2439C166.066 28.1879 166.356 28.1413 166.617 28.1039C167.102 28.0666 167.644 28.0013 168.241 27.9079C168.857 27.7959 169.408 27.6839 169.893 27.5719C170.024 27.5346 170.182 27.4786 170.369 27.4039C170.556 27.3293 170.733 27.2546 170.901 27.1799C171.088 27.1053 171.246 27.0399 171.377 26.9839C171.526 26.9279 171.62 26.8999 171.657 26.8999C171.75 26.8999 171.853 26.9373 171.965 27.0119C172.096 27.0866 172.208 27.1706 172.301 27.2639C172.338 27.6186 172.32 28.0106 172.245 28.4399C172.17 28.8506 172.012 29.1773 171.769 29.4199C171.62 29.5319 171.368 29.6719 171.013 29.8399C170.677 30.0079 170.388 30.1106 170.145 30.1479C169.828 30.2413 169.454 30.3439 169.025 30.4559C168.614 30.5679 168.213 30.6706 167.821 30.7639C167.429 30.8386 167.084 30.9039 166.785 30.9599C166.505 31.0159 166.337 31.0439 166.281 31.0439C166.188 31.0439 166.104 31.0533 166.029 31.0719C165.973 31.0719 165.889 31.0813 165.777 31.0999C165.516 31.1559 165.226 31.1839 164.909 31.1839C164.61 31.1653 164.312 31.1746 164.013 31.2119C163.733 31.2306 163.462 31.2866 163.201 31.3799C162.94 31.4733 162.725 31.6413 162.557 31.8839C162.482 31.9773 162.426 32.0986 162.389 32.2479C162.37 32.3786 162.352 32.5186 162.333 32.6679C162.333 32.8173 162.333 32.9573 162.333 33.0879C162.352 33.1999 162.361 33.2839 162.361 33.3399C162.361 33.4333 162.361 33.6759 162.361 34.0679C162.38 34.4599 162.408 34.8053 162.445 35.1039C162.482 35.2159 162.548 35.3373 162.641 35.4679C162.753 35.5986 162.846 35.7293 162.921 35.8599C162.94 35.9159 162.949 35.9999 162.949 36.1119C163.322 36.4853 163.724 36.8119 164.153 37.0919C164.582 37.3719 165.012 37.5119 165.441 37.5119C165.534 37.5119 165.73 37.4839 166.029 37.4279C166.346 37.3533 166.626 37.2693 166.869 37.1759C167.056 37.1013 167.289 36.9519 167.569 36.7279C167.849 36.5039 168.138 36.2426 168.437 35.9439C168.754 35.6453 169.062 35.3466 169.361 35.0479C169.66 34.7306 169.921 34.4413 170.145 34.1799C170.276 34.0679 170.453 33.9466 170.677 33.8159C170.901 33.6666 171.097 33.5266 171.265 33.3959C171.302 33.4333 171.368 33.5266 171.461 33.6759C171.573 33.8066 171.629 33.9186 171.629 34.0119C171.629 34.1239 171.592 34.2453 171.517 34.3759C171.461 34.5066 171.424 34.6466 171.405 34.7959C171.368 34.9079 171.358 35.0573 171.377 35.2439C171.396 35.4119 171.358 35.5799 171.265 35.7479C170.948 36.3453 170.602 36.9053 170.229 37.4279C169.856 37.9506 169.408 38.4546 168.885 38.9399C168.736 39.0893 168.549 39.2293 168.325 39.3599C168.101 39.4906 167.868 39.6026 167.625 39.6959C167.382 39.7893 167.093 39.8546 166.757 39.8919C166.421 39.9479 166.206 39.9759 166.113 39.9759C166.057 39.9759 165.973 39.9666 165.861 39.9479C165.749 39.9293 165.628 39.9106 165.497 39.8919C165.366 39.8733 165.236 39.8546 165.105 39.8359C164.993 39.8173 164.909 39.8079 164.853 39.8079C164.816 39.8079 164.713 39.7706 164.545 39.6959C164.377 39.6213 164.181 39.5279 163.957 39.4159C163.752 39.3039 163.537 39.1826 163.313 39.0519C163.108 38.9026 162.93 38.7719 162.781 38.6599C162.688 38.5853 162.585 38.4733 162.473 38.3239C162.38 38.1559 162.286 38.0253 162.193 37.9319C161.652 37.2599 161.241 36.6066 160.961 35.9719C160.7 35.3373 160.522 34.7119 160.429 34.0959C160.336 33.4613 160.298 32.8266 160.317 32.1919C160.336 31.5573 160.364 30.9039 160.401 30.2319C160.401 30.1386 160.364 29.9893 160.289 29.7839C160.214 29.5786 160.177 29.4199 160.177 29.3079C160.177 29.1399 160.205 29.0279 160.261 28.9719C160.298 28.8973 160.345 28.8413 160.401 28.8039C160.476 28.7666 160.55 28.7293 160.625 28.6919C160.7 28.6546 160.765 28.5706 160.821 28.4399C160.914 28.2346 161.008 27.9826 161.101 27.6839C161.194 27.3853 161.297 27.0679 161.409 26.7319C161.521 26.3773 161.633 26.0319 161.745 25.6959C161.876 25.3413 162.016 25.0053 162.165 24.6879C162.221 24.5199 162.314 24.3146 162.445 24.0719C162.576 23.8106 162.697 23.5679 162.809 23.3439C162.94 23.1013 163.052 22.8959 163.145 22.7279C163.238 22.5413 163.285 22.4199 163.285 22.3639C163.285 22.3079 163.248 22.1866 163.173 21.9999C163.098 21.8133 163.014 21.6173 162.921 21.4119C162.846 21.1879 162.772 20.9826 162.697 20.7959C162.641 20.5906 162.613 20.4599 162.613 20.4039C162.613 20.3479 162.641 20.2919 162.697 20.2359C162.772 20.1613 162.846 20.0959 162.921 20.0399C163.014 19.9839 163.098 19.9466 163.173 19.9279C163.266 19.8906 163.322 19.8719 163.341 19.8719C163.994 19.8533 164.76 19.8439 165.637 19.8439C166.514 19.8439 167.354 19.8439 168.157 19.8439C168.96 19.8439 169.65 19.8439 170.229 19.8439C170.808 19.8439 171.125 19.8439 171.181 19.8439C171.237 19.8439 171.321 19.8533 171.433 19.8719C171.564 19.8906 171.694 19.9093 171.825 19.9279C171.974 19.9466 172.105 19.9653 172.217 19.9839C172.348 20.0026 172.441 20.0119 172.497 20.0119C172.553 20.0119 172.702 20.0026 172.945 19.9839C173.206 19.9466 173.477 19.9093 173.757 19.8719C174.037 19.8346 174.289 19.8066 174.513 19.7879C174.756 19.7506 174.905 19.7319 174.961 19.7319C175.204 19.7319 175.4 19.8159 175.549 19.9839C175.717 20.1333 175.838 20.3199 175.913 20.5439C175.988 20.7493 176.034 20.9639 176.053 21.1879C176.09 21.4119 176.109 21.5799 176.109 21.6919ZM192.076 20.9919C192.076 21.0293 192.048 21.1879 191.992 21.4679C191.955 21.7479 191.908 22.0839 191.852 22.4759C191.796 22.8493 191.731 23.2506 191.656 23.6799C191.582 24.0906 191.516 24.4546 191.46 24.7719C191.367 25.3506 191.264 26.0133 191.152 26.7599C191.04 27.4879 190.938 28.2253 190.844 28.9719C190.77 29.7186 190.695 30.4279 190.62 31.0999C190.564 31.7533 190.527 32.2853 190.508 32.6959C190.508 32.8079 190.499 32.9573 190.48 33.1439C190.462 33.3306 190.443 33.5173 190.424 33.7039C190.406 33.8719 190.387 34.0306 190.368 34.1799C190.35 34.3106 190.34 34.3946 190.34 34.4319C190.34 34.4693 190.34 34.6186 190.34 34.8799C190.359 35.1413 190.368 35.4399 190.368 35.7759C190.387 36.1119 190.406 36.4573 190.424 36.8119C190.443 37.1666 190.471 37.4559 190.508 37.6799C190.527 37.8293 190.583 37.9973 190.676 38.1839C190.788 38.3706 190.844 38.5386 190.844 38.6879C190.844 39.0053 190.751 39.2853 190.564 39.5279C190.378 39.7706 190.154 39.8919 189.892 39.8919C189.687 39.8919 189.491 39.8266 189.304 39.6959C189.136 39.5653 188.978 39.4159 188.828 39.2479C188.698 39.0613 188.576 38.8653 188.464 38.6599C188.371 38.4546 188.296 38.2773 188.24 38.1279C188.091 37.7546 187.97 37.3626 187.876 36.9519C187.802 36.5226 187.755 36.1119 187.736 35.7199C187.718 35.5706 187.708 35.3839 187.708 35.1599C187.708 34.9359 187.708 34.7773 187.708 34.6839C187.708 34.6279 187.708 34.3666 187.708 33.8999C187.727 33.4333 187.736 32.8826 187.736 32.2479C187.755 31.6133 187.783 30.9693 187.82 30.3159C187.858 29.6439 187.904 29.0933 187.96 28.6639V28.0759L187.988 27.2359L187.932 26.9559C187.895 26.9933 187.83 27.1053 187.736 27.2919C187.662 27.4786 187.606 27.5906 187.568 27.6279C187.344 28.1133 187.083 28.6733 186.784 29.3079C186.504 29.9239 186.224 30.5679 185.944 31.2399C185.664 31.8933 185.384 32.5373 185.104 33.1719C184.843 33.7879 184.619 34.3293 184.432 34.7959C184.414 34.8706 184.404 34.9546 184.404 35.0479C184.423 35.1226 184.423 35.2066 184.404 35.2999C184.218 35.8039 184.012 36.3266 183.788 36.8679C183.583 37.4093 183.406 37.9319 183.256 38.4359C183.182 38.6413 183.126 38.8839 183.088 39.1639C183.07 39.4253 183.023 39.6866 182.948 39.9479C182.93 40.0039 182.864 40.0879 182.752 40.1999C182.64 40.3119 182.538 40.3679 182.444 40.3679H182.276C182.108 40.3679 181.931 40.3026 181.744 40.1719C181.558 40.0599 181.371 39.9199 181.184 39.7519C181.016 39.5839 180.858 39.4159 180.708 39.2479C180.578 39.0613 180.484 38.9026 180.428 38.7719C180.26 38.4546 180.13 38.0719 180.036 37.6239C179.962 37.1759 179.896 36.7373 179.84 36.3079C179.766 35.8599 179.728 35.3839 179.728 34.8799C179.728 34.3759 179.71 33.8999 179.672 33.4519C179.654 33.3026 179.644 33.1439 179.644 32.9759C179.644 32.7893 179.644 32.6119 179.644 32.4439C179.644 32.2759 179.644 32.0799 179.644 31.8559C179.644 31.6319 179.635 31.4266 179.616 31.2399C179.616 31.0346 179.616 30.8573 179.616 30.7079C179.616 30.5586 179.616 30.4559 179.616 30.3999V27.3759C179.616 27.2826 179.607 27.2173 179.588 27.1799C179.57 27.1239 179.579 27.0493 179.616 26.9559L179.476 26.8439C179.402 26.8439 179.308 26.8813 179.196 26.9559C179.066 27.3479 178.935 27.7679 178.804 28.2159C178.674 28.6453 178.571 29.0093 178.496 29.3079C178.459 29.3639 178.422 29.4106 178.384 29.4479C178.366 29.4853 178.338 29.5319 178.3 29.5879C178.151 30.2039 177.992 30.8666 177.824 31.5759C177.656 32.2666 177.498 32.9106 177.348 33.5079C177.143 34.5159 176.966 35.4866 176.816 36.4199C176.686 37.3533 176.602 38.3053 176.564 39.2759C176.564 39.3319 176.499 39.4159 176.368 39.5279C176.238 39.6399 176.116 39.6959 176.004 39.6959C175.892 39.6959 175.743 39.6586 175.556 39.5839C175.388 39.4906 175.211 39.3786 175.024 39.2479C174.856 39.1173 174.698 38.9959 174.548 38.8839C174.399 38.7533 174.306 38.6413 174.268 38.5479C174.175 38.3986 174.091 38.1839 174.016 37.9039C173.942 37.6239 173.904 37.4373 173.904 37.3439C173.904 37.2506 173.914 37.1293 173.932 36.9799C173.951 36.8306 173.97 36.6813 173.988 36.5319C174.063 35.8786 174.175 35.1319 174.324 34.2919C174.492 33.4519 174.679 32.6119 174.884 31.7719C175.108 30.9133 175.332 30.1013 175.556 29.3359C175.78 28.5519 175.986 27.8986 176.172 27.3759C176.415 26.7226 176.639 26.0599 176.844 25.3879C177.068 24.6973 177.395 23.9506 177.824 23.1479C177.974 22.8679 178.132 22.5506 178.3 22.1959C178.468 21.8413 178.618 21.4866 178.748 21.1319C178.786 21.0386 178.832 20.8986 178.888 20.7119C178.944 20.5066 179.047 20.3293 179.196 20.1799C179.252 20.1239 179.346 20.0959 179.476 20.0959C179.607 20.0773 179.728 20.0679 179.84 20.0679C179.934 20.0679 180.064 20.1239 180.232 20.2359C180.419 20.3293 180.596 20.4413 180.764 20.5719C180.951 20.7026 181.119 20.8426 181.268 20.9919C181.436 21.1226 181.548 21.2253 181.604 21.2999C181.716 21.5053 181.791 21.7573 181.828 22.0559C181.884 22.3919 181.931 22.7653 181.968 23.1759C182.006 23.5679 182.034 23.9786 182.052 24.4079C182.09 24.8186 182.118 25.2293 182.136 25.6399C182.155 26.0506 182.164 26.4333 182.164 26.7879C182.164 27.1799 182.164 27.6466 182.164 28.1879C182.183 28.7106 182.192 29.2146 182.192 29.6999C182.211 30.1853 182.22 30.6053 182.22 30.9599C182.22 31.3146 182.22 31.5199 182.22 31.5759V32.3319L182.36 32.4719C182.454 32.4346 182.519 32.3786 182.556 32.3039C182.612 32.2293 182.659 32.1546 182.696 32.0799C183.014 31.3146 183.387 30.3999 183.816 29.3359C184.246 28.2719 184.731 27.1519 185.272 25.9759C185.814 24.7999 186.42 23.6146 187.092 22.4199C187.783 21.2066 188.548 20.0773 189.388 19.0319C189.463 18.9573 189.575 18.9199 189.724 18.9199C189.892 18.9013 190.042 18.8919 190.172 18.8919C190.434 18.8919 190.676 18.9573 190.9 19.0879C191.143 19.2186 191.348 19.3866 191.516 19.5919C191.684 19.7973 191.815 20.0306 191.908 20.2919C192.02 20.5346 192.076 20.7679 192.076 20.9919ZM205.821 21.9999C205.821 22.0559 205.802 22.1493 205.765 22.2799C205.727 22.3919 205.681 22.5133 205.625 22.6439C205.587 22.7559 205.541 22.8586 205.485 22.9519C205.429 23.0266 205.373 23.0639 205.317 23.0639C205.261 23.0639 205.167 23.0453 205.037 23.0079C204.906 22.9706 204.766 22.9239 204.617 22.8679C204.467 22.8119 204.309 22.7559 204.141 22.6999C203.991 22.6439 203.851 22.6066 203.721 22.5879C203.553 22.5693 203.366 22.5599 203.161 22.5599C202.955 22.5413 202.75 22.5319 202.545 22.5319C202.358 22.5133 202.19 22.5039 202.041 22.5039C201.891 22.5039 201.789 22.5039 201.733 22.5039C201.415 22.5039 201.163 22.5599 200.977 22.6719C200.809 22.7839 200.659 23.1013 200.529 23.6239C200.454 23.9973 200.342 24.3426 200.193 24.6599C200.062 24.9773 199.95 25.3039 199.857 25.6399C199.483 26.7786 199.175 27.9826 198.933 29.2519C198.709 30.5026 198.503 31.6879 198.317 32.8079C198.223 33.4986 198.158 34.2733 198.121 35.1319C198.102 35.9719 197.99 36.7839 197.785 37.5679C197.99 37.6613 198.223 37.7359 198.485 37.7919C198.746 37.8479 198.923 37.8759 199.017 37.8759C199.073 37.8759 199.278 37.8759 199.633 37.8759C199.987 37.8573 200.37 37.8479 200.781 37.8479C201.21 37.8479 201.602 37.8479 201.957 37.8479C202.311 37.8293 202.517 37.8199 202.573 37.8199C202.685 37.8199 202.815 37.7733 202.965 37.6799C203.114 37.5866 203.245 37.5399 203.357 37.5399C203.599 37.5399 203.721 37.6333 203.721 37.8199C203.739 37.9879 203.749 38.1093 203.749 38.1839C203.749 38.5386 203.618 38.8373 203.357 39.0799C203.095 39.3039 202.797 39.4906 202.461 39.6399C202.125 39.7893 201.789 39.8919 201.453 39.9479C201.135 40.0226 200.911 40.0599 200.781 40.0599C200.687 40.0599 200.585 40.0879 200.473 40.1439C200.361 40.1999 200.258 40.2279 200.165 40.2279H194.677C194.583 40.2279 194.406 40.1626 194.145 40.0319C193.883 39.9199 193.687 39.7893 193.557 39.6399C193.519 39.6026 193.491 39.5466 193.473 39.4719C193.473 39.3786 193.454 39.2946 193.417 39.2199C193.118 38.8839 192.922 38.5946 192.829 38.3519C192.754 38.0906 192.726 37.7453 192.745 37.3159C192.875 37.2599 193.015 37.2226 193.165 37.2039C193.314 37.1666 193.445 37.1479 193.557 37.1479C193.799 37.1479 194.023 37.1946 194.229 37.2879C194.322 37.3253 194.415 37.3253 194.509 37.2879C194.621 37.2319 194.723 37.2133 194.817 37.2319C194.985 37.2879 195.162 37.3533 195.349 37.4279C195.535 37.5026 195.675 37.5399 195.769 37.5399L195.965 37.4839C195.965 37.2786 195.946 37.0359 195.909 36.7559C195.871 36.4759 195.853 36.2893 195.853 36.1959C195.853 36.1586 195.853 36.0653 195.853 35.9159C195.871 35.7479 195.881 35.5613 195.881 35.3559C195.899 35.1506 195.918 34.9453 195.937 34.7399C195.955 34.5159 195.965 34.3199 195.965 34.1519C196.002 33.2933 196.067 32.4346 196.161 31.5759C196.254 30.6986 196.357 29.8399 196.469 28.9999C196.525 28.6079 196.618 28.1413 196.749 27.5999C196.879 27.0586 197.01 26.5359 197.141 26.0319C197.271 25.5279 197.383 25.0986 197.477 24.7439C197.589 24.3706 197.645 24.1559 197.645 24.0999V23.5399C197.589 23.5026 197.57 23.4746 197.589 23.4559C197.607 23.4186 197.561 23.3999 197.449 23.3999C197.374 23.3999 197.271 23.4746 197.141 23.6239C197.029 23.7733 196.795 23.8479 196.441 23.8479C196.347 23.8479 196.245 23.8386 196.133 23.8199C196.021 23.7826 195.946 23.7453 195.909 23.7079C195.797 23.5586 195.657 23.3813 195.489 23.1759C195.339 22.9519 195.227 22.7373 195.153 22.5319C195.134 22.4946 195.087 22.4386 195.013 22.3639C194.938 22.2893 194.882 22.2053 194.845 22.1119C194.807 21.9439 194.779 21.7666 194.761 21.5799C194.761 21.3746 194.761 21.1786 194.761 20.9919C195.078 20.7493 195.423 20.5533 195.797 20.4039C196.17 20.2546 196.543 20.1426 196.917 20.0679C197.29 19.9746 197.654 19.9093 198.009 19.8719C198.382 19.8346 198.709 19.7973 198.989 19.7599C198.989 19.7413 198.998 19.7133 199.017 19.6759C199.035 19.6573 199.054 19.6386 199.073 19.6199C199.091 19.6013 199.129 19.5919 199.185 19.5919C199.278 19.5919 199.418 19.6199 199.605 19.6759C199.81 19.7319 199.959 19.7599 200.053 19.7599C200.165 19.7599 200.314 19.7506 200.501 19.7319C200.687 19.7133 200.837 19.7039 200.949 19.7039C201.135 19.7039 201.397 19.7413 201.733 19.8159C202.069 19.8719 202.414 19.9466 202.769 20.0399C203.123 20.1146 203.459 20.2079 203.777 20.3199C204.094 20.4319 204.337 20.5253 204.505 20.5999C204.785 20.7493 205.074 20.9453 205.373 21.1879C205.671 21.4119 205.821 21.6826 205.821 21.9999Z" fill="#102031"/>
<path d="M83.9867 40.7237C84.1182 41.1211 83.9026 41.5488 83.5051 41.679C83.1077 41.8091 82.6789 41.5925 82.5474 41.1951L83.9867 40.7237ZM43.0824 40.976L42.9408 41.7195L43.0824 40.976ZM0.76842 19.6464C0.358164 19.5618 0.0932533 19.1612 0.176724 18.7517L1.53696 12.0779C1.62043 11.6684 2.02067 11.405 2.43093 11.4896C2.84117 11.5741 3.10609 11.9747 3.02261 12.3842L1.81352 18.3165L7.75616 19.5417C8.16641 19.6263 8.43132 20.0268 8.34785 20.4364C8.26438 20.8459 7.86414 21.1093 7.45388 21.0247L0.76842 19.6464ZM82.5474 41.1951C77.7432 26.6761 71.6707 19.3712 65.7198 16.4685C59.8114 13.5864 53.8263 14.9543 48.9268 18.2636C44.0083 21.5858 40.2947 26.7998 39.0179 31.3557C38.3792 33.6347 38.3738 35.6604 39.0268 37.1876C39.6603 38.6692 40.9615 39.7962 43.2241 40.2326L42.9408 41.7195C40.2517 41.2008 38.491 39.786 37.6328 37.7789C36.7941 35.8174 36.8673 33.4074 37.5578 30.9435C38.9395 26.0135 42.8869 20.5126 48.075 17.0084C53.2821 13.4914 59.8493 11.9216 66.3819 15.1081C72.872 18.2739 79.1293 26.0439 83.9867 40.7237L82.5474 41.1951ZM43.2241 40.2326C45.5988 40.6906 47.3523 40.243 48.5866 39.2773C49.8363 38.2996 50.663 36.7053 50.995 34.6697C51.6614 30.5841 50.2811 24.9764 46.7956 20.1498C43.3272 15.3468 37.8141 11.3757 30.2859 10.4908C22.7495 9.60486 13.0929 11.8008 1.33795 19.5375L0.50117 18.2722C12.4554 10.4044 22.4661 8.04725 30.4587 8.98678C38.4594 9.92727 44.337 14.1601 48.0243 19.2663C51.6947 24.349 53.2354 30.3561 52.4914 34.9175C52.1183 37.2053 51.157 39.1927 49.5237 40.4705C47.8751 41.7603 45.6508 42.2421 42.9408 41.7195L43.2241 40.2326Z" fill="#102031"/>
</svg>
