<svg width="36" height="37" viewBox="0 0 36 37" fill="none" xmlns="http://www.w3.org/2000/svg">
<path d="M26.4375 26.5771C26.4375 27.0129 26.3083 27.4388 26.0662 27.8011C25.8241 28.1634 25.48 28.4458 25.0775 28.6126C24.6749 28.7793 24.2319 28.8229 23.8046 28.7379C23.3772 28.6529 22.9846 28.4431 22.6765 28.135C22.3684 27.8269 22.1586 27.4343 22.0736 27.007C21.9886 26.5796 22.0322 26.1366 22.199 25.7341C22.3657 25.3315 22.6481 24.9874 23.0104 24.7453C23.3727 24.5032 23.7986 24.374 24.2344 24.374C24.8187 24.374 25.3791 24.6061 25.7922 25.0193C26.2054 25.4325 26.4375 25.9928 26.4375 26.5771ZM11.0156 12.624C11.4514 12.624 11.8773 12.4948 12.2396 12.2527C12.6019 12.0106 12.8843 11.6666 13.051 11.264C13.2178 10.8614 13.2614 10.4185 13.1764 9.99109C13.0914 9.56373 12.8816 9.17117 12.5735 8.86305C12.2654 8.55494 11.8728 8.34511 11.4454 8.26011C11.0181 8.1751 10.5751 8.21873 10.1725 8.38548C9.76996 8.55223 9.42588 8.83461 9.18379 9.19691C8.94171 9.55921 8.8125 9.98516 8.8125 10.4209C8.8125 11.0052 9.04461 11.5656 9.45778 11.9787C9.87095 12.3919 10.4313 12.624 11.0156 12.624ZM35.25 3.81152V33.1865C35.25 33.9656 34.9405 34.7128 34.3896 35.2636C33.8387 35.8145 33.0916 36.124 32.3125 36.124H2.9375C2.15843 36.124 1.41126 35.8145 0.860374 35.2636C0.309486 34.7128 0 33.9656 0 33.1865V3.81152C0 3.03245 0.309486 2.28529 0.860374 1.7344C1.41126 1.18351 2.15843 0.874023 2.9375 0.874023H32.3125C33.0916 0.874023 33.8387 1.18351 34.3896 1.7344C34.9405 2.28529 35.25 3.03245 35.25 3.81152ZM5.875 10.4209C5.875 11.4376 6.17649 12.4315 6.74135 13.2769C7.30621 14.1222 8.10907 14.7811 9.04839 15.1702C9.98772 15.5593 11.0213 15.6611 12.0185 15.4627C13.0157 15.2644 13.9317 14.7748 14.6506 14.0559C15.3695 13.3369 15.8591 12.421 16.0575 11.4238C16.2558 10.4266 16.154 9.39299 15.7649 8.45367C15.3759 7.51434 14.717 6.71148 13.8716 6.14662C13.0262 5.58177 12.0323 5.28027 11.0156 5.28027C9.65225 5.28027 8.34471 5.82187 7.38065 6.78593C6.4166 7.74998 5.875 9.05752 5.875 10.4209ZM29.375 26.5771C29.375 25.5604 29.0735 24.5665 28.5086 23.7212C27.9438 22.8758 27.1409 22.2169 26.2016 21.8278C25.2623 21.4387 24.2287 21.3369 23.2315 21.5353C22.2343 21.7337 21.3183 22.2232 20.5994 22.9422C19.8805 23.6611 19.3909 24.5771 19.1925 25.5743C18.9942 26.5714 19.096 27.6051 19.4851 28.5444C19.8741 29.4837 20.533 30.2866 21.3784 30.8514C22.2238 31.4163 23.2177 31.7178 24.2344 31.7178C25.5978 31.7178 26.9053 31.1762 27.8693 30.2121C28.8334 29.2481 29.375 27.9405 29.375 26.5771ZM28.9454 7.17863C28.809 7.04207 28.647 6.93374 28.4687 6.85983C28.2904 6.78591 28.0993 6.74787 27.9062 6.74787C27.7132 6.74787 27.5221 6.78591 27.3438 6.85983C27.1655 6.93374 27.0035 7.04207 26.8671 7.17863L6.30461 27.7411C6.02901 28.0167 5.87418 28.3905 5.87418 28.7803C5.87418 29.17 6.02901 29.5438 6.30461 29.8194C6.58021 30.095 6.954 30.2498 7.34375 30.2498C7.7335 30.2498 8.10729 30.095 8.38289 29.8194L28.9454 9.25692C29.082 9.12051 29.1903 8.95852 29.2642 8.78022C29.3381 8.60191 29.3762 8.41079 29.3762 8.21777C29.3762 8.02476 29.3381 7.83363 29.2642 7.65533C29.1903 7.47703 29.082 7.31504 28.9454 7.17863Z" fill="#5B8FCF"/>
</svg>
