<svg width="256" height="256" viewBox="0 0 256 256" fill="none" xmlns="http://www.w3.org/2000/svg">
<path d="M221.59 160.301L174.35 139.131C172.21 138.213 169.874 137.845 167.556 138.058C165.237 138.271 163.008 139.059 161.07 140.351C160.874 140.477 160.686 140.617 160.51 140.771L135.82 161.771C135.564 161.91 135.279 161.988 134.987 161.999C134.696 162.009 134.406 161.952 134.14 161.831C118.27 154.171 101.83 137.831 94.1401 122.181C94.0121 121.919 93.9455 121.632 93.9455 121.341C93.9455 121.049 94.0121 120.762 94.1401 120.501L115.21 95.5006C115.361 95.3156 115.502 95.1219 115.63 94.9206C116.904 92.9756 117.673 90.744 117.869 88.4273C118.065 86.1105 117.68 83.7815 116.75 81.6506L95.7301 34.4906C94.5364 31.7067 92.472 29.385 89.8467 27.874C87.2214 26.363 84.1769 25.7443 81.1701 26.1106C68.1024 27.8285 56.1073 34.246 47.4263 44.1636C38.7454 54.0812 33.9727 66.8204 34.0001 80.0006C34.0001 158.301 97.7001 222.001 176 222.001C189.18 222.026 201.918 217.252 211.835 208.572C221.752 199.891 228.17 187.897 229.89 174.831C230.256 171.838 229.645 168.807 228.15 166.189C226.654 163.571 224.354 161.506 221.59 160.301ZM176 210.001C104.32 210.001 46.0001 151.681 46.0001 80.0006C45.9667 69.7399 49.6702 59.818 56.4186 52.0887C63.167 44.3594 72.4987 39.3514 82.6701 38.0006H82.9001C83.3031 38.0081 83.6944 38.1372 84.0227 38.371C84.3511 38.6047 84.6011 38.9322 84.7401 39.3106L105.84 86.4206C105.96 86.6825 106.023 86.9673 106.023 87.2556C106.023 87.5438 105.96 87.8286 105.84 88.0906L84.7301 113.151C84.5726 113.329 84.4289 113.52 84.3001 113.721C82.9792 115.737 82.2013 118.061 82.0419 120.466C81.8825 122.871 82.3469 125.277 83.3901 127.451C92.2601 145.611 110.56 163.771 128.92 172.641C131.106 173.678 133.524 174.131 135.937 173.956C138.35 173.781 140.677 172.983 142.69 171.641C142.88 171.511 143.07 171.371 143.25 171.221L167.93 150.221C168.174 150.09 168.443 150.013 168.719 149.996C168.995 149.978 169.272 150.021 169.53 150.121L216.78 171.291C217.166 171.455 217.491 171.736 217.708 172.095C217.925 172.454 218.024 172.872 217.99 173.291C216.646 183.467 211.643 192.805 203.915 199.561C196.188 206.317 186.265 210.028 176 210.001Z" fill="black"/>
</svg>
