<svg width="19" height="19" viewBox="0 0 19 19" fill="none" xmlns="http://www.w3.org/2000/svg">
<path d="M11.3013 2.81497C11.3215 2.73961 11.3563 2.66897 11.4037 2.60707C11.4512 2.54518 11.5104 2.49324 11.5779 2.45423C11.6455 2.41522 11.72 2.3899 11.7974 2.37971C11.8747 2.36953 11.9533 2.37469 12.0286 2.39489C13.1294 2.68208 14.1336 3.25749 14.938 4.06187C15.7424 4.86625 16.3178 5.87051 16.605 6.97122C16.6252 7.04656 16.6303 7.12514 16.6201 7.20248C16.61 7.27981 16.5846 7.35438 16.5456 7.42193C16.5066 7.48947 16.4547 7.54867 16.3928 7.59614C16.3309 7.6436 16.2602 7.67841 16.1849 7.69856C16.1347 7.71174 16.0831 7.71847 16.0313 7.7186C15.9005 7.71864 15.7734 7.67553 15.6697 7.59595C15.5659 7.51637 15.4914 7.40477 15.4575 7.27848C15.2234 6.3798 14.7539 5.55981 14.0973 4.90307C13.4406 4.24633 12.6208 3.7766 11.7221 3.54231C11.6467 3.52224 11.576 3.48749 11.514 3.44006C11.452 3.39262 11.4 3.33344 11.3609 3.26588C11.3218 3.19833 11.2964 3.12373 11.2862 3.04636C11.276 2.96899 11.2811 2.89036 11.3013 2.81497ZM11.1284 5.91731C12.1518 6.19044 12.8094 6.84876 13.0825 7.87223C13.1164 7.99852 13.1909 8.11012 13.2947 8.1897C13.3984 8.26928 13.5255 8.31239 13.6563 8.31235C13.7081 8.31222 13.7597 8.30549 13.8099 8.29231C13.8852 8.27216 13.9559 8.23735 14.0178 8.18989C14.0797 8.14242 14.1316 8.08322 14.1706 8.01568C14.2096 7.94813 14.235 7.87356 14.2451 7.79623C14.2553 7.71889 14.2502 7.64031 14.23 7.56497C13.85 6.14294 12.8569 5.14989 11.4349 4.76989C11.3595 4.74976 11.281 4.74467 11.2037 4.75491C11.1264 4.76515 11.0518 4.79051 10.9843 4.82955C10.9168 4.8686 10.8577 4.92055 10.8102 4.98246C10.7628 5.04436 10.728 5.115 10.7079 5.19034C10.6878 5.26568 10.6827 5.34425 10.6929 5.42155C10.7032 5.49886 10.7285 5.5734 10.7676 5.6409C10.8066 5.70841 10.8586 5.76756 10.9205 5.81499C10.9824 5.86242 11.053 5.89718 11.1284 5.91731ZM16.504 11.7606L13.0076 10.1938L12.9979 10.1893C12.8164 10.1117 12.6184 10.0806 12.4218 10.0987C12.2252 10.1168 12.0363 10.1837 11.872 10.2932C11.8527 10.306 11.8341 10.3199 11.8164 10.3348L10.0099 11.8749C8.86544 11.319 7.68387 10.1463 7.12798 9.01669L8.67024 7.18274C8.68508 7.16419 8.69919 7.14563 8.71255 7.12559C8.81974 6.96179 8.88477 6.77403 8.90187 6.57903C8.91896 6.38402 8.88758 6.18781 8.81051 6.00786V5.99895L7.2393 2.49657C7.13743 2.26149 6.96226 2.06567 6.73995 1.93832C6.51764 1.81098 6.2601 1.75895 6.00579 1.79001C5.0001 1.92234 4.07698 2.41624 3.40882 3.17945C2.74067 3.94266 2.37319 4.923 2.37501 5.93735C2.37501 11.8303 7.16954 16.6249 13.0625 16.6249C14.0769 16.6267 15.0572 16.2592 15.8204 15.591C16.5836 14.9229 17.0775 13.9998 17.2099 12.9941C17.241 12.7398 17.189 12.4824 17.0618 12.2601C16.9346 12.0378 16.739 11.8625 16.504 11.7606Z" fill="black"/>
</svg>
