<svg width="256" height="256" viewBox="0 0 256 256" fill="none" xmlns="http://www.w3.org/2000/svg">
<path d="M176.597 137.664L171.744 142.496C171.744 142.496 160.192 153.974 128.672 122.635C97.1517 91.2964 108.704 79.8191 108.704 79.8191L111.754 76.7684C119.296 69.2804 120.01 57.2484 113.429 48.4591L99.989 30.5071C91.8397 19.6271 76.1064 18.1871 66.773 27.4671L50.0264 44.1071C45.4077 48.7151 42.3144 54.6671 42.6877 61.2804C43.6477 78.2084 51.3064 114.614 94.0157 157.088C139.317 202.123 181.824 203.915 199.2 202.294C204.704 201.782 209.482 198.987 213.333 195.147L228.48 180.086C238.72 169.92 235.84 152.48 222.741 145.366L202.368 134.283C193.77 129.622 183.317 130.987 176.597 137.664Z" fill="black"/>
</svg>
