<svg width="29" height="28" viewBox="0 0 29 28" fill="none" xmlns="http://www.w3.org/2000/svg">
<path d="M7.19307 16.1651C7.19604 16.2243 7.18692 16.2836 7.16626 16.3392C7.14561 16.3948 7.11385 16.4457 7.07293 16.4887C7.032 16.5316 6.98276 16.5658 6.9282 16.5892C6.87365 16.6125 6.81491 16.6245 6.75557 16.6244H1.92994C1.73245 16.6247 1.54067 16.5582 1.38577 16.4357C1.23088 16.3132 1.12199 16.1418 1.07682 15.9496C1.04869 15.818 1.04999 15.6818 1.08062 15.5508C1.11125 15.4198 1.17046 15.2971 1.25401 15.1916C2.02598 14.1678 3.05026 13.3618 4.22682 12.8521C3.71027 12.3811 3.31409 11.7932 3.07146 11.1377C2.82884 10.4821 2.74683 9.77795 2.8323 9.08418C2.91778 8.3904 3.16825 7.72721 3.56274 7.15013C3.95723 6.57306 4.48425 6.09892 5.09966 5.76741C5.71508 5.43591 6.40097 5.25669 7.09989 5.24478C7.79881 5.23286 8.49041 5.38859 9.11677 5.69892C9.74313 6.00926 10.286 6.46516 10.6999 7.02845C11.1139 7.59173 11.3868 8.24601 11.4959 8.93647C11.51 9.02932 11.4933 9.12423 11.4485 9.20675C11.4037 9.28928 11.3331 9.35491 11.2476 9.39365C10.034 9.95472 9.00614 10.8512 8.2854 11.9774C7.56467 13.1036 7.18109 14.4124 7.17994 15.7494C7.17994 15.8894 7.17994 16.0272 7.19307 16.1651ZM27.0993 15.1905C26.3291 14.1679 25.3072 13.3623 24.1331 12.8521C24.6496 12.3811 25.0458 11.7932 25.2884 11.1377C25.5311 10.4821 25.6131 9.77795 25.5276 9.08418C25.4421 8.3904 25.1916 7.72721 24.7972 7.15013C24.4027 6.57306 23.8756 6.09892 23.2602 5.76741C22.6448 5.43591 21.9589 5.25669 21.26 5.24478C20.5611 5.23286 19.8695 5.38859 19.2431 5.69892C18.6168 6.00926 18.0739 6.46516 17.6599 7.02845C17.246 7.59173 16.9731 8.24601 16.864 8.93647C16.8499 9.02932 16.8666 9.12423 16.9114 9.20675C16.9562 9.28928 17.0267 9.35491 17.1123 9.39365C18.3259 9.95472 19.3537 10.8512 20.0745 11.9774C20.7952 13.1036 21.1788 14.4124 21.1799 15.7494C21.1799 15.8894 21.1799 16.0272 21.1668 16.1651C21.1639 16.2243 21.173 16.2836 21.1936 16.3392C21.2143 16.3948 21.246 16.4457 21.287 16.4887C21.3279 16.5316 21.3771 16.5658 21.4317 16.5892C21.4862 16.6125 21.545 16.6245 21.6043 16.6244H26.4299C26.6274 16.6247 26.8192 16.5582 26.9741 16.4357C27.129 16.3132 27.2379 16.1418 27.2831 15.9496C27.3114 15.8178 27.3101 15.6813 27.2792 15.55C27.2484 15.4188 27.1888 15.296 27.1048 15.1905H27.0993ZM17.3649 19.9133C18.2362 19.2461 18.8764 18.3227 19.1957 17.2728C19.515 16.2229 19.4973 15.0993 19.145 14.06C18.7927 13.0207 18.1237 12.1179 17.2318 11.4785C16.34 10.8391 15.2702 10.4953 14.1728 10.4953C13.0755 10.4953 12.0057 10.8391 11.1138 11.4785C10.222 12.1179 9.55292 13.0207 9.20066 14.06C8.84841 15.0993 8.83068 16.2229 9.14997 17.2728C9.46925 18.3227 10.1095 19.2461 10.9807 19.9133C9.43475 20.5832 8.14383 21.7304 7.29697 23.1869C7.22017 23.32 7.17974 23.4709 7.17975 23.6245C7.17976 23.7781 7.2202 23.929 7.29702 24.062C7.37384 24.195 7.48433 24.3055 7.61737 24.3823C7.75042 24.4591 7.90133 24.4995 8.05494 24.4994H20.3049C20.4586 24.4995 20.6095 24.4591 20.7425 24.3823C20.8756 24.3055 20.986 24.195 21.0629 24.062C21.1397 23.929 21.1801 23.7781 21.1801 23.6245C21.1801 23.4709 21.1397 23.32 21.0629 23.1869C20.2142 21.7294 18.9209 20.5821 17.3726 19.9133H17.3649Z" fill="#A198AC"/>
</svg>
