<?xml version="1.0" encoding="UTF-8"?>
<svg width="25px" height="25px" viewBox="0 0 25 25" version="1.1" xmlns="http://www.w3.org/2000/svg" xmlns:xlink="http://www.w3.org/1999/xlink">
    <title>play-circle copy</title>
    <g id="as-per-new-designs" stroke="none" stroke-width="1" fill="none" fill-rule="evenodd">
        <path d="M12.3868803,0.494577007 C5.82819909,0.494577007 0.511337461,5.81180259 0.511337461,12.3709328 C0.511337461,18.9300629 5.82819909,24.2472885 12.3868803,24.2472885 C18.9455615,24.2472885 24.2624231,18.9300629 24.2624231,12.3709328 C24.2624231,5.81180259 18.9455615,0.494577007 12.3868803,0.494577007 Z M16.9030305,13.1626898 L11.1461038,17.1194957 C10.827654,17.3518865 10.4085153,17.3941108 10.0501177,17.229906 C9.69172012,17.0657012 9.44997687,16.7206847 9.41799458,16.3277386 L9.41799458,8.4141269 C9.44997687,8.02118079 9.69172012,7.67616436 10.0501177,7.51195955 C10.4085153,7.34775475 10.827654,7.38997903 11.1461038,7.62236985 L16.9030305,11.5791757 C17.1722688,11.7524831 17.3349866,12.0507471 17.3349866,12.3709575 C17.3349866,12.6911679 17.1722688,12.9894319 16.9030305,13.1627393 L16.9030305,13.1626898 Z" id="play-circle-copy" fill="ref" fill-rule="nonzero"></path>
    </g>
</svg>
