<svg width="18" height="19" viewBox="0 0 18 19" fill="none" xmlns="http://www.w3.org/2000/svg">
<g opacity="0.16">
<path d="M16.8425 7.46022C16.7734 7.24282 16.6403 7.05138 16.4605 6.91099C16.2807 6.7706 16.0626 6.68782 15.835 6.6735L11.7358 6.39056L10.2175 2.56048C10.1346 2.34959 9.99033 2.16844 9.80331 2.04048C9.6163 1.91252 9.39517 1.84364 9.16857 1.84277C8.94197 1.84364 8.72085 1.91252 8.53383 2.04048C8.34682 2.16844 8.20252 2.34959 8.11962 2.56048L6.57378 6.41126L2.50217 6.6735C2.27479 6.68875 2.05721 6.77188 1.87758 6.91214C1.69796 7.05239 1.56455 7.24332 1.49462 7.46022C1.42281 7.68045 1.41861 7.91714 1.48257 8.13977C1.54654 8.36241 1.67572 8.56078 1.85347 8.70931L4.98654 11.3593L4.0549 15.0238C3.99045 15.2717 4.00205 15.5332 4.0882 15.7744C4.17435 16.0157 4.33106 16.2254 4.53798 16.3764C4.73882 16.5205 4.9781 16.6015 5.22521 16.6088C5.47232 16.6162 5.716 16.5497 5.92509 16.4178L9.16167 14.3682H9.17547L12.6605 16.5696C12.8393 16.6858 13.0477 16.7481 13.2609 16.749C13.435 16.7477 13.6064 16.7064 13.762 16.6284C13.9177 16.5504 14.0534 16.4378 14.1587 16.2992C14.264 16.1605 14.3361 15.9996 14.3695 15.8288C14.4029 15.6579 14.3966 15.4817 14.3513 15.3136L13.3644 11.3041L16.4837 8.70931C16.6614 8.56078 16.7906 8.36241 16.8546 8.13977C16.9185 7.91714 16.9143 7.68045 16.8425 7.46022Z" fill="#50495A"/>
</g>
</svg>
