<svg width="18" height="19" viewBox="0 0 18 19" fill="none" xmlns="http://www.w3.org/2000/svg">
<g opacity="0.8">
<path d="M16.6746 7.46022C16.6055 7.24282 16.4723 7.05138 16.2925 6.91099C16.1127 6.7706 15.8947 6.68782 15.667 6.6735L11.5678 6.39056L10.0496 2.56048C9.96666 2.34959 9.82236 2.16844 9.63534 2.04048C9.44833 1.91252 9.22721 1.84364 9.0006 1.84277C8.774 1.84364 8.55288 1.91252 8.36587 2.04048C8.17885 2.16844 8.03455 2.34959 7.95165 2.56048L6.40581 6.41126L2.3342 6.6735C2.10682 6.68875 1.88924 6.77188 1.70961 6.91214C1.52999 7.05239 1.39658 7.24332 1.32665 7.46022C1.25484 7.68045 1.25064 7.91714 1.31461 8.13977C1.37857 8.36241 1.50775 8.56078 1.68551 8.70931L4.81858 11.3593L3.88694 15.0238C3.82248 15.2717 3.83408 15.5332 3.92023 15.7744C4.00638 16.0157 4.16309 16.2254 4.37001 16.3764C4.57085 16.5205 4.81014 16.6015 5.05724 16.6088C5.30435 16.6162 5.54803 16.5497 5.75712 16.4178L8.9937 14.3682H9.00751L12.4925 16.5696C12.6713 16.6858 12.8797 16.7481 13.0929 16.749C13.267 16.7477 13.4384 16.7064 13.5941 16.6284C13.7497 16.5504 13.8854 16.4378 13.9907 16.2992C14.096 16.1605 14.1681 15.9996 14.2015 15.8288C14.2349 15.6579 14.2287 15.4817 14.1833 15.3136L13.1964 11.3041L16.3157 8.70931C16.4935 8.56078 16.6226 8.36241 16.6866 8.13977C16.7506 7.91714 16.7464 7.68045 16.6746 7.46022Z" fill="#CBFB62"/>
</g>
</svg>
