<svg width="18" height="17" viewBox="0 0 18 17" fill="none" xmlns="http://www.w3.org/2000/svg">
<g id="Scroll">
<path id="Vector" d="M15.3514 11.3336C15.2612 11.266 15.1515 11.2294 15.0388 11.2294H14.5176V4.45466C14.5176 3.9018 14.298 3.37159 13.9071 2.98066C13.5162 2.58974 12.9859 2.37012 12.4331 2.37012H3.5738C3.02094 2.37012 2.49073 2.58974 2.09981 2.98066C1.70888 3.37159 1.48926 3.9018 1.48926 4.45466C1.48926 5.34124 2.14393 5.85781 2.21885 5.91383C2.30881 5.98196 2.41869 6.01859 2.53153 6.01806C2.64014 6.01776 2.74595 5.98354 2.83416 5.92017C2.92237 5.8568 2.98857 5.76745 3.02352 5.66462C3.05847 5.56178 3.06041 5.45059 3.02908 5.3466C2.99775 5.2426 2.93471 5.15099 2.84877 5.08458C2.84616 5.08132 2.53153 4.82857 2.53153 4.45466C2.53153 4.17823 2.64134 3.91312 2.8368 3.71766C3.03226 3.5222 3.29737 3.41239 3.5738 3.41239C3.85022 3.41239 4.11533 3.5222 4.31079 3.71766C4.50626 3.91312 4.61607 4.17823 4.61607 4.45466V12.7928C4.61607 13.3457 4.83569 13.8759 5.22661 14.2668C5.61754 14.6577 6.14775 14.8774 6.70061 14.8774H13.9965C14.5494 14.8774 15.0796 14.6577 15.4705 14.2668C15.8614 13.8759 16.081 13.3457 16.081 12.7928C16.081 11.9062 15.4296 11.3897 15.3514 11.3336ZM7.74288 6.5392H11.912C12.0502 6.5392 12.1827 6.5941 12.2805 6.69183C12.3782 6.78957 12.4331 6.92212 12.4331 7.06033C12.4331 7.19854 12.3782 7.3311 12.2805 7.42883C12.1827 7.52656 12.0502 7.58147 11.912 7.58147H7.74288C7.60466 7.58147 7.47211 7.52656 7.37438 7.42883C7.27665 7.3311 7.22174 7.19854 7.22174 7.06033C7.22174 6.92212 7.27665 6.78957 7.37438 6.69183C7.47211 6.5941 7.60466 6.5392 7.74288 6.5392ZM7.22174 9.14487C7.22174 9.00666 7.27665 8.8741 7.37438 8.77637C7.47211 8.67864 7.60466 8.62374 7.74288 8.62374H11.912C12.0502 8.62374 12.1827 8.67864 12.2805 8.77637C12.3782 8.8741 12.4331 9.00666 12.4331 9.14487C12.4331 9.28308 12.3782 9.41564 12.2805 9.51337C12.1827 9.6111 12.0502 9.66601 11.912 9.66601H7.74288C7.60466 9.66601 7.47211 9.6111 7.37438 9.51337C7.27665 9.41564 7.22174 9.28308 7.22174 9.14487ZM13.9965 13.8351H7.98455C8.16809 13.5184 8.26451 13.1588 8.26401 12.7928C8.26414 12.6161 8.23757 12.4404 8.18519 12.2717H14.8297C14.959 12.4152 15.0336 12.5997 15.0401 12.7928C15.0401 12.9298 15.0131 13.0654 14.9606 13.192C14.9081 13.3185 14.8313 13.4335 14.7343 13.5303C14.6374 13.6271 14.5224 13.7038 14.3958 13.7561C14.2692 13.8084 14.1335 13.8353 13.9965 13.8351Z" fill="#B7704E"/>
</g>
</svg>
