<svg width="20" height="20" viewBox="0 0 20 20" fill="none" xmlns="http://www.w3.org/2000/svg">
<circle cx="10.5" cy="9.5" r="5.5" fill="#CBFB62"/>
<path d="M17.3953 8.03281C17.1008 7.725 16.7961 7.40781 16.6812 7.12891C16.575 6.87344 16.5687 6.45 16.5625 6.03984C16.5508 5.27734 16.5383 4.41328 15.9375 3.8125C15.3367 3.21172 14.4727 3.19922 13.7102 3.1875C13.3 3.18125 12.8766 3.175 12.6211 3.06875C12.343 2.95391 12.025 2.64922 11.7172 2.35469C11.1781 1.83672 10.5656 1.25 9.75 1.25C8.93437 1.25 8.32266 1.83672 7.78281 2.35469C7.475 2.64922 7.15781 2.95391 6.87891 3.06875C6.625 3.175 6.2 3.18125 5.78984 3.1875C5.02734 3.19922 4.16328 3.21172 3.5625 3.8125C2.96172 4.41328 2.95312 5.27734 2.9375 6.03984C2.93125 6.45 2.925 6.87344 2.81875 7.12891C2.70391 7.40703 2.39922 7.725 2.10469 8.03281C1.58672 8.57188 1 9.18437 1 10C1 10.8156 1.58672 11.4273 2.10469 11.9672C2.39922 12.275 2.70391 12.5922 2.81875 12.8711C2.925 13.1266 2.93125 13.55 2.9375 13.9602C2.94922 14.7227 2.96172 15.5867 3.5625 16.1875C4.16328 16.7883 5.02734 16.8008 5.78984 16.8125C6.2 16.8187 6.62344 16.825 6.87891 16.9312C7.15703 17.0461 7.475 17.3508 7.78281 17.6453C8.32188 18.1633 8.93437 18.75 9.75 18.75C10.5656 18.75 11.1773 18.1633 11.7172 17.6453C12.025 17.3508 12.3422 17.0461 12.6211 16.9312C12.8766 16.825 13.3 16.8187 13.7102 16.8125C14.4727 16.8008 15.3367 16.7883 15.9375 16.1875C16.5383 15.5867 16.5508 14.7227 16.5625 13.9602C16.5687 13.55 16.575 13.1266 16.6812 12.8711C16.7961 12.593 17.1008 12.275 17.3953 11.9672C17.9133 11.4281 18.5 10.8156 18.5 10C18.5 9.18437 17.9133 8.57266 17.3953 8.03281ZM13.3172 8.56719L8.94219 12.9422C8.88414 13.0003 8.81521 13.0464 8.73934 13.0779C8.66346 13.1093 8.58213 13.1255 8.5 13.1255C8.41787 13.1255 8.33654 13.1093 8.26066 13.0779C8.18479 13.0464 8.11586 13.0003 8.05781 12.9422L6.18281 11.0672C6.06554 10.9499 5.99965 10.7909 5.99965 10.625C5.99965 10.4591 6.06554 10.3001 6.18281 10.1828C6.30009 10.0655 6.45915 9.99965 6.625 9.99965C6.79085 9.99965 6.94991 10.0655 7.06719 10.1828L8.5 11.6164L12.4328 7.68281C12.4909 7.62474 12.5598 7.57868 12.6357 7.54725C12.7116 7.51583 12.7929 7.49965 12.875 7.49965C12.9571 7.49965 13.0384 7.51583 13.1143 7.54725C13.1902 7.57868 13.2591 7.62474 13.3172 7.68281C13.3753 7.74088 13.4213 7.80982 13.4527 7.88569C13.4842 7.96156 13.5003 8.04288 13.5003 8.125C13.5003 8.20712 13.4842 8.28844 13.4527 8.36431C13.4213 8.44018 13.3753 8.50912 13.3172 8.56719Z" fill="#50495A"/>
</svg>
