<svg width="219" height="129" viewBox="0 0 219 129" fill="none" xmlns="http://www.w3.org/2000/svg">
<g filter="url(#filter0_d_3514_54959)">
<g clip-path="url(#clip0_3514_54959)">
<rect x="9.49023" y="57.9702" width="191" height="60" rx="30" transform="rotate(-15.9664 9.49023 57.9702)" fill="#CBFB62"/>
<g clip-path="url(#clip1_3514_54959)">
<path d="M51.1552 64.3918C50.7742 64.181 50.3463 64.0695 49.911 64.0677C49.4756 64.0659 49.0468 64.1737 48.6641 64.3813C48.2814 64.5889 47.9571 64.8896 47.7213 65.2556C47.4854 65.6215 47.3455 66.041 47.3145 66.4752L45.5508 91.6176C45.5223 92.0321 45.5936 92.4474 45.7587 92.8286C45.9238 93.2098 46.178 93.5458 46.4999 93.8085C46.8218 94.0711 47.202 94.2527 47.6086 94.338C48.0152 94.4233 48.4363 94.4098 48.8366 94.2986C49.1301 94.2125 49.4063 94.0757 49.6527 93.8945L70.0554 79.0982C70.4077 78.8423 70.6899 78.5018 70.8759 78.1081C71.062 77.7144 71.1458 77.2802 71.1197 76.8455C71.0937 76.4109 70.9585 75.9898 70.7268 75.6211C70.495 75.2525 70.1741 74.9482 69.7937 74.7363L51.1552 64.3918ZM48.7408 83.5976L49.3869 74.4044L62.2321 81.5345L54.7703 86.9458L48.7408 83.5976ZM59.681 65.2578C59.4606 64.398 59.4274 63.5009 59.5836 62.6271C59.9416 60.7175 61.2559 59.3466 63.2843 58.7662C64.3411 58.4639 64.916 57.9086 65.112 57.013C65.2079 56.5158 65.1981 56.0041 65.0833 55.511C64.9888 55.1759 65.0312 54.8171 65.2013 54.5134C65.3714 54.2097 65.6552 53.9859 65.9902 53.8914C66.3252 53.7969 66.6841 53.8394 66.9878 54.0095C67.2915 54.1796 67.5152 54.4633 67.6097 54.7984C68.1901 56.8268 67.71 60.2303 64.0064 61.29C62.9496 61.5923 62.3747 62.1476 62.1787 63.0432C62.0828 63.5404 62.0926 64.0521 62.2074 64.5452C62.2542 64.7111 62.2679 64.8846 62.2476 65.0558C62.2274 65.2269 62.1736 65.3924 62.0894 65.5428C62.0052 65.6932 61.8921 65.8255 61.7568 65.9323C61.6214 66.039 61.4664 66.118 61.3005 66.1648C61.1346 66.2116 60.9611 66.2252 60.79 66.205C60.6188 66.1847 60.4533 66.1309 60.3029 66.0467C60.1525 65.9625 60.0202 65.8495 59.9135 65.7141C59.8068 65.5788 59.7278 65.4237 59.681 65.2578ZM54.4512 61.2935L53.3681 57.5079C53.2724 57.1732 53.3135 56.8142 53.4824 56.5098C53.6514 56.2055 53.9343 55.9807 54.269 55.885C54.6036 55.7892 54.9626 55.8303 55.267 55.9993C55.5713 56.1682 55.7961 56.4511 55.8919 56.7858L56.975 60.5714C57.0707 60.9061 57.0296 61.2651 56.8607 61.5694C56.6917 61.8738 56.4088 62.0986 56.0741 62.1943C55.7395 62.2901 55.3805 62.2489 55.0761 62.08C54.7718 61.9111 54.547 61.6281 54.4512 61.2935ZM74.2024 69.6934C74.353 69.7771 74.4858 69.8897 74.5929 70.0247C74.7001 70.1597 74.7796 70.3145 74.827 70.4803C74.8743 70.6461 74.8886 70.8195 74.8689 70.9908C74.8492 71.162 74.7959 71.3277 74.7122 71.4784C74.6285 71.6291 74.5159 71.7618 74.3809 71.8689C74.2459 71.9761 74.0911 72.0556 73.9253 72.103C73.7596 72.1503 73.5861 72.1646 73.4149 72.1449C73.2436 72.1252 73.0779 72.072 72.9272 71.9882L69.6814 70.1866C69.3769 70.0175 69.152 69.7345 69.0562 69.3996C68.9604 69.0647 69.0015 68.7055 69.1706 68.401C69.3396 68.0965 69.6227 67.8716 69.9575 67.7758C70.2924 67.68 70.6516 67.7211 70.9561 67.8902L74.2024 69.6934ZM73.0413 62.7305L69.6167 65.0755C69.3294 65.2722 68.9758 65.3467 68.6337 65.2827C68.2915 65.2186 67.9887 65.0213 67.7921 64.7341C67.5954 64.4468 67.5209 64.0932 67.5849 63.751C67.6489 63.4089 67.8463 63.1061 68.1335 62.9095L71.5581 60.5645C71.8453 60.3678 72.1989 60.2933 72.5411 60.3573C72.8833 60.4213 73.186 60.6187 73.3827 60.9059C73.5794 61.1931 73.6539 61.5467 73.5899 61.8889C73.5258 62.2311 73.3285 62.5338 73.0413 62.7305Z" fill="#2B1911"/>
</g>
<path d="M85.0538 51.5446C87.2382 50.9197 89.0604 51.7629 89.786 52.4374L89.2351 54.6419L89.1274 54.6728C88.2832 53.9324 87.0149 53.2801 85.6766 53.663C84.7998 53.9139 84.4219 54.4547 84.6112 55.1162C84.8357 55.9007 85.9961 55.8849 87.2444 55.8273C89.6531 55.7539 91.3059 56.0631 91.9045 58.1552C92.4635 60.1088 91.3322 61.7971 88.9171 62.4881C86.6559 63.1351 84.7963 62.5687 83.7301 61.8087L84.1051 59.3383L84.2127 59.3075C85.0745 59.9928 86.6616 60.7703 88.3383 60.2905C89.0305 60.0925 89.8304 59.6307 89.5971 58.8154C89.377 58.0462 88.599 58.0026 86.7177 58.0582C84.4914 58.1293 82.8891 57.8222 82.3126 55.8071C81.8196 54.0842 82.7772 52.196 85.0538 51.5446ZM93.0672 48.7527L94.2071 52.7368L94.2379 52.728C94.5781 51.6488 95.3691 50.9232 96.4766 50.6063C98.3379 50.0738 99.7141 51.1612 100.185 52.8071L101.84 58.591L99.6863 59.2072L98.2868 54.3155C98.0403 53.4541 97.5103 52.474 96.3104 52.8173C94.8337 53.2398 94.8453 54.9673 95.0918 55.8287L96.3329 60.1667L94.1793 60.7828L90.9136 49.3688L93.0672 48.7527ZM104.282 48.3732C106.205 47.823 108.06 48.4905 108.694 50.7056L110.26 56.1818L108.584 56.6616L108.043 55.5849L107.997 55.5981C107.762 56.5806 107.037 57.3039 105.852 57.6428C104.068 58.1533 102.969 57.4526 102.551 55.9913C102.168 54.653 102.591 53.5166 104.387 52.5203C106.283 51.5284 106.564 51.2316 106.437 50.7855C106.296 50.2933 105.781 50.0078 104.812 50.285C103.843 50.5623 103.191 51.4812 102.899 52.4967L102.791 52.5275L101.254 51.0534C101.7 49.8774 102.697 48.8265 104.282 48.3732ZM107.006 52.7194L106.976 52.7282C106.921 53.06 106.374 53.4163 105.501 53.9155C104.629 54.4147 104.451 54.7818 104.57 55.1971C104.689 55.6125 105.056 55.7904 105.687 55.6099C106.748 55.3062 107.495 54.4268 107.271 53.6423L107.006 52.7194ZM113.295 45.7944C113.926 45.614 114.554 45.717 114.965 46.0487L115.212 48.1915L115.105 48.2223C114.79 47.996 114.265 47.8468 113.726 48.0008C112.634 48.3133 112.498 49.3507 112.881 50.689L114.136 55.0731L111.982 55.6893L109.517 47.0749L111.271 46.5732L111.735 47.6719L111.781 47.6587C111.924 46.8191 112.326 46.0717 113.295 45.7944ZM119.179 44.1109C121.471 43.4552 123.786 44.74 124.56 47.4474C124.596 47.5704 124.624 47.7287 124.659 47.8517L124.721 48.0671L118.829 49.7527C119.133 50.8141 120.223 51.3676 121.316 51.0551C122.362 50.7558 123.108 49.76 123.302 49.039L123.409 49.0082L124.922 50.5725C124.748 51.1879 123.749 52.5223 121.888 53.0549C119.411 53.7635 117.2 52.5489 116.421 49.8261C115.633 47.0726 116.872 44.7711 119.179 44.1109ZM119.751 46.1107C118.597 46.4408 118.354 47.509 118.394 48.1134L121.962 47.0923C121.723 46.5451 120.92 45.7762 119.751 46.1107ZM135.123 39.7489L134.464 52.3358L132.141 53.0004L132.364 49.0091L127.078 42.0508L129.477 41.3642L132.664 46.0442L132.679 46.0398L132.785 40.4179L135.123 39.7489ZM139.645 38.2553C142.091 37.5555 144.424 39.0183 145.167 41.618C145.885 44.1254 144.785 46.5038 142.2 47.2432C139.662 47.9694 137.448 46.5724 136.722 44.0343C135.974 41.4192 137.2 38.9551 139.645 38.2553ZM140.218 40.255C138.941 40.6203 138.489 42.0644 138.88 43.4335C139.268 44.7872 140.382 45.5999 141.613 45.2478C142.905 44.8781 143.379 43.511 143.005 42.2034C142.627 40.8805 141.494 39.8897 140.218 40.255ZM152.426 34.7984L154.89 43.4128L153.213 43.8925L152.672 42.8158L152.626 42.829C152.497 43.7148 151.697 44.526 150.697 44.8121C148.774 45.3623 147.31 44.3167 146.839 42.6707L145.18 36.8714L147.334 36.2552L148.738 41.1623C149.107 42.4545 149.633 42.9532 150.479 42.7111C151.617 42.3854 151.896 41.0908 151.517 39.7679L150.272 35.4146L152.426 34.7984ZM158.081 32.9808C158.711 32.8003 159.34 32.9034 159.751 33.2351L159.998 35.3778L159.89 35.4086C159.576 35.1824 159.051 35.0331 158.512 35.1872C157.42 35.4996 157.284 36.537 157.667 37.8753L158.921 42.2594L156.768 42.8756L154.303 34.2612L156.057 33.7595L156.521 34.8582L156.567 34.845C156.71 34.0054 157.111 33.258 158.081 32.9808Z" fill="#2B1911"/>
<path d="M90.8043 71.9917C92.7271 71.4416 94.5823 72.109 95.216 74.3241L96.7829 79.8004L95.1061 80.2801L94.5651 79.2034L94.5189 79.2166C94.2841 80.1991 93.5591 80.9224 92.3747 81.2613C90.5903 81.7719 89.4911 81.0712 89.073 79.6098C88.6901 78.2715 89.1139 77.1351 90.9091 76.1389C92.8054 75.147 93.0866 74.8502 92.959 74.4041C92.8181 73.9118 92.3037 73.6263 91.3346 73.9036C90.3655 74.1809 89.7131 75.0998 89.4212 76.1152L89.3135 76.146L87.7767 74.6719C88.2224 73.4959 89.2198 72.445 90.8043 71.9917ZM93.5289 76.3379L93.4981 76.3467C93.4433 76.6786 92.8962 77.0348 92.0239 77.534C91.1515 78.0333 90.9736 78.4003 91.0925 78.8157C91.2113 79.231 91.5784 79.4089 92.2091 79.2285C93.2705 78.9248 94.0174 78.0454 93.793 77.2609L93.5289 76.3379ZM99.7097 69.4438C101.586 68.9068 103.075 69.7458 103.91 70.6884L102.753 72.5173L102.645 72.5481C102.06 71.6671 101.22 71.1751 100.297 71.4391C99.0666 71.7912 98.6034 73.2551 98.9863 74.5934C99.3604 75.9009 100.446 76.7884 101.677 76.4364C102.862 76.0975 103.331 75.0643 103.188 73.9237L103.296 73.8929L105.366 74.7317C105.202 76.3098 104.357 77.8332 102.249 78.4361C99.6034 79.1931 97.5325 77.6554 96.8283 75.1942C96.0537 72.4868 97.31 70.1304 99.7097 69.4438ZM105.971 64.8232L107.111 68.8074L107.142 68.7986C107.482 67.7193 108.273 66.9938 109.38 66.6769C111.242 66.1444 112.618 67.2318 113.089 68.8777L114.744 74.6616L112.59 75.2778L111.19 70.3861C110.944 69.5246 110.414 68.5446 109.214 68.8879C107.737 69.3104 107.749 71.0379 107.995 71.8993L109.237 76.2373L107.083 76.8534L103.817 65.4394L105.971 64.8232ZM116.161 64.9364L118.626 73.5508L116.473 74.1669L114.008 65.5526L116.161 64.9364ZM113.984 61.3988C114.861 61.148 115.523 61.5411 115.765 62.3872C115.998 63.2025 115.653 63.9169 114.777 64.1677C113.854 64.4318 113.199 64.0035 112.965 63.1882C112.723 62.3421 113.061 61.6629 113.984 61.3988ZM121.581 63.1861C123.873 62.5303 126.188 63.8151 126.963 66.5225C126.998 66.6456 127.027 66.8038 127.062 66.9268L127.123 67.1422L121.232 68.8279C121.535 69.8893 122.626 70.4427 123.718 70.1302C124.764 69.8309 125.511 68.8351 125.704 68.1141L125.812 68.0833L127.324 69.6476C127.151 70.263 126.151 71.5974 124.29 72.13C121.813 72.8386 119.602 71.624 118.823 68.9013C118.035 66.1477 119.274 63.8462 121.581 63.1861ZM122.153 65.1858C121 65.5159 120.756 66.5841 120.796 67.1885L124.365 66.1674C124.125 65.6202 123.323 64.8513 122.153 65.1858ZM134.868 59.5843L134.272 69.0744L131.503 69.8667L125.992 62.1237L128.438 61.4239L132.291 67.4444L132.322 67.4356L132.422 60.284L134.868 59.5843ZM139.144 58.1612C141.436 57.5055 143.751 58.7903 144.525 61.4977C144.56 61.6207 144.589 61.779 144.624 61.902L144.686 62.1174L138.794 63.803C139.098 64.8645 140.188 65.4179 141.28 65.1054C142.326 64.8061 143.073 63.8103 143.266 63.0893L143.374 63.0585L144.887 64.6228C144.713 65.2382 143.714 66.5726 141.853 67.1052C139.376 67.8138 137.164 66.5992 136.385 63.8765C135.598 61.1229 136.836 58.8214 139.144 58.1612ZM139.716 60.161C138.562 60.4911 138.319 61.5593 138.358 62.1637L141.927 61.1426C141.687 60.5954 140.885 59.8265 139.716 60.161ZM154.063 53.8928C156.647 53.1534 157.696 54.7838 158.044 55.999L159.703 61.7983L157.549 62.4145L156.145 57.5074C155.789 56.2614 155.127 55.7517 154.266 55.9982C153.097 56.3327 152.904 57.636 153.269 58.9128L154.519 63.2815L152.365 63.8977L150.957 58.9752C150.6 57.7292 149.974 57.2261 149.097 57.477C147.897 57.8203 147.704 59.1236 148.07 60.4004L149.319 64.7691L147.166 65.3853L144.701 56.7709L146.455 56.2692L146.919 57.3679L146.981 57.3503C147.283 56.315 147.817 55.6797 149.032 55.332C150.248 54.9843 151.197 55.3949 151.864 56.1529L151.91 56.1397C152.122 55.0803 152.894 54.2273 154.063 53.8928ZM162.505 51.4774C164.797 50.8216 167.112 52.1065 167.886 54.8138C167.921 54.9369 167.95 55.0951 167.985 55.2182L168.047 55.4336L162.155 57.1192C162.459 58.1806 163.549 58.7341 164.641 58.4216C165.687 58.1223 166.434 57.1264 166.627 56.4055L166.735 56.3747L168.248 57.9389C168.074 58.5544 167.075 59.8888 165.214 60.4213C162.737 61.1299 160.525 59.9154 159.746 57.1926C158.959 54.4391 160.197 52.1376 162.505 51.4774ZM163.077 53.4772C161.923 53.8073 161.68 54.8755 161.719 55.4798L165.288 54.4588C165.049 53.9116 164.246 53.1427 163.077 53.4772ZM172.47 48.6261C174.686 47.9924 176.134 49.0424 176.605 50.6883L178.264 56.4876L176.111 57.1038L174.65 51.9967C174.311 50.8122 173.581 50.4718 172.704 50.7227C171.427 51.088 171.034 52.3321 171.435 53.7319L172.68 58.0852L170.527 58.7014L168.062 50.0871L169.816 49.5853L170.28 50.684L170.326 50.6708C170.622 49.6707 171.409 48.9298 172.47 48.6261ZM179.818 44.3937L180.434 46.5473L182.865 45.8519L183.437 47.8516L181.053 48.5338L182.166 52.4257C182.307 52.9179 182.525 53.0387 182.909 52.9287C183.278 52.8231 183.625 52.524 183.904 52.1613L184.012 52.1305L185.143 54.1037C184.828 54.4598 184.09 55.0205 183.167 55.2846C181.86 55.6587 180.651 55.2723 180.167 53.5802L178.899 49.15L177.484 49.5549L177.127 48.3089C178.114 47.5107 178.516 46.181 178.511 44.7678L179.818 44.3937Z" fill="#2B1911"/>
</g>
<path d="M136.033 97.2426L116.655 86.4864C115.097 85.6217 115.363 83.305 117.076 82.8149L132.143 78.5041C133.205 78.2002 134.312 78.8148 134.616 79.8768L138.927 94.9438C139.417 96.6568 137.591 98.1073 136.033 97.2426Z" fill="#CBFB62"/>
</g>
<defs>
<filter id="filter0_d_3514_54959" x="-1.76562" y="0.431152" width="228.537" height="138.867" filterUnits="userSpaceOnUse" color-interpolation-filters="sRGB">
<feFlood flood-opacity="0" result="BackgroundImageFix"/>
<feColorMatrix in="SourceAlpha" type="matrix" values="0 0 0 0 0 0 0 0 0 0 0 0 0 0 0 0 0 0 127 0" result="hardAlpha"/>
<feOffset dy="4"/>
<feGaussianBlur stdDeviation="4.5"/>
<feComposite in2="hardAlpha" operator="out"/>
<feColorMatrix type="matrix" values="0 0 0 0 0 0 0 0 0 0 0 0 0 0 0 0 0 0 0.1 0"/>
<feBlend mode="normal" in2="BackgroundImageFix" result="effect1_dropShadow_3514_54959"/>
<feBlend mode="normal" in="SourceGraphic" in2="effect1_dropShadow_3514_54959" result="shape"/>
</filter>
<clipPath id="clip0_3514_54959">
<rect x="9.49023" y="57.9702" width="191" height="60" rx="30" transform="rotate(-15.9664 9.49023 57.9702)" fill="white"/>
</clipPath>
<clipPath id="clip1_3514_54959">
<rect width="42" height="42" fill="white" transform="translate(31.1953 61.1216) rotate(-15.9664)"/>
</clipPath>
</defs>
</svg>
