<svg width="24" height="24" viewBox="0 0 24 24" fill="none" xmlns="http://www.w3.org/2000/svg">
<path d="M19.8767 18.7507C19.8767 19.2433 19.7689 19.7299 19.5609 20.1764C19.3529 20.6229 19.0496 21.0185 18.6724 21.3354C18.2952 21.6522 17.8533 21.8826 17.3775 22.0105C16.9018 22.1383 16.4039 22.1605 15.9187 22.0754C15.4335 21.9903 14.9728 21.8 14.5689 21.5179C14.1651 21.2358 13.8279 20.8687 13.581 20.4424C13.3342 20.0162 13.1836 19.541 13.1399 19.0503C13.0963 18.5597 13.1605 18.0654 13.3282 17.6022L8.35947 14.41C7.88492 14.8755 7.28347 15.1905 6.63058 15.3155C5.97769 15.4404 5.30243 15.3698 4.68953 15.1125C4.07662 14.8551 3.55335 14.4225 3.18537 13.8689C2.8174 13.3153 2.62109 12.6654 2.62109 12.0007C2.62109 11.3359 2.8174 10.686 3.18537 10.1324C3.55335 9.57877 4.07662 9.14617 4.68953 8.88882C5.30243 8.63148 5.97769 8.56086 6.63058 8.68583C7.28347 8.8108 7.88492 9.12579 8.35947 9.59128L13.3282 6.40378C13.0437 5.62195 13.0572 4.76269 13.3662 3.9902C13.6752 3.21771 14.258 2.58614 15.0032 2.21618C15.7484 1.84623 16.6038 1.76382 17.4059 1.9847C18.2081 2.20559 18.9007 2.71428 19.3515 3.41358C19.8022 4.11288 19.9796 4.95375 19.8495 5.77552C19.7195 6.59729 19.2912 7.34234 18.6466 7.8683C18.0019 8.39427 17.1861 8.66427 16.3549 8.62671C15.5238 8.58916 14.7356 8.24668 14.141 7.66472L9.17228 10.8569C9.44082 11.599 9.44082 12.4117 9.17228 13.1538L14.141 16.346C14.6154 15.8817 15.2162 15.5676 15.8682 15.443C16.5202 15.3184 17.1944 15.3889 17.8066 15.6455C18.4188 15.9022 18.9417 16.3336 19.3099 16.8859C19.678 17.4382 19.8752 18.0869 19.8767 18.7507Z" fill="#2B1911"/>
</svg>
