<svg width="63" height="63" viewBox="0 0 63 63" fill="none" xmlns="http://www.w3.org/2000/svg">
<g clip-path="url(#clip0_85_4672)">
<path d="M19.0369 28.8099L45.6972 24.109" stroke="#838F97" stroke-width="1.48" stroke-miterlimit="10"/>
<path d="M21.7065 34.7465L44.9531 30.6475" stroke="#838F97" stroke-width="1.48" stroke-miterlimit="10" stroke-linecap="round"/>
<path d="M7.14502 19.6702L13.1241 18.6159C13.5601 18.539 13.991 18.7567 14.1818 19.1511C16.331 23.5697 17.7928 26.9842 18.7497 29.3558C19.1057 30.2412 20.1403 32.0824 20.9938 33.807C22.2836 36.4277 23.0561 37.9153 23.9695 39.2508C30.2738 38.1392 36.5816 37.027 42.886 35.9153C43.9137 35.7341 44.6864 34.8762 44.7504 33.8424L45.7197 19.916C45.7483 19.5112 45.3819 19.1937 44.9817 19.2713C34.6661 20.9027 26.5715 23.5966 17.107 24.7135" stroke="#838F97" stroke-width="1.48" stroke-miterlimit="10" stroke-linecap="round"/>
<path d="M28.2146 22.7727L32.0684 37.9426" stroke="#838F97" stroke-width="1.48" stroke-miterlimit="10"/>
<path d="M36.0789 21.1184C36.6538 24.3792 37.9346 31.5147 38.2712 33.4236C38.6077 35.3323 38.7971 36.406 38.8496 36.7042" stroke="#838F97" stroke-width="1.48" stroke-miterlimit="10"/>
<path d="M23.5977 38.6793C24.3443 39.9243 25.75 43.0783 26.526 43.4937C27.302 43.9091 37.2519 42.3968 42.1884 41.5682" stroke="#838F97" stroke-width="1.48" stroke-miterlimit="10"/>
<path d="M45.2079 42.0974C45.2289 42.1963 45.3234 42.6714 45.1585 43.2736C44.869 44.3435 43.8843 45.4158 42.54 45.6423C40.7562 45.9462 39.0226 44.6527 38.8233 43.2196C38.669 42.1218 39.4539 41.1909 39.7107 40.8873C40.0025 40.5387 40.5694 39.8691 41.4907 39.6713C43.0802 39.3379 44.8904 40.6002 45.2079 42.0974Z" fill="#838F97"/>
<path d="M44.4902 42.1152C44.5104 42.2107 44.6011 42.6692 44.4526 43.2484C44.1923 44.2774 43.2885 45.3038 42.0461 45.5126C40.3975 45.7931 38.7842 44.5346 38.5899 43.1522C38.4394 42.0932 39.1593 41.2016 39.3949 40.9108C39.6624 40.577 40.1823 39.9356 41.0335 39.7515C42.502 39.4413 44.186 40.6703 44.4902 42.1152Z" fill="#838F97"/>
<path d="M44.9936 42.1384C45.0146 42.2373 45.1091 42.7124 44.9441 43.3146C44.6547 44.3846 43.67 45.4569 42.3256 45.6833C40.5418 45.9872 38.8082 44.6938 38.609 43.2607C38.4547 42.1628 39.2395 41.2319 39.4964 40.9283C39.7881 40.5797 40.3551 39.9101 41.2763 39.7123C42.8658 39.379 44.6761 40.6412 44.9936 42.1384Z" stroke="#838F97" stroke-width="1.48" stroke-miterlimit="10"/>
<path d="M43.7624 42.354C43.7754 42.4148 43.8334 42.7068 43.7321 43.077C43.5541 43.7347 42.9488 44.3939 42.1225 44.533C41.026 44.7198 39.9604 43.9248 39.8379 43.0438C39.7431 42.369 40.2255 41.7968 40.3834 41.6102C40.5627 41.3959 40.9112 40.9843 41.4775 40.8627C42.4546 40.6578 43.5673 41.4337 43.7624 42.354Z" fill="#838F97"/>
<path d="M43.7624 42.354C43.7754 42.4148 43.8334 42.7068 43.7321 43.077C43.5541 43.7347 42.9488 44.3939 42.1225 44.533C41.026 44.7198 39.9604 43.9248 39.8379 43.0438C39.7431 42.369 40.2255 41.7968 40.3834 41.6102C40.5627 41.3959 40.9112 40.9843 41.4775 40.8627C42.4546 40.6578 43.5673 41.4337 43.7624 42.354Z" fill="#838F97"/>
<path d="M30.0703 44.6567C30.3472 46.207 29.1345 48.0094 27.495 48.302C26.2499 48.5251 25.2496 47.7887 25.0089 47.5976C24.8102 47.4416 24.0105 46.8113 23.8317 45.7567C23.5627 44.1909 24.7795 42.3913 26.407 42.1114C27.6919 41.8919 28.7165 42.7054 28.895 42.8473C29.1118 43.0249 29.8872 43.6382 30.0703 44.6567Z" fill="#838F97"/>
<path d="M30.3867 44.6009C30.6636 46.1512 29.4509 47.9536 27.8114 48.2462C26.5664 48.4693 25.566 47.7329 25.3254 47.5418C25.1266 47.3858 24.3269 46.7555 24.1481 45.7009C23.8791 44.1351 25.0959 42.3355 26.7234 42.0556C28.0083 41.8362 29.033 42.6496 29.2114 42.7915C29.4282 42.9691 30.2036 43.5825 30.3867 44.6009Z" stroke="#838F97" stroke-width="1.48" stroke-miterlimit="10"/>
<path d="M29.2507 44.9127C29.2637 44.9735 29.3217 45.2656 29.2203 45.6357C29.0424 46.2935 28.4372 46.9526 27.6108 47.0917C26.5143 47.2785 25.4487 46.4835 25.3262 45.6025C25.2314 44.9277 25.7138 44.3555 25.8717 44.1689C26.051 43.9546 26.3995 43.543 26.9658 43.4214C27.9429 43.2165 29.0556 43.9924 29.2507 44.9127Z" fill="#838F97"/>
</g>
<defs>
<clipPath id="clip0_85_4672">
<rect width="54.3619" height="54.3619" fill="white" transform="translate(0 9.43982) rotate(-10)"/>
</clipPath>
</defs>
</svg>
