<svg width="32" height="33" viewBox="0 0 32 33" fill="none" xmlns="http://www.w3.org/2000/svg">
<path d="M26 5.5V27.5C26 27.7652 25.8946 28.0196 25.7071 28.2071C25.5196 28.3946 25.2652 28.5 25 28.5C24.7348 28.5 24.4804 28.3946 24.2929 28.2071C24.1054 28.0196 24 27.7652 24 27.5V18.8463L9.05375 28.1938C8.75275 28.3827 8.40672 28.4878 8.05147 28.4981C7.69623 28.5084 7.34469 28.4235 7.03326 28.2523C6.72182 28.0811 6.46181 27.8298 6.28014 27.5243C6.09848 27.2188 6.00176 26.8704 6 26.515V6.485C6.00176 6.12961 6.09848 5.78115 6.28014 5.4757C6.46181 5.17025 6.72182 4.91891 7.03326 4.7477C7.34469 4.5765 7.69623 4.49165 8.05147 4.50194C8.40672 4.51224 8.75275 4.6173 9.05375 4.80625L24 14.1538V5.5C24 5.23478 24.1054 4.98043 24.2929 4.79289C24.4804 4.60536 24.7348 4.5 25 4.5C25.2652 4.5 25.5196 4.60536 25.7071 4.79289C25.8946 4.98043 26 5.23478 26 5.5Z" fill="#EAEBE0"/>
</svg>
