<svg width="29" height="28" viewBox="0 0 29 28" fill="none" xmlns="http://www.w3.org/2000/svg">
<path d="M14.1797 2.625C11.9299 2.625 9.73069 3.29213 7.86008 4.54203C5.98947 5.79193 4.53151 7.56847 3.67056 9.64698C2.80962 11.7255 2.58435 14.0126 3.02326 16.2192C3.46217 18.4257 4.54553 20.4525 6.13635 22.0433C7.72718 23.6342 9.75401 24.7175 11.9605 25.1564C14.1671 25.5953 16.4542 25.3701 18.5327 24.5091C20.6112 23.6482 22.3878 22.1902 23.6377 20.3196C24.8876 18.449 25.5547 16.2498 25.5547 14C25.5515 10.9841 24.3521 8.09271 22.2195 5.96018C20.087 3.82764 17.1956 2.62818 14.1797 2.625ZM10.2422 10.5C10.5018 10.5 10.7555 10.577 10.9714 10.7212C11.1872 10.8654 11.3554 11.0704 11.4548 11.3102C11.5541 11.5501 11.5801 11.814 11.5295 12.0686C11.4788 12.3232 11.3538 12.557 11.1703 12.7406C10.9867 12.9241 10.7528 13.0491 10.4982 13.0998C10.2436 13.1504 9.97975 13.1244 9.73992 13.0251C9.50009 12.9258 9.29511 12.7575 9.15089 12.5417C9.00667 12.3258 8.92969 12.0721 8.92969 11.8125C8.92969 11.4644 9.06797 11.1306 9.31411 10.8844C9.56026 10.6383 9.8941 10.5 10.2422 10.5ZM19.3116 17.0625C18.1861 19.0083 16.3158 20.125 14.1797 20.125C12.0436 20.125 10.1733 19.0094 9.04782 17.0625C8.98451 16.9629 8.942 16.8515 8.92284 16.7351C8.90369 16.6187 8.90829 16.4995 8.93637 16.3849C8.96444 16.2703 9.01542 16.1625 9.08622 16.0681C9.15702 15.9737 9.24619 15.8946 9.34836 15.8355C9.45052 15.7765 9.56358 15.7387 9.68073 15.7245C9.79788 15.7102 9.9167 15.7199 10.03 15.7527C10.1434 15.7856 10.2489 15.8411 10.3402 15.9158C10.4316 15.9905 10.5069 16.0829 10.5616 16.1875C11.3786 17.5995 12.6627 18.375 14.1797 18.375C15.6967 18.375 16.9808 17.5984 17.7978 16.1875C17.8525 16.0829 17.9278 15.9905 18.0192 15.9158C18.1105 15.8411 18.216 15.7856 18.3293 15.7527C18.4427 15.7199 18.5615 15.7102 18.6787 15.7245C18.7958 15.7387 18.9089 15.7765 19.011 15.8355C19.1132 15.8946 19.2024 15.9737 19.2732 16.0681C19.344 16.1625 19.3949 16.2703 19.423 16.3849C19.4511 16.4995 19.4557 16.6187 19.4365 16.7351C19.4174 16.8515 19.3749 16.9629 19.3116 17.0625ZM18.1172 13.125C17.8576 13.125 17.6038 13.048 17.388 12.9038C17.1722 12.7596 17.0039 12.5546 16.9046 12.3148C16.8053 12.0749 16.7793 11.811 16.8299 11.5564C16.8806 11.3018 17.0056 11.068 17.1891 10.8844C17.3727 10.7009 17.6065 10.5759 17.8611 10.5252C18.1157 10.4746 18.3796 10.5006 18.6195 10.5999C18.8593 10.6992 19.0643 10.8675 19.2085 11.0833C19.3527 11.2992 19.4297 11.5529 19.4297 11.8125C19.4297 12.1606 19.2914 12.4944 19.0453 12.7406C18.7991 12.9867 18.4653 13.125 18.1172 13.125Z" fill="#A198AC"/>
</svg>
