<svg width="16" height="16" viewBox="0 0 16 16" fill="none" xmlns="http://www.w3.org/2000/svg">
<g opacity="0.5" clip-path="url(#clip0_19467_215247)">
<path d="M13.0006 9C13.0019 9.20386 12.9399 9.40311 12.8233 9.57033C12.7067 9.73754 12.5411 9.86451 12.3493 9.93375L9.12121 11.1213L7.93371 14.3469C7.86339 14.5379 7.73616 14.7028 7.56919 14.8193C7.40222 14.9357 7.20354 14.9982 6.99996 14.9982C6.79639 14.9982 6.59771 14.9357 6.43074 14.8193C6.26377 14.7028 6.13654 14.5379 6.06621 14.3469L4.87559 11.125L1.64934 9.9375C1.45829 9.86718 1.29342 9.73995 1.17695 9.57298C1.06049 9.406 0.998047 9.20733 0.998047 9.00375C0.998047 8.80017 1.06049 8.6015 1.17695 8.43452C1.29342 8.26755 1.45829 8.14032 1.64934 8.07L4.87746 6.8825L6.06496 3.65687C6.13529 3.46583 6.26252 3.30095 6.42949 3.18449C6.59646 3.06803 6.79514 3.00558 6.99871 3.00558C7.20229 3.00558 7.40097 3.06803 7.56794 3.18449C7.73491 3.30095 7.86214 3.46583 7.93246 3.65687L9.11996 6.885L12.3456 8.0725C12.537 8.14077 12.7027 8.26651 12.82 8.43253C12.9372 8.59856 13.0003 8.79675 13.0006 9ZM9.50059 3H10.5006V4C10.5006 4.13261 10.5533 4.25979 10.647 4.35355C10.7408 4.44732 10.868 4.5 11.0006 4.5C11.1332 4.5 11.2604 4.44732 11.3541 4.35355C11.4479 4.25979 11.5006 4.13261 11.5006 4V3H12.5006C12.6332 3 12.7604 2.94732 12.8541 2.85355C12.9479 2.75979 13.0006 2.63261 13.0006 2.5C13.0006 2.36739 12.9479 2.24021 12.8541 2.14645C12.7604 2.05268 12.6332 2 12.5006 2H11.5006V1C11.5006 0.867392 11.4479 0.740215 11.3541 0.646447C11.2604 0.552678 11.1332 0.5 11.0006 0.5C10.868 0.5 10.7408 0.552678 10.647 0.646447C10.5533 0.740215 10.5006 0.867392 10.5006 1V2H9.50059C9.36798 2 9.2408 2.05268 9.14703 2.14645C9.05327 2.24021 9.00059 2.36739 9.00059 2.5C9.00059 2.63261 9.05327 2.75979 9.14703 2.85355C9.2408 2.94732 9.36798 3 9.50059 3ZM15.0006 5H14.5006V4.5C14.5006 4.36739 14.4479 4.24021 14.3541 4.14645C14.2604 4.05268 14.1332 4 14.0006 4C13.868 4 13.7408 4.05268 13.647 4.14645C13.5533 4.24021 13.5006 4.36739 13.5006 4.5V5H13.0006C12.868 5 12.7408 5.05268 12.647 5.14645C12.5533 5.24021 12.5006 5.36739 12.5006 5.5C12.5006 5.63261 12.5533 5.75979 12.647 5.85355C12.7408 5.94732 12.868 6 13.0006 6H13.5006V6.5C13.5006 6.63261 13.5533 6.75979 13.647 6.85355C13.7408 6.94732 13.868 7 14.0006 7C14.1332 7 14.2604 6.94732 14.3541 6.85355C14.4479 6.75979 14.5006 6.63261 14.5006 6.5V6H15.0006C15.1332 6 15.2604 5.94732 15.3541 5.85355C15.4479 5.75979 15.5006 5.63261 15.5006 5.5C15.5006 5.36739 15.4479 5.24021 15.3541 5.14645C15.2604 5.05268 15.1332 5 15.0006 5Z" fill="#0B0E10"/>
</g>
<g clip-path="url(#clip1_19467_215247)">
<path d="M13.0006 9C13.0019 9.20386 12.9399 9.40311 12.8233 9.57033C12.7067 9.73754 12.5411 9.86451 12.3493 9.93375L9.12121 11.1213L7.93371 14.3469C7.86339 14.5379 7.73616 14.7028 7.56919 14.8193C7.40222 14.9357 7.20354 14.9982 6.99996 14.9982C6.79639 14.9982 6.59771 14.9357 6.43074 14.8193C6.26377 14.7028 6.13654 14.5379 6.06621 14.3469L4.87559 11.125L1.64934 9.9375C1.45829 9.86718 1.29342 9.73995 1.17695 9.57298C1.06049 9.406 0.998047 9.20733 0.998047 9.00375C0.998047 8.80017 1.06049 8.6015 1.17695 8.43452C1.29342 8.26755 1.45829 8.14032 1.64934 8.07L4.87746 6.8825L6.06496 3.65687C6.13529 3.46583 6.26252 3.30095 6.42949 3.18449C6.59646 3.06803 6.79514 3.00558 6.99871 3.00558C7.20229 3.00558 7.40097 3.06803 7.56794 3.18449C7.73491 3.30095 7.86214 3.46583 7.93246 3.65687L9.11996 6.885L12.3456 8.0725C12.537 8.14077 12.7027 8.26651 12.82 8.43253C12.9372 8.59856 13.0003 8.79675 13.0006 9Z" fill="#0B0E10"/>
</g>
<defs>
<clipPath id="clip0_19467_215247">
<rect width="16" height="16" fill="white"/>
</clipPath>
<clipPath id="clip1_19467_215247">
<rect width="16" height="16" fill="white"/>
</clipPath>
</defs>
</svg>
