<svg width="64" height="64" viewBox="0 0 64 64" fill="none" xmlns="http://www.w3.org/2000/svg">
<path d="M51.4173 36.0442C51.4223 36.8401 51.1805 37.6179 50.7252 38.2707C50.2699 38.9234 49.6235 39.4191 48.8749 39.6894L36.2728 44.3251L31.6369 56.9171C31.3624 57.6629 30.8657 58.3066 30.2139 58.7612C29.562 59.2159 28.7864 59.4596 27.9917 59.4596C27.197 59.4596 26.4214 59.2159 25.7695 58.7612C25.1177 58.3066 24.621 57.6629 24.3465 56.9171L19.6984 44.3397L7.10359 39.704C6.35777 39.4295 5.71412 38.9328 5.25946 38.281C4.80481 37.6292 4.56104 36.8536 4.56104 36.0589C4.56104 35.2642 4.80481 34.4886 5.25946 33.8368C5.71412 33.1849 6.35777 32.6883 7.10359 32.4137L19.7057 27.778L24.3416 15.186C24.6161 14.4402 25.1128 13.7965 25.7646 13.3419C26.4165 12.8873 27.1921 12.6435 27.9868 12.6435C28.7816 12.6435 29.5572 12.8873 30.209 13.3419C30.8608 13.7965 31.3575 14.4402 31.6321 15.186L36.2679 27.7878L48.8603 32.4235C49.6077 32.69 50.2544 33.1809 50.7122 33.829C51.1699 34.4771 51.4161 35.2508 51.4173 36.0442ZM37.7538 12.6217H41.6577V16.5255C41.6577 17.0431 41.8633 17.5396 42.2294 17.9056C42.5954 18.2717 43.0919 18.4773 43.6096 18.4773C44.1273 18.4773 44.6238 18.2717 44.9898 17.9056C45.3559 17.5396 45.5615 17.0431 45.5615 16.5255V12.6217H49.4654C49.9831 12.6217 50.4796 12.4161 50.8456 12.05C51.2117 11.684 51.4173 11.1875 51.4173 10.6698C51.4173 10.1521 51.2117 9.65568 50.8456 9.28963C50.4796 8.92358 49.9831 8.71794 49.4654 8.71794H45.5615V4.81418C45.5615 4.29651 45.3559 3.80004 44.9898 3.434C44.6238 3.06795 44.1273 2.8623 43.6096 2.8623C43.0919 2.8623 42.5954 3.06795 42.2294 3.434C41.8633 3.80004 41.6577 4.29651 41.6577 4.81418V8.71794H37.7538C37.2361 8.71794 36.7396 8.92358 36.3736 9.28963C36.0075 9.65568 35.8019 10.1521 35.8019 10.6698C35.8019 11.1875 36.0075 11.684 36.3736 12.05C36.7396 12.4161 37.2361 12.6217 37.7538 12.6217ZM59.2251 20.4292H57.2731V18.4773C57.2731 17.9597 57.0675 17.4632 56.7014 17.0971C56.3354 16.7311 55.8389 16.5255 55.3212 16.5255C54.8035 16.5255 54.307 16.7311 53.941 17.0971C53.5749 17.4632 53.3693 17.9597 53.3693 18.4773V20.4292H51.4173C50.8996 20.4292 50.4032 20.6349 50.0371 21.0009C49.671 21.367 49.4654 21.8634 49.4654 22.3811C49.4654 22.8988 49.671 23.3952 50.0371 23.7613C50.4032 24.1273 50.8996 24.333 51.4173 24.333H53.3693V26.2848C53.3693 26.8025 53.5749 27.299 53.941 27.665C54.307 28.0311 54.8035 28.2367 55.3212 28.2367C55.8389 28.2367 56.3354 28.0311 56.7014 27.665C57.0675 27.299 57.2731 26.8025 57.2731 26.2848V24.333H59.2251C59.7427 24.333 60.2392 24.1273 60.6053 23.7613C60.9713 23.3952 61.177 22.8988 61.177 22.3811C61.177 21.8634 60.9713 21.367 60.6053 21.0009C60.2392 20.6349 59.7427 20.4292 59.2251 20.4292Z" fill="#4F5E30"/>
</svg>
