<svg width="16" height="16" viewBox="0 0 16 16" fill="none" xmlns="http://www.w3.org/2000/svg">
<g opacity="0.24">
<path d="M14.9498 6.08555C14.8872 5.88866 14.7666 5.71528 14.6037 5.58813C14.4409 5.46099 14.2435 5.38602 14.0373 5.37305L10.3248 5.1168L8.94977 1.64805C8.87469 1.45705 8.74401 1.29299 8.57463 1.1771C8.40526 1.06121 8.205 0.998836 7.99977 0.998047C7.79455 0.998836 7.59429 1.06121 7.42492 1.1771C7.25554 1.29299 7.12486 1.45705 7.04977 1.64805L5.64978 5.13555L1.96228 5.37305C1.75634 5.38686 1.55929 5.46214 1.39661 5.58917C1.23393 5.71619 1.11311 5.88911 1.04978 6.08555C0.984741 6.285 0.980941 6.49936 1.03887 6.70099C1.0968 6.90262 1.21379 7.08228 1.37478 7.2168L4.21228 9.6168L3.36853 12.9355C3.31015 13.1601 3.32066 13.3969 3.39868 13.6154C3.4767 13.8339 3.61863 14.0238 3.80603 14.1605C3.98792 14.2911 4.20463 14.3644 4.42843 14.3711C4.65222 14.3778 4.87292 14.3175 5.06228 14.198L7.99352 12.3418H8.00602L11.1623 14.3355C11.3242 14.4408 11.5129 14.4972 11.706 14.498C11.8637 14.4968 12.019 14.4594 12.1599 14.3888C12.3009 14.3182 12.4237 14.2162 12.5191 14.0906C12.6145 13.9651 12.6798 13.8193 12.71 13.6646C12.7403 13.5099 12.7346 13.3503 12.6935 13.198L11.7998 9.5668L14.6248 7.2168C14.7858 7.08228 14.9028 6.90262 14.9607 6.70099C15.0186 6.49936 15.0148 6.285 14.9498 6.08555Z" fill="#50495A"/>
</g>
</svg>
