<svg width="97" height="23" viewBox="0 0 97 23" fill="none" xmlns="http://www.w3.org/2000/svg">
<g filter="url(#filter0_d_3514_60317)">
<path d="M20.2326 9.38257L16.533 12.6113L17.6413 17.4184C17.6999 17.6696 17.6832 17.9327 17.5932 18.1745C17.5031 18.4163 17.3438 18.6263 17.1351 18.7781C16.9265 18.9298 16.6777 19.0168 16.4198 19.0279C16.162 19.0391 15.9067 18.974 15.6856 18.8408L11.493 16.2978L7.30943 18.8408C7.08842 18.974 6.83304 19.0391 6.57523 19.0279C6.31742 19.0168 6.06862 18.9298 5.85994 18.7781C5.65125 18.6263 5.49194 18.4163 5.40192 18.1745C5.3119 17.9327 5.29516 17.6696 5.35381 17.4184L6.46041 12.6162L2.75998 9.38257C2.56426 9.21377 2.42273 8.99094 2.35315 8.74203C2.28357 8.49311 2.28902 8.2292 2.36883 7.98337C2.44864 7.73755 2.59925 7.52075 2.80178 7.36019C3.00431 7.19962 3.24973 7.10242 3.50728 7.08077L8.38486 6.65831L10.2888 2.11706C10.3882 1.87878 10.5559 1.67523 10.7708 1.53206C10.9857 1.38889 11.2381 1.3125 11.4963 1.3125C11.7545 1.3125 12.0069 1.38889 12.2218 1.53206C12.4367 1.67523 12.6044 1.87878 12.7038 2.11706L14.6135 6.65831L19.4894 7.08077C19.747 7.10242 19.9924 7.19962 20.1949 7.36019C20.3975 7.52075 20.5481 7.73755 20.6279 7.98337C20.7077 8.2292 20.7132 8.49311 20.6436 8.74203C20.574 8.99094 20.4325 9.21377 20.2367 9.38257H20.2326Z" fill="#CBFB62"/>
<path d="M45.2326 9.38257L41.533 12.6113L42.6413 17.4184C42.6999 17.6696 42.6832 17.9327 42.5932 18.1745C42.5031 18.4163 42.3438 18.6263 42.1351 18.7781C41.9265 18.9298 41.6777 19.0168 41.4198 19.0279C41.162 19.0391 40.9067 18.974 40.6856 18.8408L36.493 16.2978L32.3094 18.8408C32.0884 18.974 31.833 19.0391 31.5752 19.0279C31.3174 19.0168 31.0686 18.9298 30.8599 18.7781C30.6512 18.6263 30.4919 18.4163 30.4019 18.1745C30.3119 17.9327 30.2952 17.6696 30.3538 17.4184L31.4604 12.6162L27.76 9.38257C27.5643 9.21377 27.4227 8.99094 27.3532 8.74203C27.2836 8.49311 27.289 8.2292 27.3688 7.98337C27.4486 7.73755 27.5993 7.52075 27.8018 7.36019C28.0043 7.19962 28.2497 7.10242 28.5073 7.08077L33.3849 6.65831L35.2888 2.11706C35.3882 1.87878 35.5559 1.67523 35.7708 1.53206C35.9857 1.38889 36.2381 1.3125 36.4963 1.3125C36.7545 1.3125 37.0069 1.38889 37.2218 1.53206C37.4367 1.67523 37.6044 1.87878 37.7038 2.11706L39.6135 6.65831L44.4894 7.08077C44.747 7.10242 44.9924 7.19962 45.1949 7.36019C45.3975 7.52075 45.5481 7.73755 45.6279 7.98337C45.7077 8.2292 45.7132 8.49311 45.6436 8.74203C45.574 8.99094 45.4325 9.21377 45.2367 9.38257H45.2326Z" fill="#CBFB62"/>
<path d="M70.2326 9.38257L66.533 12.6113L67.6413 17.4184C67.6999 17.6696 67.6832 17.9327 67.5932 18.1745C67.5031 18.4163 67.3438 18.6263 67.1351 18.7781C66.9265 18.9298 66.6777 19.0168 66.4198 19.0279C66.162 19.0391 65.9067 18.974 65.6856 18.8408L61.493 16.2978L57.3094 18.8408C57.0884 18.974 56.833 19.0391 56.5752 19.0279C56.3174 19.0168 56.0686 18.9298 55.8599 18.7781C55.6512 18.6263 55.4919 18.4163 55.4019 18.1745C55.3119 17.9327 55.2952 17.6696 55.3538 17.4184L56.4604 12.6162L52.76 9.38257C52.5643 9.21377 52.4227 8.99094 52.3532 8.74203C52.2836 8.49311 52.289 8.2292 52.3688 7.98337C52.4486 7.73755 52.5993 7.52075 52.8018 7.36019C53.0043 7.19962 53.2497 7.10242 53.5073 7.08077L58.3849 6.65831L60.2888 2.11706C60.3882 1.87878 60.5559 1.67523 60.7708 1.53206C60.9857 1.38889 61.2381 1.3125 61.4963 1.3125C61.7545 1.3125 62.0069 1.38889 62.2218 1.53206C62.4367 1.67523 62.6044 1.87878 62.7038 2.11706L64.6135 6.65831L69.4894 7.08077C69.747 7.10242 69.9924 7.19962 70.1949 7.36019C70.3975 7.52075 70.5481 7.73755 70.6279 7.98337C70.7077 8.2292 70.7132 8.49311 70.6436 8.74203C70.574 8.99094 70.4325 9.21377 70.2367 9.38257H70.2326Z" fill="#CBFB62"/>
</g>
<defs>
<filter id="filter0_d_3514_60317" x="0" y="0" width="97" height="23" filterUnits="userSpaceOnUse" color-interpolation-filters="sRGB">
<feFlood flood-opacity="0" result="BackgroundImageFix"/>
<feColorMatrix in="SourceAlpha" type="matrix" values="0 0 0 0 0 0 0 0 0 0 0 0 0 0 0 0 0 0 127 0" result="hardAlpha"/>
<feOffset dx="-1" dy="2"/>
<feColorMatrix type="matrix" values="0 0 0 0 0 0 0 0 0 0 0 0 0 0 0 0 0 0 0.25 0"/>
<feBlend mode="normal" in2="BackgroundImageFix" result="effect1_dropShadow_3514_60317"/>
<feBlend mode="normal" in="SourceGraphic" in2="effect1_dropShadow_3514_60317" result="shape"/>
</filter>
</defs>
</svg>
