<svg width="33" height="33" viewBox="0 0 33 33" fill="none" xmlns="http://www.w3.org/2000/svg">
<circle cx="16.4566" cy="16.4566" r="16.4566" fill="#161C20"/>
<g clip-path="url(#clip0_12459_101588)">
<path d="M22.119 15.1961C22.0082 15.1507 21.8963 15.1074 21.7834 15.0659C21.5863 11.9364 19.5992 10.1452 16.2621 10.1269H16.2174C14.2207 10.1269 12.5617 10.8602 11.5399 12.194L13.3747 13.2766C14.1376 12.2802 15.3351 12.0675 16.2184 12.0675H16.2483C17.3468 12.0739 18.1768 12.3489 18.7127 12.8852C19.1037 13.2748 19.3648 13.8147 19.4937 14.4948C18.4515 14.3493 17.3935 14.3053 16.3399 14.3638C13.168 14.5214 11.1276 16.1128 11.265 18.3247C11.3343 19.4467 11.9842 20.4119 13.0944 21.0426C14.0321 21.5761 15.2414 21.8364 16.4986 21.7778C18.1576 21.6989 19.4585 21.1544 20.3663 20.1589C21.0568 19.4027 21.4925 18.4227 21.6854 17.188C22.476 17.5987 23.062 18.1386 23.3859 18.7876C23.9368 19.8922 23.9687 21.7062 22.248 23.1848C20.7403 24.481 18.9279 25.0411 16.1897 25.0585C13.152 25.0402 10.8537 24.2014 9.35994 22.5679C7.96096 21.0371 7.23858 18.8279 7.21194 16C7.23858 13.1721 7.96096 10.962 9.35994 9.43208C10.8537 7.79858 13.1509 6.96075 16.1897 6.9415C19.2486 6.95983 21.5863 7.80317 23.1376 9.444C23.8984 10.2498 24.4716 11.2618 24.8499 12.4415L27 11.9483C26.5418 10.4954 25.8205 9.24417 24.8403 8.20558C22.851 6.1 19.9423 5.022 16.1971 5H16.1822C12.4413 5.022 9.5677 6.10458 7.63599 8.2175C5.91631 10.0967 5.02983 12.7137 5 15.9927V16.0073C5.02983 19.2872 5.91631 21.9024 7.63493 23.7825C9.56664 25.8954 12.4424 26.978 16.1822 27H16.1971C19.5214 26.9798 21.8644 26.2309 23.794 24.5718C26.3202 22.4011 26.2446 19.6804 25.4114 18.0103C24.8147 16.8122 23.6757 15.8396 22.119 15.1961ZM16.3793 19.839C14.9889 19.9068 13.5451 19.3697 13.4727 18.2202C13.4194 17.3677 14.178 16.4152 16.4646 16.3025C16.7267 16.2888 16.9834 16.2832 17.236 16.2832C18.067 16.2832 18.8427 16.352 19.5491 16.4849C19.2859 19.3156 17.741 19.7748 16.3793 19.839Z" fill="#D9FA50"/>
</g>
<defs>
<clipPath id="clip0_12459_101588">
<rect width="22" height="22" fill="white" transform="translate(5 5)"/>
</clipPath>
</defs>
</svg>
