<svg width="43" height="43" viewBox="0 0 43 43" fill="none" xmlns="http://www.w3.org/2000/svg">
<g id="Timer" clip-path="url(#clip0_3514_86195)">
<path id="Vector" d="M18.4759 10.0774C15.9845 10.7566 13.7504 12.1593 12.0562 14.1082C10.362 16.0571 9.28376 18.4646 8.95783 21.0263C8.6319 23.5879 9.07291 26.1887 10.2251 28.4998C11.3773 30.8108 13.1889 32.7283 15.4309 34.0097C17.6728 35.2912 20.2444 35.879 22.8205 35.6989C25.3965 35.5188 27.8613 34.5789 29.9032 32.998C31.945 31.4171 33.4722 29.2662 34.2916 26.8173C35.1111 24.3684 35.1859 21.7316 34.5067 19.2401C33.5925 15.9015 31.3912 13.0618 28.3859 11.344C25.3806 9.62629 21.8166 9.17076 18.4759 10.0774ZM26.6729 16.5349L22.8551 23.2144C22.7841 23.3385 22.6894 23.4475 22.5764 23.535C22.4634 23.6225 22.3342 23.6869 22.1962 23.7245C22.0583 23.7621 21.9143 23.7722 21.7725 23.7541C21.6307 23.7361 21.4938 23.6903 21.3697 23.6193C21.2456 23.5484 21.1366 23.4537 21.0491 23.3407C20.9616 23.2276 20.8972 23.0985 20.8596 22.9605C20.822 22.8226 20.8119 22.6786 20.83 22.5368C20.848 22.395 20.8938 22.2581 20.9648 22.134L24.7826 15.4544C24.8535 15.3303 24.9482 15.2214 25.0613 15.1339C25.1743 15.0464 25.3035 14.982 25.4414 14.9444C25.5793 14.9068 25.7233 14.8967 25.8651 14.9147C26.007 14.9328 26.1438 14.9786 26.268 15.0495C26.3921 15.1205 26.501 15.2152 26.5885 15.3282C26.676 15.4412 26.7405 15.5704 26.7781 15.7083C26.8157 15.8463 26.8257 15.9903 26.8077 16.1321C26.7896 16.2739 26.7438 16.4108 26.6729 16.5349ZM13.4184 8.07287C13.3425 7.79446 13.3803 7.49731 13.5235 7.24678C13.6667 6.99625 13.9036 6.81286 14.182 6.73696L20.4804 5.01994C20.7588 4.94404 21.056 4.98185 21.3065 5.12505C21.557 5.26824 21.7404 5.5051 21.8163 5.7835C21.8922 6.06191 21.8544 6.35906 21.7112 6.60959C21.568 6.86012 21.3311 7.04351 21.0527 7.11941L14.7543 8.83643C14.4759 8.91233 14.1788 8.87452 13.9282 8.73132C13.6777 8.58813 13.4943 8.35127 13.4184 8.07287Z" fill="black"/>
</g>
<defs>
<clipPath id="clip0_3514_86195">
<rect width="34.8173" height="34.8173" fill="white" transform="translate(0.25 9.4082) rotate(-15.249)"/>
</clipPath>
</defs>
</svg>
