<svg width="36" height="36" viewBox="0 0 36 36" fill="none" xmlns="http://www.w3.org/2000/svg">
<rect opacity="0.16" x="0.490909" y="0.490909" width="35.0182" height="35.0182" rx="7.69091" fill="#838F97" stroke="#161C20" stroke-width="0.981818"/>
<path d="M24.6922 14.4328L20.3172 10.0578C20.2591 9.99979 20.1902 9.95378 20.1143 9.92241C20.0384 9.89105 19.9571 9.87494 19.875 9.875H12.375C12.0435 9.875 11.7255 10.0067 11.4911 10.2411C11.2567 10.4755 11.125 10.7935 11.125 11.125V24.875C11.125 25.2065 11.2567 25.5245 11.4911 25.7589C11.7255 25.9933 12.0435 26.125 12.375 26.125H23.625C23.9565 26.125 24.2745 25.9933 24.5089 25.7589C24.7433 25.5245 24.875 25.2065 24.875 24.875V14.875C24.8751 14.7929 24.859 14.7116 24.8276 14.6357C24.7962 14.5598 24.7502 14.4909 24.6922 14.4328ZM20.5 21.75H15.5C15.3342 21.75 15.1753 21.6842 15.0581 21.5669C14.9408 21.4497 14.875 21.2908 14.875 21.125C14.875 20.9592 14.9408 20.8003 15.0581 20.6831C15.1753 20.5658 15.3342 20.5 15.5 20.5H20.5C20.6658 20.5 20.8247 20.5658 20.9419 20.6831C21.0592 20.8003 21.125 20.9592 21.125 21.125C21.125 21.2908 21.0592 21.4497 20.9419 21.5669C20.8247 21.6842 20.6658 21.75 20.5 21.75ZM20.5 19.25H15.5C15.3342 19.25 15.1753 19.1842 15.0581 19.0669C14.9408 18.9497 14.875 18.7908 14.875 18.625C14.875 18.4592 14.9408 18.3003 15.0581 18.1831C15.1753 18.0658 15.3342 18 15.5 18H20.5C20.6658 18 20.8247 18.0658 20.9419 18.1831C21.0592 18.3003 21.125 18.4592 21.125 18.625C21.125 18.7908 21.0592 18.9497 20.9419 19.0669C20.8247 19.1842 20.6658 19.25 20.5 19.25ZM19.875 14.875V11.4375L23.3125 14.875H19.875Z" fill="#161C20"/>
</svg>
