<svg width="46" height="46" viewBox="0 0 46 46" fill="none" xmlns="http://www.w3.org/2000/svg">
<circle cx="23" cy="23" r="23" fill="#B7704E"/>
<path d="M24.404 22.6658V33.096C24.404 33.3265 24.3124 33.5476 24.1494 33.7106C23.9864 33.8736 23.7653 33.9652 23.5348 33.9652C23.3042 33.9652 23.0832 33.8736 22.9202 33.7106C22.7572 33.5476 22.6656 33.3265 22.6656 33.096V22.6658C22.6656 22.4353 22.7572 22.2142 22.9202 22.0512C23.0832 21.8882 23.3042 21.7966 23.5348 21.7966C23.7653 21.7966 23.9864 21.8882 24.1494 22.0512C24.3124 22.2142 24.404 22.4353 24.404 22.6658ZM31.3574 30.4885C31.1269 30.4885 30.9058 30.58 30.7428 30.743C30.5798 30.906 30.4883 31.1271 30.4883 31.3576V33.096C30.4883 33.3265 30.5798 33.5476 30.7428 33.7106C30.9058 33.8736 31.1269 33.9652 31.3574 33.9652C31.588 33.9652 31.809 33.8736 31.9721 33.7106C32.1351 33.5476 32.2266 33.3265 32.2266 33.096V31.3576C32.2266 31.1271 32.1351 30.906 31.9721 30.743C31.809 30.58 31.588 30.4885 31.3574 30.4885ZM33.965 25.2733H32.2266V13.9739C32.2266 13.7434 32.1351 13.5223 31.9721 13.3593C31.809 13.1963 31.588 13.1047 31.3574 13.1047C31.1269 13.1047 30.9058 13.1963 30.7428 13.3593C30.5798 13.5223 30.4883 13.7434 30.4883 13.9739V25.2733H28.7499C28.5194 25.2733 28.2983 25.3649 28.1353 25.5279C27.9723 25.6909 27.8807 25.912 27.8807 26.1425V27.8809C27.8807 28.1114 27.9723 28.3325 28.1353 28.4955C28.2983 28.6585 28.5194 28.7501 28.7499 28.7501H33.965C34.1955 28.7501 34.4166 28.6585 34.5796 28.4955C34.7426 28.3325 34.8342 28.1114 34.8342 27.8809V26.1425C34.8342 25.912 34.7426 25.6909 34.5796 25.5279C34.4166 25.3649 34.1955 25.2733 33.965 25.2733ZM15.7121 27.0117C15.4816 27.0117 15.2605 27.1033 15.0975 27.2663C14.9345 27.4293 14.8429 27.6504 14.8429 27.8809V33.096C14.8429 33.3265 14.9345 33.5476 15.0975 33.7106C15.2605 33.8736 15.4816 33.9652 15.7121 33.9652C15.9426 33.9652 16.1637 33.8736 16.3267 33.7106C16.4897 33.5476 16.5813 33.3265 16.5813 33.096V27.8809C16.5813 27.6504 16.4897 27.4293 16.3267 27.2663C16.1637 27.1033 15.9426 27.0117 15.7121 27.0117ZM18.3197 21.7966H16.5813V13.9739C16.5813 13.7434 16.4897 13.5223 16.3267 13.3593C16.1637 13.1963 15.9426 13.1047 15.7121 13.1047C15.4816 13.1047 15.2605 13.1963 15.0975 13.3593C14.9345 13.5223 14.8429 13.7434 14.8429 13.9739V21.7966H13.1045C12.874 21.7966 12.6529 21.8882 12.4899 22.0512C12.3269 22.2142 12.2354 22.4353 12.2354 22.6658V24.4042C12.2354 24.6347 12.3269 24.8558 12.4899 25.0188C12.6529 25.1818 12.874 25.2733 13.1045 25.2733H18.3197C18.5502 25.2733 18.7713 25.1818 18.9343 25.0188C19.0973 24.8558 19.1888 24.6347 19.1888 24.4042V22.6658C19.1888 22.4353 19.0973 22.2142 18.9343 22.0512C18.7713 21.8882 18.5502 21.7966 18.3197 21.7966ZM26.1423 16.5815H24.404V13.9739C24.404 13.7434 24.3124 13.5223 24.1494 13.3593C23.9864 13.1963 23.7653 13.1047 23.5348 13.1047C23.3042 13.1047 23.0832 13.1963 22.9202 13.3593C22.7572 13.5223 22.6656 13.7434 22.6656 13.9739V16.5815H20.9272C20.6967 16.5815 20.4756 16.6731 20.3126 16.8361C20.1496 16.9991 20.058 17.2201 20.058 17.4507V19.189C20.058 19.4196 20.1496 19.6406 20.3126 19.8036C20.4756 19.9667 20.6967 20.0582 20.9272 20.0582H26.1423C26.3729 20.0582 26.5939 19.9667 26.7569 19.8036C26.9199 19.6406 27.0115 19.4196 27.0115 19.189V17.4507C27.0115 17.2201 26.9199 16.9991 26.7569 16.8361C26.5939 16.6731 26.3729 16.5815 26.1423 16.5815Z" fill="#F9F3F0"/>
</svg>
