<svg width="33" height="33" viewBox="0 0 33 33" fill="none" xmlns="http://www.w3.org/2000/svg">
<circle cx="16.543" cy="16.4566" r="16.4566" fill="#161C20"/>
<path d="M26.1528 12.3704L23.7001 14.8232C23.2046 20.567 18.3607 25.0311 12.5635 25.0311C11.3724 25.0311 10.3905 24.8425 9.64483 24.47C9.04354 24.169 8.79745 23.8466 8.73592 23.7547C8.68107 23.6725 8.64551 23.5789 8.63191 23.4809C8.61831 23.383 8.62702 23.2832 8.65739 23.1891C8.68776 23.095 8.739 23.009 8.80729 22.9375C8.87558 22.8659 8.95914 22.8108 9.05174 22.7761C9.07307 22.7679 11.0402 22.0124 12.2895 20.5744C11.5967 20.0047 10.9918 19.3358 10.4947 18.5892C9.47749 17.079 8.33889 14.4557 8.68999 10.5354C8.70111 10.4108 8.74761 10.292 8.82399 10.193C8.90037 10.094 9.00345 10.0188 9.12111 9.97641C9.23876 9.93401 9.36609 9.9261 9.48808 9.95363C9.61008 9.98116 9.72167 10.043 9.80971 10.1318C9.83842 10.1605 12.5397 12.847 15.8423 13.7182V13.2186C15.841 12.6948 15.9446 12.176 16.1469 11.6927C16.3492 11.2095 16.6462 10.7717 17.0203 10.405C17.3836 10.0422 17.8159 9.7558 18.2917 9.56278C18.7674 9.36976 19.2771 9.274 19.7905 9.28113C20.4792 9.28793 21.1544 9.4728 21.7505 9.81779C22.3466 10.1628 22.8433 10.6561 23.1923 11.2499H25.6885C25.8184 11.2498 25.9454 11.2882 26.0534 11.3603C26.1614 11.4324 26.2456 11.5349 26.2953 11.6549C26.345 11.7749 26.358 11.9069 26.3326 12.0343C26.3073 12.1617 26.2447 12.2786 26.1528 12.3704Z" fill="#CBFB62"/>
</svg>
