<svg width="15" height="15" viewBox="0 0 15 15" fill="none" xmlns="http://www.w3.org/2000/svg">
<g clip-path="url(#clip0_5626_22661)">
<path d="M13.9494 4.84488L12.2643 6.52999C11.9239 10.4762 8.59595 13.5432 4.61311 13.5432C3.79479 13.5432 3.12018 13.4136 2.60788 13.1577C2.19478 12.9509 2.0257 12.7294 1.98344 12.6663C1.94575 12.6098 1.92132 12.5454 1.91197 12.4782C1.90263 12.4109 1.90861 12.3423 1.92948 12.2777C1.95034 12.213 1.98555 12.1539 2.03246 12.1048C2.07938 12.0557 2.13679 12.0178 2.20041 11.9939C2.21507 11.9883 3.56654 11.4692 4.42488 10.4813C3.94886 10.0899 3.53333 9.63031 3.19176 9.1174C2.49291 8.07984 1.71066 6.2775 1.95187 3.58414C1.95952 3.49856 1.99146 3.41694 2.04394 3.34891C2.09641 3.28087 2.16724 3.22924 2.24807 3.20011C2.3289 3.17097 2.41638 3.16554 2.50019 3.18445C2.58401 3.20337 2.66068 3.24583 2.72117 3.30686C2.74089 3.32658 4.59677 5.17232 6.86575 5.77084V5.42762C6.86489 5.06771 6.93605 4.71127 7.07504 4.37928C7.21403 4.0473 7.41804 3.74647 7.67506 3.49453C7.92467 3.24527 8.22168 3.04854 8.54855 2.91593C8.87543 2.78332 9.22556 2.71752 9.57828 2.72242C10.0514 2.72709 10.5153 2.85411 10.9249 3.09112C11.3344 3.32814 11.6757 3.66709 11.9155 4.07502H13.6304C13.7197 4.07495 13.8069 4.10136 13.8811 4.15089C13.9553 4.20043 14.0132 4.27087 14.0473 4.3533C14.0815 4.43573 14.0904 4.52644 14.073 4.61395C14.0556 4.70145 14.0126 4.78182 13.9494 4.84488Z" fill="#CBFB62"/>
</g>
<defs>
<clipPath id="clip0_5626_22661">
<rect width="14.4277" height="14.4277" fill="white" transform="translate(0.104004 0.468262)"/>
</clipPath>
</defs>
</svg>
