<svg width="708" height="553" viewBox="0 0 708 553" fill="none" xmlns="http://www.w3.org/2000/svg">
<g clip-path="url(#clip0_8608_90357)">
<rect width="708" height="552" rx="33.9565" fill="#E1D7C9"/>
<g clip-path="url(#clip1_8608_90357)">
<rect x="78.1094" y="89" width="530.765" height="493.218" rx="25.4674" fill="#E1D7C9"/>
<rect width="1410.9" height="732.135" transform="translate(-218.02 126.648)" fill="#E1D7C9"/>
<line x1="-244.773" y1="126.154" x2="487.536" y2="126.154" stroke="#F9F3F0" stroke-width="1.28475"/>
<line x1="-244.773" y1="164.697" x2="487.536" y2="164.697" stroke="#F9F3F0" stroke-width="1.28475"/>
<line x1="-244.773" y1="203.24" x2="487.536" y2="203.24" stroke="#F9F3F0" stroke-width="1.28475"/>
<line x1="-244.773" y1="241.783" x2="487.536" y2="241.783" stroke="#F9F3F0" stroke-width="1.28475"/>
<line x1="-244.773" y1="280.326" x2="487.536" y2="280.326" stroke="#F9F3F0" stroke-width="1.28475"/>
<line x1="-244.773" y1="318.869" x2="487.536" y2="318.869" stroke="#F9F3F0" stroke-width="1.28475"/>
<line x1="-244.773" y1="357.408" x2="487.536" y2="357.408" stroke="#F9F3F0" stroke-width="1.28475"/>
<line x1="-244.773" y1="395.951" x2="487.536" y2="395.951" stroke="#F9F3F0" stroke-width="1.28475"/>
<line x1="-244.773" y1="434.494" x2="487.536" y2="434.494" stroke="#F9F3F0" stroke-width="1.28475"/>
<line x1="-244.773" y1="473.037" x2="487.536" y2="473.037" stroke="#F9F3F0" stroke-width="1.28475"/>
<line x1="-244.773" y1="511.58" x2="487.536" y2="511.58" stroke="#F9F3F0" stroke-width="1.28475"/>
<line x1="-244.773" y1="550.123" x2="487.536" y2="550.123" stroke="#F9F3F0" stroke-width="1.28475"/>
<line x1="101.467" y1="859.109" x2="101.467" y2="126.8" stroke="#F9F3F0" stroke-width="1.28475"/>
<line x1="140.01" y1="859.109" x2="140.01" y2="126.8" stroke="#F9F3F0" stroke-width="1.28475"/>
<line x1="178.553" y1="859.109" x2="178.553" y2="126.8" stroke="#F9F3F0" stroke-width="1.28475"/>
<line x1="217.095" y1="859.109" x2="217.095" y2="126.8" stroke="#F9F3F0" stroke-width="1.28475"/>
<line x1="255.638" y1="859.109" x2="255.638" y2="126.8" stroke="#F9F3F0" stroke-width="1.28475"/>
<line x1="294.181" y1="859.109" x2="294.181" y2="126.8" stroke="#F9F3F0" stroke-width="1.28475"/>
<line x1="332.723" y1="859.109" x2="332.723" y2="126.8" stroke="#F9F3F0" stroke-width="1.28475"/>
<line x1="371.266" y1="859.109" x2="371.266" y2="126.8" stroke="#F9F3F0" stroke-width="1.28475"/>
<line x1="409.809" y1="859.109" x2="409.809" y2="126.8" stroke="#F9F3F0" stroke-width="1.28475"/>
<line x1="448.352" y1="859.109" x2="448.352" y2="126.8" stroke="#F9F3F0" stroke-width="1.28475"/>
<line x1="486.893" y1="859.109" x2="486.893" y2="126.8" stroke="#F9F3F0" stroke-width="1.28475"/>
<line x1="487.535" y1="126.154" x2="1219.84" y2="126.154" stroke="#E1D7C9" stroke-width="1.28475"/>
<line x1="487.535" y1="164.697" x2="1219.84" y2="164.697" stroke="#E1D7C9" stroke-width="1.28475"/>
<line x1="487.535" y1="203.24" x2="1219.84" y2="203.24" stroke="#E1D7C9" stroke-width="1.28475"/>
<line x1="487.535" y1="241.783" x2="1219.84" y2="241.783" stroke="#E1D7C9" stroke-width="1.28475"/>
<line x1="487.535" y1="280.326" x2="1219.84" y2="280.326" stroke="#E1D7C9" stroke-width="1.28475"/>
<line x1="487.535" y1="318.869" x2="1219.84" y2="318.869" stroke="#E1D7C9" stroke-width="1.28475"/>
<line x1="487.535" y1="357.408" x2="1219.84" y2="357.408" stroke="#E1D7C9" stroke-width="1.28475"/>
<line x1="487.535" y1="395.951" x2="1219.84" y2="395.951" stroke="#E1D7C9" stroke-width="1.28475"/>
<line x1="487.535" y1="434.494" x2="1219.84" y2="434.494" stroke="#E1D7C9" stroke-width="1.28475"/>
<line x1="487.535" y1="473.037" x2="1219.84" y2="473.037" stroke="#E1D7C9" stroke-width="1.28475"/>
<line x1="487.535" y1="511.58" x2="1219.84" y2="511.58" stroke="#E1D7C9" stroke-width="1.28475"/>
<line x1="487.535" y1="550.123" x2="1219.84" y2="550.123" stroke="#E1D7C9" stroke-width="1.28475"/>
<line x1="486.893" y1="859.109" x2="486.893" y2="126.8" stroke="#E1D7C9" stroke-width="1.28475"/>
<line x1="525.436" y1="859.109" x2="525.436" y2="126.8" stroke="#E1D7C9" stroke-width="1.28475"/>
<line x1="563.979" y1="859.109" x2="563.979" y2="126.8" stroke="#E1D7C9" stroke-width="1.28475"/>
<line x1="602.522" y1="859.109" x2="602.522" y2="126.8" stroke="#E1D7C9" stroke-width="1.28475"/>
<g filter="url(#filter0_f_8608_90357)">
<path fill-rule="evenodd" clip-rule="evenodd" d="M943.149 56.3203H-144.309L-144.309 762.616H943.149V56.3203ZM272.581 499.217C351.794 499.217 416.009 436.29 416.009 358.666C416.009 281.042 351.794 218.115 272.581 218.115C193.368 218.115 129.153 281.042 129.153 358.666C129.153 436.29 193.368 499.217 272.581 499.217Z" fill="#E1D7C9"/>
</g>
</g>
<g clip-path="url(#clip2_8608_90357)">
<rect x="588.305" y="28.8594" width="530.765" height="493.218" rx="25.4674" fill="#E1D7C9"/>
<rect width="1410.9" height="732.135" transform="translate(292.176 66.5078)" fill="#E1D7C9"/>
<line x1="265.418" y1="66.0139" x2="997.727" y2="66.0139" stroke="#F9F3F0" stroke-width="1.28475"/>
<line x1="265.418" y1="104.557" x2="997.727" y2="104.557" stroke="#F9F3F0" stroke-width="1.28475"/>
<line x1="265.418" y1="143.1" x2="997.727" y2="143.1" stroke="#F9F3F0" stroke-width="1.28475"/>
<line x1="265.418" y1="181.643" x2="997.727" y2="181.643" stroke="#F9F3F0" stroke-width="1.28475"/>
<line x1="265.418" y1="220.186" x2="997.727" y2="220.186" stroke="#F9F3F0" stroke-width="1.28475"/>
<line x1="265.418" y1="258.729" x2="997.727" y2="258.729" stroke="#F9F3F0" stroke-width="1.28475"/>
<line x1="265.418" y1="297.268" x2="997.727" y2="297.268" stroke="#F9F3F0" stroke-width="1.28475"/>
<line x1="265.418" y1="335.811" x2="997.727" y2="335.811" stroke="#F9F3F0" stroke-width="1.28475"/>
<line x1="265.418" y1="374.354" x2="997.727" y2="374.354" stroke="#F9F3F0" stroke-width="1.28475"/>
<line x1="265.418" y1="412.897" x2="997.727" y2="412.897" stroke="#F9F3F0" stroke-width="1.28475"/>
<line x1="265.418" y1="451.44" x2="997.727" y2="451.44" stroke="#F9F3F0" stroke-width="1.28475"/>
<line x1="265.418" y1="489.983" x2="997.727" y2="489.983" stroke="#F9F3F0" stroke-width="1.28475"/>
<line x1="611.658" y1="798.969" x2="611.658" y2="66.6597" stroke="#F9F3F0" stroke-width="1.28475"/>
<line x1="650.201" y1="798.969" x2="650.201" y2="66.6597" stroke="#F9F3F0" stroke-width="1.28475"/>
<line x1="688.744" y1="798.969" x2="688.744" y2="66.6597" stroke="#F9F3F0" stroke-width="1.28475"/>
<g filter="url(#filter1_f_8608_90357)">
<path fill-rule="evenodd" clip-rule="evenodd" d="M1453.34 -3.82031H365.887L365.887 702.475H1453.34V-3.82031ZM782.776 439.077C861.989 439.077 926.204 376.15 926.204 298.525C926.204 220.901 861.989 157.974 782.776 157.974C703.563 157.974 639.349 220.901 639.349 298.525C639.349 376.15 703.563 439.077 782.776 439.077Z" fill="#E1D7C9"/>
</g>
</g>
</g>
<defs>
<filter id="filter0_f_8608_90357" x="-229.154" y="-28.5252" width="1257.15" height="875.988" filterUnits="userSpaceOnUse" color-interpolation-filters="sRGB">
<feFlood flood-opacity="0" result="BackgroundImageFix"/>
<feBlend mode="normal" in="SourceGraphic" in2="BackgroundImageFix" result="shape"/>
<feGaussianBlur stdDeviation="42.4228" result="effect1_foregroundBlur_8608_90357"/>
</filter>
<filter id="filter1_f_8608_90357" x="281.041" y="-88.6658" width="1257.15" height="875.988" filterUnits="userSpaceOnUse" color-interpolation-filters="sRGB">
<feFlood flood-opacity="0" result="BackgroundImageFix"/>
<feBlend mode="normal" in="SourceGraphic" in2="BackgroundImageFix" result="shape"/>
<feGaussianBlur stdDeviation="42.4228" result="effect1_foregroundBlur_8608_90357"/>
</filter>
<clipPath id="clip0_8608_90357">
<rect width="708" height="553" fill="white"/>
</clipPath>
<clipPath id="clip1_8608_90357">
<rect x="78.1094" y="89" width="530.765" height="493.218" rx="25.4674" fill="white"/>
</clipPath>
<clipPath id="clip2_8608_90357">
<rect x="588.305" y="28.8594" width="530.765" height="493.218" rx="25.4674" fill="white"/>
</clipPath>
</defs>
</svg>
