<svg width="36" height="36" viewBox="0 0 36 36" fill="none" xmlns="http://www.w3.org/2000/svg">
<rect opacity="0.16" x="0.490909" y="0.490909" width="35.0182" height="35.0182" rx="7.69091" fill="#838F97" stroke="#161C20" stroke-width="0.981818"/>
<path d="M26.0408 25.1877C25.9859 25.2827 25.907 25.3616 25.8119 25.4165C25.7169 25.4713 25.6091 25.5002 25.4994 25.5002H10.4994C10.3897 25.5001 10.282 25.4711 10.1871 25.4162C10.0922 25.3613 10.0134 25.2824 9.95857 25.1874C9.90379 25.0924 9.87497 24.9847 9.875 24.875C9.87503 24.7654 9.90391 24.6576 9.95873 24.5627C11.1486 22.5056 12.9822 21.0306 15.122 20.3314C14.0636 19.7013 13.2412 18.7412 12.7812 17.5985C12.3213 16.4557 12.2491 15.1936 12.5759 14.0059C12.9026 12.8182 13.6102 11.7706 14.59 11.024C15.5698 10.2774 16.7675 9.87305 17.9994 9.87305C19.2312 9.87305 20.4289 10.2774 21.4087 11.024C22.3885 11.7706 23.0961 12.8182 23.4228 14.0059C23.7496 15.1936 23.6775 16.4557 23.2175 17.5985C22.7575 18.7412 21.9352 19.7013 20.8767 20.3314C23.0165 21.0306 24.8501 22.5056 26.04 24.5627C26.095 24.6576 26.124 24.7654 26.1241 24.8751C26.1242 24.9848 26.0955 25.0926 26.0408 25.1877Z" fill="#0B0E10"/>
</svg>
