<?xml version="1.0" encoding="UTF-8"?>
<svg width="15px" height="14px" viewBox="0 0 15 14" version="1.1" xmlns="http://www.w3.org/2000/svg" xmlns:xlink="http://www.w3.org/1999/xlink">
    <title>volume-high copy</title>
    <g id="as-per-new-designs" stroke="none" stroke-width="1" fill="none" fill-rule="evenodd">
        <path d="M2.28311508,3.09596551 C1.2993129,3.09596551 0.501783656,3.91771635 0.501783656,4.9313974 L0.501783656,8.60226117 C0.501783656,9.61594221 1.2993129,10.4376931 2.28311508,10.4376931 L3.85662451,10.4376931 L7.62710935,13.4967462 L7.62710935,0.0369123619 L3.85662451,3.09596551 L2.28311508,3.09596551 Z M12.3773265,6.76682928 C12.3764968,5.47154891 11.8941598,4.22580004 11.0294524,3.2856268 C10.8830784,3.12715707 10.6657727,3.06118621 10.4593921,3.11256482 C10.2530115,3.16394342 10.0889103,3.32486586 10.0289037,3.53471419 C9.96889704,3.74456252 10.0221015,3.97145579 10.1684755,4.12992547 C11.5332205,5.60665375 11.5332205,7.92700482 10.1684755,9.40373309 C10.056066,9.5186107 9.99283724,9.67498696 9.99283724,9.83811864 C9.99283724,10.0012503 10.056066,10.1576266 10.1684755,10.2725042 C10.2794777,10.3795906 10.4261227,10.4387162 10.5781817,10.4377061 C10.7418624,10.4387341 10.8987003,10.3701089 11.0116391,10.2480318 C11.8828487,9.31072635 12.3716918,8.06464178 12.3773265,6.76682928 Z M11.5460385,0.159274488 C11.2836912,-0.0434617205 10.9115109,0.0113216693 10.7147505,0.281636614 C10.5179901,0.551951558 10.5711587,0.935435286 10.8335059,1.13817149 C12.5529463,2.46691735 13.5648808,4.55225285 13.5648808,6.76682928 C13.5648808,8.98140572 12.5529463,11.0667412 10.8335059,12.3954871 C10.5711587,12.5982233 10.5179901,12.981707 10.7147505,13.252022 C10.8268879,13.4060794 11.0028765,13.4967462 11.1897722,13.4967462 C11.3182479,13.4967462 11.4432579,13.4538106 11.5460385,13.3743841 C13.564512,11.814552 14.7524351,9.36654944 14.7524351,6.76682928 C14.7524351,4.16710912 13.564512,1.71910658 11.5460385,0.159274488 L11.5460385,0.159274488 Z" id="volume-high-copy" fill="#FFFFFF" fill-rule="nonzero"></path>
    </g>
</svg>