<svg width="46" height="46" viewBox="0 0 46 46" fill="none" xmlns="http://www.w3.org/2000/svg">
<path d="M28.75 5.7499V40.2499C28.7498 40.5189 28.6741 40.7824 28.5316 41.0105C28.3891 41.2386 28.1854 41.4222 27.9437 41.5403C27.7021 41.6584 27.4321 41.7064 27.1646 41.6787C26.897 41.651 26.6426 41.5488 26.4302 41.3837L13.8809 31.6249H5.75C4.9875 31.6249 4.25623 31.322 3.71707 30.7828C3.1779 30.2437 2.875 29.5124 2.875 28.7499V17.2499C2.875 16.4874 3.1779 15.7561 3.71707 15.217C4.25623 14.6778 4.9875 14.3749 5.75 14.3749H13.8809L26.4302 4.61607C26.6426 4.45098 26.897 4.34879 27.1646 4.32111C27.4321 4.29343 27.7021 4.34137 27.9437 4.45949C28.1854 4.5776 28.3891 4.76115 28.5316 4.98927C28.6741 5.21739 28.7498 5.48092 28.75 5.7499ZM34.5 17.2499C34.1188 17.2499 33.7531 17.4013 33.4835 17.6709C33.2139 17.9405 33.0625 18.3062 33.0625 18.6874V27.3124C33.0625 27.6936 33.2139 28.0593 33.4835 28.3289C33.7531 28.5984 34.1188 28.7499 34.5 28.7499C34.8812 28.7499 35.2469 28.5984 35.5165 28.3289C35.7861 28.0593 35.9375 27.6936 35.9375 27.3124V18.6874C35.9375 18.3062 35.7861 17.9405 35.5165 17.6709C35.2469 17.4013 34.8812 17.2499 34.5 17.2499ZM40.25 14.3749C39.8688 14.3749 39.5031 14.5263 39.2335 14.7959C38.9639 15.0655 38.8125 15.4312 38.8125 15.8124V30.1874C38.8125 30.5686 38.9639 30.9343 39.2335 31.2039C39.5031 31.4734 39.8688 31.6249 40.25 31.6249C40.6312 31.6249 40.9969 31.4734 41.2665 31.2039C41.5361 30.9343 41.6875 30.5686 41.6875 30.1874V15.8124C41.6875 15.4312 41.5361 15.0655 41.2665 14.7959C40.9969 14.5263 40.6312 14.3749 40.25 14.3749Z" fill="#EAEBE0"/>
</svg>
