<svg width="46" height="46" viewBox="0 0 46 46" fill="none" xmlns="http://www.w3.org/2000/svg">
<path d="M27.945 4.45829C27.703 4.34013 27.4328 4.29231 27.165 4.32027C26.8971 4.34822 26.6426 4.45084 26.4302 4.61642L13.8809 14.3752H5.75C4.9875 14.3752 4.25623 14.6781 3.71707 15.2173C3.1779 15.7564 2.875 16.4877 2.875 17.2502V28.7502C2.875 29.5127 3.1779 30.244 3.71707 30.7831C4.25623 31.3223 4.9875 31.6252 5.75 31.6252H13.8809L26.4302 41.384C26.682 41.5813 26.9927 41.6882 27.3125 41.6877C27.6937 41.6877 28.0594 41.5363 28.329 41.2667C28.5986 40.9971 28.75 40.6315 28.75 40.2502V5.75024C28.7502 5.48113 28.6749 5.21737 28.5325 4.98897C28.3902 4.76057 28.1867 4.5767 27.945 4.45829Z" fill="#EAEBE0"/>
<path d="M40.8445 23.0003L44.1418 19.7048C44.4115 19.4351 44.5631 19.0692 44.5631 18.6878C44.5631 18.3063 44.4115 17.9405 44.1418 17.6707C43.8721 17.401 43.5062 17.2495 43.1248 17.2495C42.7433 17.2495 42.3775 17.401 42.1077 17.6707L38.8123 20.968L35.5168 17.6707C35.2471 17.401 34.8812 17.2495 34.4998 17.2495C34.1183 17.2495 33.7525 17.401 33.4827 17.6707C33.213 17.9405 33.0615 18.3063 33.0615 18.6878C33.0615 19.0692 33.213 19.4351 33.4827 19.7048L36.78 23.0003L33.4827 26.2957C33.213 26.5655 33.0615 26.9313 33.0615 27.3128C33.0615 27.6942 33.213 28.0601 33.4827 28.3298C33.7525 28.5995 34.1183 28.7511 34.4998 28.7511C34.8812 28.7511 35.2471 28.5995 35.5168 28.3298L38.8123 25.0325L42.1077 28.3298C42.3775 28.5995 42.7433 28.7511 43.1248 28.7511C43.5062 28.7511 43.8721 28.5995 44.1418 28.3298C44.4115 28.0601 44.5631 27.6942 44.5631 27.3128C44.5631 26.9313 44.4115 26.5655 44.1418 26.2957L40.8445 23.0003Z" fill="#EAEBE0"/>
</svg>
