<svg xmlns="http://www.w3.org/2000/svg" width="60" height="60" viewBox="0 0 60 60" fill="none">
<g clip-path="url(#clip0_19614_216982)">
<path d="M43.1041 15.2028L13.9608 23.5595C13.5743 23.6703 13.1597 23.6231 12.8081 23.4282C12.4564 23.2333 12.1966 22.9067 12.0858 22.5202C11.975 22.1337 12.0222 21.7191 12.2171 21.3674C12.4121 21.0158 12.7387 20.756 13.1251 20.6452L37.8969 13.542C38.2834 13.4312 38.61 13.1714 38.8049 12.8198C38.9998 12.4681 39.0471 12.0535 38.9363 11.667C38.8254 11.2805 38.5656 10.9539 38.214 10.759C37.8624 10.5641 37.4477 10.5169 37.0613 10.6277L12.2895 17.7309C11.1301 18.0633 10.1502 18.8427 9.56549 19.8976C8.98076 20.9525 8.83902 22.1965 9.17147 23.3559L15.8568 46.6705C16.1893 47.8299 16.9687 48.8097 18.0236 49.3945C19.0785 49.9792 20.3224 50.1209 21.4818 49.7885L50.6251 41.4318C51.3981 41.2102 52.0513 40.6906 52.4411 39.9873C52.8309 39.284 52.9254 38.4547 52.7038 37.6818L46.8541 17.2815C46.6325 16.5086 46.1129 15.8553 45.4096 15.4655C44.7063 15.0757 43.877 14.9812 43.1041 15.2028ZM40.7252 31.6547C40.2929 31.7787 39.8336 31.7717 39.4052 31.6346C38.9769 31.4975 38.5989 31.2364 38.3189 30.8845C38.039 30.5325 37.8697 30.1055 37.8324 29.6573C37.7952 29.2091 37.8917 28.7599 38.1097 28.3666C38.3277 27.9733 38.6575 27.6534 39.0573 27.4475C39.4571 27.2416 39.909 27.1589 40.3559 27.2098C40.8027 27.2607 41.2244 27.4429 41.5676 27.7335C41.9109 28.0241 42.1602 28.4099 42.2842 28.8422C42.4504 29.4219 42.3796 30.0439 42.0872 30.5714C41.7948 31.0988 41.3049 31.4885 40.7252 31.6547Z" fill="#102031"/>
</g>
<defs>
<clipPath id="clip0_19614_216982">
<rect width="48.5084" height="48.5084" fill="white" transform="translate(0 13.3672) rotate(-16)"/>
</clipPath>
</defs>
</svg>