<svg width="15" height="15" viewBox="0 0 15 15" fill="none" xmlns="http://www.w3.org/2000/svg">
<path d="M8.67282 8.65364L9.96906 9.30064C9.90761 9.60766 9.74155 9.88385 9.49921 10.0821C9.25686 10.2804 8.95324 10.3884 8.64013 10.3878C7.5643 10.3866 6.53288 9.95869 5.77215 9.19797C5.01143 8.43724 4.58353 7.40582 4.58233 6.32999C4.58225 6.01727 4.69052 5.71418 4.88873 5.4723C5.08694 5.23041 5.36284 5.06469 5.66949 5.00332L6.31648 6.29956L5.76586 7.11901C5.72471 7.18073 5.69943 7.25165 5.69225 7.32548C5.68508 7.39931 5.69623 7.47377 5.72472 7.54226C6.0473 8.30895 6.65723 8.91887 7.42392 9.24146C7.49262 9.27121 7.56764 9.28339 7.64222 9.2769C7.7168 9.2704 7.78859 9.24544 7.85111 9.20426L8.67282 8.65364ZM13.1488 7.68259C13.149 8.69452 12.8872 9.68927 12.389 10.57C11.8907 11.4508 11.1728 12.1875 10.3053 12.7085C9.43785 13.2295 8.45025 13.5171 7.43865 13.5432C6.42705 13.5693 5.42594 13.333 4.53274 12.8574L2.61374 13.4971C2.45486 13.5501 2.28436 13.5577 2.12135 13.5193C1.95834 13.4808 1.80927 13.3977 1.69084 13.2793C1.57241 13.1608 1.48931 13.0118 1.45084 12.8488C1.41237 12.6858 1.42006 12.5153 1.47305 12.3564L2.11271 10.4374C1.69462 9.65131 1.4611 8.78033 1.42987 7.89053C1.39865 7.00074 1.57055 6.11553 1.93252 5.30209C2.29449 4.48865 2.83701 3.76836 3.51892 3.1959C4.20082 2.62344 5.00418 2.21385 5.86802 1.99822C6.73185 1.78259 7.63346 1.76659 8.5044 1.95144C9.37534 2.13628 10.1927 2.51712 10.8945 3.06502C11.5963 3.61293 12.164 4.31352 12.5546 5.11361C12.9452 5.91369 13.1484 6.79225 13.1488 7.68259ZM10.8945 9.03519C10.8945 8.95143 10.8712 8.8693 10.8272 8.79803C10.7832 8.72675 10.7203 8.66915 10.6454 8.63166L8.84189 7.72993C8.7709 7.69455 8.69184 7.67853 8.61268 7.68348C8.53351 7.68843 8.45706 7.71417 8.39103 7.75811L7.56312 8.31042C7.18307 8.10149 6.87032 7.78874 6.66139 7.40869L7.2137 6.58078C7.25764 6.51475 7.28338 6.4383 7.28833 6.35913C7.29328 6.27997 7.27726 6.20091 7.24188 6.12992L6.34015 4.32645C6.30277 4.25097 6.245 4.18747 6.17338 4.14314C6.10176 4.09882 6.01916 4.07544 5.93493 4.07566C5.33705 4.07566 4.76365 4.31317 4.34088 4.73594C3.91811 5.15871 3.6806 5.7321 3.6806 6.32999C3.68209 7.64488 4.20509 8.90549 5.13486 9.83526C6.06463 10.765 7.32524 11.288 8.64013 11.2895C8.93617 11.2895 9.22932 11.2312 9.50283 11.1179C9.77633 11.0046 10.0248 10.8386 10.2342 10.6292C10.4435 10.4199 10.6096 10.1714 10.7229 9.89788C10.8362 9.62437 10.8945 9.33123 10.8945 9.03519Z" fill="#CBFB62"/>
</svg>
