<svg width="88" height="45" viewBox="0 0 88 45" fill="none" xmlns="http://www.w3.org/2000/svg">
<path d="M50.2624 27.7129L62.884 11.9054L62.8825 11.5912V7.18359H44.0434V12.3322H55.7305L43.4347 27.7129H43.4287V29.3076L43.4258 29.3179L43.4287 29.3209V32.9104H62.9906V27.7129H50.2624Z" fill="#161C20"/>
<path d="M41.0392 15.2695H35.5888C35.516 15.2695 35.457 15.3286 35.457 15.4014V32.7799C35.457 32.8527 35.516 32.9118 35.5888 32.9118H41.0392C41.112 32.9118 41.171 32.8527 41.171 32.7799V15.4014C41.171 15.3286 41.112 15.2695 41.0392 15.2695Z" fill="#161C20"/>
<path d="M38.3716 13.1142C40.2423 13.1142 41.7588 11.665 41.7588 9.87741C41.7588 8.08978 40.2423 6.64062 38.3716 6.64062C36.5009 6.64062 34.9844 8.08978 34.9844 9.87741C34.9844 11.665 36.5009 13.1142 38.3716 13.1142Z" fill="#161C20"/>
<path d="M87.6424 32.8953H81.4056C81.4101 25.6214 78.9811 23.6177 75.4918 23.6177H71.3492V32.8953H65.4102V7.16406H76.5759C82.6379 7.16406 86.1998 10.3638 86.1998 15.2145C86.1998 18.0008 85.5837 20.9486 82.7919 22.1994C85.877 23.7066 87.4202 27.0146 87.6409 32.8968L87.6424 32.8953ZM76.216 18.7803C78.3828 18.7803 79.855 17.7266 79.855 15.4102C79.855 13.0937 78.3517 11.8444 76.1834 11.8444H71.2189V18.7788H76.216V18.7803Z" fill="#161C20"/>
<path d="M20.6988 38.8713C19.8503 38.8713 18.6994 38.5963 17.6101 37.4431C15.8119 35.5389 15.301 32.8689 14.89 30.7222C14.8342 30.4295 14.7799 30.1441 14.7241 29.8736C14.5788 29.1758 14.4496 28.475 14.3351 27.7712C13.8624 28.7012 13.4 29.5764 12.9522 30.3881C9.74762 36.1865 7.99338 37.4875 6.70155 37.9961C5.94701 38.2932 5.1587 38.3435 4.43058 38.1498C3.53658 37.9961 2.74533 37.4845 2.20071 36.6965C1.84986 36.1865 1.60765 35.5759 1.46085 34.8278C1.28029 33.9053 1.26707 32.8955 1.2568 32.004L1.25386 31.7837L0.95733 11.201C0.93531 9.69003 2.13465 8.44815 3.63346 8.42745C3.64668 8.42745 3.65989 8.42745 3.6731 8.42745C5.1543 8.42745 6.36685 9.62646 6.3874 11.1226L6.66191 30.3348C7.1625 29.5542 7.75997 28.5474 8.46166 27.2523C10.1895 24.0678 12.1551 19.8557 13.996 15.3894C14.5009 14.1667 15.803 13.4837 17.0875 13.7675C18.372 14.0514 19.269 15.2223 19.2176 16.5455C19.2058 16.8619 19.1882 17.196 19.1706 17.5316C19.1442 18.0461 19.1178 18.5784 19.1104 19.0219C19.0943 20.0405 19.1134 21.0725 19.1691 22.0896C19.2895 24.3117 19.5816 26.5545 20.0382 28.7544C20.0998 29.0516 20.16 29.3635 20.2217 29.6858C20.3832 30.5256 20.5667 31.4851 20.8294 32.2879C21.0393 31.8665 21.286 31.3136 21.5708 30.5891L21.5942 30.5285C24.2763 23.7174 25.7384 17.3247 27.2856 10.5564C27.8875 7.92626 28.5084 5.20743 29.2263 2.34814C29.5933 0.883018 31.0701 -0.00551918 32.5249 0.365567C33.9796 0.735175 34.8604 2.22248 34.4934 3.6876C33.7903 6.49071 33.1752 9.18293 32.5792 11.785C30.9835 18.7602 29.4773 25.3496 26.6441 32.5466L26.6206 32.6057C25.5284 35.3822 24.059 38.2903 21.446 38.8003C21.2405 38.8403 20.9865 38.8728 20.6973 38.8728L20.6988 38.8713Z" fill="#161C20"/>
<path d="M73.2159 29.5557L47.1442 32.2361C43.7962 32.5803 41.3611 35.5735 41.7053 38.9216C42.0495 42.2696 45.0427 44.7047 48.3907 44.3605L74.4624 41.6801C77.8105 41.3358 80.2456 38.3427 79.9014 34.9946C79.5572 31.6465 76.564 29.2114 73.2159 29.5557Z" fill="#5B8ECA"/>
<path d="M49.1479 33.5494C50.6104 33.3987 51.8813 34.1427 52.5038 35.2491L51.274 36.8539L51.1804 36.8635C50.7092 35.8479 50.105 35.3781 49.3445 35.4565C48.233 35.5711 47.5585 36.5983 47.708 38.0491C47.819 39.1255 48.4778 40.24 49.7414 40.1098C50.6306 40.0181 51.2045 39.3914 51.3913 38.107L51.4849 38.0973L53.2661 39.2026C52.7701 40.8145 51.7292 41.8441 49.9625 42.0262C46.9674 42.3349 45.8084 39.924 45.6468 38.3562C45.4032 35.9928 46.8079 33.7906 49.1479 33.5494Z" fill="#F8F5F2"/>
<path d="M53.4211 33.2508L57.2469 32.8565C59.1306 32.6623 60.318 33.6278 60.488 35.2775C60.6737 37.0792 59.6475 37.9063 58.8034 38.2061L61.0395 40.7425L58.5708 40.997L56.5514 38.4974L56.0015 38.5541L56.2776 41.2333L54.2652 41.4408L53.4211 33.2508ZM57.2446 34.7841L55.63 34.9505L55.8121 36.7172L57.3682 36.5568C58.1053 36.4808 58.4681 36.1005 58.4066 35.5038C58.3451 34.9071 57.9466 34.7117 57.2446 34.7841Z" fill="#F8F5F2"/>
<path d="M67.2219 31.8283L67.4185 33.7354L63.6979 34.1189L63.8354 35.4527L67.556 35.0692L67.7369 36.8242L64.0163 37.2077L64.1502 38.5063L67.8707 38.1228L68.0661 40.0182L62.2746 40.6152L61.4305 32.4253L67.2219 31.8283Z" fill="#F8F5F2"/>
<path d="M68.5144 31.6951L71.9191 31.3442C74.1069 31.1186 75.8941 32.2824 76.1884 35.1372C76.4742 37.91 75.0681 39.2965 72.8217 39.528L69.3586 39.885L68.5144 31.6951ZM72.4081 33.2211L70.7818 33.3887L71.2341 37.7762L72.8838 37.6061C73.6677 37.5253 74.261 36.7429 74.1102 35.2804C73.9752 33.97 73.2622 33.133 72.4081 33.2211Z" fill="#F8F5F2"/>
</svg>
