<svg width="183" height="191" viewBox="0 0 183 191" fill="none" xmlns="http://www.w3.org/2000/svg">
<path d="M14.1386 2.48416L5.7376 13.5255C5.0837 14.3849 4.94216 15.5294 5.36699 16.5222L13.9058 36.4772C13.959 36.6015 13.9865 36.7354 13.9865 36.8706V121.347C13.9865 126.41 14.6153 131.659 17.3138 136.183C21.1624 142.634 29.2314 152.941 45.6913 164.847C70.5748 182.846 87.3895 188.381 90.5239 189.314C91.0383 189.467 91.5733 189.467 92.0878 189.314C95.2221 188.381 112.037 182.846 136.92 164.847C153.38 152.941 161.449 142.634 165.298 136.183C167.996 131.659 168.625 126.41 168.625 121.347V36.8706C168.625 36.7354 168.653 36.6015 168.706 36.4772L177.245 16.5222C177.67 15.5294 177.528 14.3849 176.874 13.5255L168.473 2.48416C167.721 1.49555 166.438 1.08004 165.254 1.41524C140.752 8.35134 122.55 10.1726 91.3058 10.1726C60.0613 10.1726 41.8601 8.35134 17.3579 1.41524C16.1738 1.08004 14.8908 1.49556 14.1386 2.48416Z" fill="#F7F1E3" stroke="#B59B7B" stroke-width="2"/>
<path d="M18.7671 7.77035C17.9738 7.57258 17.1354 7.87281 16.6543 8.53382L11.8879 15.0832C11.473 15.6534 11.3889 16.3998 11.6667 17.0479L19.6203 35.6063C19.727 35.8552 19.782 36.1233 19.782 36.3941V119.583C19.782 124.251 20.367 128.948 22.7611 132.955C26.2877 138.858 33.7411 148.388 49.0398 159.437C72.1386 176.12 87.7375 181.264 90.6489 182.132C90.9768 182.229 91.3081 182.229 91.6359 182.132C94.5473 181.264 110.146 176.12 133.245 159.437C148.544 148.388 155.997 138.858 159.524 132.955C161.918 128.948 162.503 124.251 162.503 119.583V36.3941C162.503 36.1233 162.558 35.8552 162.665 35.6063L170.618 17.0479C170.896 16.3998 170.812 15.6534 170.397 15.0832L165.63 8.53382C165.149 7.87281 164.311 7.57258 163.518 7.77034C114.179 20.0714 68.106 20.0714 18.7671 7.77035Z" fill="#F7F1E3" stroke="#B59B7B" stroke-width="0.77707"/>
<path d="M73.6676 143.126C73.825 142.761 74.0254 142.421 74.269 142.106C74.5177 141.787 74.8146 141.492 75.1597 141.223C75.5048 140.949 75.9134 140.734 76.3853 140.576C76.8624 140.419 77.3699 140.34 77.9079 140.34C79.065 140.34 80.0039 140.647 80.7245 141.261C81.4452 141.875 81.8055 142.695 81.8055 143.72C81.8055 144.004 81.7725 144.281 81.7066 144.55C81.6406 144.819 81.534 145.083 81.3868 145.342C81.2447 145.601 81.1026 145.834 80.9605 146.042C80.8235 146.25 80.6332 146.481 80.3896 146.735C80.1511 146.989 79.9506 147.197 79.7882 147.359C79.6258 147.521 79.4025 147.737 79.1183 148.006C78.8341 148.27 78.6235 148.468 78.4864 148.6L77.9688 149.102H81.8208V151.439H73.8656V149.727L75.3196 148.387C76.5122 147.346 77.3674 146.572 77.885 146.065C78.4078 145.552 78.7656 145.141 78.9584 144.832C79.1513 144.522 79.2477 144.205 79.2477 143.88C79.2477 143.515 79.1208 143.223 78.8671 143.005C78.6184 142.786 78.2783 142.677 77.847 142.677C77.3395 142.677 76.8725 142.911 76.4462 143.378C76.025 143.84 75.6901 144.423 75.4414 145.129H75.3196L73.6676 143.126ZM82.4413 146.126C82.4413 145.324 82.5378 144.578 82.7306 143.888C82.9235 143.192 83.2001 142.581 83.5604 142.053C83.9207 141.52 84.3826 141.102 84.9459 140.797C85.5143 140.492 86.1487 140.34 86.8491 140.34C87.5494 140.34 88.1813 140.492 88.7446 140.797C89.313 141.102 89.7774 141.518 90.1377 142.045C90.5031 142.573 90.7822 143.187 90.9751 143.888C91.1679 144.583 91.2644 145.329 91.2644 146.126C91.2644 146.486 91.2441 146.841 91.2035 147.192C91.1679 147.537 91.0994 147.895 90.9979 148.265C90.9015 148.635 90.7797 148.981 90.6325 149.3C90.4853 149.62 90.2925 149.927 90.054 150.221C89.8205 150.511 89.5541 150.757 89.2546 150.96C88.9603 151.163 88.6076 151.325 88.1965 151.447C87.7854 151.569 87.3363 151.63 86.8491 151.63C86.3618 151.63 85.9127 151.569 85.5016 151.447C85.0905 151.325 84.7353 151.163 84.4358 150.96C84.1415 150.757 83.8776 150.511 83.6441 150.221C83.4107 149.927 83.2178 149.62 83.0656 149.3C82.9184 148.981 82.7966 148.635 82.7002 148.265C82.6037 147.895 82.5352 147.537 82.4946 147.192C82.4591 146.841 82.4413 146.486 82.4413 146.126ZM85.121 145.996C85.121 146.402 85.1464 146.788 85.1971 147.154C85.2529 147.514 85.3418 147.864 85.4636 148.204C85.5904 148.544 85.7706 148.816 86.004 149.019C86.2426 149.217 86.5242 149.316 86.8491 149.316C87.1739 149.316 87.453 149.217 87.6864 149.019C87.9199 148.816 88.0975 148.544 88.2193 148.204C88.3411 147.864 88.4299 147.514 88.4858 147.154C88.5416 146.788 88.5695 146.402 88.5695 145.996C88.5695 145.56 88.534 145.146 88.4629 144.756C88.397 144.36 88.2954 144.002 88.1584 143.682C88.0214 143.362 87.8387 143.109 87.6103 142.921C87.387 142.728 87.1333 142.632 86.8491 142.632C86.5598 142.632 86.3009 142.728 86.0726 142.921C85.8493 143.109 85.6691 143.362 85.5321 143.682C85.395 144.002 85.291 144.36 85.2199 144.756C85.154 145.146 85.121 145.56 85.121 145.996ZM91.885 143.126C92.0423 142.761 92.2428 142.421 92.4864 142.106C92.735 141.787 93.0319 141.492 93.377 141.223C93.7221 140.949 94.1307 140.734 94.6027 140.576C95.0797 140.419 95.5872 140.34 96.1252 140.34C97.2823 140.34 98.2212 140.647 98.9419 141.261C99.6625 141.875 100.023 142.695 100.023 143.72C100.023 144.004 99.9899 144.281 99.9239 144.55C99.8579 144.819 99.7513 145.083 99.6042 145.342C99.4621 145.601 99.32 145.834 99.1779 146.042C99.0408 146.25 98.8505 146.481 98.6069 146.735C98.3684 146.989 98.1679 147.197 98.0055 147.359C97.8431 147.521 97.6198 147.737 97.3356 148.006C97.0514 148.27 96.8408 148.468 96.7038 148.6L96.1861 149.102H100.038V151.439H92.0829V149.727L93.5369 148.387C94.7295 147.346 95.5847 146.572 96.1024 146.065C96.6251 145.552 96.9829 145.141 97.1757 144.832C97.3686 144.522 97.465 144.205 97.465 143.88C97.465 143.515 97.3381 143.223 97.0844 143.005C96.8357 142.786 96.4957 142.677 96.0643 142.677C95.5568 142.677 95.0899 142.911 94.6636 143.378C94.2423 143.84 93.9074 144.423 93.6587 145.129H93.5369L91.885 143.126ZM100.179 149.239V146.994L104.107 140.523H108.165V146.902H109.223V149.239H108.21V151.439H105.592V149.239H100.179ZM102.813 146.902H105.592V142.601H105.531L102.813 146.902Z" fill="#161C20"/>
<mask id="mask0_16344_43609" style="mask-type:alpha" maskUnits="userSpaceOnUse" x="11" y="7" width="160" height="172">
<path d="M21.3066 8.0456C18.8945 7.45036 16.3558 8.40472 14.9809 10.474L12.7123 13.8881C11.6442 15.4957 11.4606 17.5341 12.2243 19.3066L19.5714 36.3577V119.588C19.5714 124.235 20.157 128.912 22.5534 132.901C26.0833 138.777 33.5439 148.265 48.8571 159.266C58.7324 166.359 67.2381 171.358 73.9698 174.824C84.7657 180.382 97.2343 180.382 108.03 174.824C114.762 171.358 123.268 166.359 133.143 159.266C148.456 148.265 155.917 138.777 159.447 132.901C161.843 128.912 162.429 124.235 162.429 119.588V36.3577L169.799 19.2517C170.55 17.5094 170.386 15.5079 169.362 13.9109L167.181 10.5098C165.84 8.41905 163.32 7.4241 160.902 7.9908C150.544 10.4181 121.572 16.4651 90 16.4651C58.6629 16.4651 31.2842 10.5078 21.3066 8.0456Z" fill="#F7F1E3"/>
</mask>
<g mask="url(#mask0_16344_43609)">
<path d="M26.7032 147.313C26.7032 147.313 32.9198 142.82 51.5695 136.045C70.2192 129.271 91.5886 129.052 91.5886 129.052L20.3307 130.847L15.1504 126.406V132.327L18.1106 138.247L26.7032 147.313Z" fill="#838F97"/>
<path d="M155.412 147.313C155.412 147.313 149.195 142.82 130.545 136.045C111.896 129.271 91.5886 129.052 91.5886 129.052L161.784 130.847L166.964 126.406V132.327L164.004 138.247L155.412 147.313Z" fill="#838F97"/>
</g>
<path fill-rule="evenodd" clip-rule="evenodd" d="M0 136.006V105.656C0 102.231 2.37331 99.2734 5.729 98.5902C6.81828 98.3685 8.14119 98.0569 9.73304 97.6819C20.6252 95.116 44.1092 89.584 91.5 89.584C138.891 89.584 162.375 95.116 173.267 97.6819C174.859 98.0569 176.182 98.3685 177.271 98.5902C180.627 99.2734 183 102.231 183 105.656V136.006C183 139.186 180.938 142 177.905 142.958L162.689 147.763C162.962 146.943 163.185 146.105 163.365 145.256L167.196 142.957C168.258 142.32 168.091 140.761 166.906 140.4C161.806 138.846 150.844 135.826 139.62 134.787C125.592 133.488 114.466 132.6 91.5 132.6C68.5339 132.6 57.4078 133.488 43.3805 134.787C32.1559 135.826 21.1942 138.846 16.094 140.4C14.9093 140.761 14.7422 142.32 15.8042 142.957L18.8041 144.757C18.9825 145.689 19.2098 146.607 19.4965 147.506L5.09534 142.958C2.06214 142 0 139.186 0 136.006Z" fill="#CBFB62"/>
<path d="M95.9258 117.586L105.889 105.108L105.888 104.86V101.381H91.0168V105.445H100.242L90.5363 117.586H90.5316V118.844L90.5293 118.853L90.5316 118.855V121.688H105.973V117.586H95.9258Z" fill="#2B1911"/>
<path d="M88.6445 107.762H84.3423C84.2849 107.762 84.2383 107.808 84.2383 107.866V121.584C84.2383 121.641 84.2849 121.688 84.3423 121.688H88.6445C88.702 121.688 88.7486 121.641 88.7486 121.584V107.866C88.7486 107.808 88.702 107.762 88.6445 107.762Z" fill="#2B1911"/>
<path d="M86.5389 106.061C88.0156 106.061 89.2126 104.917 89.2126 103.506C89.2126 102.095 88.0156 100.951 86.5389 100.951C85.0623 100.951 83.8652 102.095 83.8652 103.506C83.8652 104.917 85.0623 106.061 86.5389 106.061Z" fill="#2B1911"/>
<path d="M125.432 121.675H120.509C120.512 115.934 118.595 114.352 115.841 114.352H112.571V121.675H107.883V101.364H116.697C121.482 101.364 124.293 103.89 124.293 107.719C124.293 109.918 123.807 112.245 121.603 113.232C124.038 114.422 125.257 117.033 125.431 121.676L125.432 121.675ZM116.412 110.534C118.123 110.534 119.285 109.702 119.285 107.873C119.285 106.045 118.098 105.059 116.387 105.059H112.468V110.532H116.412V110.534Z" fill="#2B1911"/>
<path d="M72.591 126.393C71.9212 126.393 71.0128 126.176 70.153 125.265C68.7335 123.762 68.3303 121.655 68.0058 119.96C67.9618 119.729 67.9189 119.504 67.8749 119.29C67.7602 118.74 67.6582 118.186 67.5678 117.631C67.1947 118.365 66.8297 119.056 66.4763 119.697C63.9467 124.274 62.562 125.3 61.5423 125.702C60.9467 125.937 60.3244 125.976 59.7497 125.823C59.044 125.702 58.4194 125.298 57.9895 124.676C57.7126 124.274 57.5214 123.792 57.4055 123.201C57.263 122.473 57.2525 121.676 57.2444 120.972L57.2421 120.798L57.008 104.551C56.9907 103.358 57.9374 102.378 59.1205 102.362C59.1309 102.362 59.1413 102.362 59.1517 102.362C60.3209 102.362 61.2781 103.308 61.2943 104.489L61.511 119.655C61.9061 119.038 62.3777 118.244 62.9316 117.221C64.2955 114.708 65.847 111.383 67.3001 107.857C67.6987 106.892 68.7266 106.353 69.7405 106.577C70.7544 106.801 71.4624 107.725 71.4218 108.77C71.4126 109.02 71.3987 109.283 71.3847 109.548C71.3639 109.954 71.343 110.375 71.3372 110.725C71.3245 111.529 71.3396 112.343 71.3836 113.146C71.4786 114.9 71.7092 116.671 72.0696 118.407C72.1182 118.642 72.1657 118.888 72.2144 119.142C72.3419 119.805 72.4867 120.562 72.6941 121.196C72.8598 120.864 73.0545 120.427 73.2793 119.855L73.2979 119.807C75.4149 114.431 76.569 109.385 77.7904 104.042C78.2654 101.966 78.7556 99.8201 79.3222 97.5631C79.6119 96.4066 80.7776 95.7053 81.926 95.9982C83.0743 96.2899 83.7695 97.464 83.4799 98.6205C82.9248 100.833 82.4393 102.958 81.9688 105.012C80.7093 110.518 79.5204 115.719 77.284 121.4L77.2654 121.447C76.4033 123.639 75.2434 125.934 73.1808 126.337C73.0186 126.368 72.8181 126.394 72.5899 126.394L72.591 126.393Z" fill="#2B1911"/>
<path d="M42.2881 30.3367C44.0366 30.3367 45.4493 31.3718 46.0508 32.7565L44.4002 34.505H44.2883C43.8547 33.2461 43.1973 32.6167 42.2881 32.6167C40.9593 32.6167 40.0361 33.7497 40.0361 35.4841C40.0361 36.771 40.6795 38.1698 42.1902 38.1698C43.2532 38.1698 44.0086 37.4984 44.3862 36.0017H44.4981L46.4704 37.5263C45.6871 39.3727 44.3303 40.4638 42.2182 40.4638C38.6373 40.4638 37.5603 37.4704 37.5603 35.596C37.5603 32.7705 39.4906 30.3367 42.2881 30.3367ZM54.1635 30.5045V32.7845H49.7154V34.3791H54.1635V36.4773H49.7154V38.0299H54.1635V40.2959H47.2396V30.5045H54.1635ZM55.5688 30.5045H60.1428C62.3948 30.5045 63.6817 31.7914 63.6817 33.7637C63.6817 35.9178 62.3669 36.771 61.3318 37.0228L63.6677 40.2959H60.7163L58.6322 37.0927H57.9747V40.2959H55.5688V30.5045ZM59.905 32.7845H57.9747V34.8967H59.8351C60.7163 34.8967 61.1919 34.491 61.1919 33.7776C61.1919 33.0643 60.7443 32.7845 59.905 32.7845ZM72.0963 30.5045V32.7845H69.3547V40.2959H66.8789V32.7845H64.1653V30.5045H72.0963ZM75.4134 30.5045V40.2959H72.9376V30.5045H75.4134ZM83.843 30.5045V32.7845H79.5627V34.6449H83.787V36.743H79.5627V40.2959H77.0869V30.5045H83.843ZM87.5778 30.5045V40.2959H85.102V30.5045H87.5778ZM93.4896 30.3367C95.238 30.3367 96.6508 31.3718 97.2522 32.7565L95.6017 34.505H95.4898C95.0562 33.2461 94.3988 32.6167 93.4896 32.6167C92.1607 32.6167 91.2375 33.7497 91.2375 35.4841C91.2375 36.771 91.881 38.1698 93.3916 38.1698C94.4547 38.1698 95.21 37.4984 95.5877 36.0017H95.6996L97.6719 37.5263C96.8886 39.3727 95.5318 40.4638 93.4196 40.4638C89.8388 40.4638 88.7617 37.4704 88.7617 35.596C88.7617 32.7705 90.692 30.3367 93.4896 30.3367ZM104.081 30.5045L107.522 40.2959H104.963L104.375 38.4775H100.543L99.955 40.2959H97.3953L100.836 30.5045H104.081ZM102.515 32.6866H102.445L101.242 36.3514H103.676L102.515 32.6866ZM114.395 30.5045V32.7845H111.653V40.2959H109.177V32.7845H106.464V30.5045H114.395ZM122.16 30.5045V32.7845H117.712V34.3791H122.16V36.4773H117.712V38.0299H122.16V40.2959H115.236V30.5045H122.16ZM130.998 30.3367C133.753 30.3367 135.768 32.6306 135.768 35.596C135.768 37.6802 134.509 40.4638 130.998 40.4638C127.487 40.4638 126.228 37.6802 126.228 35.596C126.228 32.6306 128.242 30.3367 130.998 30.3367ZM130.998 32.5887C129.543 32.5887 128.704 33.8616 128.704 35.4841C128.704 36.9249 129.487 38.1698 130.998 38.1698C132.508 38.1698 133.292 36.9249 133.292 35.4841C133.292 33.8616 132.452 32.5887 130.998 32.5887ZM143.715 30.5045V32.7845H139.435V34.6449H143.659V36.743H139.435V40.2959H136.959V30.5045H143.715Z" fill="#161C20"/>
<path d="M50.7881 49.7224C52.5366 49.7224 53.9493 50.7575 54.5508 52.1423L52.9002 53.8907H52.7883C52.3547 52.6318 51.6973 52.0024 50.7881 52.0024C49.4593 52.0024 48.5361 53.1354 48.5361 54.8699C48.5361 56.1567 49.1795 57.5555 50.6902 57.5555C51.7532 57.5555 52.5086 56.8841 52.8862 55.3874H52.9981L54.9704 56.9121C54.1871 58.7585 52.8303 59.8495 50.7182 59.8495C47.1373 59.8495 46.0603 56.8561 46.0603 54.9818C46.0603 52.1563 47.9906 49.7224 50.7881 49.7224ZM60.0199 49.7224C62.7754 49.7224 64.7897 52.0164 64.7897 54.9818C64.7897 57.0659 63.5308 59.8495 60.0199 59.8495C56.5089 59.8495 55.2501 57.0659 55.2501 54.9818C55.2501 52.0164 57.2643 49.7224 60.0199 49.7224ZM60.0199 51.9744C58.5651 51.9744 57.7259 53.2473 57.7259 54.8699C57.7259 56.3106 58.5092 57.5555 60.0199 57.5555C61.5305 57.5555 62.3138 56.3106 62.3138 54.8699C62.3138 53.2473 61.4746 51.9744 60.0199 51.9744ZM77.8428 49.8903V59.6816H75.4229V52.1563H75.3949L73.101 59.6816H70.7231L68.4291 52.1563H68.4011V59.6816H65.9812V49.8903H69.9957L71.898 56.5764H71.926L73.8283 49.8903H77.8428ZM79.5149 49.8903H83.7251C86.0611 49.8903 87.3759 51.2051 87.3759 53.2893C87.3759 55.3734 85.7534 56.8282 83.6412 56.8282H81.9907V59.6816H79.5149V49.8903ZM83.5153 52.1703H81.9907V54.5621H83.2496C84.3826 54.5621 84.9001 54.0026 84.9001 53.2893C84.9001 52.5759 84.4805 52.1703 83.5153 52.1703ZM90.8253 49.8903V57.4156H94.63V59.6816H88.3495V49.8903H90.8253ZM102.387 49.8903V52.1703H97.9388V53.7649H102.387V55.863H97.9388V57.4156H102.387V59.6816H95.463V49.8903H102.387ZM110.884 49.8903V52.1703H108.142V59.6816H105.667V52.1703H102.953V49.8903H110.884ZM114.201 49.8903V59.6816H111.725V49.8903H114.201ZM120.155 49.7224C122.91 49.7224 124.925 52.0164 124.925 54.9818C124.925 57.0659 123.666 59.8495 120.155 59.8495C116.644 59.8495 115.385 57.0659 115.385 54.9818C115.385 52.0164 117.399 49.7224 120.155 49.7224ZM120.155 51.9744C118.7 51.9744 117.861 53.2473 117.861 54.8699C117.861 56.3106 118.644 57.5555 120.155 57.5555C121.666 57.5555 122.449 56.3106 122.449 54.8699C122.449 53.2473 121.61 51.9744 120.155 51.9744ZM135.698 49.8903V59.6816H131.683L128.62 52.1563H128.592V59.6816H126.116V49.8903H130.131L133.194 57.4296H133.222V49.8903H135.698Z" fill="#161C20"/>
<path d="M74.6722 67.4592C74.9327 66.9243 75.6949 66.9243 75.9554 67.4592L77.2279 70.0725C77.3319 70.2861 77.5353 70.4339 77.7706 70.4668L80.6492 70.8695C81.2384 70.9519 81.474 71.6768 81.0457 72.0898L78.9536 74.1076C78.7826 74.2725 78.7048 74.5117 78.7462 74.7456L79.2528 77.6077C79.3565 78.1936 78.7399 78.6416 78.2147 78.362L75.6492 76.9957C75.4395 76.8841 75.188 76.8841 74.9784 76.9957L72.4128 78.362C71.8877 78.6416 71.271 78.1936 71.3747 77.6077L71.8813 74.7456C71.9227 74.5117 71.845 74.2725 71.674 74.1076L69.5818 72.0898C69.1536 71.6768 69.3891 70.9519 69.9784 70.8695L72.857 70.4668C73.0922 70.4339 73.2957 70.2861 73.3997 70.0725L74.6722 67.4592Z" fill="#B7704E"/>
<path d="M90.4984 67.4592C90.7588 66.9243 91.5211 66.9243 91.7815 67.4592L93.054 70.0725C93.158 70.2861 93.3615 70.4339 93.5968 70.4668L96.4754 70.8695C97.0646 70.9519 97.3001 71.6768 96.8719 72.0898L94.7797 74.1076C94.6087 74.2725 94.531 74.5117 94.5724 74.7456L95.079 77.6077C95.1827 78.1936 94.566 78.6416 94.0409 78.362L91.4754 76.9957C91.2657 76.8841 91.0142 76.8841 90.8045 76.9957L88.239 78.362C87.7139 78.6416 87.0972 78.1936 87.2009 77.6077L87.7075 74.7456C87.7489 74.5117 87.6712 74.2725 87.5002 74.1076L85.408 72.0898C84.9798 71.6768 85.2153 70.9519 85.8045 70.8695L88.6831 70.4668C88.9184 70.4339 89.1219 70.2861 89.2259 70.0725L90.4984 67.4592Z" fill="#B7704E"/>
<path d="M106.325 67.4592C106.585 66.9243 107.347 66.9243 107.608 67.4592L108.88 70.0725C108.984 70.2861 109.188 70.4339 109.423 70.4668L112.302 70.8695C112.891 70.9519 113.126 71.6768 112.698 72.0898L110.606 74.1076C110.435 74.2725 110.357 74.5117 110.399 74.7456L110.905 77.6077C111.009 78.1936 110.392 78.6416 109.867 78.362L107.302 76.9957C107.092 76.8841 106.84 76.8841 106.631 76.9957L104.065 78.362C103.54 78.6416 102.923 78.1936 103.027 77.6077L103.534 74.7456C103.575 74.5117 103.497 74.2725 103.326 74.1076L101.234 72.0898C100.806 71.6768 101.041 70.9519 101.631 70.8695L104.509 70.4668C104.745 70.4339 104.948 70.2861 105.052 70.0725L106.325 67.4592Z" fill="#B7704E"/>
</svg>
