<svg width="92" height="23" viewBox="0 0 92 23" fill="none" xmlns="http://www.w3.org/2000/svg">
<path d="M83.6752 4.40625H59.6666C55.549 4.40625 52.2109 7.70214 52.2109 11.7678V11.7711C52.2109 15.8368 55.549 19.1327 59.6666 19.1327H83.6752C87.7929 19.1327 91.1309 15.8368 91.1309 11.7711V11.7678C91.1309 7.70214 87.7929 4.40625 83.6752 4.40625Z" fill="#5B8ECA"/>
<path d="M59.5435 7.12573C61.0684 7.12573 62.3006 8.02852 62.8252 9.2363L61.3856 10.7613H61.288C60.9098 9.66329 60.3364 9.1143 59.5435 9.1143C58.3845 9.1143 57.5793 10.1025 57.5793 11.6153C57.5793 12.7376 58.1405 13.9576 59.4581 13.9576C60.3852 13.9576 61.044 13.372 61.3734 12.0666H61.471L63.1912 13.3964C62.508 15.0068 61.3246 15.9584 59.4825 15.9584C56.3593 15.9584 55.4199 13.3476 55.4199 11.7129C55.4199 9.2485 57.1035 7.12573 59.5435 7.12573Z" fill="#F8F5F2"/>
<path d="M63.9841 7.27213H67.9734C69.9376 7.27213 71.06 8.39451 71.06 10.1147C71.06 11.9935 69.9132 12.7376 69.0104 12.9572L71.0478 15.812H68.4736L66.6559 13.0182H66.0825V15.812H63.9841V7.27213ZM67.766 9.2607H66.0825V11.1029H67.705C68.4736 11.1029 68.8884 10.7491 68.8884 10.1269C68.8884 9.50469 68.498 9.2607 67.766 9.2607Z" fill="#F8F5F2"/>
<path d="M78.3746 7.27213V9.2607H74.4951V10.6515H78.3746V12.4814H74.4951V13.8356H78.3746V15.812H72.3357V7.27213H78.3746Z" fill="#F8F5F2"/>
<path d="M79.7223 7.27213H83.2725C85.5538 7.27213 87.274 8.66291 87.274 11.6397C87.274 14.531 85.6758 15.812 83.3335 15.812H79.7223V7.27213ZM83.5775 9.2607H81.8817V13.8356H83.6019C84.4193 13.8356 85.1146 13.0914 85.1146 11.5665C85.1146 10.2001 84.468 9.2607 83.5775 9.2607Z" fill="#F8F5F2"/>
<path d="M29.2257 16.1419L36.4574 7.08481L36.4566 6.90478V4.37939H25.6625V7.32936H32.3587L25.3137 16.1419H25.3103V17.0556L25.3086 17.0615L25.3103 17.0632V19.1199H36.5185V16.1419H29.2257Z" fill="#161C20"/>
<path d="M23.9386 9.01172H20.8158C20.774 9.01172 20.7402 9.04555 20.7402 9.08729V19.0445C20.7402 19.0862 20.774 19.1201 20.8158 19.1201H23.9386C23.9803 19.1201 24.0141 19.0862 24.0141 19.0445V9.08729C24.0141 9.04555 23.9803 9.01172 23.9386 9.01172Z" fill="#161C20"/>
<path d="M22.4114 7.77698C23.4833 7.77698 24.3522 6.94667 24.3522 5.92243C24.3522 4.89818 23.4833 4.06787 22.4114 4.06787C21.3396 4.06787 20.4707 4.89818 20.4707 5.92243C20.4707 6.94667 21.3396 7.77698 22.4114 7.77698Z" fill="#161C20"/>
<path d="M50.6425 19.1107H47.0691C47.0717 14.9431 45.68 13.795 43.6807 13.795H41.3072V19.1107H37.9043V4.36768H44.3018C47.7751 4.36768 49.816 6.201 49.816 8.98029C49.816 10.5767 49.463 12.2657 47.8634 12.9824C49.631 13.846 50.5153 15.7413 50.6417 19.1116L50.6425 19.1107ZM44.0956 11.0234C45.3371 11.0234 46.1806 10.4196 46.1806 9.09238C46.1806 7.76515 45.3193 7.04931 44.077 7.04931H41.2325V11.0225H44.0956V11.0234Z" fill="#161C20"/>
<path d="M12.2878 22.5347C11.8017 22.5347 11.1423 22.3772 10.5182 21.7164C9.48782 20.6254 9.19512 19.0956 8.95961 17.8656C8.92765 17.6979 8.89653 17.5344 8.86457 17.3794C8.7813 16.9795 8.70728 16.578 8.64167 16.1748C8.37084 16.7076 8.10589 17.2091 7.84936 17.6742C6.01324 20.9964 5.00812 21.7419 4.26796 22.0333C3.83563 22.2035 3.38396 22.2323 2.96678 22.1214C2.45455 22.0333 2.00119 21.7402 1.68914 21.2887C1.48812 20.9964 1.34934 20.6466 1.26523 20.218C1.16178 19.6894 1.15421 19.1108 1.14832 18.6L1.14664 18.4738L0.976733 6.68067C0.964117 5.81495 1.6513 5.1034 2.51006 5.09154C2.51763 5.09154 2.5252 5.09154 2.53277 5.09154C3.38144 5.09154 4.07619 5.77853 4.08796 6.63578L4.24525 17.6437C4.53206 17.1964 4.87439 16.6195 5.27643 15.8775C6.26641 14.0529 7.39264 11.6395 8.44738 9.08047C8.73672 8.37993 9.48277 7.98857 10.2187 8.15122C10.9547 8.31386 11.4686 8.98475 11.4392 9.74289C11.4324 9.92417 11.4223 10.1156 11.4123 10.3079C11.3971 10.6027 11.382 10.9076 11.3778 11.1618C11.3685 11.7454 11.3795 12.3367 11.4114 12.9195C11.4804 14.1926 11.6478 15.4777 11.9093 16.7381C11.9447 16.9084 11.9792 17.0871 12.0145 17.2718C12.107 17.7529 12.2121 18.3027 12.3627 18.7627C12.483 18.5212 12.6243 18.2044 12.7875 17.7894L12.8009 17.7546C14.3376 13.8521 15.1753 10.1893 16.0619 6.31134C16.4067 4.80438 16.7625 3.24659 17.1738 1.60832C17.3841 0.768863 18.2302 0.259764 19.0637 0.472383C19.8973 0.684154 20.4019 1.53632 20.1917 2.37578C19.7888 3.98186 19.4363 5.5244 19.0949 7.01527C18.1806 11.0118 17.3176 14.7873 15.6943 18.9109L15.6808 18.9448C15.0551 20.5356 14.2131 22.2018 12.716 22.4941C12.5982 22.5169 12.4527 22.5356 12.287 22.5356L12.2878 22.5347Z" fill="#161C20"/>
</svg>
