<svg width="126" height="125" viewBox="0 0 126 125" fill="none" xmlns="http://www.w3.org/2000/svg">
<path d="M66.587 71.9237L77.1072 58.7481L77.1059 58.4862V54.8125H61.4034V59.1039H71.1447L60.8961 71.9237H60.8911V73.2529L60.8887 73.2615L60.8911 73.264V76.2559H77.196V71.9237H66.587Z" fill="#2B1911"/>
<path d="M58.8969 61.5508H54.354C54.2933 61.5508 54.2441 61.6 54.2441 61.6607V76.1457C54.2441 76.2064 54.2933 76.2557 54.354 76.2557H58.8969C58.9575 76.2557 59.0067 76.2064 59.0067 76.1457V61.6607C59.0067 61.6 58.9575 61.5508 58.8969 61.5508Z" fill="#2B1911"/>
<path d="M56.6748 59.7551C58.234 59.7551 59.498 58.5472 59.498 57.0572C59.498 55.5673 58.234 54.3594 56.6748 54.3594C55.1156 54.3594 53.8516 55.5673 53.8516 57.0572C53.8516 58.5472 55.1156 59.7551 56.6748 59.7551Z" fill="#2B1911"/>
<path d="M97.7416 76.243H92.5432C92.5469 70.1802 90.5224 68.5101 87.614 68.5101H84.1612V76.243H79.2109V54.7959H88.5176C93.5703 54.7959 96.5392 57.4629 96.5392 61.506C96.5392 63.8283 96.0257 66.2853 93.6987 67.3279C96.2701 68.5842 97.5564 71.3414 97.7403 76.2442L97.7416 76.243ZM88.2176 64.4781C90.0237 64.4781 91.2507 63.5998 91.2507 61.669C91.2507 59.7383 89.9977 58.6969 88.1905 58.6969H84.0525V64.4769H88.2176V64.4781Z" fill="#2B1911"/>
<path d="M41.945 81.2235C41.2378 81.2235 40.2785 80.9943 39.3706 80.0332C37.8718 78.446 37.446 76.2205 37.1034 74.4312C37.0569 74.1872 37.0116 73.9494 36.9651 73.7239C36.844 73.1423 36.7363 72.5582 36.6409 71.9716C36.2469 72.7467 35.8615 73.4762 35.4883 74.1527C32.8172 78.9857 31.355 80.0701 30.2783 80.494C29.6494 80.7417 28.9923 80.7836 28.3854 80.6222C27.6403 80.494 26.9808 80.0677 26.5268 79.4109C26.2344 78.9857 26.0325 78.4768 25.9102 77.8533C25.7597 77.0843 25.7487 76.2427 25.7401 75.4996L25.7376 75.316L25.4905 58.1602C25.4721 56.9008 26.4718 55.8657 27.721 55.8485C27.7321 55.8485 27.7431 55.8485 27.7541 55.8485C28.9887 55.8485 29.9993 56.8479 30.0165 58.0949L30.2453 74.1084C30.6625 73.4577 31.1605 72.6185 31.7454 71.5391C33.1855 68.8847 34.8239 65.374 36.3582 61.6513C36.7791 60.6322 37.8644 60.0629 38.9351 60.2995C40.0057 60.5361 40.7533 61.512 40.7105 62.6149C40.7007 62.8786 40.686 63.1571 40.6713 63.4368C40.6493 63.8657 40.6273 64.3093 40.6211 64.679C40.6077 65.528 40.6236 66.3881 40.6701 67.236C40.7704 69.0881 41.0139 70.9574 41.3944 72.7911C41.4458 73.0387 41.496 73.2988 41.5474 73.5674C41.682 74.2673 41.8349 75.0671 42.0539 75.7362C42.2289 75.385 42.4345 74.9241 42.6718 74.3203L42.6914 74.2698C44.9269 68.5927 46.1456 63.2643 47.4352 57.623C47.9369 55.4307 48.4544 53.1646 49.0528 50.7814C49.3586 49.5602 50.5896 48.8196 51.8021 49.1289C53.0147 49.4369 53.7488 50.6766 53.4429 51.8978C52.8568 54.2342 52.3442 56.4782 51.8474 58.647C50.5174 64.4609 49.262 69.9531 46.9005 75.9519L46.8809 76.0011C45.9706 78.3154 44.7458 80.7392 42.5678 81.1644C42.3965 81.1977 42.1849 81.2248 41.9438 81.2248L41.945 81.2235Z" fill="#2B1911"/>
<path fill-rule="evenodd" clip-rule="evenodd" d="M57.6417 1.6963C60.6743 -0.565433 64.8326 -0.565432 67.8652 1.6963L73.4515 5.86255C75.2999 7.24115 77.6269 7.81469 79.9043 7.45303L86.7868 6.36004C90.5231 5.7667 94.2052 7.6992 95.8393 11.1112L98.8495 17.3963C99.8456 19.476 101.639 21.0652 103.824 21.8033L110.426 24.034C114.01 25.245 116.372 28.6673 116.234 32.4478L115.978 39.4119C115.894 41.7163 116.744 43.9572 118.335 45.626L123.144 50.6693C125.755 53.4071 126.256 57.5352 124.377 60.8183L123.138 62.9822L56.3996 122.614L53.0095 124.044C49.5238 125.514 45.4862 124.519 43.083 121.597L38.6562 116.215C37.1914 114.434 35.0693 113.321 32.7715 113.127L25.8274 112.541C22.0577 112.223 18.9451 109.465 18.175 105.761L16.7563 98.9386C16.2869 96.6809 14.9255 94.7086 12.981 93.4691L7.1046 89.7233C3.91448 87.6898 2.43989 83.8016 3.47927 80.1641L5.39388 73.4635C6.02742 71.2463 5.73854 68.8672 4.5928 66.866L1.13027 60.8183C-0.74943 57.5352 -0.248191 53.4071 2.36259 50.6693L7.1718 45.626C8.76317 43.9571 9.61301 41.7163 9.52849 39.4119L9.27307 32.4478C9.13441 28.6673 11.4966 25.245 15.0807 24.034L21.6828 21.8033C23.8674 21.0652 25.6613 19.476 26.6574 17.3963L29.6676 11.1112C31.3017 7.6992 34.9838 5.7667 38.7201 6.36004L45.6026 7.45303C47.88 7.81469 50.207 7.24115 52.0554 5.86255L57.6417 1.6963ZM106.93 63.4361C110.078 63.4361 112.664 60.8758 112.307 57.748C111.404 49.8399 108.629 42.2309 104.177 35.5676C98.6649 27.3185 90.8306 20.8891 81.6648 17.0925C72.4989 13.2959 62.413 12.3025 52.6825 14.238C42.952 16.1735 34.014 20.951 26.9988 27.9662C19.9835 34.9815 15.206 43.9195 13.2705 53.65C11.335 63.3804 12.3284 73.4663 16.125 82.6322C19.9217 91.7981 26.3511 99.6323 34.6001 105.144C41.2635 109.596 48.8724 112.372 56.7805 113.275C59.9084 113.631 62.4686 111.046 62.4686 107.898V101.058C62.4686 80.2798 79.3123 63.4361 100.09 63.4361H106.93Z" fill="#DFB19D"/>
<mask id="mask0_9001_90374" style="mask-type:alpha" maskUnits="userSpaceOnUse" x="0" y="0" width="126" height="125">
<path fill-rule="evenodd" clip-rule="evenodd" d="M57.6417 1.6963C60.6743 -0.565433 64.8326 -0.565432 67.8652 1.6963L73.4515 5.86255C75.2999 7.24115 77.6269 7.81469 79.9043 7.45303L86.7868 6.36004C90.5231 5.7667 94.2052 7.6992 95.8393 11.1112L98.8495 17.3963C99.8456 19.476 101.639 21.0652 103.824 21.8033L110.426 24.034C114.01 25.245 116.372 28.6673 116.234 32.4478L115.978 39.4119C115.894 41.7163 116.744 43.9572 118.335 45.626L123.144 50.6693C125.755 53.4071 126.256 57.5352 124.377 60.8183L123.138 62.9822L56.3996 122.614L53.0095 124.044C49.5238 125.514 45.4862 124.519 43.083 121.597L38.6562 116.215C37.1914 114.434 35.0693 113.321 32.7715 113.127L25.8274 112.541C22.0577 112.223 18.9451 109.465 18.175 105.761L16.7563 98.9386C16.2869 96.6809 14.9255 94.7086 12.981 93.4691L7.1046 89.7233C3.91448 87.6898 2.43989 83.8016 3.47927 80.1641L5.39388 73.4635C6.02742 71.2463 5.73854 68.8672 4.5928 66.866L1.13027 60.8183C-0.74943 57.5352 -0.248191 53.4071 2.36259 50.6693L7.1718 45.626C8.76317 43.9571 9.61301 41.7163 9.52849 39.4119L9.27307 32.4478C9.13441 28.6673 11.4966 25.245 15.0807 24.034L21.6828 21.8033C23.8674 21.0652 25.6613 19.476 26.6574 17.3963L29.6676 11.1112C31.3017 7.6992 34.9838 5.7667 38.7201 6.36004L45.6026 7.45303C47.88 7.81469 50.207 7.24115 52.0554 5.86255L57.6417 1.6963ZM106.93 63.4361C110.078 63.4361 112.664 60.8758 112.307 57.748C111.404 49.8399 108.629 42.2309 104.177 35.5676C98.6649 27.3185 90.8306 20.8891 81.6648 17.0925C72.4989 13.2959 62.413 12.3025 52.6825 14.238C42.952 16.1735 34.014 20.951 26.9988 27.9662C19.9835 34.9815 15.206 43.9195 13.2705 53.65C11.335 63.3804 12.3284 73.4663 16.125 82.6322C19.9217 91.7981 26.3511 99.6323 34.6001 105.144C41.2635 109.596 48.8724 112.372 56.7805 113.275C59.9084 113.631 62.4686 111.046 62.4686 107.898V101.058C62.4686 80.2798 79.3123 63.4361 100.09 63.4361H106.93Z" fill="#D9D9D9"/>
</mask>
<g mask="url(#mask0_9001_90374)">
<path d="M93.7721 63.2723C119.537 63.7284 134.529 61.3723 138.804 60.1372L159.04 45.0316L133.104 22.8008L98.6173 45.0316C86.2668 50.9219 68.0071 62.8163 93.7721 63.2723Z" fill="url(#paint0_linear_9001_90374)"/>
<path d="M56.2049 122.983C62.5547 120.609 62.9595 104.26 62.3681 96.3828L39.8337 95.2902L30.3642 129.635L35.6874 142.668C39.8808 137.096 49.855 125.357 56.2049 122.983Z" fill="url(#paint1_linear_9001_90374)"/>
</g>
<path d="M25.5098 42.9092H35.5712" stroke="black" stroke-width="0.609787"/>
<path d="M45.9064 39.4871C45.9064 39.5216 45.903 39.5769 45.8961 39.6529C45.8891 39.722 45.8788 39.7981 45.865 39.881C45.8511 39.9639 45.8304 40.0468 45.8028 40.1298C45.782 40.2058 45.7578 40.2714 45.7302 40.3267C45.6956 40.4028 45.6473 40.4753 45.5851 40.5444C45.5298 40.6135 45.4779 40.6861 45.4296 40.7621C45.4157 40.7759 45.3985 40.7932 45.3777 40.814C45.357 40.8347 45.3294 40.8451 45.2948 40.8451C45.2602 40.8451 45.2291 40.8485 45.2015 40.8554C45.1739 40.8623 45.1428 40.8658 45.1082 40.8658C44.9838 40.8658 44.8663 40.8416 44.7558 40.7932C44.6521 40.7448 44.6003 40.6515 44.6003 40.5133C44.6003 40.4926 44.6175 40.4408 44.6521 40.3578C44.6936 40.2749 44.7385 40.1851 44.7869 40.0883C44.8352 39.9916 44.8767 39.9052 44.9112 39.8292C44.9527 39.7462 44.9734 39.6944 44.9734 39.6737V39.3108C44.9596 39.3108 44.9527 39.3074 44.9527 39.3005C44.9527 39.2936 44.9354 39.2901 44.9009 39.2901C44.8801 39.2901 44.849 39.3074 44.8076 39.3419C44.7661 39.3696 44.7212 39.4041 44.6728 39.4456C44.6314 39.4871 44.5864 39.532 44.5381 39.5804C44.4897 39.6218 44.4517 39.6564 44.424 39.684C44.196 39.9328 44.0025 40.1747 43.8435 40.4097C43.6915 40.6446 43.5533 40.8762 43.4289 41.1042C43.3114 41.3323 43.2043 41.5569 43.1075 41.778C43.0177 41.9992 42.9278 42.2203 42.838 42.4415C42.8034 42.5175 42.7654 42.6281 42.7239 42.7732C42.6825 42.9114 42.6445 43.06 42.6099 43.219C42.5754 43.3779 42.5443 43.5334 42.5166 43.6854C42.489 43.8375 42.4751 43.9584 42.4751 44.0483C42.4751 44.1312 42.4751 44.2072 42.4751 44.2763C42.4821 44.3385 42.489 44.3973 42.4959 44.4526C42.5097 44.5078 42.527 44.5666 42.5477 44.6288C42.5754 44.6841 42.6099 44.7532 42.6514 44.8361C42.6583 44.843 42.6617 44.8672 42.6617 44.9087C42.6687 44.9432 42.679 44.9709 42.6928 44.9916C42.7412 45.04 42.7861 45.0745 42.8276 45.0953C42.876 45.1091 42.9244 45.1298 42.9727 45.1575C42.9866 45.1644 43.0038 45.1851 43.0246 45.2197C43.0453 45.2542 43.0764 45.2715 43.1179 45.2715H43.6673C43.7018 45.2715 43.7226 45.2646 43.7295 45.2508C43.7364 45.2369 43.7502 45.2266 43.7709 45.2197C43.8677 45.2128 43.9783 45.1782 44.1027 45.116C44.234 45.0538 44.3653 44.9847 44.4966 44.9087C44.6279 44.8327 44.7558 44.7566 44.8801 44.6806C45.0115 44.6046 45.1289 44.5424 45.2326 44.494C45.2948 44.4595 45.3708 44.4215 45.4607 44.38C45.5574 44.3385 45.668 44.2901 45.7924 44.2349C45.8131 44.2487 45.8339 44.266 45.8546 44.2867C45.8753 44.3074 45.8857 44.3351 45.8857 44.3696C45.8857 44.4318 45.858 44.5078 45.8028 44.5977C45.7544 44.6806 45.6991 44.7635 45.6369 44.8465C45.5747 44.9294 45.5125 45.0054 45.4503 45.0745C45.395 45.1436 45.357 45.192 45.3363 45.2197C45.2741 45.3026 45.1808 45.389 45.0564 45.4788C44.932 45.5618 44.7972 45.6412 44.6521 45.7173C44.5139 45.7864 44.3722 45.8451 44.2271 45.8935C44.0888 45.9419 43.9679 45.966 43.8642 45.966C43.8297 45.966 43.7951 45.973 43.7606 45.9868C43.7329 46.0075 43.7018 46.0179 43.6673 46.0179C43.6051 46.0179 43.5118 46.0006 43.3874 45.966C43.263 45.9384 43.1351 45.9038 43.0038 45.8624C42.8794 45.8209 42.7654 45.7829 42.6617 45.7484C42.565 45.7138 42.5132 45.6965 42.5062 45.6965C42.3058 45.5168 42.1434 45.351 42.019 45.1989C41.8946 45.0469 41.7979 44.8983 41.7288 44.7532C41.6597 44.608 41.6113 44.4629 41.5836 44.3178C41.556 44.1727 41.5422 44.0172 41.5422 43.8513C41.5422 43.5541 41.5871 43.2224 41.6769 42.8561C41.7668 42.4829 41.8843 42.1028 42.0294 41.7158C42.1814 41.3288 42.3508 40.9487 42.5373 40.5755C42.7309 40.2023 42.9313 39.8637 43.1386 39.5596C43.3459 39.2486 43.5533 38.986 43.7606 38.7718C43.9679 38.5575 44.158 38.4193 44.3307 38.3571C44.3998 38.3295 44.4828 38.3087 44.5795 38.2949C44.6832 38.2811 44.7523 38.2742 44.7869 38.2742C44.8214 38.2742 44.8871 38.3053 44.9838 38.3675C45.0806 38.4228 45.167 38.4642 45.243 38.4919C45.3259 38.5264 45.4054 38.5817 45.4814 38.6578C45.5643 38.7338 45.6369 38.8202 45.6991 38.9169C45.7613 39.0137 45.8097 39.1139 45.8442 39.2175C45.8857 39.3143 45.9064 39.4041 45.9064 39.4871ZM49.8827 44.2971C49.855 44.38 49.7894 44.4802 49.6857 44.5977C49.5889 44.7083 49.4542 44.8534 49.2814 45.0331C49.1086 45.2058 48.9635 45.3372 48.846 45.427C48.7285 45.5099 48.6629 45.5583 48.6491 45.5721C48.4901 45.7173 48.3484 45.814 48.224 45.8624C48.1065 45.9108 47.9718 45.9626 47.8197 46.0179C47.7714 46.0386 47.7092 46.049 47.6331 46.049C47.5571 46.0559 47.4949 46.0593 47.4466 46.0593C47.2047 46.0593 46.9939 46.0179 46.8142 45.9349C46.6414 45.8451 46.4963 45.7345 46.3788 45.6032C46.2682 45.465 46.1819 45.2922 46.1197 45.0849C46.0644 44.8776 46.0367 44.6875 46.0367 44.5148C46.0367 44.4733 46.0471 44.3973 46.0678 44.2867C46.0886 44.1761 46.1058 44.0828 46.1197 44.0068C46.1611 43.8064 46.2199 43.6025 46.2959 43.3952C46.3719 43.1879 46.4548 42.984 46.5447 42.7836C46.6414 42.5832 46.7451 42.3966 46.8557 42.2238C46.9732 42.0441 47.0906 41.8955 47.2081 41.778C47.222 41.7504 47.2461 41.7124 47.2807 41.664C47.3152 41.6156 47.3394 41.5776 47.3533 41.55C47.3809 41.5085 47.4224 41.4636 47.4777 41.4152C47.5329 41.3599 47.5951 41.3081 47.6642 41.2597C47.7403 41.2113 47.8128 41.1699 47.8819 41.1353C47.9511 41.1008 48.0063 41.0835 48.0478 41.0835C48.0824 41.0835 48.1342 41.1008 48.2033 41.1353C48.2724 41.163 48.3346 41.1837 48.3899 41.1975C48.6456 41.3012 48.8184 41.4498 48.9082 41.6433C48.9981 41.8368 49.043 42.0234 49.043 42.2031C49.043 42.2998 49.005 42.4346 48.9289 42.6073C48.8598 42.7801 48.7769 42.946 48.6802 43.1049C48.5834 43.2639 48.4936 43.4056 48.4106 43.5299C48.3346 43.6474 48.2897 43.7131 48.2759 43.7269C48.1791 43.8237 48.0824 43.9342 47.9856 44.0586C47.8958 44.1761 47.8059 44.2867 47.7161 44.3904C47.6262 44.494 47.526 44.5873 47.4155 44.6702C47.3118 44.7463 47.1874 44.8085 47.0423 44.8568C46.987 44.8776 46.949 44.8983 46.9282 44.919C46.9766 45.0918 47.025 45.2093 47.0734 45.2715C47.1217 45.3337 47.215 45.3648 47.3533 45.3648C47.5468 45.3648 47.7541 45.3164 47.9752 45.2197C48.2033 45.1229 48.4175 45.0158 48.618 44.8983C48.8253 44.7739 49.0292 44.6426 49.2296 44.5044C49.4369 44.3593 49.5578 44.2867 49.5924 44.2867L49.8308 44.1934C49.8516 44.2072 49.8688 44.2176 49.8827 44.2245C49.9034 44.2245 49.9034 44.2487 49.8827 44.2971ZM48.1515 42.1098V41.9543C47.9096 42.1892 47.7023 42.4553 47.5295 42.7525C47.3636 43.0496 47.2392 43.3503 47.1563 43.6543C47.1839 43.6405 47.253 43.568 47.3636 43.4366C47.4742 43.3053 47.5848 43.1568 47.6953 42.9909C47.8128 42.825 47.9165 42.6592 48.0063 42.4933C48.1031 42.3274 48.1515 42.1996 48.1515 42.1098ZM53.1047 42.514C53.1047 42.5486 53.0978 42.597 53.084 42.6592C53.0702 42.7145 53.0494 42.7628 53.0218 42.8043C52.9942 42.8458 52.97 42.8803 52.9492 42.908C52.9354 42.9356 52.9181 42.946 52.8974 42.9391C52.8352 42.8354 52.7903 42.7456 52.7626 42.6695C52.735 42.5935 52.7004 42.521 52.659 42.4518C52.6244 42.3758 52.5553 42.3067 52.4517 42.2445C52.3549 42.1823 52.2478 42.1478 52.1303 42.1409C52.0128 42.1409 51.8953 42.2169 51.7778 42.3689C51.6604 42.521 51.5498 42.6903 51.4461 42.8769C51.3494 43.0635 51.2595 43.2397 51.1766 43.4056C51.0937 43.5645 51.0453 43.6647 51.0315 43.7062C50.9969 43.8029 50.952 43.9273 50.8967 44.0794C50.8483 44.2245 50.7965 44.3869 50.7412 44.5666C50.6859 44.7394 50.6341 44.9225 50.5857 45.116C50.5442 45.3026 50.5166 45.4857 50.5028 45.6654C50.5028 45.7 50.4924 45.7414 50.4717 45.7898C50.4509 45.8313 50.4198 45.852 50.3784 45.852C50.3369 45.852 50.3127 45.8416 50.3058 45.8209C50.2643 45.8209 50.2263 45.8486 50.1918 45.9038C50.1572 45.9522 50.1192 45.9764 50.0778 45.9764H49.9534C49.9119 45.9764 49.8497 45.9488 49.7668 45.8935C49.6838 45.8382 49.6355 45.7898 49.6216 45.7484C49.6009 45.7069 49.5905 45.662 49.5905 45.6136C49.5905 45.5583 49.5905 45.5099 49.5905 45.4685C49.5905 45.4546 49.5974 45.4097 49.6113 45.3337C49.6251 45.2508 49.6389 45.1609 49.6527 45.0642C49.6666 44.9605 49.6804 44.8603 49.6942 44.7635C49.7149 44.6668 49.7288 44.5839 49.7357 44.5148C49.7702 44.3143 49.8013 44.107 49.829 43.8928C49.8566 43.6785 49.8842 43.4677 49.9119 43.2604C49.9188 43.136 49.9292 42.9944 49.943 42.8354C49.9568 42.6695 49.9741 42.4968 49.9948 42.3171C50.0156 42.1374 50.0328 41.9577 50.0467 41.778C50.0674 41.5914 50.0881 41.4152 50.1089 41.2493C50.1089 41.2217 50.1365 41.1941 50.1918 41.1664C50.2471 41.1319 50.2954 41.1146 50.3369 41.1146C50.3507 41.1146 50.3887 41.1284 50.4509 41.156C50.5131 41.1837 50.5788 41.2148 50.6479 41.2493C50.717 41.2839 50.7792 41.3185 50.8345 41.353C50.8898 41.3876 50.9243 41.4118 50.9382 41.4256C50.952 41.4739 50.952 41.5396 50.9382 41.6225C50.9313 41.7055 50.9174 41.778 50.8967 41.8402L50.9174 42.1616C51.0349 42.0372 51.1386 41.9266 51.2284 41.8299C51.3252 41.7331 51.415 41.6536 51.4979 41.5914C51.5878 41.5292 51.6742 41.4878 51.7571 41.467C51.8469 41.4463 51.9506 41.4359 52.0681 41.4359C52.1096 41.4359 52.1718 41.4463 52.2547 41.467C52.3376 41.4878 52.4206 41.5258 52.5035 41.5811C52.5864 41.6294 52.6624 41.6916 52.7315 41.7677C52.8076 41.8368 52.8629 41.9093 52.8974 41.9854C52.9389 42.0545 52.9734 42.1236 53.0011 42.1927C53.0287 42.2618 53.0529 42.3274 53.0736 42.3896C53.0944 42.4518 53.1047 42.4933 53.1047 42.514ZM57.2318 41.5292C57.2318 41.6191 57.2041 41.6744 57.1488 41.6951C57.0935 41.7158 57.0175 41.74 56.9208 41.7677C56.907 41.7815 56.8897 41.7919 56.8689 41.7988C56.8482 41.8057 56.8275 41.8195 56.8067 41.8402C56.7238 41.854 56.634 41.8713 56.5372 41.8921C56.4405 41.9128 56.3679 41.9301 56.3195 41.9439C56.2781 41.9577 56.2228 41.9681 56.1537 41.975C56.0846 41.9819 56.0362 41.9854 56.0085 41.9854C55.9947 41.9715 55.9671 41.9646 55.9256 41.9646C55.891 41.9646 55.8634 41.975 55.8427 41.9957C55.8288 42.0095 55.8047 42.0165 55.7701 42.0165C55.6112 42.0303 55.4349 42.0476 55.2414 42.0683C55.0479 42.0821 54.9097 42.1374 54.8268 42.2341C54.7853 42.2756 54.7369 42.4069 54.6816 42.6281C54.6264 42.8492 54.5711 43.0946 54.5158 43.3641C54.4674 43.6267 54.4225 43.8824 54.381 44.1312C54.3465 44.38 54.3292 44.5562 54.3292 44.6599C54.3361 44.8188 54.3706 44.9674 54.4328 45.1056C54.495 45.2369 54.616 45.3026 54.7957 45.3026C54.9408 45.3026 55.0963 45.2508 55.2622 45.1471C55.4349 45.0434 55.6284 44.9121 55.8427 44.7532C56.0569 44.5873 56.2781 44.418 56.5061 44.2452C56.7342 44.0725 56.8793 43.9792 56.9415 43.9653C57.0383 43.9308 57.0832 43.9377 57.0763 43.9861C57.0694 44.0344 57.0521 44.0863 57.0244 44.1416C56.983 44.2245 56.9346 44.3143 56.8793 44.4111C56.8309 44.5078 56.7791 44.5977 56.7238 44.6806C56.7584 44.6944 56.6823 44.8119 56.4958 45.0331C56.3092 45.2473 56.05 45.465 55.7183 45.6862C55.3935 45.9073 55.0859 46.0179 54.7957 46.0179H54.5883C54.5469 46.0179 54.4536 46.0006 54.3084 45.966C54.1633 45.9384 54.0458 45.89 53.956 45.8209C53.7625 45.6827 53.6208 45.4892 53.531 45.2404C53.448 44.9916 53.4066 44.7463 53.4066 44.5044C53.3997 44.0897 53.4377 43.7165 53.5206 43.3848C53.6035 43.0531 53.6657 42.7939 53.7072 42.6073C53.5759 42.5659 53.4619 42.5002 53.3651 42.4104C53.2614 42.3136 53.2096 42.1927 53.2096 42.0476C53.2096 41.9439 53.2407 41.8644 53.3029 41.8091C53.3582 41.7469 53.4273 41.702 53.5102 41.6744C53.5932 41.6467 53.6761 41.6225 53.759 41.6018C53.8489 41.5811 53.918 41.5431 53.9664 41.4878C54.0216 41.4394 54.0562 41.3599 54.07 41.2493C54.0908 41.1388 54.1149 41.0386 54.1426 40.9487C54.2393 40.6861 54.3119 40.4822 54.3603 40.3371C54.4087 40.1851 54.4501 40.0538 54.4847 39.9432C54.5192 39.8326 54.5607 39.7289 54.6091 39.6322C54.6574 39.5285 54.7335 39.3972 54.8371 39.2383C54.844 39.2314 54.8648 39.221 54.8993 39.2072C54.9408 39.1933 54.9857 39.183 55.0341 39.1761C55.0825 39.1692 55.1308 39.1657 55.1792 39.1657C55.2345 39.1588 55.2725 39.1553 55.2933 39.1553C55.3278 39.1553 55.3831 39.1761 55.4591 39.2175C55.5351 39.2521 55.6008 39.2763 55.6561 39.2901C55.6975 39.3039 55.7425 39.3419 55.7908 39.4041C55.8392 39.4663 55.8634 39.5182 55.8634 39.5596C55.8634 39.5942 55.8219 39.6598 55.739 39.7566C55.6561 39.8464 55.5973 39.9363 55.5628 40.0261C55.4729 40.2127 55.3935 40.4131 55.3244 40.6274C55.2622 40.8416 55.193 41.0524 55.117 41.2597C55.2552 41.2597 55.4142 41.2563 55.5939 41.2493C55.7805 41.2424 55.9567 41.239 56.1226 41.239C56.2884 41.2321 56.4059 41.2286 56.475 41.2286C56.551 41.2286 56.596 41.2286 56.6098 41.2286C56.6512 41.2286 56.7065 41.239 56.7756 41.2597C56.8448 41.2735 56.9139 41.2874 56.983 41.3012C56.9968 41.3081 57.0244 41.3288 57.0659 41.3634C57.1074 41.3979 57.1523 41.4152 57.2007 41.4152C57.2145 41.429 57.2214 41.4428 57.2214 41.4567C57.2283 41.4636 57.2318 41.4878 57.2318 41.5292ZM59.0575 40.5237C59.0575 40.5928 59.0403 40.6515 59.0057 40.6999C58.9712 40.7483 58.9262 40.7863 58.8709 40.814C58.8157 40.8416 58.7569 40.8589 58.6947 40.8658C58.6394 40.8727 58.5911 40.8762 58.5496 40.8762C58.5012 40.8762 58.4425 40.8623 58.3734 40.8347C58.3043 40.807 58.2421 40.769 58.1868 40.7207C58.1315 40.6723 58.0831 40.6205 58.0416 40.5652C58.0071 40.503 57.9898 40.4408 57.9898 40.3786C57.9898 40.2196 58.0209 40.109 58.0831 40.0468C58.1453 39.9846 58.2628 39.9535 58.4356 39.9535C58.477 39.9535 58.5081 39.9639 58.5289 39.9846C58.5496 39.9985 58.5669 40.0088 58.5807 40.0157C58.8018 40.0434 58.9366 40.1125 58.985 40.2231C59.0334 40.3267 59.0575 40.4269 59.0575 40.5237ZM59.5655 44.691C59.5655 44.7255 59.524 44.8016 59.4411 44.919C59.3582 45.0365 59.2994 45.1402 59.2649 45.23C59.1958 45.3475 59.1059 45.4581 58.9953 45.5618C58.8917 45.6585 58.7777 45.7449 58.6533 45.8209C58.5358 45.89 58.4114 45.9453 58.2801 45.9868C58.1488 46.0282 58.0313 46.049 57.9276 46.049C57.6166 46.049 57.3678 45.9488 57.1812 45.7484C56.9946 45.5479 56.8771 45.3026 56.8288 45.0123C56.815 44.9501 56.8115 44.8741 56.8184 44.7843C56.8253 44.6944 56.8288 44.6288 56.8288 44.5873C56.8288 44.1588 56.8633 43.7926 56.9324 43.4885C57.0085 43.1775 57.0741 42.8665 57.1294 42.5555C57.1432 42.4933 57.1674 42.4207 57.202 42.3378C57.2365 42.248 57.2676 42.1616 57.2953 42.0787C57.3091 42.0095 57.3402 41.9162 57.3886 41.7988C57.4438 41.6813 57.5164 41.588 57.6063 41.5189C57.6339 41.505 57.6719 41.4912 57.7203 41.4774C57.7756 41.4567 57.8239 41.4463 57.8654 41.4463C57.9691 41.4463 58.0831 41.4947 58.2075 41.5914C58.3388 41.6882 58.4045 41.7884 58.4045 41.8921C58.4045 41.9128 58.3665 42.0095 58.2904 42.1823C58.2213 42.3482 58.1453 42.5624 58.0624 42.825C57.9794 43.0876 57.9 43.3917 57.8239 43.7373C57.7548 44.0759 57.7203 44.4249 57.7203 44.7843C57.7203 44.8188 57.7203 44.8741 57.7203 44.9501C57.7272 45.0262 57.741 45.1056 57.7617 45.1886C57.7825 45.2646 57.8101 45.3337 57.8447 45.3959C57.8792 45.4512 57.9345 45.4788 58.0105 45.4788C58.1073 45.4788 58.2282 45.4339 58.3734 45.3441C58.5185 45.2473 58.6636 45.1402 58.8088 45.0227C58.9539 44.8983 59.0852 44.7808 59.2027 44.6702C59.3202 44.5597 59.4065 44.4906 59.4618 44.4629C59.5309 44.5182 59.5655 44.5942 59.5655 44.691ZM64.2701 39.2279C64.2701 39.3108 64.2493 39.418 64.2079 39.5493C64.1733 39.6737 64.1215 39.7946 64.0524 39.9121C63.9902 40.0296 63.9141 40.1332 63.8243 40.2231C63.7414 40.306 63.6446 40.3475 63.534 40.3475C63.5133 40.3475 63.4822 40.3302 63.4407 40.2956C63.4062 40.2611 63.3682 40.2231 63.3267 40.1816C63.2922 40.1401 63.2611 40.1021 63.2334 40.0676C63.2127 40.033 63.2023 40.0088 63.2023 39.995C63.2023 39.9812 63.2127 39.9363 63.2334 39.8602C63.2541 39.7842 63.2749 39.7048 63.2956 39.6218C63.3163 39.532 63.3371 39.4525 63.3578 39.3834C63.3785 39.3074 63.3889 39.259 63.3889 39.2383C63.3889 39.1208 63.3682 39.0275 63.3267 38.9584C63.2852 38.8893 63.2161 38.8547 63.1194 38.8547C63.0779 38.8547 63.033 38.8754 62.9846 38.9169C62.9362 38.9515 62.8913 38.9895 62.8499 39.0309C62.8084 39.0724 62.7704 39.1139 62.7358 39.1553C62.7082 39.1899 62.6944 39.2106 62.6944 39.2175C62.4594 39.5631 62.2555 39.9708 62.0827 40.4408C61.9169 40.9038 61.789 41.3461 61.6992 41.7677C61.6785 41.8437 61.6439 41.9404 61.5955 42.0579C61.5471 42.1754 61.523 42.2514 61.523 42.286V42.4104C61.5921 42.4311 61.6612 42.4449 61.7303 42.4518C61.7994 42.4588 61.8547 42.4622 61.8961 42.4622C61.91 42.4622 62.0033 42.4518 62.176 42.4311C62.3488 42.4104 62.532 42.3896 62.7255 42.3689C62.919 42.3482 63.0986 42.3274 63.2645 42.3067C63.4373 42.286 63.534 42.2756 63.5548 42.2756C63.5755 42.2756 63.6342 42.2929 63.731 42.3274C63.8347 42.362 63.8934 42.3896 63.9072 42.4104C63.921 42.4311 63.9383 42.4553 63.9591 42.4829C63.9798 42.5037 63.9902 42.5348 63.9902 42.5762V42.6903C63.7897 42.7386 63.5582 42.7974 63.2956 42.8665C63.033 42.9287 62.7773 42.9909 62.5285 43.0531C62.2866 43.1153 62.0793 43.1706 61.9065 43.219C61.7337 43.2604 61.6404 43.2812 61.6266 43.2812C61.6266 43.2604 61.6059 43.2501 61.5644 43.2501C61.4815 43.2501 61.3986 43.2777 61.3156 43.333C61.2603 43.4988 61.212 43.6785 61.1705 43.872C61.129 44.0586 61.091 44.2452 61.0565 44.4318C61.0288 44.6184 61.0046 44.7946 60.9839 44.9605C60.9632 45.1264 60.9494 45.268 60.9424 45.3855C60.9424 45.427 60.9217 45.4685 60.8802 45.5099C60.8595 45.6205 60.8457 45.7484 60.8388 45.8935C60.8319 46.0386 60.8215 46.1734 60.8077 46.2978C60.7939 46.4291 60.7835 46.5431 60.7766 46.6399C60.7766 46.7435 60.7766 46.8023 60.7766 46.8161C60.7766 46.9889 60.7766 47.1478 60.7766 47.2929C60.7835 47.4381 60.8215 47.5901 60.8906 47.7491C60.9044 47.7905 60.9217 47.8424 60.9424 47.9046C60.9632 47.9668 60.9977 48.0151 61.0461 48.0497C61.0738 48.0635 61.1118 48.067 61.1601 48.0601C61.2085 48.0601 61.2465 48.0739 61.2742 48.1015C61.3087 48.1292 61.3433 48.1775 61.3778 48.2466C61.4193 48.3158 61.44 48.371 61.44 48.4125C61.44 48.4402 61.4331 48.4643 61.4193 48.4851C61.4055 48.5058 61.3986 48.5335 61.3986 48.568H61.015C60.9666 48.568 60.901 48.5473 60.818 48.5058C60.7351 48.4713 60.6522 48.4263 60.5693 48.371C60.4932 48.3227 60.4207 48.2674 60.3516 48.2052C60.2894 48.1499 60.2479 48.105 60.2272 48.0704C60.1926 48.022 60.1581 47.9529 60.1235 47.8631C60.0959 47.7733 60.0682 47.6869 60.0406 47.6039C60.0267 47.5279 60.0129 47.445 59.9991 47.3551C59.9853 47.2722 59.9715 47.1893 59.9576 47.1063C59.9507 47.0511 59.9438 46.9889 59.9369 46.9198C59.93 46.8576 59.9265 46.8057 59.9265 46.7643C59.9265 46.5362 59.9404 46.2736 59.968 45.9764C59.9956 45.6792 60.0302 45.3821 60.0717 45.0849C60.1131 44.7877 60.1546 44.4975 60.1961 44.2141C60.2375 43.9308 60.279 43.6854 60.3205 43.4781C60.2859 43.4643 60.2514 43.4539 60.2168 43.447C60.1892 43.4401 60.1546 43.4366 60.1131 43.4366C60.0717 43.4366 60.0371 43.447 60.0095 43.4677C59.9887 43.4885 59.9576 43.4988 59.9162 43.4988C59.7918 43.4988 59.6777 43.4747 59.5741 43.4263C59.4635 43.3779 59.3702 43.3157 59.2942 43.2397C59.2182 43.1637 59.1629 43.0773 59.1283 42.9805C59.0938 42.8769 59.0834 42.7697 59.0972 42.6592C59.0972 42.6523 59.1007 42.6453 59.1076 42.6384C59.1283 42.6177 59.1387 42.6039 59.1387 42.597C59.1802 42.5832 59.2285 42.5659 59.2838 42.5451C59.3391 42.5175 59.3875 42.5037 59.429 42.5037C59.4635 42.5037 59.5326 42.5175 59.6363 42.5451C59.733 42.5728 59.8021 42.5866 59.8436 42.5866C59.8782 42.5866 59.9611 42.5797 60.0924 42.5659C60.2237 42.5451 60.3516 42.5313 60.476 42.5244C60.5243 42.4069 60.5693 42.2549 60.6107 42.0683C60.6522 41.8817 60.7006 41.7055 60.7558 41.5396C60.8042 41.3945 60.8491 41.2632 60.8906 41.1457C60.9321 41.0282 60.9735 40.9142 61.015 40.8036C61.0565 40.693 61.0979 40.579 61.1394 40.4615C61.1878 40.344 61.2396 40.2058 61.2949 40.0468C61.3986 39.7842 61.5022 39.5389 61.6059 39.3108C61.7165 39.0759 61.8409 38.872 61.9791 38.6992C62.1173 38.5195 62.2693 38.3813 62.4352 38.2846C62.608 38.1809 62.8015 38.1291 63.0157 38.1291C63.0572 38.1291 63.1194 38.1394 63.2023 38.1602C63.2922 38.1809 63.3716 38.1878 63.4407 38.1809C63.7794 38.3468 64.0005 38.5092 64.1042 38.6681C64.2148 38.8271 64.2701 39.0137 64.2701 39.2279ZM65.739 40.5237C65.739 40.5928 65.7217 40.6515 65.6872 40.6999C65.6526 40.7483 65.6077 40.7863 65.5524 40.814C65.4971 40.8416 65.4384 40.8589 65.3762 40.8658C65.3209 40.8727 65.2725 40.8762 65.231 40.8762C65.1827 40.8762 65.1239 40.8623 65.0548 40.8347C64.9857 40.807 64.9235 40.769 64.8682 40.7207C64.8129 40.6723 64.7646 40.6205 64.7231 40.5652C64.6885 40.503 64.6713 40.4408 64.6713 40.3786C64.6713 40.2196 64.7024 40.109 64.7646 40.0468C64.8268 39.9846 64.9442 39.9535 65.117 39.9535C65.1585 39.9535 65.1896 39.9639 65.2103 39.9846C65.231 39.9985 65.2483 40.0088 65.2621 40.0157C65.4833 40.0434 65.6181 40.1125 65.6664 40.2231C65.7148 40.3267 65.739 40.4269 65.739 40.5237ZM66.247 44.691C66.247 44.7255 66.2055 44.8016 66.1226 44.919C66.0396 45.0365 65.9809 45.1402 65.9463 45.23C65.8772 45.3475 65.7874 45.4581 65.6768 45.5618C65.5731 45.6585 65.4591 45.7449 65.3347 45.8209C65.2172 45.89 65.0928 45.9453 64.9615 45.9868C64.8302 46.0282 64.7127 46.049 64.6091 46.049C64.2981 46.049 64.0493 45.9488 63.8627 45.7484C63.6761 45.5479 63.5586 45.3026 63.5102 45.0123C63.4964 44.9501 63.4929 44.8741 63.4999 44.7843C63.5068 44.6944 63.5102 44.6288 63.5102 44.5873C63.5102 44.1588 63.5448 43.7926 63.6139 43.4885C63.6899 43.1775 63.7556 42.8665 63.8109 42.5555C63.8247 42.4933 63.8489 42.4207 63.8834 42.3378C63.918 42.248 63.9491 42.1616 63.9767 42.0787C63.9905 42.0095 64.0216 41.9162 64.07 41.7988C64.1253 41.6813 64.1979 41.588 64.2877 41.5189C64.3153 41.505 64.3534 41.4912 64.4017 41.4774C64.457 41.4567 64.5054 41.4463 64.5469 41.4463C64.6505 41.4463 64.7646 41.4947 64.889 41.5914C65.0203 41.6882 65.0859 41.7884 65.0859 41.8921C65.0859 41.9128 65.0479 42.0095 64.9719 42.1823C64.9028 42.3482 64.8268 42.5624 64.7438 42.825C64.6609 43.0876 64.5814 43.3917 64.5054 43.7373C64.4363 44.0759 64.4017 44.4249 64.4017 44.7843C64.4017 44.8188 64.4017 44.8741 64.4017 44.9501C64.4086 45.0262 64.4225 45.1056 64.4432 45.1886C64.4639 45.2646 64.4916 45.3337 64.5261 45.3959C64.5607 45.4512 64.616 45.4788 64.692 45.4788C64.7887 45.4788 64.9097 45.4339 65.0548 45.3441C65.1999 45.2473 65.3451 45.1402 65.4902 45.0227C65.6353 44.8983 65.7666 44.7808 65.8841 44.6702C66.0016 44.5597 66.088 44.4906 66.1433 44.4629C66.2124 44.5182 66.247 44.5942 66.247 44.691ZM69.7127 44.5562C69.5952 44.7566 69.4708 44.926 69.3395 45.0642C69.2151 45.1955 69.0838 45.313 68.9456 45.4166C68.8074 45.5134 68.6623 45.6067 68.5102 45.6965C68.3651 45.7795 68.2131 45.8727 68.0541 45.9764C68.0334 45.9902 67.9988 46.0041 67.9504 46.0179C67.9021 46.0317 67.8468 46.0455 67.7846 46.0593C67.7293 46.0732 67.674 46.0835 67.6187 46.0904C67.5703 46.1043 67.5358 46.1112 67.515 46.1112C67.4943 46.1112 67.4494 46.1077 67.3803 46.1008C67.3112 46.1008 67.2352 46.0974 67.1522 46.0904C67.0762 46.0835 67.0036 46.0766 66.9345 46.0697C66.8654 46.0697 66.8205 46.0697 66.7998 46.0697C66.7583 46.0697 66.7065 46.0524 66.6443 46.0179C66.5821 45.9833 66.5199 45.9419 66.4577 45.8935C66.3955 45.8451 66.3402 45.8036 66.2918 45.7691C66.2434 45.7276 66.2158 45.7 66.2089 45.6862C66.1882 45.6447 66.1605 45.5859 66.126 45.5099C66.0983 45.427 66.0707 45.3406 66.043 45.2508C66.0223 45.154 66.0016 45.0607 65.9808 44.9709C65.9601 44.8741 65.9497 44.7912 65.9497 44.7221C65.9497 44.5562 65.9705 44.3558 66.0119 44.1208C66.0603 43.8789 66.1225 43.6302 66.1985 43.3745C66.2815 43.1118 66.3782 42.8527 66.4888 42.597C66.6063 42.3344 66.7341 42.0994 66.8723 41.8921C67.0106 41.6847 67.1591 41.5189 67.3181 41.3945C67.477 41.2632 67.6464 41.1975 67.826 41.1975C67.909 41.1975 68.0057 41.2113 68.1163 41.239C68.2269 41.2666 68.3374 41.3081 68.448 41.3634C68.5586 41.4118 68.6657 41.4739 68.7694 41.55C68.873 41.6191 68.956 41.6986 69.0182 41.7884C69.0389 41.816 69.0562 41.8575 69.07 41.9128C69.0838 41.9612 69.0942 42.013 69.1011 42.0683C69.1149 42.1167 69.1218 42.165 69.1218 42.2134C69.1287 42.2549 69.1322 42.286 69.1322 42.3067C69.1322 42.3136 69.1184 42.3516 69.0907 42.4207C69.0631 42.4829 69.032 42.5521 68.9974 42.6281C68.9629 42.7041 68.9249 42.7767 68.8834 42.8458C68.8489 42.908 68.8212 42.9425 68.8005 42.9494C68.759 42.9633 68.7141 42.9874 68.6657 43.022C68.6173 43.0496 68.569 43.0807 68.5206 43.1153C68.4791 43.1429 68.4377 43.1706 68.3962 43.1982C68.3616 43.219 68.334 43.2293 68.3133 43.2293C68.2787 43.2293 68.2407 43.212 68.1992 43.1775C68.1578 43.1429 68.1198 43.1049 68.0852 43.0635C68.0506 43.0151 68.023 42.9702 68.0023 42.9287C67.9815 42.8803 67.9712 42.8458 67.9712 42.825C67.9712 42.7836 67.9954 42.6937 68.0437 42.5555C68.0921 42.4173 68.1336 42.286 68.1681 42.1616L68.1059 42.0994C67.947 42.1754 67.7949 42.324 67.6498 42.5451C67.5116 42.7663 67.3872 43.0116 67.2766 43.2812C67.166 43.5507 67.0762 43.8237 67.0071 44.1001C66.9449 44.3765 66.9138 44.6046 66.9138 44.7843C66.9138 44.8119 66.9173 44.8672 66.9242 44.9501C66.938 45.0262 66.9587 45.1022 66.9864 45.1782C67.014 45.2542 67.0486 45.3199 67.09 45.3752C67.1384 45.4304 67.1971 45.4477 67.2663 45.427C67.3008 45.427 67.3181 45.4374 67.3181 45.4581C67.325 45.4719 67.3492 45.4788 67.3907 45.4788C67.4805 45.4788 67.6014 45.4546 67.7535 45.4063C67.9055 45.3579 68.061 45.3026 68.22 45.2404C68.3789 45.1713 68.5275 45.1056 68.6657 45.0434C68.8108 44.9743 68.918 44.919 68.9871 44.8776C69.0078 44.8638 69.0458 44.843 69.1011 44.8154C69.1564 44.7808 69.2117 44.7463 69.267 44.7117C69.3292 44.6772 69.3879 44.6461 69.4432 44.6184C69.5054 44.5839 69.5538 44.5597 69.5883 44.5459C69.6229 44.532 69.6436 44.532 69.6505 44.5459C69.6574 44.5528 69.6782 44.5562 69.7127 44.5562ZM74.1836 44.8672C74.1836 44.881 74.1698 44.9087 74.1422 44.9501C74.1145 44.9847 74.0834 45.0227 74.0489 45.0642C74.0212 45.0987 73.9832 45.1436 73.9348 45.1989C73.8865 45.2473 73.845 45.2888 73.8104 45.3233C73.7413 45.3924 73.6549 45.465 73.5513 45.541C73.4476 45.6101 73.337 45.6758 73.2196 45.738C73.109 45.8002 72.988 45.852 72.8567 45.8935C72.7323 45.9349 72.6079 45.9557 72.4835 45.9557C72.4628 45.9557 72.4283 45.9522 72.3799 45.9453C72.3315 45.9453 72.2762 45.9453 72.214 45.9453C72.1587 45.9384 72.1 45.928 72.0378 45.9142C71.9825 45.9004 71.9376 45.8831 71.903 45.8624C71.8132 45.7933 71.7406 45.7242 71.6853 45.6551C71.637 45.5859 71.5955 45.5134 71.5609 45.4374C71.5333 45.3613 71.5126 45.2819 71.4987 45.1989C71.4918 45.1091 71.4745 45.0089 71.4469 44.8983C71.3778 44.9674 71.3121 45.0642 71.2499 45.1886C71.1877 45.3061 71.1152 45.4132 71.0322 45.5099C70.977 45.5929 70.9078 45.6689 70.8249 45.738C70.7489 45.8071 70.6798 45.8693 70.6176 45.9246C70.5761 45.9453 70.5243 45.966 70.4621 45.9868C70.4068 46.0075 70.3584 46.0179 70.317 46.0179H69.9541C69.9127 46.0179 69.8297 45.9868 69.7054 45.9246C69.5879 45.8624 69.5015 45.8002 69.4462 45.738C69.3978 45.6689 69.3563 45.5721 69.3218 45.4477C69.2942 45.3233 69.2803 45.2404 69.2803 45.1989C69.2803 45.0469 69.3114 44.8568 69.3736 44.6288C69.4427 44.3938 69.5326 44.1485 69.6432 43.8928C69.7606 43.6302 69.885 43.3606 70.0163 43.0842C70.1476 42.8078 70.2824 42.5521 70.4206 42.3171C70.5588 42.0821 70.6867 41.8782 70.8042 41.7055C70.9286 41.5327 71.0253 41.4152 71.0944 41.353C71.129 41.3323 71.1739 41.315 71.2292 41.3012C71.2845 41.2874 71.3329 41.2804 71.3743 41.2804C71.4504 41.2804 71.4987 41.2839 71.5195 41.2908C71.554 41.3185 71.5989 41.353 71.6542 41.3945C71.7164 41.429 71.7752 41.4636 71.8305 41.4981C71.8927 41.5327 71.9445 41.5638 71.986 41.5914C72.0343 41.6191 72.0654 41.6329 72.0793 41.6329C72.1207 41.6329 72.1414 41.626 72.1414 41.6122C72.1414 41.5983 72.1622 41.5914 72.2036 41.5914C72.2658 41.5914 72.3315 41.6087 72.4006 41.6433C72.4766 41.6778 72.5457 41.7227 72.6079 41.778C72.6701 41.8333 72.722 41.899 72.7634 41.975C72.8049 42.0441 72.8256 42.1201 72.8256 42.2031C72.8256 42.2514 72.8118 42.3205 72.7842 42.4104C72.7634 42.5002 72.7358 42.5935 72.7012 42.6903C72.6667 42.787 72.6356 42.8769 72.6079 42.9598C72.5872 43.0358 72.5734 43.0842 72.5665 43.1049C72.5526 43.1671 72.5319 43.2639 72.5043 43.3952C72.4766 43.5196 72.449 43.6578 72.4213 43.8098C72.4006 43.9619 72.3799 44.1139 72.3591 44.266C72.3384 44.418 72.328 44.5389 72.328 44.6288C72.328 44.691 72.3246 44.7566 72.3177 44.8257C72.3177 44.8949 72.3246 44.9605 72.3384 45.0227C72.3522 45.0849 72.3799 45.1471 72.4213 45.2093C72.4697 45.2646 72.5388 45.2957 72.6287 45.3026C72.7047 45.3026 72.8153 45.2922 72.9604 45.2715C73.1055 45.2439 73.2472 45.1989 73.3854 45.1367C73.5305 45.0745 73.6619 45.0123 73.7793 44.9501C73.8968 44.8879 74.035 44.8016 74.194 44.691C74.194 44.7117 74.194 44.7324 74.194 44.7532C74.194 44.7739 74.1905 44.8119 74.1836 44.8672ZM71.8305 42.2031V42.0994C71.8097 42.0994 71.7924 42.0959 71.7786 42.089L71.7579 42.0683C71.592 42.2065 71.44 42.3827 71.3018 42.597C71.1636 42.8043 71.0357 43.0358 70.9182 43.2915C70.8076 43.5403 70.704 43.7995 70.6072 44.069C70.5174 44.3385 70.4379 44.5942 70.3688 44.8361C70.3481 44.8568 70.3342 44.8741 70.3273 44.8879C70.3204 44.9018 70.317 44.9294 70.317 44.9709V45.116C70.4897 44.9916 70.6418 44.843 70.7731 44.6702C70.9044 44.4906 71.0184 44.304 71.1152 44.1105C71.2188 43.91 71.3121 43.7062 71.3951 43.4988C71.478 43.2915 71.5575 43.0911 71.6335 42.8976C71.6473 42.8492 71.6681 42.7905 71.6957 42.7214C71.7233 42.6453 71.7475 42.5728 71.7683 42.5037C71.789 42.4346 71.8028 42.3724 71.8097 42.3171C71.8235 42.2549 71.8305 42.2169 71.8305 42.2031ZM77.9038 41.5292C77.9038 41.6191 77.8761 41.6744 77.8208 41.6951C77.7656 41.7158 77.6895 41.74 77.5928 41.7677C77.579 41.7815 77.5617 41.7919 77.541 41.7988C77.5202 41.8057 77.4995 41.8195 77.4788 41.8402C77.3958 41.854 77.306 41.8713 77.2092 41.8921C77.1125 41.9128 77.0399 41.9301 76.9915 41.9439C76.9501 41.9577 76.8948 41.9681 76.8257 41.975C76.7566 41.9819 76.7082 41.9854 76.6805 41.9854C76.6667 41.9715 76.6391 41.9646 76.5976 41.9646C76.5631 41.9646 76.5354 41.975 76.5147 41.9957C76.5009 42.0095 76.4767 42.0165 76.4421 42.0165C76.2832 42.0303 76.1069 42.0476 75.9134 42.0683C75.7199 42.0821 75.5817 42.1374 75.4988 42.2341C75.4573 42.2756 75.4089 42.4069 75.3536 42.6281C75.2984 42.8492 75.2431 43.0946 75.1878 43.3641C75.1394 43.6267 75.0945 43.8824 75.053 44.1312C75.0185 44.38 75.0012 44.5562 75.0012 44.6599C75.0081 44.8188 75.0427 44.9674 75.1049 45.1056C75.1671 45.2369 75.288 45.3026 75.4677 45.3026C75.6128 45.3026 75.7683 45.2508 75.9342 45.1471C76.1069 45.0434 76.3004 44.9121 76.5147 44.7532C76.7289 44.5873 76.9501 44.418 77.1781 44.2452C77.4062 44.0725 77.5513 43.9792 77.6135 43.9653C77.7103 43.9308 77.7552 43.9377 77.7483 43.9861C77.7414 44.0344 77.7241 44.0863 77.6964 44.1416C77.655 44.2245 77.6066 44.3143 77.5513 44.4111C77.5029 44.5078 77.4511 44.5977 77.3958 44.6806C77.4304 44.6944 77.3544 44.8119 77.1678 45.0331C76.9812 45.2473 76.722 45.465 76.3903 45.6862C76.0655 45.9073 75.7579 46.0179 75.4677 46.0179H75.2603C75.2189 46.0179 75.1256 46.0006 74.9805 45.966C74.8353 45.9384 74.7178 45.89 74.628 45.8209C74.4345 45.6827 74.2928 45.4892 74.203 45.2404C74.12 44.9916 74.0786 44.7463 74.0786 44.5044C74.0717 44.0897 74.1097 43.7165 74.1926 43.3848C74.2755 43.0531 74.3377 42.7939 74.3792 42.6073C74.2479 42.5659 74.1339 42.5002 74.0371 42.4104C73.9335 42.3136 73.8816 42.1927 73.8816 42.0476C73.8816 41.9439 73.9127 41.8644 73.9749 41.8091C74.0302 41.7469 74.0993 41.702 74.1822 41.6744C74.2652 41.6467 74.3481 41.6225 74.431 41.6018C74.5209 41.5811 74.59 41.5431 74.6384 41.4878C74.6937 41.4394 74.7282 41.3599 74.742 41.2493C74.7628 41.1388 74.787 41.0386 74.8146 40.9487C74.9113 40.6861 74.9839 40.4822 75.0323 40.3371C75.0807 40.1851 75.1221 40.0538 75.1567 39.9432C75.1912 39.8326 75.2327 39.7289 75.2811 39.6322C75.3295 39.5285 75.4055 39.3972 75.5091 39.2383C75.5161 39.2314 75.5368 39.221 75.5713 39.2072C75.6128 39.1933 75.6577 39.183 75.7061 39.1761C75.7545 39.1692 75.8029 39.1657 75.8512 39.1657C75.9065 39.1588 75.9445 39.1553 75.9653 39.1553C75.9998 39.1553 76.0551 39.1761 76.1311 39.2175C76.2071 39.2521 76.2728 39.2763 76.3281 39.2901C76.3696 39.3039 76.4145 39.3419 76.4628 39.4041C76.5112 39.4663 76.5354 39.5182 76.5354 39.5596C76.5354 39.5942 76.4939 39.6598 76.411 39.7566C76.3281 39.8464 76.2693 39.9363 76.2348 40.0261C76.1449 40.2127 76.0655 40.4131 75.9964 40.6274C75.9342 40.8416 75.8651 41.0524 75.789 41.2597C75.9273 41.2597 76.0862 41.2563 76.2659 41.2493C76.4525 41.2424 76.6287 41.239 76.7946 41.239C76.9604 41.2321 77.0779 41.2286 77.147 41.2286C77.2231 41.2286 77.268 41.2286 77.2818 41.2286C77.3233 41.2286 77.3785 41.239 77.4477 41.2597C77.5168 41.2735 77.5859 41.2874 77.655 41.3012C77.6688 41.3081 77.6964 41.3288 77.7379 41.3634C77.7794 41.3979 77.8243 41.4152 77.8727 41.4152C77.8865 41.429 77.8934 41.4428 77.8934 41.4567C77.9003 41.4636 77.9038 41.4878 77.9038 41.5292ZM81.245 44.2971C81.2173 44.38 81.1517 44.4802 81.048 44.5977C80.9513 44.7083 80.8165 44.8534 80.6437 45.0331C80.471 45.2058 80.3258 45.3372 80.2084 45.427C80.0909 45.5099 80.0252 45.5583 80.0114 45.5721C79.8524 45.7173 79.7108 45.814 79.5864 45.8624C79.4689 45.9108 79.3341 45.9626 79.1821 46.0179C79.1337 46.0386 79.0715 46.049 78.9955 46.049C78.9195 46.0559 78.8573 46.0593 78.8089 46.0593C78.567 46.0593 78.3562 46.0179 78.1765 45.9349C78.0038 45.8451 77.8586 45.7345 77.7412 45.6032C77.6306 45.465 77.5442 45.2922 77.482 45.0849C77.4267 44.8776 77.3991 44.6875 77.3991 44.5148C77.3991 44.4733 77.4094 44.3973 77.4302 44.2867C77.4509 44.1761 77.4682 44.0828 77.482 44.0068C77.5235 43.8064 77.5822 43.6025 77.6582 43.3952C77.7342 43.1879 77.8172 42.984 77.907 42.7836C78.0038 42.5832 78.1074 42.3966 78.218 42.2238C78.3355 42.0441 78.453 41.8955 78.5705 41.778C78.5843 41.7504 78.6085 41.7124 78.643 41.664C78.6776 41.6156 78.7018 41.5776 78.7156 41.55C78.7432 41.5085 78.7847 41.4636 78.84 41.4152C78.8953 41.3599 78.9575 41.3081 79.0266 41.2597C79.1026 41.2113 79.1752 41.1699 79.2443 41.1353C79.3134 41.1008 79.3687 41.0835 79.4101 41.0835C79.4447 41.0835 79.4965 41.1008 79.5656 41.1353C79.6347 41.163 79.6969 41.1837 79.7522 41.1975C80.0079 41.3012 80.1807 41.4498 80.2705 41.6433C80.3604 41.8368 80.4053 42.0234 80.4053 42.2031C80.4053 42.2998 80.3673 42.4346 80.2913 42.6073C80.2222 42.7801 80.1392 42.946 80.0425 43.1049C79.9457 43.2639 79.8559 43.4056 79.773 43.5299C79.6969 43.6474 79.652 43.7131 79.6382 43.7269C79.5414 43.8237 79.4447 43.9342 79.3479 44.0586C79.2581 44.1761 79.1683 44.2867 79.0784 44.3904C78.9886 44.494 78.8884 44.5873 78.7778 44.6702C78.6741 44.7463 78.5497 44.8085 78.4046 44.8568C78.3493 44.8776 78.3113 44.8983 78.2906 44.919C78.3389 45.0918 78.3873 45.2093 78.4357 45.2715C78.4841 45.3337 78.5774 45.3648 78.7156 45.3648C78.9091 45.3648 79.1164 45.3164 79.3376 45.2197C79.5656 45.1229 79.7799 45.0158 79.9803 44.8983C80.1876 44.7739 80.3915 44.6426 80.5919 44.5044C80.7992 44.3593 80.9202 44.2867 80.9547 44.2867L81.1932 44.1934C81.2139 44.2072 81.2312 44.2176 81.245 44.2245C81.2657 44.2245 81.2657 44.2487 81.245 44.2971ZM79.5138 42.1098V41.9543C79.2719 42.1892 79.0646 42.4553 78.8918 42.7525C78.726 43.0496 78.6016 43.3503 78.5186 43.6543C78.5463 43.6405 78.6154 43.568 78.726 43.4366C78.8365 43.3053 78.9471 43.1568 79.0577 42.9909C79.1752 42.825 79.2788 42.6592 79.3687 42.4933C79.4654 42.3274 79.5138 42.1996 79.5138 42.1098Z" fill="#2B1911"/>
<path d="M86.793 42.9092H96.8545" stroke="black" stroke-width="0.609787"/>
<defs>
<linearGradient id="paint0_linear_9001_90374" x1="122.844" y1="63.2723" x2="111.158" y2="42.1815" gradientUnits="userSpaceOnUse">
<stop/>
<stop offset="1" stop-opacity="0"/>
</linearGradient>
<linearGradient id="paint1_linear_9001_90374" x1="48.0953" y1="142.418" x2="33.311" y2="133.204" gradientUnits="userSpaceOnUse">
<stop/>
<stop offset="1" stop-opacity="0"/>
</linearGradient>
</defs>
</svg>
