<svg width="84" height="45" viewBox="0 0 84 45" fill="none" xmlns="http://www.w3.org/2000/svg">
<path d="M47.3349 27.2407L59.4124 12.1146L59.411 11.814V7.59639H41.384V12.5231H52.5672L40.8015 27.2407H40.7958V28.7666L40.793 28.7766L40.7958 28.7794V32.2142H59.5144V27.2407H47.3349Z" fill="#102031"/>
<path d="M38.5085 15.3322H33.2931C33.2235 15.3322 33.167 15.3887 33.167 15.4584V32.0877C33.167 32.1574 33.2235 32.2139 33.2931 32.2139H38.5085C38.5781 32.2139 38.6346 32.1574 38.6346 32.0877V15.4584C38.6346 15.3887 38.5781 15.3322 38.5085 15.3322Z" fill="#102031"/>
<path d="M35.9558 13.2702C37.7458 13.2702 39.197 11.8835 39.197 10.1729C39.197 8.46237 37.7458 7.07568 35.9558 7.07568C34.1657 7.07568 32.7146 8.46237 32.7146 10.1729C32.7146 11.8835 34.1657 13.2702 35.9558 13.2702Z" fill="#102031"/>
<path d="M83.104 32.1988H77.136C77.1403 25.2384 74.8161 23.3211 71.4771 23.3211H67.5131V32.1988H61.8301V7.57671H72.5145C78.3152 7.57671 81.7236 10.6385 81.7236 15.2801C81.7236 17.9463 81.134 20.767 78.4626 21.9639C81.4146 23.4062 82.8914 26.5715 83.1025 32.2002L83.104 32.1988ZM72.1701 18.6922C74.2435 18.6922 75.6522 17.6839 75.6522 15.4673C75.6522 13.2508 74.2137 12.0552 72.1389 12.0552H67.3884V18.6908H72.1701V18.6922Z" fill="#102031"/>
<path d="M19.048 37.9169C18.236 37.9169 17.1348 37.6537 16.0925 36.5503C14.3717 34.7281 13.8829 32.1732 13.4895 30.119C13.4362 29.8389 13.3842 29.5659 13.3308 29.307C13.1917 28.6393 13.0681 27.9687 12.9586 27.2953C12.5063 28.1852 12.0638 29.0227 11.6353 29.7993C8.56887 35.3478 6.89025 36.5927 5.65411 37.0794C4.9321 37.3637 4.17777 37.4118 3.48104 37.2265C2.62558 37.0794 1.86844 36.5899 1.3473 35.8358C1.01157 35.3478 0.779795 34.7635 0.639325 34.0477C0.466547 33.1649 0.453904 32.1987 0.444072 31.3456L0.441262 31.1348L0.157512 11.4393C0.136442 9.99352 1.28408 8.80517 2.71829 8.78537C2.73093 8.78537 2.74357 8.78537 2.75621 8.78537C4.17356 8.78537 5.33384 9.93269 5.35351 11.3644L5.61619 29.7484C6.09519 29.0014 6.6669 28.038 7.33835 26.7987C8.99169 23.7515 10.8726 19.721 12.6341 15.4472C13.1173 14.2772 14.3633 13.6236 15.5924 13.8953C16.8215 14.1669 17.6798 15.2873 17.6306 16.5535C17.6194 16.8562 17.6025 17.176 17.5857 17.4971C17.5604 17.9894 17.5351 18.4987 17.5281 18.9231C17.5126 19.8978 17.5309 20.8853 17.5843 21.8586C17.6994 23.9849 17.979 26.131 18.4158 28.2361C18.4748 28.5204 18.5324 28.8189 18.5914 29.1273C18.7459 29.9309 18.9215 30.849 19.173 31.6172C19.3738 31.214 19.6098 30.6849 19.8823 29.9917L19.9048 29.9337C22.4712 23.4162 23.8703 17.299 25.3509 10.8225C25.9268 8.30578 26.521 5.70415 27.2079 2.96812C27.5591 1.56615 28.9722 0.715919 30.3642 1.07101C31.7563 1.42468 32.5991 2.84787 32.2479 4.24984C31.5751 6.93211 30.9865 9.50828 30.4162 11.9982C28.8893 18.6727 27.4481 24.978 24.737 31.8648L24.7145 31.9214C23.6694 34.5782 22.2633 37.3609 19.7629 37.849C19.5663 37.8872 19.3233 37.9183 19.0466 37.9183L19.048 37.9169Z" fill="#102031"/>
<path d="M37.1221 37.0234C35.1895 37.0234 33.856 38.7047 33.856 40.6566C33.856 41.9514 34.6001 44.0193 37.0738 44.0193C38.5329 44.0193 39.4702 43.2656 40.0113 41.9901L38.6489 40.9368H38.5715C38.3107 41.9708 37.7889 42.4346 37.0545 42.4346C36.0109 42.4346 35.5664 41.4683 35.5664 40.5793C35.5664 39.3811 36.2041 38.5984 37.1221 38.5984C37.7502 38.5984 38.2044 39.0332 38.5039 39.9029H38.5812L39.7214 38.695C39.3059 37.7384 38.33 37.0234 37.1221 37.0234ZM40.6393 37.1393V43.9034H42.3014V41.6905H42.7555L44.1953 43.9034H46.2342L44.6205 41.6422C45.3355 41.4683 46.2438 40.8789 46.2438 39.3908C46.2438 38.0283 45.3548 37.1393 43.7991 37.1393H40.6393ZM43.6348 38.7144C44.2146 38.7144 44.5238 38.9076 44.5238 39.4004C44.5238 39.8932 44.1953 40.1735 43.5865 40.1735H42.3014V38.7144H43.6348ZM52.0374 37.1393H47.2543V43.9034H52.0374V42.338H48.9646V41.2654H52.0374V39.8159H48.9646V38.7144H52.0374V37.1393ZM53.1049 37.1393V43.9034H55.9651C57.8204 43.9034 59.0862 42.8887 59.0862 40.5986C59.0862 38.2409 57.7237 37.1393 55.9168 37.1393H53.1049ZM56.1583 38.7144C56.8637 38.7144 57.3759 39.4584 57.3759 40.5407C57.3759 41.7485 56.8251 42.338 56.1777 42.338H54.8152V38.7144H56.1583Z" fill="#102031"/>
</svg>
