<svg width="378" height="84" viewBox="0 0 378 84" fill="none" xmlns="http://www.w3.org/2000/svg">
<path d="M48.9325 26.9929L61.2137 11.6118L61.2123 11.3061V7.01733H42.8812V12.0271H54.2531L42.2889 26.9929H42.2832V28.5446L42.2803 28.5547L42.2832 28.5576V32.0503H61.3175V26.9929H48.9325Z" fill="white"/>
<path d="M39.957 14.8838H34.6537C34.5828 14.8838 34.5254 14.9413 34.5254 15.0121V31.9219C34.5254 31.9928 34.5828 32.0502 34.6537 32.0502H39.957C40.0278 32.0502 40.0852 31.9928 40.0852 31.9219V15.0121C40.0852 14.9413 40.0278 14.8838 39.957 14.8838Z" fill="white"/>
<path d="M37.3613 12.787C39.1815 12.787 40.6571 11.3769 40.6571 9.63753C40.6571 7.89811 39.1815 6.48804 37.3613 6.48804C35.541 6.48804 34.0654 7.89811 34.0654 9.63753C34.0654 11.3769 35.541 12.787 37.3613 12.787Z" fill="white"/>
<path d="M85.3045 32.0344H79.236C79.2403 24.9567 76.8769 23.007 73.4816 23.007H69.4508V32.0344H63.6719V6.99707H74.5365C80.435 6.99707 83.9009 10.1105 83.9009 14.8304C83.9009 17.5415 83.3014 20.4098 80.5849 21.6269C83.5867 23.0935 85.0884 26.3122 85.3031 32.0358L85.3045 32.0344ZM74.1863 18.3001C76.2946 18.3001 77.7271 17.2747 77.7271 15.0208C77.7271 12.7668 76.2644 11.5511 74.1546 11.5511H69.3239V18.2986H74.1863V18.3001Z" fill="white"/>
<path d="M20.1693 37.8494C19.3437 37.8494 18.2238 37.5818 17.1639 36.4597C15.4142 34.6068 14.9171 32.0088 14.5171 29.92C14.4628 29.6352 14.41 29.3575 14.3557 29.0943C14.2143 28.4153 14.0886 27.7334 13.9772 27.0487C13.5173 27.9535 13.0673 28.8051 12.6316 29.5949C9.51347 35.2369 7.80654 36.5029 6.54955 36.9977C5.81536 37.2869 5.04831 37.3358 4.33983 37.1473C3.46994 36.9977 2.70003 36.5 2.1701 35.7332C1.82871 35.2369 1.59303 34.6428 1.45019 33.9149C1.2745 33.0172 1.26164 32.0347 1.25164 31.1673L1.24879 30.9529L0.960251 10.9253C0.938825 9.45508 2.10582 8.24669 3.56421 8.22655C3.57707 8.22655 3.58992 8.22655 3.60278 8.22655C5.04403 8.22655 6.22388 9.39322 6.24388 10.849L6.51099 29.5431C6.99807 28.7836 7.57942 27.8039 8.2622 26.5437C9.94341 23.4451 11.856 19.3466 13.6472 15.0007C14.1386 13.811 15.4056 13.1464 16.6554 13.4226C17.9053 13.6988 18.778 14.8382 18.728 16.1257C18.7166 16.4335 18.6995 16.7586 18.6823 17.0852C18.6566 17.5858 18.6309 18.1037 18.6238 18.5353C18.608 19.5264 18.6266 20.5305 18.6809 21.5203C18.798 23.6824 19.0823 25.8647 19.5265 28.0053C19.5865 28.2944 19.6451 28.598 19.7051 28.9116C19.8622 29.7287 20.0407 30.6623 20.2964 31.4435C20.5007 31.0335 20.7406 30.4954 21.0177 29.7906L21.0406 29.7316C23.6503 23.1041 25.073 16.8838 26.5785 10.2981C27.1641 7.73888 27.7683 5.09337 28.4668 2.3112C28.8239 0.885587 30.2609 0.0210137 31.6764 0.382092C33.0919 0.741732 33.949 2.18892 33.5919 3.61453C32.9077 6.34204 32.3092 8.96166 31.7293 11.4935C30.1766 18.2806 28.7111 24.6923 25.9543 31.6952L25.9314 31.7527C24.8687 34.4544 23.4389 37.284 20.8963 37.7803C20.6964 37.8191 20.4492 37.8508 20.1679 37.8508L20.1693 37.8494Z" fill="white"/>
<path d="M44.0016 40.4V74H37.8576V40.4H44.0016ZM64.369 46.544C70.897 46.544 73.969 50.96 73.969 56.096V74H68.209V57.68C68.209 53.792 66.529 51.824 63.217 51.824C59.185 51.824 56.641 54.992 56.641 60.176V74H50.881V47.12H55.681L56.065 50.672H56.209C57.937 48.128 60.721 46.544 64.369 46.544ZM88.7331 46.544C94.3011 46.544 98.0931 49.76 99.4851 51.536L96.9411 56.336H96.6531C94.7331 53.648 91.8051 51.68 88.7331 51.68C86.0451 51.68 84.7491 53.072 84.7491 54.56C84.7491 55.904 85.0851 56.72 90.8931 58.256C97.2291 59.792 100.349 61.808 100.349 66.704C100.349 71.504 95.9811 74.576 90.2211 74.576C84.5571 74.576 80.3331 71.888 78.4131 69.44L81.0051 64.496H81.2931C83.2611 66.992 86.3811 69.248 89.8851 69.248C93.3411 69.248 94.6851 68.192 94.6851 66.512C94.6851 65.024 93.9651 64.16 87.8691 62.624C81.8691 61.136 79.1811 58.784 79.1811 54.512C79.1811 50.288 82.5891 46.544 88.7331 46.544ZM111.07 47.12V74H105.31V47.12H111.07ZM108.238 36.08C110.686 36.08 112.078 37.616 112.078 39.872C112.078 42.128 110.686 43.664 108.238 43.664C105.742 43.664 104.35 42.128 104.35 39.872C104.35 37.616 105.742 36.08 108.238 36.08ZM127.39 46.544C131.422 46.544 133.966 48.512 135.166 50.672H135.31L135.742 47.12H140.302V71.84C140.302 80.624 134.11 83.456 128.302 83.456C123.982 83.456 120.046 81.392 118.174 79.376L120.238 74.288H120.526C122.206 76.112 125.038 78.128 128.014 78.128C132.19 78.128 134.446 76.256 134.446 71.264V68.48H134.206C132.91 70.256 130.654 71.744 127.15 71.744C120.43 71.744 116.014 66.944 116.014 59.456C116.014 51.776 121.39 46.544 127.39 46.544ZM128.35 51.824C123.742 51.824 121.774 55.616 121.774 59.36C121.774 63.248 123.934 66.368 128.158 66.368C132.19 66.368 134.686 63.92 134.638 59.12C134.638 55.088 132.382 51.824 128.35 51.824ZM152.467 38.384V50.816H152.563C154.339 48.128 157.123 46.544 160.771 46.544C166.723 46.544 169.651 50.96 169.651 56.096V74H163.891V58.016C163.891 54.704 162.835 51.824 158.947 51.824C154.675 51.824 152.467 55.904 152.467 60.176V74H146.707V38.384H152.467ZM183.507 40.4V47.12H191.283V52.4H183.603V66.464C183.603 68.144 184.227 68.72 185.523 68.72C186.723 68.72 188.019 68.048 188.835 67.424H189.123L190.515 72.944C189.411 73.712 186.915 74.576 184.563 74.576C180.963 74.576 177.843 72.608 177.843 67.952V52.4H173.475V49.04C176.931 47.552 178.995 44.288 180.099 40.4H183.507ZM203.688 46.544C209.256 46.544 213.048 49.76 214.44 51.536L211.896 56.336H211.608C209.688 53.648 206.76 51.68 203.688 51.68C201 51.68 199.704 53.072 199.704 54.56C199.704 55.904 200.04 56.72 205.848 58.256C212.184 59.792 215.304 61.808 215.304 66.704C215.304 71.504 210.936 74.576 205.176 74.576C199.512 74.576 195.288 71.888 193.368 69.44L195.96 64.496H196.248C198.216 66.992 201.336 69.248 204.84 69.248C208.296 69.248 209.64 68.192 209.64 66.512C209.64 65.024 208.92 64.16 202.824 62.624C196.824 61.136 194.136 58.784 194.136 54.512C194.136 50.288 197.544 46.544 203.688 46.544Z" fill="#CBFB62"/>
</svg>
