<svg width="544" height="457" viewBox="0 0 544 457" fill="none" xmlns="http://www.w3.org/2000/svg">
<g clip-path="url(#clip0_541_4992)">
<g style="mix-blend-mode:overlay">
<path d="M76 188.525C76 181.46 81.7284 175.733 88.7946 175.733C95.8609 175.733 101.589 181.46 101.589 188.525V268.475C101.589 275.54 95.8609 281.267 88.7946 281.267C81.7284 281.267 76 275.54 76 268.475V188.525Z" fill="url(#paint0_linear_541_4992)"/>
<path d="M130.377 150.149C130.377 143.084 136.106 137.356 143.172 137.356C150.238 137.356 155.967 143.084 155.967 150.149V306.851C155.967 313.916 150.238 319.644 143.172 319.644C136.106 319.644 130.377 313.916 130.377 306.851V150.149Z" fill="url(#paint1_linear_541_4992)"/>
<path d="M184.755 79.7921C184.755 72.7272 190.483 67 197.549 67C204.615 67 210.344 72.7272 210.344 79.7921V377.208C210.344 384.273 204.615 390 197.549 390C190.483 390 184.755 384.273 184.755 377.208V79.7921Z" fill="url(#paint2_linear_541_4992)"/>
<path d="M239.132 79.7921C239.132 72.7272 244.86 67 251.926 67C258.993 67 264.721 72.7272 264.721 79.7921V377.208C264.721 384.273 258.993 390 251.926 390C244.86 390 239.132 384.273 239.132 377.208V79.7921Z" fill="url(#paint3_linear_541_4992)"/>
<path d="M293.509 105.376C293.509 98.3113 299.237 92.5842 306.304 92.5842C313.37 92.5842 319.098 98.3114 319.098 105.376V351.624C319.098 358.689 313.37 364.416 306.304 364.416C299.237 364.416 293.509 358.689 293.509 351.624V105.376Z" fill="url(#paint4_linear_541_4992)"/>
<path d="M347.886 150.149C347.886 143.084 353.615 137.356 360.681 137.356C367.747 137.356 373.476 143.084 373.476 150.149V306.851C373.476 313.916 367.747 319.644 360.681 319.644C353.615 319.644 347.886 313.916 347.886 306.851V150.149Z" fill="url(#paint5_linear_541_4992)"/>
<path d="M402.264 188.525C402.264 181.46 407.992 175.733 415.058 175.733C422.124 175.733 427.853 181.46 427.853 188.525V268.475C427.853 275.54 422.124 281.267 415.058 281.267C407.992 281.267 402.264 275.54 402.264 268.475V188.525Z" fill="url(#paint6_linear_541_4992)"/>
<path d="M456.641 150.149C456.641 143.084 462.369 137.356 469.435 137.356C476.502 137.356 482.23 143.084 482.23 150.149V306.851C482.23 313.916 476.502 319.644 469.435 319.644C462.369 319.644 456.641 313.916 456.641 306.851V150.149Z" fill="url(#paint7_linear_541_4992)"/>
<path d="M511.018 79.7921C511.018 72.7272 516.746 67 523.813 67C530.879 67 536.607 72.7272 536.607 79.7921V377.208C536.607 384.273 530.879 390 523.813 390C516.746 390 511.018 384.273 511.018 377.208V79.7921Z" fill="url(#paint8_linear_541_4992)"/>
<path d="M565.395 79.7921C565.395 72.7272 571.124 67 578.19 67C585.256 67 590.985 72.7272 590.985 79.7921V377.208C590.985 384.273 585.256 390 578.19 390C571.124 390 565.395 384.273 565.395 377.208V79.7921Z" fill="url(#paint9_linear_541_4992)"/>
<path d="M619.773 105.376C619.773 98.3113 625.501 92.5842 632.567 92.5842C639.634 92.5842 645.362 98.3114 645.362 105.376V351.624C645.362 358.689 639.634 364.416 632.567 364.416C625.501 364.416 619.773 358.689 619.773 351.624V105.376Z" fill="url(#paint10_linear_541_4992)"/>
<path d="M674.15 150.149C674.15 143.084 679.878 137.356 686.944 137.356C694.011 137.356 699.739 143.084 699.739 150.149V306.851C699.739 313.916 694.011 319.644 686.944 319.644C679.878 319.644 674.15 313.916 674.15 306.851V150.149Z" fill="url(#paint11_linear_541_4992)"/>
<path d="M728.527 188.525C728.527 181.46 734.255 175.733 741.322 175.733C748.388 175.733 754.116 181.46 754.116 188.525V268.475C754.116 275.54 748.388 281.267 741.322 281.267C734.255 281.267 728.527 275.54 728.527 268.475V188.525Z" fill="url(#paint12_linear_541_4992)"/>
<path d="M830.884 188.525C830.884 181.46 836.612 175.733 843.678 175.733C850.745 175.733 856.473 181.46 856.473 188.525V268.475C856.473 275.54 850.745 281.267 843.678 281.267C836.612 281.267 830.884 275.54 830.884 268.475V188.525Z" fill="url(#paint13_linear_541_4992)"/>
<path d="M885.261 150.149C885.261 143.084 890.989 137.356 898.056 137.356C905.122 137.356 910.85 143.084 910.85 150.149V306.851C910.85 313.916 905.122 319.644 898.056 319.644C890.989 319.644 885.261 313.916 885.261 306.851V150.149Z" fill="url(#paint14_linear_541_4992)"/>
<path d="M939.638 79.7921C939.638 72.7272 945.367 67 952.433 67C959.499 67 965.227 72.7272 965.227 79.7921V377.208C965.227 384.273 959.499 390 952.433 390C945.367 390 939.638 384.273 939.638 377.208V79.7921Z" fill="url(#paint15_linear_541_4992)"/>
<path d="M994.015 79.7921C994.015 72.7272 999.744 67 1006.81 67C1013.88 67 1019.6 72.7272 1019.6 79.7921V377.208C1019.6 384.273 1013.88 390 1006.81 390C999.744 390 994.015 384.273 994.015 377.208V79.7921Z" fill="url(#paint16_linear_541_4992)"/>
<path d="M1048.39 105.376C1048.39 98.3113 1054.12 92.5842 1061.19 92.5842C1068.25 92.5842 1073.98 98.3114 1073.98 105.376V351.624C1073.98 358.689 1068.25 364.416 1061.19 364.416C1054.12 364.416 1048.39 358.689 1048.39 351.624V105.376Z" fill="url(#paint17_linear_541_4992)"/>
<path d="M1102.77 150.149C1102.77 143.084 1108.5 137.356 1115.56 137.356C1122.63 137.356 1128.36 143.084 1128.36 150.149V306.851C1128.36 313.916 1122.63 319.644 1115.56 319.644C1108.5 319.644 1102.77 313.916 1102.77 306.851V150.149Z" fill="url(#paint18_linear_541_4992)"/>
<path d="M1157.15 188.525C1157.15 181.46 1162.88 175.733 1169.94 175.733C1177.01 175.733 1182.74 181.46 1182.74 188.525V268.475C1182.74 275.54 1177.01 281.267 1169.94 281.267C1162.88 281.267 1157.15 275.54 1157.15 268.475V188.525Z" fill="url(#paint19_linear_541_4992)"/>
<path d="M1211.52 150.149C1211.52 143.084 1217.25 137.356 1224.32 137.356C1231.39 137.356 1237.11 143.084 1237.11 150.149V306.851C1237.11 313.916 1231.39 319.644 1224.32 319.644C1217.25 319.644 1211.52 313.916 1211.52 306.851V150.149Z" fill="url(#paint20_linear_541_4992)"/>
<path d="M1265.9 79.7921C1265.9 72.7272 1271.63 67 1278.7 67C1285.76 67 1291.49 72.7272 1291.49 79.7921V377.208C1291.49 384.273 1285.76 390 1278.7 390C1271.63 390 1265.9 384.273 1265.9 377.208V79.7921Z" fill="url(#paint21_linear_541_4992)"/>
<path d="M1320.28 79.7921C1320.28 72.7272 1326.01 67 1333.07 67C1340.14 67 1345.87 72.7272 1345.87 79.7921V377.208C1345.87 384.273 1340.14 390 1333.07 390C1326.01 390 1320.28 384.273 1320.28 377.208V79.7921Z" fill="url(#paint22_linear_541_4992)"/>
<path d="M1374.66 105.376C1374.66 98.3113 1380.38 92.5842 1387.45 92.5842C1394.52 92.5842 1400.25 98.3114 1400.25 105.376V351.624C1400.25 358.689 1394.52 364.416 1387.45 364.416C1380.38 364.416 1374.66 358.689 1374.66 351.624V105.376Z" fill="url(#paint23_linear_541_4992)"/>
<path d="M1429.03 150.149C1429.03 143.084 1434.76 137.356 1441.83 137.356C1448.89 137.356 1454.62 143.084 1454.62 150.149V306.851C1454.62 313.916 1448.89 319.644 1441.83 319.644C1434.76 319.644 1429.03 313.916 1429.03 306.851V150.149Z" fill="url(#paint24_linear_541_4992)"/>
<path d="M1483.41 188.525C1483.41 181.46 1489.14 175.733 1496.21 175.733C1503.27 175.733 1509 181.46 1509 188.525V268.475C1509 275.54 1503.27 281.267 1496.21 281.267C1489.14 281.267 1483.41 275.54 1483.41 268.475V188.525Z" fill="url(#paint25_linear_541_4992)"/>
</g>
</g>
<defs>
<linearGradient id="paint0_linear_541_4992" x1="230.495" y1="91.3071" x2="267.931" y2="529.577" gradientUnits="userSpaceOnUse">
<stop stop-color="#040404"/>
<stop offset="1" stop-opacity="0"/>
</linearGradient>
<linearGradient id="paint1_linear_541_4992" x1="230.495" y1="91.3071" x2="267.931" y2="529.577" gradientUnits="userSpaceOnUse">
<stop stop-color="#040404"/>
<stop offset="1" stop-opacity="0"/>
</linearGradient>
<linearGradient id="paint2_linear_541_4992" x1="230.495" y1="91.3071" x2="267.931" y2="529.577" gradientUnits="userSpaceOnUse">
<stop stop-color="#040404"/>
<stop offset="1" stop-opacity="0"/>
</linearGradient>
<linearGradient id="paint3_linear_541_4992" x1="230.495" y1="91.3071" x2="267.931" y2="529.577" gradientUnits="userSpaceOnUse">
<stop stop-color="#040404"/>
<stop offset="1" stop-opacity="0"/>
</linearGradient>
<linearGradient id="paint4_linear_541_4992" x1="230.495" y1="91.3071" x2="267.931" y2="529.577" gradientUnits="userSpaceOnUse">
<stop stop-color="#040404"/>
<stop offset="1" stop-opacity="0"/>
</linearGradient>
<linearGradient id="paint5_linear_541_4992" x1="230.495" y1="91.3071" x2="267.931" y2="529.577" gradientUnits="userSpaceOnUse">
<stop stop-color="#040404"/>
<stop offset="1" stop-opacity="0"/>
</linearGradient>
<linearGradient id="paint6_linear_541_4992" x1="230.495" y1="91.3071" x2="267.931" y2="529.577" gradientUnits="userSpaceOnUse">
<stop stop-color="#040404"/>
<stop offset="1" stop-opacity="0"/>
</linearGradient>
<linearGradient id="paint7_linear_541_4992" x1="230.495" y1="91.3071" x2="267.931" y2="529.577" gradientUnits="userSpaceOnUse">
<stop stop-color="#040404"/>
<stop offset="1" stop-opacity="0"/>
</linearGradient>
<linearGradient id="paint8_linear_541_4992" x1="230.495" y1="91.3071" x2="267.931" y2="529.577" gradientUnits="userSpaceOnUse">
<stop stop-color="#040404"/>
<stop offset="1" stop-opacity="0"/>
</linearGradient>
<linearGradient id="paint9_linear_541_4992" x1="230.495" y1="91.3071" x2="267.931" y2="529.577" gradientUnits="userSpaceOnUse">
<stop stop-color="#040404"/>
<stop offset="1" stop-opacity="0"/>
</linearGradient>
<linearGradient id="paint10_linear_541_4992" x1="230.495" y1="91.3071" x2="267.931" y2="529.577" gradientUnits="userSpaceOnUse">
<stop stop-color="#040404"/>
<stop offset="1" stop-opacity="0"/>
</linearGradient>
<linearGradient id="paint11_linear_541_4992" x1="230.495" y1="91.3071" x2="267.931" y2="529.577" gradientUnits="userSpaceOnUse">
<stop stop-color="#040404"/>
<stop offset="1" stop-opacity="0"/>
</linearGradient>
<linearGradient id="paint12_linear_541_4992" x1="230.495" y1="91.3071" x2="267.931" y2="529.577" gradientUnits="userSpaceOnUse">
<stop stop-color="#040404"/>
<stop offset="1" stop-opacity="0"/>
</linearGradient>
<linearGradient id="paint13_linear_541_4992" x1="230.495" y1="91.3071" x2="267.931" y2="529.577" gradientUnits="userSpaceOnUse">
<stop stop-color="#040404"/>
<stop offset="1" stop-opacity="0"/>
</linearGradient>
<linearGradient id="paint14_linear_541_4992" x1="230.495" y1="91.3071" x2="267.931" y2="529.577" gradientUnits="userSpaceOnUse">
<stop stop-color="#040404"/>
<stop offset="1" stop-opacity="0"/>
</linearGradient>
<linearGradient id="paint15_linear_541_4992" x1="230.495" y1="91.3071" x2="267.931" y2="529.577" gradientUnits="userSpaceOnUse">
<stop stop-color="#040404"/>
<stop offset="1" stop-opacity="0"/>
</linearGradient>
<linearGradient id="paint16_linear_541_4992" x1="230.495" y1="91.3071" x2="267.931" y2="529.577" gradientUnits="userSpaceOnUse">
<stop stop-color="#040404"/>
<stop offset="1" stop-opacity="0"/>
</linearGradient>
<linearGradient id="paint17_linear_541_4992" x1="230.495" y1="91.3071" x2="267.931" y2="529.577" gradientUnits="userSpaceOnUse">
<stop stop-color="#040404"/>
<stop offset="1" stop-opacity="0"/>
</linearGradient>
<linearGradient id="paint18_linear_541_4992" x1="230.495" y1="91.3071" x2="267.931" y2="529.577" gradientUnits="userSpaceOnUse">
<stop stop-color="#040404"/>
<stop offset="1" stop-opacity="0"/>
</linearGradient>
<linearGradient id="paint19_linear_541_4992" x1="230.495" y1="91.3071" x2="267.931" y2="529.577" gradientUnits="userSpaceOnUse">
<stop stop-color="#040404"/>
<stop offset="1" stop-opacity="0"/>
</linearGradient>
<linearGradient id="paint20_linear_541_4992" x1="230.495" y1="91.3071" x2="267.931" y2="529.577" gradientUnits="userSpaceOnUse">
<stop stop-color="#040404"/>
<stop offset="1" stop-opacity="0"/>
</linearGradient>
<linearGradient id="paint21_linear_541_4992" x1="230.495" y1="91.3071" x2="267.931" y2="529.577" gradientUnits="userSpaceOnUse">
<stop stop-color="#040404"/>
<stop offset="1" stop-opacity="0"/>
</linearGradient>
<linearGradient id="paint22_linear_541_4992" x1="230.495" y1="91.3071" x2="267.931" y2="529.577" gradientUnits="userSpaceOnUse">
<stop stop-color="#040404"/>
<stop offset="1" stop-opacity="0"/>
</linearGradient>
<linearGradient id="paint23_linear_541_4992" x1="230.495" y1="91.3071" x2="267.931" y2="529.577" gradientUnits="userSpaceOnUse">
<stop stop-color="#040404"/>
<stop offset="1" stop-opacity="0"/>
</linearGradient>
<linearGradient id="paint24_linear_541_4992" x1="230.495" y1="91.3071" x2="267.931" y2="529.577" gradientUnits="userSpaceOnUse">
<stop stop-color="#040404"/>
<stop offset="1" stop-opacity="0"/>
</linearGradient>
<linearGradient id="paint25_linear_541_4992" x1="230.495" y1="91.3071" x2="267.931" y2="529.577" gradientUnits="userSpaceOnUse">
<stop stop-color="#040404"/>
<stop offset="1" stop-opacity="0"/>
</linearGradient>
<clipPath id="clip0_541_4992">
<rect width="544" height="457" fill="white"/>
</clipPath>
</defs>
</svg>
