<svg width="151" height="119" viewBox="0 0 151 119" fill="none" xmlns="http://www.w3.org/2000/svg">
<path d="M34.5528 18.995L43.1496 8.22814L43.1486 8.01413V5.01202H30.3169V8.51886H38.2772L29.9023 18.995H29.8982V20.0811L29.8962 20.0882L29.8982 20.0902V22.5351H43.2223V18.995H34.5528Z" fill="white"/>
<path d="M28.2701 10.5186H24.5578C24.5082 10.5186 24.468 10.5588 24.468 10.6084V22.4453C24.468 22.4949 24.5082 22.5351 24.5578 22.5351H28.2701C28.3197 22.5351 28.3599 22.4949 28.3599 22.4453V10.6084C28.3599 10.5588 28.3197 10.5186 28.2701 10.5186Z" fill="white"/>
<path d="M26.4533 9.05083C27.7275 9.05083 28.7604 8.06378 28.7604 6.84618C28.7604 5.62859 27.7275 4.64154 26.4533 4.64154C25.1791 4.64154 24.1462 5.62859 24.1462 6.84618C24.1462 8.06378 25.1791 9.05083 26.4533 9.05083Z" fill="white"/>
<path d="M60.0135 22.524H55.7655C55.7685 17.5696 54.1141 16.2048 51.7374 16.2048H48.9159V22.524H44.8707V4.99789H52.4759C56.6048 4.99789 59.031 7.1773 59.031 10.4812C59.031 12.379 58.6113 14.3868 56.7097 15.2388C58.811 16.2654 59.8622 18.5185 60.0125 22.525L60.0135 22.524ZM52.2307 12.91C53.7066 12.91 54.7093 12.1923 54.7093 10.6145C54.7093 9.03671 53.6854 8.18574 52.2085 8.18574H48.8271V12.909H52.2307V12.91Z" fill="white"/>
<path d="M14.4185 26.5945C13.8405 26.5945 13.0566 26.4072 12.3147 25.6218C11.0899 24.3248 10.7419 22.5061 10.462 21.044C10.424 20.8446 10.387 20.6502 10.349 20.466C10.25 19.9907 10.162 19.5134 10.084 19.034C9.76204 19.6674 9.44708 20.2636 9.14212 20.8164C6.95939 24.7658 5.76454 25.652 4.88465 25.9984C4.37072 26.2008 3.83378 26.235 3.33785 26.1031C2.72892 25.9984 2.18999 25.65 1.81904 25.1132C1.58007 24.7658 1.41509 24.3499 1.3151 23.8404C1.19211 23.212 1.18312 22.5243 1.17612 21.917L1.17412 21.767L0.972142 7.74767C0.957144 6.71852 1.77404 5.87265 2.79491 5.85855C2.80391 5.85855 2.81291 5.85855 2.82191 5.85855C3.83079 5.85855 4.65668 6.67522 4.67068 7.6943L4.85766 20.7801C5.19861 20.2485 5.60556 19.5627 6.0835 18.6806C7.26036 16.5115 8.59919 13.6426 9.85303 10.6005C10.197 9.76769 11.0839 9.30246 11.9588 9.4958C12.8337 9.68915 13.4446 10.4867 13.4096 11.3879C13.4016 11.6034 13.3896 11.831 13.3776 12.0596C13.3596 12.41 13.3416 12.7726 13.3366 13.0746C13.3256 13.7685 13.3386 14.4713 13.3766 15.1642C13.4586 16.6777 13.6576 18.2053 13.9685 19.7037C14.0105 19.9061 14.0515 20.1186 14.0935 20.3381C14.2035 20.91 14.3285 21.5636 14.5075 22.1104C14.6504 21.8234 14.8184 21.4468 15.0124 20.9533L15.0284 20.9121C16.8552 16.2729 17.851 11.9186 18.9049 7.30862C19.3149 5.51718 19.7378 3.66532 20.2267 1.7178C20.4767 0.719875 21.4826 0.114673 22.4735 0.367428C23.4643 0.619176 24.0643 1.63221 23.8143 2.63014C23.3353 4.53939 22.9164 6.37312 22.5105 8.14543C21.4236 12.8964 20.3977 17.3846 18.468 22.2866L18.452 22.3269C17.7081 24.218 16.7072 26.1988 14.9274 26.5462C14.7874 26.5734 14.6144 26.5955 14.4175 26.5955L14.4185 26.5945Z" fill="white"/>
<path d="M51.6996 28.5V62.1H44.4996V28.5H51.6996ZM72.0055 34.644C78.9175 34.644 82.2295 38.868 82.2295 44.004V62.1H75.5095V46.164C75.5095 42.468 73.6855 40.884 70.9495 40.884C66.9655 40.884 64.8055 44.148 64.8055 48.516V62.1H58.0855V35.22H63.5575L63.9895 38.772H64.1335C65.8135 36.132 68.6935 34.644 72.0055 34.644ZM96.835 34.644C102.403 34.644 106.339 37.86 107.731 39.54L104.995 45.108H104.659C102.307 42.228 99.427 40.644 96.979 40.644C94.531 40.644 93.427 41.844 93.427 42.996C93.427 44.244 93.811 44.82 98.611 45.972C105.331 47.508 108.739 49.428 108.739 54.612C108.739 59.604 104.083 62.676 98.179 62.676C92.371 62.676 88.243 60.228 86.227 57.924L88.963 52.26H89.299C91.459 54.42 94.435 56.436 97.699 56.436C100.723 56.436 102.019 55.62 102.019 54.228C102.019 52.98 101.299 52.404 96.163 51.252C89.779 49.764 86.947 47.268 86.947 42.852C86.947 38.484 90.547 34.644 96.835 34.644ZM119.937 35.22V62.1H113.217V35.22H119.937ZM116.577 23.22C119.313 23.22 120.897 24.9 120.897 27.54C120.897 30.084 119.313 31.86 116.577 31.86C113.697 31.86 112.161 30.084 112.161 27.54C112.161 24.9 113.697 23.22 116.577 23.22ZM135.91 34.644C139.75 34.644 142.486 36.708 143.494 38.772H143.638L144.07 35.22H149.302V59.556C149.302 69.108 142.246 71.556 136.774 71.556C132.214 71.556 128.518 69.732 126.454 67.572L128.758 61.764H129.094C131.206 63.732 133.414 65.316 136.534 65.316C140.038 65.316 142.342 63.78 142.342 59.604V56.676H142.15C140.998 58.404 138.694 59.844 135.238 59.844C128.854 59.844 124.39 54.852 124.39 47.748C124.39 39.972 129.622 34.644 135.91 34.644ZM137.014 40.884C132.934 40.884 131.158 44.388 131.158 47.556C131.158 50.676 132.886 53.604 137.11 53.604C140.71 53.604 142.822 51.492 142.822 47.652C142.822 44.004 140.854 40.884 137.014 40.884ZM87.1214 82.484V94.916H87.2174C89.0894 92.084 91.9694 90.644 95.4254 90.644C101.233 90.644 104.305 94.916 104.305 100.052V118.1H97.5854V102.836C97.5854 100.148 96.8654 96.884 93.1214 96.884C88.5134 96.884 87.1214 101.876 87.1214 104.564V118.1H80.4014V82.484H87.1214ZM118.82 84.5V91.22H126.404V97.46H118.964V109.604C118.964 111.14 119.492 111.668 120.692 111.668C121.844 111.668 123.092 111.092 124.196 110.276H124.532L126.164 116.9C124.964 117.668 122.372 118.676 119.492 118.676C115.412 118.676 112.244 116.564 112.244 111.284V97.46H107.828V93.572C111.332 92.084 113.588 88.58 114.74 84.5H118.82ZM138.842 90.644C144.41 90.644 148.346 93.86 149.738 95.54L147.002 101.108H146.666C144.314 98.228 141.434 96.644 138.986 96.644C136.538 96.644 135.434 97.844 135.434 98.996C135.434 100.244 135.818 100.82 140.618 101.972C147.338 103.508 150.746 105.428 150.746 110.612C150.746 115.604 146.09 118.676 140.186 118.676C134.378 118.676 130.25 116.228 128.234 113.924L130.97 108.26H131.306C133.466 110.42 136.442 112.436 139.706 112.436C142.73 112.436 144.026 111.62 144.026 110.228C144.026 108.98 143.306 108.404 138.17 107.252C131.786 105.764 128.954 103.268 128.954 98.852C128.954 94.484 132.554 90.644 138.842 90.644Z" fill="white"/>
</svg>
