<svg width="215" height="75" viewBox="0 0 215 75" fill="none" xmlns="http://www.w3.org/2000/svg">
<path d="M48.9335 26.9912L61.2147 11.6101L61.2132 11.3044V7.01562H42.8822V12.0254H54.2541L42.2899 26.9912H42.2841V28.5429L42.2812 28.553L42.2841 28.5559V32.0486H61.3184V26.9912H48.9335Z" fill="#EAEBE0"/>
<path d="M39.957 14.8828H34.6537C34.5828 14.8828 34.5254 14.9403 34.5254 15.0112V31.9209C34.5254 31.9918 34.5828 32.0493 34.6537 32.0493H39.957C40.0278 32.0493 40.0852 31.9918 40.0852 31.9209V15.0112C40.0852 14.9403 40.0278 14.8828 39.957 14.8828Z" fill="#EAEBE0"/>
<path d="M37.3622 12.7873C39.1825 12.7873 40.6581 11.3772 40.6581 9.63777C40.6581 7.89836 39.1825 6.48828 37.3622 6.48828C35.542 6.48828 34.0664 7.89836 34.0664 9.63777C34.0664 11.3772 35.542 12.7873 37.3622 12.7873Z" fill="#EAEBE0"/>
<path d="M85.3045 32.0334H79.236C79.2403 24.9557 76.8769 23.006 73.4816 23.006H69.4508V32.0334H63.6719V6.99609H74.5365C80.435 6.99609 83.9009 10.1095 83.9009 14.8294C83.9009 17.5405 83.3014 20.4088 80.5849 21.6259C83.5867 23.0925 85.0884 26.3112 85.3031 32.0348L85.3045 32.0334ZM74.1863 18.2991C76.2946 18.2991 77.7271 17.2738 77.7271 15.0198C77.7271 12.7658 76.2644 11.5502 74.1546 11.5502H69.3239V18.2976H74.1863V18.2991Z" fill="#EAEBE0"/>
<path d="M20.1683 37.8501C19.3427 37.8501 18.2228 37.5825 17.163 36.4604C15.4132 34.6076 14.9161 32.0095 14.5162 29.9208C14.4619 29.6359 14.409 29.3583 14.3547 29.095C14.2133 28.416 14.0876 27.7341 13.9762 27.0494C13.5163 27.9542 13.0663 28.8059 12.6307 29.5956C9.51249 35.2377 7.80556 36.5036 6.54858 36.9985C5.81438 37.2876 5.04734 37.3365 4.33885 37.1481C3.46896 36.9985 2.69906 36.5007 2.16912 35.734C1.82774 35.2377 1.59205 34.6435 1.44921 33.9156C1.27352 33.018 1.26067 32.0354 1.25067 31.168L1.24781 30.9536L0.959275 10.926C0.937849 9.45581 2.10485 8.24742 3.56323 8.22728C3.57609 8.22728 3.58895 8.22728 3.6018 8.22728C5.04305 8.22728 6.2229 9.39396 6.2429 10.8498L6.51001 29.5438C6.99709 28.7843 7.57845 27.8046 8.26122 26.5445C9.94244 23.4458 11.8551 19.3473 13.6463 15.0015C14.1376 13.8118 15.4046 13.1472 16.6545 13.4234C17.9043 13.6996 18.777 14.8389 18.7271 16.1264C18.7156 16.4343 18.6985 16.7594 18.6813 17.0859C18.6556 17.5865 18.6299 18.1044 18.6228 18.536C18.6071 19.5272 18.6256 20.5313 18.6799 21.521C18.797 23.6832 19.0813 25.8655 19.5255 28.006C19.5855 28.2952 19.6441 28.5987 19.7041 28.9123C19.8612 29.7294 20.0397 30.6631 20.2954 31.4442C20.4997 31.0342 20.7397 30.4962 21.0168 29.7913L21.0396 29.7323C23.6493 23.1049 25.072 16.8845 26.5775 10.2988C27.1631 7.73961 27.7674 5.0941 28.4658 2.31193C28.8229 0.88632 30.2599 0.0217461 31.6754 0.382824C33.091 0.742464 33.948 2.18965 33.5909 3.61527C32.9067 6.34277 32.3082 8.96239 31.7283 11.4943C30.1756 18.2814 28.7101 24.693 25.9533 31.6959L25.9304 31.7535C24.8677 34.4551 23.4379 37.2847 20.8954 37.781C20.6954 37.8199 20.4483 37.8515 20.1669 37.8515L20.1683 37.8501Z" fill="#EAEBE0"/>
<path d="M67.334 40.4L56.39 74H46.166L35.27 40.4H43.19L51.254 66.752H51.35L59.414 40.4H67.334ZM79.9546 46.544C87.5866 46.544 93.1066 52.688 93.1066 60.8C93.1066 68.624 87.9706 74.576 79.9066 74.576C71.9866 74.576 66.7546 68.72 66.7546 60.8C66.7546 52.64 72.3226 46.544 79.9546 46.544ZM79.9546 52.784C75.9706 52.784 73.4746 56.576 73.4746 60.848C73.4746 65.072 76.0186 68.336 79.8586 68.336C83.8906 68.336 86.3866 64.784 86.3866 60.704C86.3866 56.576 83.9386 52.784 79.9546 52.784ZM104.309 47.12V74H97.5886V47.12H104.309ZM100.949 35.12C103.685 35.12 105.269 36.8 105.269 39.44C105.269 41.984 103.685 43.76 100.949 43.76C98.0686 43.76 96.5326 41.984 96.5326 39.44C96.5326 36.8 98.0686 35.12 100.949 35.12ZM121.817 46.544C127.673 46.544 131.273 50.192 132.905 53.6L128.057 57.92H127.721C126.761 54.896 124.745 52.784 121.865 52.784C118.025 52.784 115.481 56.624 115.481 60.8C115.481 64.88 117.881 68.336 121.721 68.336C125.417 68.336 127.625 65.744 128.153 62.336H128.489L133.769 66.464C131.993 70.88 128.297 74.576 121.721 74.576C113.465 74.576 108.761 68.432 108.761 60.752C108.761 52.304 114.329 46.544 121.817 46.544ZM148.249 46.544C155.401 46.544 161.017 52.16 161.017 60.608C161.017 60.992 160.969 61.472 160.969 61.856V62.528H142.585C142.585 65.84 145.273 68.336 148.681 68.336C151.945 68.336 154.921 66.08 156.073 64.16H156.409L159.481 69.92C158.473 71.552 154.489 74.576 148.681 74.576C140.953 74.576 135.577 69.248 135.577 60.752C135.577 52.16 141.049 46.544 148.249 46.544ZM148.249 52.784C144.649 52.784 143.065 55.664 142.681 57.44H153.817C153.577 55.664 151.897 52.784 148.249 52.784ZM174.642 46.544C180.21 46.544 184.146 49.76 185.538 51.44L182.802 57.008H182.466C180.114 54.128 177.234 52.544 174.786 52.544C172.338 52.544 171.234 53.744 171.234 54.896C171.234 56.144 171.618 56.72 176.418 57.872C183.138 59.408 186.546 61.328 186.546 66.512C186.546 71.504 181.89 74.576 175.986 74.576C170.178 74.576 166.05 72.128 164.034 69.824L166.77 64.16H167.106C169.266 66.32 172.242 68.336 175.506 68.336C178.53 68.336 179.826 67.52 179.826 66.128C179.826 64.88 179.106 64.304 173.97 63.152C167.586 61.664 164.754 59.168 164.754 54.752C164.754 50.384 168.354 46.544 174.642 46.544Z" fill="#EAEBE0"/>
</svg>
