<svg width="162" height="119" viewBox="0 0 162 119" fill="none" xmlns="http://www.w3.org/2000/svg">
<path d="M34.553 18.9946L43.1499 8.22783L43.1489 8.01383V5.01172H30.3171V8.51855H38.2775L29.9025 18.9946H29.8985V20.0808L29.8965 20.0879L29.8985 20.0899V22.5348H43.2225V18.9946H34.553Z" fill="#292F1E"/>
<path d="M28.2709 10.5195H24.5585C24.5089 10.5195 24.4688 10.5598 24.4688 10.6094V22.4462C24.4688 22.4958 24.5089 22.536 24.5585 22.536H28.2709C28.3204 22.536 28.3606 22.4958 28.3606 22.4462V10.6094C28.3606 10.5598 28.3204 10.5195 28.2709 10.5195Z" fill="#292F1E"/>
<path d="M26.4536 9.04991C27.7277 9.04991 28.7607 8.06286 28.7607 6.84527C28.7607 5.62768 27.7277 4.64062 26.4536 4.64062C25.1794 4.64062 24.1465 5.62768 24.1465 6.84527C24.1465 8.06286 25.1794 9.04991 26.4536 9.04991Z" fill="#292F1E"/>
<path d="M60.014 22.5222H55.766C55.769 17.5678 54.1146 16.203 51.7379 16.203H48.9163V22.5222H44.8711V4.99609H52.4763C56.6053 4.99609 59.0314 7.1755 59.0314 10.4794C59.0314 12.3772 58.6117 14.385 56.7102 15.237C58.8115 16.2636 59.8626 18.5167 60.0129 22.5232L60.014 22.5222ZM52.2312 12.9082C53.707 12.9082 54.7098 12.1905 54.7098 10.6127C54.7098 9.03491 53.6859 8.18394 52.209 8.18394H48.8275V12.9072H52.2312V12.9082Z" fill="#292F1E"/>
<path d="M14.4192 26.5931C13.8413 26.5931 13.0573 26.4058 12.3154 25.6204C11.0906 24.3234 10.7426 22.5047 10.4627 21.0426C10.4247 20.8432 10.3877 20.6488 10.3497 20.4646C10.2507 19.9893 10.1627 19.5119 10.0847 19.0326C9.76276 19.666 9.4478 20.2622 9.14284 20.815C6.96011 24.7644 5.76526 25.6506 4.88537 25.997C4.37143 26.1994 3.8345 26.2336 3.33856 26.1017C2.72964 25.997 2.19071 25.6486 1.81975 25.1118C1.58078 24.7644 1.4158 24.3485 1.31582 23.839C1.19283 23.2106 1.18383 22.5229 1.17683 21.9156L1.17483 21.7656L0.97286 7.74626C0.957861 6.71712 1.77476 5.87124 2.79563 5.85715C2.80463 5.85715 2.81363 5.85715 2.82263 5.85715C3.8315 5.85715 4.6574 6.67382 4.6714 7.69289L4.85837 20.7787C5.19933 20.2471 5.60628 19.5613 6.08422 18.6792C7.26107 16.5101 8.59991 13.6412 9.85375 10.5991C10.1977 9.76629 11.0846 9.30106 11.9595 9.4944C12.8344 9.68774 13.4453 10.4853 13.4103 11.3865C13.4023 11.602 13.3903 11.8296 13.3783 12.0582C13.3603 12.4086 13.3423 12.7711 13.3373 13.0732C13.3263 13.7671 13.3393 14.4699 13.3773 15.1628C13.4593 16.6763 13.6583 18.2039 13.9692 19.7023C14.0112 19.9047 14.0522 20.1171 14.0942 20.3367C14.2042 20.9086 14.3292 21.5622 14.5082 22.109C14.6511 21.822 14.8191 21.4454 15.0131 20.9519L15.0291 20.9107C16.8559 16.2715 17.8518 11.9172 18.9056 7.30721C19.3156 5.51578 19.7385 3.66392 20.2275 1.7164C20.4774 0.718471 21.4833 0.113269 22.4742 0.366024C23.465 0.617772 24.065 1.63081 23.815 2.62873C23.3361 4.53799 22.9171 6.37172 22.5112 8.14402C21.4243 12.895 20.3984 17.3832 18.4687 22.2852L18.4527 22.3255C17.7088 24.2166 16.7079 26.1974 14.9281 26.5448C14.7881 26.572 14.6152 26.5941 14.4182 26.5941L14.4192 26.5931Z" fill="#292F1E"/>
<path d="M46.1684 28.5016V55.3816H58.7444V62.1016H38.9684V28.5016H46.1684ZM72.5519 34.6456C79.7039 34.6456 85.3199 40.2616 85.3199 48.7096C85.3199 49.0936 85.2719 49.5736 85.2719 49.9576V50.6296H66.8879C66.8879 53.9416 69.5759 56.4376 72.9839 56.4376C76.2479 56.4376 79.2239 54.1816 80.3759 52.2616H80.7119L83.7839 58.0216C82.7759 59.6536 78.7919 62.6776 72.9839 62.6776C65.2559 62.6776 59.8799 57.3496 59.8799 48.8536C59.8799 40.2616 65.3519 34.6456 72.5519 34.6456ZM72.5519 40.8856C68.9519 40.8856 67.3679 43.7656 66.9839 45.5416H78.1199C77.8799 43.7656 76.1999 40.8856 72.5519 40.8856ZM99.8564 34.6456C105.856 34.6456 110.656 38.1016 110.656 45.0136V62.1016H105.424L104.752 58.5496H104.608C103.12 61.1896 100.432 62.6776 96.7364 62.6776C91.1684 62.6776 88.5764 59.7496 88.5764 55.1896C88.5764 51.0136 90.7364 48.0856 96.7364 46.6936C103.024 45.3976 104.08 44.7736 104.08 43.3816C104.08 41.8456 102.832 40.5976 99.8084 40.5976C96.7844 40.5976 94.1444 42.7096 92.4644 45.3976H92.1284L88.9124 39.8776C91.1684 36.8536 94.9124 34.6456 99.8564 34.6456ZM104.128 49.4296H104.032C103.6 50.3416 101.728 50.9176 98.8004 51.6376C95.8724 52.3576 95.0564 53.2696 95.0564 54.5656C95.0564 55.8616 95.9684 56.6776 97.9364 56.6776C101.248 56.6776 104.128 54.7576 104.128 52.3096V49.4296ZM128.029 34.6456C129.997 34.6456 131.725 35.4616 132.637 36.7576L131.581 43.1416H131.245C130.525 42.2296 129.133 41.3656 127.453 41.3656C124.045 41.3656 122.797 44.2456 122.797 48.4216V62.1016H116.077V35.2216H121.549L121.981 38.7736H122.125C123.229 36.4696 125.005 34.6456 128.029 34.6456ZM150.062 34.6456C156.974 34.6456 160.286 38.8696 160.286 44.0056V62.1016H153.566V46.1656C153.566 42.4696 151.742 40.8856 149.006 40.8856C145.022 40.8856 142.862 44.1496 142.862 48.5176V62.1016H136.142V35.2216H141.614L142.046 38.7736H142.19C143.87 36.1336 146.75 34.6456 150.062 34.6456ZM102.883 90.6456C110.035 90.6456 115.651 96.2616 115.651 104.71C115.651 105.094 115.603 105.574 115.603 105.958V106.63H97.2194C97.2194 109.942 99.9074 112.438 103.315 112.438C106.579 112.438 109.555 110.182 110.707 108.262H111.043L114.115 114.022C113.107 115.654 109.123 118.678 103.315 118.678C95.5874 118.678 90.2114 113.35 90.2114 104.854C90.2114 96.2616 95.6834 90.6456 102.883 90.6456ZM102.883 96.8856C99.2834 96.8856 97.6994 99.7656 97.3154 101.542H108.451C108.211 99.7656 106.531 96.8856 102.883 96.8856ZM132.06 90.6456C134.028 90.6456 135.756 91.4616 136.668 92.7576L135.612 99.1416H135.276C134.556 98.2296 133.164 97.3656 131.484 97.3656C128.076 97.3656 126.828 100.246 126.828 104.422V118.102H120.108V91.2216H125.58L126.012 94.7736H126.156C127.26 92.4696 129.036 90.6456 132.06 90.6456ZM149.342 90.6456C154.91 90.6456 158.846 93.8616 160.238 95.5416L157.502 101.11H157.166C154.814 98.2296 151.934 96.6456 149.486 96.6456C147.038 96.6456 145.934 97.8456 145.934 98.9976C145.934 100.246 146.318 100.822 151.118 101.974C157.838 103.51 161.246 105.43 161.246 110.614C161.246 115.606 156.59 118.678 150.686 118.678C144.878 118.678 140.75 116.23 138.734 113.926L141.47 108.262H141.806C143.966 110.422 146.942 112.438 150.206 112.438C153.23 112.438 154.526 111.622 154.526 110.23C154.526 108.982 153.806 108.406 148.67 107.254C142.286 105.766 139.454 103.27 139.454 98.8536C139.454 94.4856 143.054 90.6456 149.342 90.6456Z" fill="#292F1E"/>
</svg>
