<svg width="86" height="38" viewBox="0 0 86 38" fill="none" xmlns="http://www.w3.org/2000/svg">
<path d="M48.933 26.9927L61.2142 11.6115L61.2128 11.3058V7.01709H42.8817V12.0269H54.2536L42.2894 26.9927H42.2836V28.5444L42.2808 28.5545L42.2836 28.5574V32.0501H61.318V26.9927H48.933Z" fill="#161C20"/>
<path d="M39.9579 14.8833H34.6546C34.5838 14.8833 34.5264 14.9408 34.5264 15.0116V31.9214C34.5264 31.9923 34.5838 32.0498 34.6546 32.0498H39.9579C40.0288 32.0498 40.0862 31.9923 40.0862 31.9214V15.0116C40.0862 14.9408 40.0288 14.8833 39.9579 14.8833Z" fill="#161C20"/>
<path d="M37.3622 12.7868C39.1825 12.7868 40.6581 11.3767 40.6581 9.63728C40.6581 7.89787 39.1825 6.48779 37.3622 6.48779C35.542 6.48779 34.0664 7.89787 34.0664 9.63728C34.0664 11.3767 35.542 12.7868 37.3622 12.7868Z" fill="#161C20"/>
<path d="M85.3055 32.0344H79.237C79.2413 24.9567 76.8778 23.007 73.4826 23.007H69.4517V32.0344H63.6729V6.99707H74.5375C80.436 6.99707 83.9019 10.1105 83.9019 14.8304C83.9019 17.5415 83.3023 20.4098 80.5858 21.6269C83.5877 23.0935 85.0893 26.3122 85.3041 32.0358L85.3055 32.0344ZM74.1873 18.3001C76.2956 18.3001 77.7281 17.2747 77.7281 15.0208C77.7281 12.7668 76.2654 11.5511 74.1556 11.5511H69.3249V18.2986H74.1873V18.3001Z" fill="#161C20"/>
<path d="M20.1693 37.8491C19.3437 37.8491 18.2238 37.5815 17.1639 36.4595C15.4142 34.6066 14.9171 32.0086 14.5171 29.9198C14.4628 29.6349 14.41 29.3573 14.3557 29.094C14.2143 28.415 14.0886 27.7332 13.9772 27.0484C13.5173 27.9533 13.0673 28.8049 12.6316 29.5947C9.51347 35.2367 7.80654 36.5026 6.54955 36.9975C5.81536 37.2866 5.04831 37.3355 4.33983 37.1471C3.46994 36.9975 2.70003 36.4997 2.1701 35.733C1.82871 35.2367 1.59303 34.6426 1.45019 33.9147C1.2745 33.017 1.26164 32.0345 1.25164 31.167L1.24879 30.9527L0.960251 10.925C0.938825 9.45484 2.10582 8.24645 3.56421 8.22631C3.57707 8.22631 3.58992 8.22631 3.60278 8.22631C5.04403 8.22631 6.22388 9.39298 6.24388 10.8488L6.51099 29.5429C6.99807 28.7833 7.57942 27.8037 8.2622 26.5435C9.94341 23.4448 11.856 19.3464 13.6472 15.0005C14.1386 13.8108 15.4056 13.1462 16.6554 13.4224C17.9053 13.6986 18.778 14.8379 18.728 16.1254C18.7166 16.4333 18.6995 16.7584 18.6823 17.085C18.6566 17.5856 18.6309 18.1035 18.6238 18.535C18.608 19.5262 18.6266 20.5303 18.6809 21.52C18.798 23.6822 19.0823 25.8645 19.5265 28.0051C19.5865 28.2942 19.6451 28.5977 19.7051 28.9113C19.8622 29.7284 20.0407 30.6621 20.2964 31.4432C20.5007 31.0332 20.7406 30.4952 21.0177 29.7903L21.0406 29.7313C23.6503 23.1039 25.073 16.8836 26.5785 10.2978C27.1641 7.73864 27.7683 5.09313 28.4668 2.31096C28.8239 0.885343 30.2609 0.0207695 31.6764 0.381848C33.0919 0.741487 33.949 2.18868 33.5919 3.61429C32.9077 6.3418 32.3092 8.96141 31.7293 11.4933C30.1766 18.2804 28.7111 24.6921 25.9543 31.695L25.9314 31.7525C24.8687 34.4541 23.4389 37.2838 20.8963 37.7801C20.6964 37.8189 20.4492 37.8505 20.1679 37.8505L20.1693 37.8491Z" fill="#161C20"/>
</svg>
