<svg width="33" height="33" viewBox="0 0 33 33" fill="none" xmlns="http://www.w3.org/2000/svg">
<circle cx="16.4566" cy="16.4566" r="16.4566" fill="#161C20"/>
<path d="M16.244 9C16.778 9.003 18.114 9.016 19.534 9.073L20.038 9.095C21.467 9.162 22.895 9.278 23.604 9.475C24.549 9.741 25.291 10.515 25.542 11.497C25.942 13.057 25.992 16.099 25.998 16.836L25.999 16.988V17.162C25.992 17.899 25.942 20.942 25.542 22.501C25.288 23.486 24.545 24.261 23.604 24.523C22.895 24.72 21.467 24.836 20.038 24.903L19.534 24.926C18.114 24.982 16.778 24.996 16.244 24.998L16.009 24.999H15.754C14.624 24.992 9.898 24.941 8.394 24.523C7.45 24.257 6.707 23.483 6.456 22.501C6.056 20.941 6.006 17.899 6 17.162V16.836C6.006 16.099 6.056 13.056 6.456 11.497C6.71 10.512 7.453 9.737 8.395 9.476C9.898 9.057 14.625 9.006 15.755 9H16.244ZM13.999 13.5V20.5L19.999 17L13.999 13.5Z" fill="#D9FA50"/>
</svg>
